<svg width="203" height="124" viewBox="0 0 203 124" fill="none" xmlns="http://www.w3.org/2000/svg">
<mask id="path-1-outside-1_1059_11819" maskUnits="userSpaceOnUse" x="-1" y="-1" width="205" height="126" fill="black">
<rect fill="white" x="-1" y="-1" width="205" height="126"/>
<path d="M94.54 121H120.04L74.14 0.469991H46.94L0.7 121H25.52L35.55 93.46H84.51L94.54 121ZM60.03 26.48L76.69 72.04H43.37L60.03 26.48ZM127.825 98.22C127.825 111.31 138.705 123.38 156.555 123.38C168.965 123.38 176.955 117.6 181.205 110.97C181.205 114.2 181.545 118.79 182.055 121H202.795C202.285 118.11 201.775 112.16 201.775 107.74V66.6C201.775 49.77 191.915 34.81 165.395 34.81C142.955 34.81 130.885 49.26 129.525 62.35L149.585 66.6C150.265 59.29 155.705 53 165.565 53C175.085 53 179.675 57.93 179.675 63.88C179.675 66.77 178.145 69.15 173.385 69.83L152.815 72.89C138.875 74.93 127.825 83.26 127.825 98.22ZM161.315 106.55C154.005 106.55 150.435 101.79 150.435 96.86C150.435 90.4 155.025 87.17 160.805 86.32L179.675 83.43V87.17C179.675 101.96 170.835 106.55 161.315 106.55Z"/>
</mask>
<path d="M94.54 121L93.6004 121.342L93.84 122H94.54V121ZM120.04 121V122H121.491L120.975 120.644L120.04 121ZM74.14 0.46999L75.0745 0.114105L74.8292 -0.53001H74.14V0.46999ZM46.94 0.46999V-0.53001H46.2526L46.0064 0.111805L46.94 0.46999ZM0.7 121L-0.233651 120.642L-0.754703 122H0.7V121ZM25.52 121V122H26.2201L26.4596 121.342L25.52 121ZM35.55 93.46V92.46H34.8499L34.6104 93.1178L35.55 93.46ZM84.51 93.46L85.4496 93.1178L85.2101 92.46H84.51V93.46ZM60.03 26.48L60.9692 26.1366L60.03 23.5682L59.0908 26.1366L60.03 26.48ZM76.69 72.04V73.04H78.1204L77.6292 71.6966L76.69 72.04ZM43.37 72.04L42.4308 71.6966L41.9396 73.04H43.37V72.04ZM94.54 122H120.04V120H94.54V122ZM120.975 120.644L75.0745 0.114105L73.2055 0.825878L119.105 121.356L120.975 120.644ZM74.14 -0.53001H46.94V1.46999H74.14V-0.53001ZM46.0064 0.111805L-0.233651 120.642L1.63365 121.358L47.8737 0.828175L46.0064 0.111805ZM0.7 122H25.52V120H0.7V122ZM26.4596 121.342L36.4896 93.8022L34.6104 93.1178L24.5804 120.658L26.4596 121.342ZM35.55 94.46H84.51V92.46H35.55V94.46ZM83.5704 93.8022L93.6004 121.342L95.4796 120.658L85.4496 93.1178L83.5704 93.8022ZM59.0908 26.8234L75.7508 72.3834L77.6292 71.6966L60.9692 26.1366L59.0908 26.8234ZM76.69 71.04H43.37V73.04H76.69V71.04ZM44.3092 72.3834L60.9692 26.8234L59.0908 26.1366L42.4308 71.6966L44.3092 72.3834ZM181.205 110.97H182.205V107.557L180.364 110.43L181.205 110.97ZM182.055 121L181.081 121.225L181.26 122H182.055V121ZM202.795 121V122H203.987L203.78 120.826L202.795 121ZM129.525 62.35L128.531 62.2467L128.438 63.1418L129.318 63.3283L129.525 62.35ZM149.585 66.6L149.378 67.5783L150.477 67.8111L150.581 66.6926L149.585 66.6ZM173.385 69.83L173.244 68.84L173.238 68.8409L173.385 69.83ZM152.815 72.89L152.96 73.8795L152.963 73.8791L152.815 72.89ZM160.805 86.32L160.951 87.3094L160.957 87.3085L160.805 86.32ZM179.675 83.43H180.675V82.2652L179.524 82.4415L179.675 83.43ZM126.825 98.22C126.825 111.92 138.212 124.38 156.555 124.38V122.38C139.198 122.38 128.825 110.7 128.825 98.22H126.825ZM156.555 124.38C169.318 124.38 177.62 118.416 182.047 111.51L180.364 110.43C176.291 116.784 168.613 122.38 156.555 122.38V124.38ZM180.205 110.97C180.205 114.226 180.546 118.905 181.081 121.225L183.03 120.775C182.545 118.675 182.205 114.174 182.205 110.97H180.205ZM182.055 122H202.795V120H182.055V122ZM203.78 120.826C203.282 118.003 202.775 112.113 202.775 107.74H200.775C200.775 112.207 201.289 118.217 201.811 121.174L203.78 120.826ZM202.775 107.74V66.6H200.775V107.74H202.775ZM202.775 66.6C202.775 57.996 200.253 49.7684 194.241 43.6905C188.224 37.607 178.843 33.81 165.395 33.81V35.81C178.468 35.81 187.277 39.493 192.82 45.097C198.368 50.7066 200.775 58.374 200.775 66.6H202.775ZM165.395 33.81C142.469 33.81 129.946 48.6218 128.531 62.2467L130.52 62.4533C131.825 49.8982 143.442 35.81 165.395 35.81V33.81ZM129.318 63.3283L149.378 67.5783L149.793 65.6217L129.733 61.3717L129.318 63.3283ZM150.581 66.6926C150.901 63.2555 152.335 60.0929 154.813 57.7915C157.285 55.4966 160.858 54 165.565 54V52C160.413 52 156.336 53.6484 153.453 56.326C150.576 58.9971 148.95 62.6345 148.59 66.5074L150.581 66.6926ZM165.565 54C170.16 54 173.435 55.1889 175.545 56.9724C177.641 58.7445 178.675 61.1767 178.675 63.88H180.675C180.675 60.6333 179.415 57.6255 176.836 55.4451C174.271 53.2761 170.491 52 165.565 52V54ZM178.675 63.88C178.675 65.1452 178.345 66.1915 177.586 66.9993C176.816 67.8197 175.488 68.5195 173.244 68.84L173.527 70.8199C176.043 70.4605 177.86 69.6303 179.045 68.3682C180.241 67.0935 180.675 65.5048 180.675 63.88H178.675ZM173.238 68.8409L152.668 71.9009L152.963 73.8791L173.533 70.8191L173.238 68.8409ZM152.671 71.9005C145.556 72.9417 139.101 75.5983 134.41 79.9792C129.699 84.3795 126.825 90.4684 126.825 98.22H128.825C128.825 91.0116 131.477 85.4555 135.776 81.4408C140.095 77.4067 146.135 74.8782 152.96 73.8795L152.671 71.9005ZM161.315 105.55C157.887 105.55 155.434 104.44 153.841 102.847C152.24 101.245 151.435 99.0855 151.435 96.86H149.435C149.435 99.5645 150.416 102.25 152.427 104.261C154.447 106.28 157.434 107.55 161.315 107.55V105.55ZM151.435 96.86C151.435 93.8928 152.478 91.7428 154.13 90.222C155.808 88.6774 158.191 87.7153 160.951 87.3094L160.66 85.3306C157.64 85.7747 154.838 86.8526 152.776 88.7505C150.688 90.6722 149.435 93.3672 149.435 96.86H151.435ZM160.957 87.3085L179.827 84.4185L179.524 82.4415L160.654 85.3315L160.957 87.3085ZM178.675 83.43V87.17H180.675V83.43H178.675ZM178.675 87.17C178.675 94.3597 176.534 98.8977 173.404 101.656C170.25 104.435 165.933 105.55 161.315 105.55V107.55C166.218 107.55 171.081 106.37 174.727 103.156C178.397 99.9223 180.675 94.7703 180.675 87.17H178.675Z" fill="white" mask="url(#path-1-outside-1_1059_11819)"/>
</svg>
