<svg width="48" height="48" viewBox="0 0 48 48" fill="none" xmlns="http://www.w3.org/2000/svg">
<g clip-path="url(#clip0_1035_11531)">
<path d="M6 6H42C42.5304 6 43.0391 6.21071 43.4142 6.58579C43.7893 6.96086 44 7.46957 44 8V40C44 40.5304 43.7893 41.0391 43.4142 41.4142C43.0391 41.7893 42.5304 42 42 42H6C5.46957 42 4.96086 41.7893 4.58579 41.4142C4.21071 41.0391 4 40.5304 4 40V8C4 7.46957 4.21071 6.96086 4.58579 6.58579C4.96086 6.21071 5.46957 6 6 6ZM8 10V38H40V10H8ZM40 24L32.928 31.072L30.1 28.242L34.344 24L30.1 19.758L32.928 16.928L40 24ZM13.656 24L17.9 28.242L15.072 31.072L8 24L15.072 16.928L17.9 19.76L13.656 24ZM22.488 34H18.232L25.512 14H29.768L22.488 34Z" fill="white"/>
</g>
<defs>
<clipPath id="clip0_1035_11531">
<rect width="48" height="48" fill="white"/>
</clipPath>
</defs>
</svg>
