<svg width="20" height="21" viewBox="0 0 20 21" fill="none" xmlns="http://www.w3.org/2000/svg">
<path fill-rule="evenodd" clip-rule="evenodd" d="M14.6271 2.38379L13.0678 3.94308L16.6033 7.47861L18.1626 5.91933C18.1724 5.8888 18.1831 5.85308 18.1941 5.81265C18.2399 5.64332 18.2875 5.39997 18.2914 5.11411C18.2991 4.55901 18.1458 3.82535 17.4334 3.11296C16.721 2.40056 15.9874 2.24731 15.4323 2.25497C15.1464 2.25891 14.9031 2.30646 14.7337 2.35233C14.6933 2.36328 14.6576 2.37401 14.6271 2.38379ZM18.8798 6.38065C19.6382 6.72605 19.6383 6.72565 19.6385 6.72524L19.6389 6.72439L19.6398 6.72254L19.6417 6.71823L19.6465 6.70727C19.6501 6.69892 19.6546 6.68849 19.6597 6.67606C19.67 6.65122 19.6832 6.61829 19.6981 6.57787C19.728 6.49715 19.7655 6.38574 19.8027 6.24843C19.8768 5.97517 19.9517 5.59101 19.9579 5.1371C19.9707 4.21269 19.6954 3.01788 18.6119 1.93444C17.5285 0.851009 16.3337 0.575711 15.4093 0.588461C14.9554 0.594722 14.5712 0.669617 14.298 0.743641C14.1606 0.780837 14.0492 0.818385 13.9685 0.848264C13.9281 0.863229 13.8952 0.876345 13.8703 0.886639C13.8579 0.891789 13.8475 0.896241 13.8391 0.899875L13.8282 0.904702L13.8238 0.906629L13.822 0.907467L13.8211 0.907854C13.8207 0.908038 13.8203 0.908219 14.1657 1.6666L13.8203 0.908219L13.6831 0.970719L1.37329 13.2805L0.569763 19.9766L7.26585 19.1731L19.5757 6.86328L19.6382 6.72605L18.8798 6.38065ZM15.4248 8.65712L11.8893 5.12159L2.95941 14.0514L2.47729 18.0691L6.49494 17.587L15.4248 8.65712Z" fill="white"/>
</svg>
