<svg width="282" height="56" viewBox="0 0 282 56" fill="none" xmlns="http://www.w3.org/2000/svg">
<g opacity="0.7">
<path d="M50.3643 35H48.334L53.6953 21.8164H55.7695L61.1221 35H59.0918L57.7734 31.6865H51.6826L50.3643 35ZM52.3418 29.9814H57.1143L54.7236 23.9609L52.3418 29.9814ZM64.3213 35H62.7305V21.8164H64.5322V27.3359C64.9307 26.9258 65.3965 26.6064 65.9297 26.3779C66.4688 26.1494 67.0547 26.0352 67.6875 26.0352C68.5371 26.0352 69.293 26.2344 69.9551 26.6328C70.6172 27.0312 71.1387 27.5762 71.5195 28.2676C71.9062 28.9531 72.0996 29.7324 72.0996 30.6055C72.0996 31.4727 71.9062 32.252 71.5195 32.9434C71.1387 33.6348 70.6172 34.1797 69.9551 34.5781C69.293 34.9766 68.5371 35.1758 67.6875 35.1758C67.0195 35.1758 66.4043 35.0498 65.8418 34.7979C65.2852 34.54 64.8076 34.1885 64.4092 33.7432L64.3213 35ZM67.3975 33.5586C67.9424 33.5586 68.4287 33.4297 68.8564 33.1719C69.29 32.9141 69.6299 32.5625 69.876 32.1172C70.1279 31.6719 70.2539 31.168 70.2539 30.6055C70.2539 30.043 70.1279 29.5391 69.876 29.0938C69.6299 28.6484 69.29 28.2969 68.8564 28.0391C68.4287 27.7812 67.9424 27.6523 67.3975 27.6523C66.876 27.6523 66.4043 27.7695 65.9824 28.0039C65.5664 28.2383 65.2295 28.5605 64.9717 28.9707C64.7139 29.3809 64.5674 29.8496 64.5322 30.377V30.8252C64.5674 31.3467 64.7109 31.8154 64.9629 32.2314C65.2207 32.6416 65.5576 32.9668 65.9736 33.207C66.3955 33.4414 66.8701 33.5586 67.3975 33.5586ZM77.9707 35.1758C77.0918 35.1758 76.3008 34.9766 75.5977 34.5781C74.8945 34.1797 74.3408 33.6377 73.9365 32.9521C73.5322 32.2607 73.3301 31.4785 73.3301 30.6055C73.3301 29.7383 73.5322 28.9619 73.9365 28.2764C74.3408 27.585 74.8945 27.04 75.5977 26.6416C76.3008 26.2373 77.0918 26.0352 77.9707 26.0352C78.8555 26.0352 79.6465 26.2373 80.3438 26.6416C81.041 27.04 81.5889 27.585 81.9873 28.2764C82.3916 28.9619 82.5938 29.7383 82.5938 30.6055C82.5938 31.4785 82.3916 32.2607 81.9873 32.9521C81.5889 33.6377 81.041 34.1797 80.3438 34.5781C79.6465 34.9766 78.8555 35.1758 77.9707 35.1758ZM77.9619 33.5586C78.4951 33.5586 78.9697 33.4297 79.3857 33.1719C79.8076 32.9082 80.1387 32.5566 80.3789 32.1172C80.625 31.6719 80.748 31.165 80.748 30.5967C80.748 30.04 80.625 29.542 80.3789 29.1025C80.1387 28.6572 79.8076 28.3057 79.3857 28.0479C78.9697 27.7842 78.4951 27.6523 77.9619 27.6523C77.4346 27.6523 76.96 27.7842 76.5381 28.0479C76.1162 28.3057 75.7822 28.6572 75.5361 29.1025C75.2959 29.542 75.1758 30.04 75.1758 30.5967C75.1758 31.165 75.2959 31.6719 75.5361 32.1172C75.7822 32.5566 76.1162 32.9082 76.5381 33.1719C76.96 33.4297 77.4346 33.5586 77.9619 33.5586ZM92.71 35H91.1807L91.1191 33.585C90.7969 34.1006 90.375 34.4961 89.8535 34.7715C89.3379 35.041 88.7256 35.1758 88.0166 35.1758C86.8682 35.1758 85.96 34.8271 85.292 34.1299C84.6299 33.4268 84.2988 32.4658 84.2988 31.2471V26.2109H86.1006V30.9834C86.1006 31.7627 86.3115 32.3838 86.7334 32.8467C87.1553 33.3096 87.7236 33.541 88.4385 33.541C89.1768 33.541 89.7715 33.2949 90.2227 32.8027C90.6797 32.3047 90.9082 31.6514 90.9082 30.8428V26.2109H92.71V35ZM100.699 34.7803C100.084 35.0439 99.4893 35.1758 98.915 35.1758C98.3408 35.1758 97.8369 35.0527 97.4033 34.8066C96.9756 34.5605 96.6387 34.2148 96.3926 33.7695C96.1523 33.3184 96.0322 32.7998 96.0322 32.2139V27.8193H94.4941V26.2109H96.1201V24.0137H97.834V26.2109H100.4V27.8193H97.834V31.8799C97.834 32.3955 97.9717 32.8057 98.2471 33.1104C98.5283 33.4092 98.8887 33.5586 99.3281 33.5586C99.6973 33.5586 100.063 33.4473 100.427 33.2246L100.699 34.7803ZM120.316 35H118.383V24.5498L114.349 32.7852H112.714L108.697 24.5938V35H106.764V21.8164H109.242L113.531 30.7021L117.82 21.8164H120.316V35ZM130.688 33.9541C129.598 34.7686 128.399 35.1758 127.093 35.1758C126.161 35.1758 125.326 34.9707 124.588 34.5605C123.85 34.1504 123.267 33.5908 122.839 32.8818C122.411 32.1729 122.197 31.373 122.197 30.4824C122.197 29.6328 122.394 28.874 122.786 28.2061C123.179 27.5322 123.715 27.002 124.395 26.6152C125.074 26.2285 125.845 26.0352 126.706 26.0352C127.597 26.0352 128.379 26.2461 129.053 26.668C129.732 27.0898 130.26 27.6787 130.635 28.4346C131.016 29.1846 131.206 30.0547 131.206 31.0449V31.3262H124.148C124.254 31.7832 124.453 32.1846 124.746 32.5303C125.039 32.8701 125.402 33.1367 125.836 33.3301C126.27 33.5176 126.759 33.6113 127.304 33.6113C128.276 33.6113 129.17 33.2949 129.984 32.6621L130.688 33.9541ZM124.069 30.0781H129.527C129.469 29.5859 129.316 29.1582 129.07 28.7949C128.824 28.4258 128.505 28.1387 128.112 27.9336C127.726 27.7227 127.289 27.6172 126.803 27.6172C126.311 27.6172 125.868 27.7227 125.476 27.9336C125.083 28.1387 124.764 28.4258 124.518 28.7949C124.277 29.1641 124.128 29.5918 124.069 30.0781Z" fill="white"/>
<path fill-rule="evenodd" clip-rule="evenodd" d="M26 19.5C24.3892 19.5 23.0834 20.8058 23.0834 22.4167C23.0834 24.0275 24.3892 25.3333 26 25.3333C27.6109 25.3333 28.9167 24.0275 28.9167 22.4167C28.9167 20.8058 27.6109 19.5 26 19.5ZM21.4167 22.4167C21.4167 19.8854 23.4687 17.8333 26 17.8333C28.5313 17.8333 30.5834 19.8854 30.5834 22.4167C30.5834 24.948 28.5313 27 26 27C23.4687 27 21.4167 24.948 21.4167 22.4167ZM26 30.75C23.8733 30.75 21.8521 31.5712 20.5907 32.2237C20.0313 32.513 19.6533 33.1028 19.5678 33.8232L19.4381 34.9167H32.562L32.4322 33.8232C32.3468 33.1028 31.9688 32.513 31.4093 32.2237C30.1479 31.5712 28.1267 30.75 26 30.75ZM19.825 30.7433C21.1842 30.0403 23.4852 29.0833 26 29.0833C28.5148 29.0833 30.8159 30.0403 32.175 30.7433C33.3074 31.329 33.9484 32.4557 34.0873 33.6268L34.3276 35.6518C34.3556 35.8883 34.2812 36.1254 34.123 36.3035C33.9649 36.4815 33.7381 36.5833 33.5 36.5833H18.5C18.2619 36.5833 18.0352 36.4815 17.877 36.3035C17.7189 36.1254 17.6444 35.8883 17.6725 35.6518L17.9127 33.6268C18.0517 32.4557 18.6926 31.329 19.825 30.7433Z" fill="white"/>
</g>
</svg>
