<svg width="48" height="48" viewBox="0 0 48 48" fill="none" xmlns="http://www.w3.org/2000/svg">
<g clip-path="url(#clip0_1035_11528)">
<path d="M33.192 2.08002L45.886 14.772C46.0168 14.9026 46.1088 15.0669 46.1519 15.2466C46.195 15.4264 46.1874 15.6145 46.13 15.7902C46.0727 15.9659 45.9677 16.1223 45.8268 16.2419C45.6859 16.3616 45.5147 16.4398 45.332 16.468L42.384 16.928L31.072 5.61602L31.496 2.64602C31.5224 2.46236 31.5993 2.28965 31.7182 2.14722C31.8371 2.00479 31.9933 1.89825 32.1693 1.83951C32.3453 1.78078 32.5341 1.77217 32.7148 1.81464C32.8954 1.85711 33.0606 1.949 33.192 2.08002ZM9.18999 40.3C16.634 33.638 25.18 31.644 34.476 29.26L35.368 21.224L26.774 12.63L18.738 13.522C16.354 22.818 14.36 31.362 7.69799 38.808L4.90799 36.02C10.564 29.42 12.688 22.114 15.514 9.85802L28.242 8.44402L39.556 19.758L38.142 32.486C25.886 35.314 18.578 37.436 11.98 43.092L9.18999 40.3ZM19.758 28.24C19.3759 27.871 19.0712 27.4297 18.8616 26.9416C18.6519 26.4536 18.5416 25.9287 18.537 25.3976C18.5324 24.8665 18.6336 24.3398 18.8347 23.8482C19.0358 23.3566 19.3328 22.91 19.7084 22.5344C20.084 22.1589 20.5306 21.8619 21.0222 21.6607C21.5138 21.4596 22.0405 21.3584 22.5716 21.363C23.1027 21.3676 23.6276 21.478 24.1156 21.6876C24.6036 21.8972 25.045 22.202 25.414 22.584C26.1326 23.3401 26.5274 24.3471 26.5142 25.3901C26.5011 26.4332 26.081 27.4298 25.3435 28.1675C24.606 28.9053 23.6095 29.3257 22.5665 29.3393C21.5234 29.3528 20.5164 28.9584 19.76 28.24H19.758Z" fill="white"/>
</g>
<defs>
<clipPath id="clip0_1035_11528">
<rect width="48" height="48" fill="white"/>
</clipPath>
</defs>
</svg>
