<svg width="48" height="48" viewBox="0 0 48 48" fill="none" xmlns="http://www.w3.org/2000/svg">
<g clip-path="url(#clip0_1035_11525)">
<path d="M19.9464 35.9999H22.0004V25.9999H26.0004V35.9999H28.0544C28.3184 33.5959 29.5444 31.6119 31.5344 29.4459C31.7604 29.2019 33.1984 27.7119 33.3684 27.4999C34.781 25.7352 35.6664 23.6074 35.9226 21.3615C36.1789 19.1156 35.7956 16.843 34.8169 14.8054C33.8382 12.7678 32.3039 11.0481 30.3906 9.8443C28.4774 8.64049 26.263 8.00156 24.0026 8.00108C21.7421 8.00059 19.5275 8.63858 17.6137 9.84157C15.7 11.0446 14.1649 12.7636 13.1853 14.8008C12.2058 16.838 11.8215 19.1104 12.0768 21.3564C12.3321 23.6024 13.2166 25.7306 14.6284 27.4959C14.8004 27.7099 16.2424 29.2019 16.4644 29.4439C18.4564 31.6119 19.6824 33.5959 19.9464 35.9999ZM20.0004 39.9999V41.9999H28.0004V39.9999H20.0004ZM11.5084 29.9999C9.62479 27.6465 8.4443 24.8089 8.10294 21.8139C7.76157 18.8189 8.27321 15.7884 9.57892 13.0714C10.8846 10.3545 12.9313 8.0617 15.4831 6.45712C18.035 4.85254 20.9882 4.00147 24.0026 4.00195C27.017 4.00244 29.9699 4.85445 32.5212 6.45984C35.0726 8.06524 37.1185 10.3587 38.4233 13.0761C39.7282 15.7934 40.2388 18.8241 39.8965 21.819C39.5542 24.8139 38.3728 27.6511 36.4884 30.0039C35.2484 31.5479 32.0004 33.9999 32.0004 36.9999V41.9999C32.0004 43.0608 31.579 44.0782 30.8288 44.8284C30.0787 45.5785 29.0613 45.9999 28.0004 45.9999H20.0004C18.9395 45.9999 17.9221 45.5785 17.172 44.8284C16.4218 44.0782 16.0004 43.0608 16.0004 41.9999V36.9999C16.0004 33.9999 12.7504 31.5479 11.5084 29.9999Z" fill="white"/>
</g>
<defs>
<clipPath id="clip0_1035_11525">
<rect width="48" height="48" fill="white"/>
</clipPath>
</defs>
</svg>
