<svg width="266" height="213" viewBox="0 0 266 213" fill="none" xmlns="http://www.w3.org/2000/svg">
<path opacity="0.8" d="M2.84375 18H1.125V6.28125H2.84375V11.4688H8.89062V6.28125H10.6094V18H8.89062V12.9766H2.84375V18ZM16.4062 18.1562C15.625 18.1562 14.9219 17.9792 14.2969 17.625C13.6719 17.2708 13.1797 16.7891 12.8203 16.1797C12.4609 15.5651 12.2812 14.8698 12.2812 14.0938C12.2812 13.3229 12.4609 12.6328 12.8203 12.0234C13.1797 11.4089 13.6719 10.9245 14.2969 10.5703C14.9219 10.2109 15.625 10.0312 16.4062 10.0312C17.1927 10.0312 17.8958 10.2109 18.5156 10.5703C19.1354 10.9245 19.6224 11.4089 19.9766 12.0234C20.3359 12.6328 20.5156 13.3229 20.5156 14.0938C20.5156 14.8698 20.3359 15.5651 19.9766 16.1797C19.6224 16.7891 19.1354 17.2708 18.5156 17.625C17.8958 17.9792 17.1927 18.1562 16.4062 18.1562ZM16.3984 16.7188C16.8724 16.7188 17.2943 16.6042 17.6641 16.375C18.0391 16.1406 18.3333 15.8281 18.5469 15.4375C18.7656 15.0417 18.875 14.5911 18.875 14.0859C18.875 13.5911 18.7656 13.1484 18.5469 12.7578C18.3333 12.362 18.0391 12.0495 17.6641 11.8203C17.2943 11.5859 16.8724 11.4688 16.3984 11.4688C15.9297 11.4688 15.5078 11.5859 15.1328 11.8203C14.7578 12.0495 14.4609 12.362 14.2422 12.7578C14.0286 13.1484 13.9219 13.5911 13.9219 14.0859C13.9219 14.5911 14.0286 15.0417 14.2422 15.4375C14.4609 15.8281 14.7578 16.1406 15.1328 16.375C15.5078 16.6042 15.9297 16.7188 16.3984 16.7188ZM30.7969 18H28.9531L27.3594 12.4141L25.7656 18H23.9219L21.4219 10.1875H23.1172L24.8281 16.1719L26.6328 10.1875H28.0859L29.8906 16.1797L31.6094 10.1875H33.3047L30.7969 18ZM42.1562 18.1562C41.375 18.1562 40.6719 17.9792 40.0469 17.625C39.4219 17.2708 38.9297 16.7891 38.5703 16.1797C38.2109 15.5651 38.0312 14.8698 38.0312 14.0938C38.0312 13.3229 38.2109 12.6328 38.5703 12.0234C38.9297 11.4089 39.4219 10.9245 40.0469 10.5703C40.6719 10.2109 41.375 10.0312 42.1562 10.0312C42.9427 10.0312 43.6458 10.2109 44.2656 10.5703C44.8854 10.9245 45.3724 11.4089 45.7266 12.0234C46.0859 12.6328 46.2656 13.3229 46.2656 14.0938C46.2656 14.8698 46.0859 15.5651 45.7266 16.1797C45.3724 16.7891 44.8854 17.2708 44.2656 17.625C43.6458 17.9792 42.9427 18.1562 42.1562 18.1562ZM42.1484 16.7188C42.6224 16.7188 43.0443 16.6042 43.4141 16.375C43.7891 16.1406 44.0833 15.8281 44.2969 15.4375C44.5156 15.0417 44.625 14.5911 44.625 14.0859C44.625 13.5911 44.5156 13.1484 44.2969 12.7578C44.0833 12.362 43.7891 12.0495 43.4141 11.8203C43.0443 11.5859 42.6224 11.4688 42.1484 11.4688C41.6797 11.4688 41.2578 11.5859 40.8828 11.8203C40.5078 12.0495 40.2109 12.362 39.9922 12.7578C39.7786 13.1484 39.6719 13.5911 39.6719 14.0859C39.6719 14.5911 39.7786 15.0417 39.9922 15.4375C40.2109 15.8281 40.5078 16.1406 40.8828 16.375C41.2578 16.6042 41.6797 16.7188 42.1484 16.7188ZM50.1406 18H48.5391V11.6172H47.1719V10.1875H48.5391V8.66406C48.5391 8.15365 48.651 7.70312 48.875 7.3125C49.1042 6.91667 49.4167 6.60677 49.8125 6.38281C50.2135 6.15885 50.6745 6.04688 51.1953 6.04688C51.5182 6.04688 51.8438 6.09115 52.1719 6.17969C52.5 6.26823 52.8229 6.40625 53.1406 6.59375L52.5312 7.85156C52.3594 7.72656 52.1797 7.63542 51.9922 7.57812C51.8099 7.51562 51.6276 7.48438 51.4453 7.48438C51.0651 7.48438 50.7526 7.61979 50.5078 7.89062C50.263 8.16146 50.1406 8.52344 50.1406 8.97656V10.1875H52.5312V11.6172H50.1406V18ZM59.2344 17.8047C58.6875 18.0391 58.1589 18.1562 57.6484 18.1562C57.138 18.1562 56.6901 18.0469 56.3047 17.8281C55.9245 17.6094 55.625 17.3021 55.4062 16.9062C55.1927 16.5052 55.0859 16.0443 55.0859 15.5234V11.6172H53.7188V10.1875H55.1641V8.23438H56.6875V10.1875H58.9688V11.6172H56.6875V15.2266C56.6875 15.6849 56.8099 16.0495 57.0547 16.3203C57.3047 16.5859 57.625 16.7188 58.0156 16.7188C58.3438 16.7188 58.6693 16.6198 58.9922 16.4219L59.2344 17.8047ZM67.7812 17.0703C66.8125 17.7943 65.7474 18.1562 64.5859 18.1562C63.7578 18.1562 63.0156 17.974 62.3594 17.6094C61.7031 17.2448 61.1849 16.7474 60.8047 16.1172C60.4245 15.487 60.2344 14.776 60.2344 13.9844C60.2344 13.2292 60.4089 12.5547 60.7578 11.9609C61.1068 11.362 61.5833 10.8906 62.1875 10.5469C62.7917 10.2031 63.4766 10.0312 64.2422 10.0312C65.0339 10.0312 65.7292 10.2188 66.3281 10.5938C66.9323 10.9688 67.401 11.4922 67.7344 12.1641C68.0729 12.8307 68.2422 13.6042 68.2422 14.4844V14.7344H61.9688C62.0625 15.1406 62.2396 15.4974 62.5 15.8047C62.7604 16.1068 63.0833 16.3438 63.4688 16.5156C63.8542 16.6823 64.2891 16.7656 64.7734 16.7656C65.638 16.7656 66.4323 16.4844 67.1562 15.9219L67.7812 17.0703ZM61.8984 13.625H66.75C66.6979 13.1875 66.5625 12.8073 66.3438 12.4844C66.125 12.1562 65.8411 11.901 65.4922 11.7188C65.1484 11.5312 64.7604 11.4375 64.3281 11.4375C63.8906 11.4375 63.4974 11.5312 63.1484 11.7188C62.7995 11.901 62.5156 12.1562 62.2969 12.4844C62.0833 12.8125 61.9505 13.1927 61.8984 13.625ZM77.3984 18H75.7969V13.7578C75.7969 13.0651 75.6068 12.513 75.2266 12.1016C74.8516 11.6901 74.3464 11.4844 73.7109 11.4844C73.0547 11.4844 72.526 11.7031 72.125 12.1406C71.724 12.5781 71.5234 13.1589 71.5234 13.8828V18H69.9219V10.1875H71.2734L71.3281 11.4453C71.6146 10.987 71.9896 10.638 72.4531 10.3984C72.9167 10.1536 73.4609 10.0312 74.0859 10.0312C75.112 10.0312 75.9193 10.3411 76.5078 10.9609C77.1016 11.5807 77.3984 12.4349 77.3984 13.5234V18ZM91.0781 18H89.6641L89.5781 16.8828C89.224 17.2786 88.7969 17.5911 88.2969 17.8203C87.8021 18.0443 87.2578 18.1562 86.6641 18.1562C85.9141 18.1562 85.2422 17.9792 84.6484 17.625C84.0547 17.2708 83.5859 16.7865 83.2422 16.1719C82.9036 15.5573 82.7344 14.8646 82.7344 14.0938C82.7344 13.3177 82.9036 12.625 83.2422 12.0156C83.5859 11.401 84.0547 10.9167 84.6484 10.5625C85.2422 10.2083 85.9141 10.0312 86.6641 10.0312C87.2266 10.0312 87.7474 10.1328 88.2266 10.3359C88.7109 10.5391 89.1276 10.8229 89.4766 11.1875V6.28125H91.0781V18ZM86.9297 16.7188C87.4036 16.7188 87.8307 16.6094 88.2109 16.3906C88.5964 16.1719 88.9036 15.875 89.1328 15.5C89.362 15.125 89.4766 14.6979 89.4766 14.2188V13.9531C89.4766 13.474 89.362 13.0469 89.1328 12.6719C88.9036 12.2969 88.5964 12.0026 88.2109 11.7891C87.8307 11.5755 87.4036 11.4688 86.9297 11.4688C86.4453 11.4688 86.0104 11.5833 85.625 11.8125C85.2396 12.0417 84.9349 12.3542 84.7109 12.75C84.487 13.1406 84.375 13.5859 84.375 14.0859C84.375 14.5859 84.487 15.0339 84.7109 15.4297C84.9349 15.8255 85.2396 16.1406 85.625 16.375C86.0104 16.6042 86.4453 16.7188 86.9297 16.7188ZM96.875 18.1562C96.0938 18.1562 95.3906 17.9792 94.7656 17.625C94.1406 17.2708 93.6484 16.7891 93.2891 16.1797C92.9297 15.5651 92.75 14.8698 92.75 14.0938C92.75 13.3229 92.9297 12.6328 93.2891 12.0234C93.6484 11.4089 94.1406 10.9245 94.7656 10.5703C95.3906 10.2109 96.0938 10.0312 96.875 10.0312C97.6615 10.0312 98.3646 10.2109 98.9844 10.5703C99.6042 10.9245 100.091 11.4089 100.445 12.0234C100.805 12.6328 100.984 13.3229 100.984 14.0938C100.984 14.8698 100.805 15.5651 100.445 16.1797C100.091 16.7891 99.6042 17.2708 98.9844 17.625C98.3646 17.9792 97.6615 18.1562 96.875 18.1562ZM96.8672 16.7188C97.3411 16.7188 97.763 16.6042 98.1328 16.375C98.5078 16.1406 98.8021 15.8281 99.0156 15.4375C99.2344 15.0417 99.3438 14.5911 99.3438 14.0859C99.3438 13.5911 99.2344 13.1484 99.0156 12.7578C98.8021 12.362 98.5078 12.0495 98.1328 11.8203C97.763 11.5859 97.3411 11.4688 96.8672 11.4688C96.3984 11.4688 95.9766 11.5859 95.6016 11.8203C95.2266 12.0495 94.9297 12.362 94.7109 12.7578C94.4974 13.1484 94.3906 13.5911 94.3906 14.0859C94.3906 14.5911 94.4974 15.0417 94.7109 15.4375C94.9297 15.8281 95.2266 16.1406 95.6016 16.375C95.9766 16.6042 96.3984 16.7188 96.8672 16.7188ZM109.633 21.9062H107.906L109.539 17.9531L105.734 10.1875H107.523L110.305 16.1172L112.758 10.1875H114.477L109.633 21.9062ZM119.281 18.1562C118.5 18.1562 117.797 17.9792 117.172 17.625C116.547 17.2708 116.055 16.7891 115.695 16.1797C115.336 15.5651 115.156 14.8698 115.156 14.0938C115.156 13.3229 115.336 12.6328 115.695 12.0234C116.055 11.4089 116.547 10.9245 117.172 10.5703C117.797 10.2109 118.5 10.0312 119.281 10.0312C120.068 10.0312 120.771 10.2109 121.391 10.5703C122.01 10.9245 122.497 11.4089 122.852 12.0234C123.211 12.6328 123.391 13.3229 123.391 14.0938C123.391 14.8698 123.211 15.5651 122.852 16.1797C122.497 16.7891 122.01 17.2708 121.391 17.625C120.771 17.9792 120.068 18.1562 119.281 18.1562ZM119.273 16.7188C119.747 16.7188 120.169 16.6042 120.539 16.375C120.914 16.1406 121.208 15.8281 121.422 15.4375C121.641 15.0417 121.75 14.5911 121.75 14.0859C121.75 13.5911 121.641 13.1484 121.422 12.7578C121.208 12.362 120.914 12.0495 120.539 11.8203C120.169 11.5859 119.747 11.4688 119.273 11.4688C118.805 11.4688 118.383 11.5859 118.008 11.8203C117.633 12.0495 117.336 12.362 117.117 12.7578C116.904 13.1484 116.797 13.5911 116.797 14.0859C116.797 14.5911 116.904 15.0417 117.117 15.4375C117.336 15.8281 117.633 16.1406 118.008 16.375C118.383 16.6042 118.805 16.7188 119.273 16.7188ZM132.383 18H131.023L130.969 16.7422C130.682 17.2005 130.307 17.5521 129.844 17.7969C129.385 18.0365 128.841 18.1562 128.211 18.1562C127.19 18.1562 126.383 17.8464 125.789 17.2266C125.201 16.6016 124.906 15.7474 124.906 14.6641V10.1875H126.508V14.4297C126.508 15.1224 126.695 15.6745 127.07 16.0859C127.445 16.4974 127.951 16.7031 128.586 16.7031C129.242 16.7031 129.771 16.4844 130.172 16.0469C130.578 15.6042 130.781 15.0234 130.781 14.3047V10.1875H132.383V18ZM145.773 18H144.414L144.359 16.7422C144.073 17.2005 143.698 17.5521 143.234 17.7969C142.776 18.0365 142.232 18.1562 141.602 18.1562C140.581 18.1562 139.773 17.8464 139.18 17.2266C138.591 16.6016 138.297 15.7474 138.297 14.6641V10.1875H139.898V14.4297C139.898 15.1224 140.086 15.6745 140.461 16.0859C140.836 16.4974 141.341 16.7031 141.977 16.7031C142.633 16.7031 143.161 16.4844 143.562 16.0469C143.969 15.6042 144.172 15.0234 144.172 14.3047V10.1875H145.773V18ZM147.484 17.3203L147.875 15.8828C148.052 16.0599 148.263 16.2161 148.508 16.3516C148.758 16.487 149.021 16.5938 149.297 16.6719C149.578 16.7448 149.854 16.7812 150.125 16.7812C150.552 16.7812 150.896 16.6901 151.156 16.5078C151.417 16.3255 151.547 16.0833 151.547 15.7812C151.547 15.5573 151.474 15.3724 151.328 15.2266C151.188 15.0755 150.997 14.9453 150.758 14.8359C150.523 14.7266 150.271 14.6198 150 14.5156C149.651 14.3854 149.302 14.2344 148.953 14.0625C148.609 13.8906 148.32 13.6615 148.086 13.375C147.852 13.0885 147.734 12.7109 147.734 12.2422C147.734 11.7943 147.849 11.4062 148.078 11.0781C148.307 10.7448 148.628 10.487 149.039 10.3047C149.451 10.1224 149.924 10.0312 150.461 10.0312C151.294 10.0312 152.12 10.2396 152.938 10.6562L152.469 12.0234C152.302 11.9036 152.104 11.7969 151.875 11.7031C151.646 11.6094 151.411 11.5365 151.172 11.4844C150.932 11.4271 150.711 11.3984 150.508 11.3984C150.169 11.3984 149.896 11.474 149.688 11.625C149.484 11.776 149.383 11.9792 149.383 12.2344C149.383 12.3906 149.432 12.5339 149.531 12.6641C149.63 12.7891 149.786 12.9141 150 13.0391C150.219 13.1589 150.513 13.2943 150.883 13.4453C151.237 13.5859 151.591 13.7474 151.945 13.9297C152.299 14.112 152.594 14.349 152.828 14.6406C153.068 14.9323 153.188 15.3151 153.188 15.7891C153.188 16.2578 153.062 16.6719 152.812 17.0312C152.562 17.3854 152.214 17.6615 151.766 17.8594C151.323 18.0573 150.807 18.1562 150.219 18.1562C149.245 18.1562 148.333 17.8776 147.484 17.3203ZM161.859 17.0703C160.891 17.7943 159.826 18.1562 158.664 18.1562C157.836 18.1562 157.094 17.974 156.438 17.6094C155.781 17.2448 155.263 16.7474 154.883 16.1172C154.503 15.487 154.312 14.776 154.312 13.9844C154.312 13.2292 154.487 12.5547 154.836 11.9609C155.185 11.362 155.661 10.8906 156.266 10.5469C156.87 10.2031 157.555 10.0312 158.32 10.0312C159.112 10.0312 159.807 10.2188 160.406 10.5938C161.01 10.9688 161.479 11.4922 161.812 12.1641C162.151 12.8307 162.32 13.6042 162.32 14.4844V14.7344H156.047C156.141 15.1406 156.318 15.4974 156.578 15.8047C156.839 16.1068 157.161 16.3438 157.547 16.5156C157.932 16.6823 158.367 16.7656 158.852 16.7656C159.716 16.7656 160.51 16.4844 161.234 15.9219L161.859 17.0703ZM155.977 13.625H160.828C160.776 13.1875 160.641 12.8073 160.422 12.4844C160.203 12.1562 159.919 11.901 159.57 11.7188C159.227 11.5312 158.839 11.4375 158.406 11.4375C157.969 11.4375 157.576 11.5312 157.227 11.7188C156.878 11.901 156.594 12.1562 156.375 12.4844C156.161 12.8125 156.029 13.1927 155.977 13.625ZM172.656 17.8047C172.109 18.0391 171.581 18.1562 171.07 18.1562C170.56 18.1562 170.112 18.0469 169.727 17.8281C169.346 17.6094 169.047 17.3021 168.828 16.9062C168.615 16.5052 168.508 16.0443 168.508 15.5234V11.6172H167.141V10.1875H168.586V8.23438H170.109V10.1875H172.391V11.6172H170.109V15.2266C170.109 15.6849 170.232 16.0495 170.477 16.3203C170.727 16.5859 171.047 16.7188 171.438 16.7188C171.766 16.7188 172.091 16.6198 172.414 16.4219L172.656 17.8047ZM174.234 18V6.28125H175.836V11.2734C176.414 10.4453 177.292 10.0312 178.469 10.0312C179.484 10.0312 180.279 10.3385 180.852 10.9531C181.424 11.5677 181.711 12.4245 181.711 13.5234V18H180.109V13.9141C180.109 13.138 179.922 12.5365 179.547 12.1094C179.177 11.6823 178.659 11.4688 177.992 11.4688C177.32 11.4688 176.792 11.6875 176.406 12.125C176.026 12.5573 175.836 13.1536 175.836 13.9141V18H174.234ZM190.781 17.0703C189.812 17.7943 188.747 18.1562 187.586 18.1562C186.758 18.1562 186.016 17.974 185.359 17.6094C184.703 17.2448 184.185 16.7474 183.805 16.1172C183.424 15.487 183.234 14.776 183.234 13.9844C183.234 13.2292 183.409 12.5547 183.758 11.9609C184.107 11.362 184.583 10.8906 185.188 10.5469C185.792 10.2031 186.477 10.0312 187.242 10.0312C188.034 10.0312 188.729 10.2188 189.328 10.5938C189.932 10.9688 190.401 11.4922 190.734 12.1641C191.073 12.8307 191.242 13.6042 191.242 14.4844V14.7344H184.969C185.062 15.1406 185.24 15.4974 185.5 15.8047C185.76 16.1068 186.083 16.3438 186.469 16.5156C186.854 16.6823 187.289 16.7656 187.773 16.7656C188.638 16.7656 189.432 16.4844 190.156 15.9219L190.781 17.0703ZM184.898 13.625H189.75C189.698 13.1875 189.562 12.8073 189.344 12.4844C189.125 12.1562 188.841 11.901 188.492 11.7188C188.148 11.5312 187.76 11.4375 187.328 11.4375C186.891 11.4375 186.497 11.5312 186.148 11.7188C185.799 11.901 185.516 12.1562 185.297 12.4844C185.083 12.8125 184.951 13.1927 184.898 13.625ZM7.75781 40.8359C7.3776 41.2578 6.92188 41.5833 6.39062 41.8125C5.85938 42.0417 5.28385 42.1562 4.66406 42.1562C3.88281 42.1562 3.17969 41.9792 2.55469 41.625C1.9349 41.2708 1.44531 40.7865 1.08594 40.1719C0.726562 39.5573 0.546875 38.8646 0.546875 38.0938C0.546875 37.3177 0.726562 36.625 1.08594 36.0156C1.44531 35.401 1.9349 34.9167 2.55469 34.5625C3.17969 34.2083 3.88281 34.0312 4.66406 34.0312C5.27865 34.0312 5.85156 34.1458 6.38281 34.375C6.91406 34.599 7.36979 34.9219 7.75 35.3438L6.80469 36.3359C6.54948 36.0651 6.24219 35.8568 5.88281 35.7109C5.52865 35.5599 5.15104 35.4844 4.75 35.4844C4.25521 35.4844 3.8151 35.5964 3.42969 35.8203C3.04427 36.0443 2.74219 36.3516 2.52344 36.7422C2.30469 37.1276 2.19531 37.5755 2.19531 38.0859C2.19531 38.5911 2.30469 39.0417 2.52344 39.4375C2.74219 39.8333 3.04427 40.1432 3.42969 40.3672C3.8151 40.5911 4.25521 40.7031 4.75 40.7031C5.15104 40.7031 5.53125 40.6276 5.89062 40.4766C6.25 40.3255 6.55469 40.1172 6.80469 39.8516L7.75781 40.8359ZM12.9688 42.1562C12.1875 42.1562 11.4844 41.9792 10.8594 41.625C10.2344 41.2708 9.74219 40.7891 9.38281 40.1797C9.02344 39.5651 8.84375 38.8698 8.84375 38.0938C8.84375 37.3229 9.02344 36.6328 9.38281 36.0234C9.74219 35.4089 10.2344 34.9245 10.8594 34.5703C11.4844 34.2109 12.1875 34.0312 12.9688 34.0312C13.7552 34.0312 14.4583 34.2109 15.0781 34.5703C15.6979 34.9245 16.1849 35.4089 16.5391 36.0234C16.8984 36.6328 17.0781 37.3229 17.0781 38.0938C17.0781 38.8698 16.8984 39.5651 16.5391 40.1797C16.1849 40.7891 15.6979 41.2708 15.0781 41.625C14.4583 41.9792 13.7552 42.1562 12.9688 42.1562ZM12.9609 40.7188C13.4349 40.7188 13.8568 40.6042 14.2266 40.375C14.6016 40.1406 14.8958 39.8281 15.1094 39.4375C15.3281 39.0417 15.4375 38.5911 15.4375 38.0859C15.4375 37.5911 15.3281 37.1484 15.1094 36.7578C14.8958 36.362 14.6016 36.0495 14.2266 35.8203C13.8568 35.5859 13.4349 35.4688 12.9609 35.4688C12.4922 35.4688 12.0703 35.5859 11.6953 35.8203C11.3203 36.0495 11.0234 36.362 10.8047 36.7578C10.5911 37.1484 10.4844 37.5911 10.4844 38.0859C10.4844 38.5911 10.5911 39.0417 10.8047 39.4375C11.0234 39.8281 11.3203 40.1406 11.6953 40.375C12.0703 40.6042 12.4922 40.7188 12.9609 40.7188ZM26.0703 42H24.7109L24.6562 40.7422C24.3698 41.2005 23.9948 41.5521 23.5312 41.7969C23.0729 42.0365 22.5286 42.1562 21.8984 42.1562C20.8776 42.1562 20.0703 41.8464 19.4766 41.2266C18.888 40.6016 18.5938 39.7474 18.5938 38.6641V34.1875H20.1953V38.4297C20.1953 39.1224 20.3828 39.6745 20.7578 40.0859C21.1328 40.4974 21.638 40.7031 22.2734 40.7031C22.9297 40.7031 23.4583 40.4844 23.8594 40.0469C24.2656 39.6042 24.4688 39.0234 24.4688 38.3047V34.1875H26.0703V42ZM29.9297 42H28.3281V34.1875H29.7266L29.7891 35.6719C30.0599 35.1562 30.4323 34.7552 30.9062 34.4688C31.3854 34.1771 31.9349 34.0312 32.5547 34.0312C32.7057 34.0312 32.8568 34.0417 33.0078 34.0625C33.1641 34.0781 33.3203 34.1042 33.4766 34.1406L33.2734 35.5859C32.9714 35.5078 32.6745 35.4688 32.3828 35.4688C31.8984 35.4688 31.4714 35.5859 31.1016 35.8203C30.7318 36.0495 30.4427 36.3672 30.2344 36.7734C30.0312 37.1797 29.9297 37.6484 29.9297 38.1797V42ZM35.5312 31.9219C35.2865 31.9219 35.0807 31.8359 34.9141 31.6641C34.7474 31.4922 34.6641 31.2839 34.6641 31.0391C34.6641 30.7943 34.7474 30.5885 34.9141 30.4219C35.0807 30.25 35.2865 30.1641 35.5312 30.1641C35.7812 30.1641 35.9896 30.25 36.1562 30.4219C36.3281 30.5885 36.4141 30.7943 36.4141 31.0391C36.4141 31.2839 36.3281 31.4922 36.1562 31.6641C35.9896 31.8359 35.7812 31.9219 35.5312 31.9219ZM36.3281 42H34.7266V34.1875H36.3281V42ZM45.5781 41.0703C44.6094 41.7943 43.5443 42.1562 42.3828 42.1562C41.5547 42.1562 40.8125 41.974 40.1562 41.6094C39.5 41.2448 38.9818 40.7474 38.6016 40.1172C38.2214 39.487 38.0312 38.776 38.0312 37.9844C38.0312 37.2292 38.2057 36.5547 38.5547 35.9609C38.9036 35.362 39.3802 34.8906 39.9844 34.5469C40.5885 34.2031 41.2734 34.0312 42.0391 34.0312C42.8307 34.0312 43.526 34.2188 44.125 34.5938C44.7292 34.9688 45.1979 35.4922 45.5312 36.1641C45.8698 36.8307 46.0391 37.6042 46.0391 38.4844V38.7344H39.7656C39.8594 39.1406 40.0365 39.4974 40.2969 39.8047C40.5573 40.1068 40.8802 40.3438 41.2656 40.5156C41.651 40.6823 42.0859 40.7656 42.5703 40.7656C43.4349 40.7656 44.2292 40.4844 44.9531 39.9219L45.5781 41.0703ZM39.6953 37.625H44.5469C44.4948 37.1875 44.3594 36.8073 44.1406 36.4844C43.9219 36.1562 43.638 35.901 43.2891 35.7188C42.9453 35.5312 42.5573 35.4375 42.125 35.4375C41.6875 35.4375 41.2943 35.5312 40.9453 35.7188C40.5964 35.901 40.3125 36.1562 40.0938 36.4844C39.8802 36.8125 39.7474 37.1927 39.6953 37.625ZM49.3203 42H47.7188V34.1875H49.1172L49.1797 35.6719C49.4505 35.1562 49.8229 34.7552 50.2969 34.4688C50.776 34.1771 51.3255 34.0312 51.9453 34.0312C52.0964 34.0312 52.2474 34.0417 52.3984 34.0625C52.5547 34.0781 52.7109 34.1042 52.8672 34.1406L52.6641 35.5859C52.362 35.5078 52.0651 35.4688 51.7734 35.4688C51.2891 35.4688 50.862 35.5859 50.4922 35.8203C50.1224 36.0495 49.8333 36.3672 49.625 36.7734C49.4219 37.1797 49.3203 37.6484 49.3203 38.1797V42ZM57.3594 41.3203L57.75 39.8828C57.9271 40.0599 58.138 40.2161 58.3828 40.3516C58.6328 40.487 58.8958 40.5938 59.1719 40.6719C59.4531 40.7448 59.7292 40.7812 60 40.7812C60.4271 40.7812 60.7708 40.6901 61.0312 40.5078C61.2917 40.3255 61.4219 40.0833 61.4219 39.7812C61.4219 39.5573 61.349 39.3724 61.2031 39.2266C61.0625 39.0755 60.8724 38.9453 60.6328 38.8359C60.3984 38.7266 60.1458 38.6198 59.875 38.5156C59.526 38.3854 59.1771 38.2344 58.8281 38.0625C58.4844 37.8906 58.1953 37.6615 57.9609 37.375C57.7266 37.0885 57.6094 36.7109 57.6094 36.2422C57.6094 35.7943 57.724 35.4062 57.9531 35.0781C58.1823 34.7448 58.5026 34.487 58.9141 34.3047C59.3255 34.1224 59.7995 34.0312 60.3359 34.0312C61.1693 34.0312 61.9948 34.2396 62.8125 34.6562L62.3438 36.0234C62.1771 35.9036 61.9792 35.7969 61.75 35.7031C61.5208 35.6094 61.2865 35.5365 61.0469 35.4844C60.8073 35.4271 60.5859 35.3984 60.3828 35.3984C60.0443 35.3984 59.7708 35.474 59.5625 35.625C59.3594 35.776 59.2578 35.9792 59.2578 36.2344C59.2578 36.3906 59.3073 36.5339 59.4062 36.6641C59.5052 36.7891 59.6615 36.9141 59.875 37.0391C60.0938 37.1589 60.388 37.2943 60.7578 37.4453C61.112 37.5859 61.4661 37.7474 61.8203 37.9297C62.1745 38.112 62.4688 38.349 62.7031 38.6406C62.9427 38.9323 63.0625 39.3151 63.0625 39.7891C63.0625 40.2578 62.9375 40.6719 62.6875 41.0312C62.4375 41.3854 62.0885 41.6615 61.6406 41.8594C61.1979 42.0573 60.6823 42.1562 60.0938 42.1562C59.1198 42.1562 58.2083 41.8776 57.3594 41.3203ZM71.7344 41.0703C70.7656 41.7943 69.7005 42.1562 68.5391 42.1562C67.7109 42.1562 66.9688 41.974 66.3125 41.6094C65.6562 41.2448 65.138 40.7474 64.7578 40.1172C64.3776 39.487 64.1875 38.776 64.1875 37.9844C64.1875 37.2292 64.362 36.5547 64.7109 35.9609C65.0599 35.362 65.5365 34.8906 66.1406 34.5469C66.7448 34.2031 67.4297 34.0312 68.1953 34.0312C68.987 34.0312 69.6823 34.2188 70.2812 34.5938C70.8854 34.9688 71.3542 35.4922 71.6875 36.1641C72.026 36.8307 72.1953 37.6042 72.1953 38.4844V38.7344H65.9219C66.0156 39.1406 66.1927 39.4974 66.4531 39.8047C66.7135 40.1068 67.0365 40.3438 67.4219 40.5156C67.8073 40.6823 68.2422 40.7656 68.7266 40.7656C69.5911 40.7656 70.3854 40.4844 71.1094 39.9219L71.7344 41.0703ZM65.8516 37.625H70.7031C70.651 37.1875 70.5156 36.8073 70.2969 36.4844C70.0781 36.1562 69.7943 35.901 69.4453 35.7188C69.1016 35.5312 68.7135 35.4375 68.2812 35.4375C67.8438 35.4375 67.4505 35.5312 67.1016 35.7188C66.7526 35.901 66.4688 36.1562 66.25 36.4844C66.0365 36.8125 65.9036 37.1927 65.8516 37.625ZM75.4766 42H73.875V34.1875H75.2734L75.3359 35.6719C75.6068 35.1562 75.9792 34.7552 76.4531 34.4688C76.9323 34.1771 77.4818 34.0312 78.1016 34.0312C78.2526 34.0312 78.4036 34.0417 78.5547 34.0625C78.7109 34.0781 78.8672 34.1042 79.0234 34.1406L78.8203 35.5859C78.5182 35.5078 78.2214 35.4688 77.9297 35.4688C77.4453 35.4688 77.0182 35.5859 76.6484 35.8203C76.2786 36.0495 75.9896 36.3672 75.7812 36.7734C75.5781 37.1797 75.4766 37.6484 75.4766 38.1797V42ZM87.8359 34.1875L84.5859 42H83.0312L79.7812 34.1875H81.5L83.8203 40.3516L86.1406 34.1875H87.8359ZM90.2969 31.9219C90.0521 31.9219 89.8464 31.8359 89.6797 31.6641C89.513 31.4922 89.4297 31.2839 89.4297 31.0391C89.4297 30.7943 89.513 30.5885 89.6797 30.4219C89.8464 30.25 90.0521 30.1641 90.2969 30.1641C90.5469 30.1641 90.7552 30.25 90.9219 30.4219C91.0938 30.5885 91.1797 30.7943 91.1797 31.0391C91.1797 31.2839 91.0938 31.4922 90.9219 31.6641C90.7552 31.8359 90.5469 31.9219 90.2969 31.9219ZM91.0938 42H89.4922V34.1875H91.0938V42ZM100.008 40.8359C99.6276 41.2578 99.1719 41.5833 98.6406 41.8125C98.1094 42.0417 97.5339 42.1562 96.9141 42.1562C96.1328 42.1562 95.4297 41.9792 94.8047 41.625C94.1849 41.2708 93.6953 40.7865 93.3359 40.1719C92.9766 39.5573 92.7969 38.8646 92.7969 38.0938C92.7969 37.3177 92.9766 36.625 93.3359 36.0156C93.6953 35.401 94.1849 34.9167 94.8047 34.5625C95.4297 34.2083 96.1328 34.0312 96.9141 34.0312C97.5286 34.0312 98.1016 34.1458 98.6328 34.375C99.1641 34.599 99.6198 34.9219 100 35.3438L99.0547 36.3359C98.7995 36.0651 98.4922 35.8568 98.1328 35.7109C97.7786 35.5599 97.401 35.4844 97 35.4844C96.5052 35.4844 96.0651 35.5964 95.6797 35.8203C95.2943 36.0443 94.9922 36.3516 94.7734 36.7422C94.5547 37.1276 94.4453 37.5755 94.4453 38.0859C94.4453 38.5911 94.5547 39.0417 94.7734 39.4375C94.9922 39.8333 95.2943 40.1432 95.6797 40.3672C96.0651 40.5911 96.5052 40.7031 97 40.7031C97.401 40.7031 97.7812 40.6276 98.1406 40.4766C98.5 40.3255 98.8047 40.1172 99.0547 39.8516L100.008 40.8359ZM108.641 41.0703C107.672 41.7943 106.607 42.1562 105.445 42.1562C104.617 42.1562 103.875 41.974 103.219 41.6094C102.562 41.2448 102.044 40.7474 101.664 40.1172C101.284 39.487 101.094 38.776 101.094 37.9844C101.094 37.2292 101.268 36.5547 101.617 35.9609C101.966 35.362 102.443 34.8906 103.047 34.5469C103.651 34.2031 104.336 34.0312 105.102 34.0312C105.893 34.0312 106.589 34.2188 107.188 34.5938C107.792 34.9688 108.26 35.4922 108.594 36.1641C108.932 36.8307 109.102 37.6042 109.102 38.4844V38.7344H102.828C102.922 39.1406 103.099 39.4974 103.359 39.8047C103.62 40.1068 103.943 40.3438 104.328 40.5156C104.714 40.6823 105.148 40.7656 105.633 40.7656C106.497 40.7656 107.292 40.4844 108.016 39.9219L108.641 41.0703ZM102.758 37.625H107.609C107.557 37.1875 107.422 36.8073 107.203 36.4844C106.984 36.1562 106.701 35.901 106.352 35.7188C106.008 35.5312 105.62 35.4375 105.188 35.4375C104.75 35.4375 104.357 35.5312 104.008 35.7188C103.659 35.901 103.375 36.1562 103.156 36.4844C102.943 36.8125 102.81 37.1927 102.758 37.625ZM110.664 32.4141L109.922 31.1094C110.87 30.401 111.88 30.0469 112.953 30.0469C113.557 30.0469 114.081 30.1589 114.523 30.3828C114.971 30.6068 115.318 30.9245 115.562 31.3359C115.812 31.7422 115.938 32.224 115.938 32.7812C115.938 33.1354 115.883 33.4453 115.773 33.7109C115.664 33.9766 115.518 34.224 115.336 34.4531C115.159 34.6771 114.961 34.901 114.742 35.125C114.487 35.3958 114.234 35.6927 113.984 36.0156C113.74 36.3333 113.534 36.7188 113.367 37.1719C113.206 37.6198 113.125 38.1745 113.125 38.8359H111.727C111.727 38.0443 111.81 37.3906 111.977 36.875C112.148 36.3542 112.359 35.9219 112.609 35.5781C112.865 35.2292 113.112 34.9219 113.352 34.6562C113.596 34.3802 113.805 34.1146 113.977 33.8594C114.154 33.599 114.242 33.2839 114.242 32.9141C114.242 32.4714 114.104 32.1224 113.828 31.8672C113.557 31.612 113.185 31.4844 112.711 31.4844C112.346 31.4844 111.984 31.5651 111.625 31.7266C111.271 31.888 110.951 32.1172 110.664 32.4141ZM112.43 42.1562C112.174 42.1562 111.966 42.0755 111.805 41.9141C111.643 41.7526 111.562 41.5443 111.562 41.2891C111.562 41.0234 111.643 40.8099 111.805 40.6484C111.966 40.487 112.174 40.4062 112.43 40.4062C112.69 40.4062 112.898 40.487 113.055 40.6484C113.216 40.8099 113.297 41.0234 113.297 41.2891C113.297 41.5443 113.216 41.7526 113.055 41.9141C112.898 42.0755 112.69 42.1562 112.43 42.1562Z" fill="white"/>
<path d="M186.469 112H183.922L179.25 100.281H181.773L185.195 109.25L188.602 100.281H191.133L186.469 112ZM198.289 111.125C197.32 111.812 196.26 112.156 195.109 112.156C194.255 112.156 193.487 111.974 192.805 111.609C192.128 111.24 191.591 110.74 191.195 110.109C190.805 109.479 190.609 108.768 190.609 107.977C190.609 107.221 190.786 106.547 191.141 105.953C191.5 105.359 191.987 104.891 192.602 104.547C193.216 104.203 193.914 104.031 194.695 104.031C195.503 104.031 196.214 104.221 196.828 104.602C197.443 104.977 197.922 105.503 198.266 106.18C198.609 106.852 198.781 107.63 198.781 108.516V108.766H193.023C193.117 109.073 193.271 109.344 193.484 109.578C193.698 109.807 193.964 109.99 194.281 110.125C194.599 110.26 194.964 110.328 195.375 110.328C196.172 110.328 196.914 110.07 197.602 109.555L198.289 111.125ZM192.922 107.625H196.711C196.669 107.286 196.562 106.99 196.391 106.734C196.224 106.474 196.003 106.271 195.727 106.125C195.456 105.979 195.151 105.906 194.812 105.906C194.469 105.906 194.161 105.982 193.891 106.133C193.625 106.284 193.409 106.487 193.242 106.742C193.076 106.997 192.969 107.292 192.922 107.625ZM202.445 112H200.203V104.188H202.156L202.234 105.539C202.495 105.065 202.849 104.695 203.297 104.43C203.745 104.164 204.258 104.031 204.836 104.031C205.003 104.031 205.169 104.044 205.336 104.07C205.508 104.091 205.682 104.125 205.859 104.172L205.578 106.188C205.234 106.089 204.909 106.039 204.602 106.039C204.169 106.039 203.789 106.138 203.461 106.336C203.138 106.529 202.888 106.799 202.711 107.148C202.534 107.492 202.445 107.896 202.445 108.359V112ZM210.961 115.906H208.57L210.195 111.992L206.25 104.188H208.781L211.258 109.438L213.43 104.188H215.812L210.961 115.906ZM226.375 112.234C225.484 112.234 224.661 112.083 223.906 111.781C223.156 111.474 222.503 111.047 221.945 110.5C221.393 109.948 220.964 109.302 220.656 108.562C220.354 107.823 220.203 107.016 220.203 106.141C220.203 105.266 220.354 104.458 220.656 103.719C220.964 102.974 221.393 102.328 221.945 101.781C222.503 101.234 223.156 100.81 223.906 100.508C224.661 100.201 225.484 100.047 226.375 100.047C227.266 100.047 228.086 100.201 228.836 100.508C229.586 100.81 230.234 101.234 230.781 101.781C231.333 102.328 231.763 102.974 232.07 103.719C232.378 104.458 232.531 105.266 232.531 106.141C232.531 107.016 232.378 107.823 232.07 108.562C231.763 109.302 231.333 109.948 230.781 110.5C230.234 111.047 229.586 111.474 228.836 111.781C228.086 112.083 227.266 112.234 226.375 112.234ZM226.375 110.133C226.901 110.133 227.388 110.031 227.836 109.828C228.289 109.625 228.682 109.344 229.016 108.984C229.349 108.62 229.607 108.198 229.789 107.719C229.977 107.234 230.07 106.708 230.07 106.141C230.07 105.573 229.977 105.047 229.789 104.562C229.607 104.078 229.349 103.656 229.016 103.297C228.682 102.932 228.289 102.651 227.836 102.453C227.388 102.25 226.901 102.148 226.375 102.148C225.844 102.148 225.352 102.25 224.898 102.453C224.451 102.651 224.057 102.932 223.719 103.297C223.385 103.656 223.125 104.078 222.938 104.562C222.755 105.047 222.664 105.573 222.664 106.141C222.664 106.708 222.755 107.234 222.938 107.719C223.125 108.203 223.385 108.628 223.719 108.992C224.057 109.352 224.451 109.633 224.898 109.836C225.352 110.034 225.844 110.133 226.375 110.133ZM236.906 112H234.664V106.188H233.297V104.188H234.664V102.969C234.664 102.406 234.797 101.906 235.062 101.469C235.328 101.026 235.693 100.68 236.156 100.43C236.625 100.174 237.156 100.047 237.75 100.047C238.125 100.047 238.508 100.102 238.898 100.211C239.289 100.315 239.674 100.482 240.055 100.711L239.203 102.453C239.036 102.318 238.859 102.219 238.672 102.156C238.49 102.089 238.307 102.055 238.125 102.055C237.781 102.055 237.492 102.174 237.258 102.414C237.023 102.654 236.906 102.984 236.906 103.406V104.188H239.242V106.188H236.906V112ZM246.461 111.797C245.862 112.036 245.281 112.156 244.719 112.156C244.135 112.156 243.62 112.034 243.172 111.789C242.729 111.539 242.383 111.193 242.133 110.75C241.883 110.302 241.758 109.786 241.758 109.203V106.188H240.391V104.188H241.875V102.234H244V104.188H246.164V106.188H244V108.797C244 109.224 244.117 109.557 244.352 109.797C244.586 110.031 244.878 110.148 245.227 110.148C245.544 110.148 245.854 110.049 246.156 109.852L246.461 111.797ZM254.961 111.125C253.992 111.812 252.932 112.156 251.781 112.156C250.927 112.156 250.159 111.974 249.477 111.609C248.799 111.24 248.263 110.74 247.867 110.109C247.477 109.479 247.281 108.768 247.281 107.977C247.281 107.221 247.458 106.547 247.812 105.953C248.172 105.359 248.659 104.891 249.273 104.547C249.888 104.203 250.586 104.031 251.367 104.031C252.174 104.031 252.885 104.221 253.5 104.602C254.115 104.977 254.594 105.503 254.938 106.18C255.281 106.852 255.453 107.63 255.453 108.516V108.766H249.695C249.789 109.073 249.943 109.344 250.156 109.578C250.37 109.807 250.635 109.99 250.953 110.125C251.271 110.26 251.635 110.328 252.047 110.328C252.844 110.328 253.586 110.07 254.273 109.555L254.961 111.125ZM249.594 107.625H253.383C253.341 107.286 253.234 106.99 253.062 106.734C252.896 106.474 252.674 106.271 252.398 106.125C252.128 105.979 251.823 105.906 251.484 105.906C251.141 105.906 250.833 105.982 250.562 106.133C250.297 106.284 250.081 106.487 249.914 106.742C249.747 106.997 249.641 107.292 249.594 107.625ZM264.672 112H262.43V108C262.43 107.391 262.284 106.914 261.992 106.57C261.706 106.221 261.312 106.047 260.812 106.047C260.292 106.047 259.878 106.229 259.57 106.594C259.268 106.953 259.117 107.443 259.117 108.062V112H256.875V104.188H258.688L258.766 105.438C259.047 104.979 259.414 104.63 259.867 104.391C260.32 104.151 260.854 104.031 261.469 104.031C262.464 104.031 263.245 104.339 263.812 104.953C264.385 105.562 264.672 106.406 264.672 107.484V112Z" fill="white"/>
<path d="M190.602 153H187.836L182.359 145V153H179.953V141.281H182.719L188.195 149.297V141.281H190.602V153ZM196.227 153.156C195.424 153.156 194.706 152.982 194.07 152.633C193.435 152.279 192.935 151.797 192.57 151.188C192.211 150.573 192.031 149.875 192.031 149.094C192.031 148.318 192.211 147.625 192.57 147.016C192.935 146.401 193.435 145.917 194.07 145.562C194.706 145.208 195.424 145.031 196.227 145.031C197.029 145.031 197.742 145.208 198.367 145.562C198.997 145.917 199.492 146.401 199.852 147.016C200.216 147.625 200.398 148.318 200.398 149.094C200.398 149.875 200.216 150.573 199.852 151.188C199.492 151.797 198.997 152.279 198.367 152.633C197.742 152.982 197.029 153.156 196.227 153.156ZM196.219 151.148C196.578 151.148 196.898 151.06 197.18 150.883C197.466 150.701 197.69 150.456 197.852 150.148C198.018 149.836 198.102 149.479 198.102 149.078C198.102 148.693 198.018 148.346 197.852 148.039C197.69 147.732 197.466 147.49 197.18 147.312C196.898 147.13 196.578 147.039 196.219 147.039C195.854 147.039 195.529 147.13 195.242 147.312C194.961 147.49 194.737 147.732 194.57 148.039C194.409 148.346 194.328 148.693 194.328 149.078C194.328 149.479 194.409 149.836 194.57 150.148C194.737 150.456 194.961 150.701 195.242 150.883C195.529 151.06 195.854 151.148 196.219 151.148ZM207.211 152.797C206.612 153.036 206.031 153.156 205.469 153.156C204.885 153.156 204.37 153.034 203.922 152.789C203.479 152.539 203.133 152.193 202.883 151.75C202.633 151.302 202.508 150.786 202.508 150.203V147.188H201.141V145.188H202.625V143.234H204.75V145.188H206.914V147.188H204.75V149.797C204.75 150.224 204.867 150.557 205.102 150.797C205.336 151.031 205.628 151.148 205.977 151.148C206.294 151.148 206.604 151.049 206.906 150.852L207.211 152.797ZM217.906 153.234C217.016 153.234 216.193 153.083 215.438 152.781C214.688 152.474 214.034 152.047 213.477 151.5C212.924 150.948 212.495 150.302 212.188 149.562C211.885 148.823 211.734 148.016 211.734 147.141C211.734 146.266 211.885 145.458 212.188 144.719C212.495 143.974 212.924 143.328 213.477 142.781C214.034 142.234 214.688 141.81 215.438 141.508C216.193 141.201 217.016 141.047 217.906 141.047C218.797 141.047 219.617 141.201 220.367 141.508C221.117 141.81 221.766 142.234 222.312 142.781C222.865 143.328 223.294 143.974 223.602 144.719C223.909 145.458 224.062 146.266 224.062 147.141C224.062 148.016 223.909 148.823 223.602 149.562C223.294 150.302 222.865 150.948 222.312 151.5C221.766 152.047 221.117 152.474 220.367 152.781C219.617 153.083 218.797 153.234 217.906 153.234ZM217.906 151.133C218.432 151.133 218.919 151.031 219.367 150.828C219.82 150.625 220.214 150.344 220.547 149.984C220.88 149.62 221.138 149.198 221.32 148.719C221.508 148.234 221.602 147.708 221.602 147.141C221.602 146.573 221.508 146.047 221.32 145.562C221.138 145.078 220.88 144.656 220.547 144.297C220.214 143.932 219.82 143.651 219.367 143.453C218.919 143.25 218.432 143.148 217.906 143.148C217.375 143.148 216.883 143.25 216.43 143.453C215.982 143.651 215.589 143.932 215.25 144.297C214.917 144.656 214.656 145.078 214.469 145.562C214.286 146.047 214.195 146.573 214.195 147.141C214.195 147.708 214.286 148.234 214.469 148.719C214.656 149.203 214.917 149.628 215.25 149.992C215.589 150.352 215.982 150.633 216.43 150.836C216.883 151.034 217.375 151.133 217.906 151.133ZM228.438 153H226.195V147.188H224.828V145.188H226.195V143.969C226.195 143.406 226.328 142.906 226.594 142.469C226.859 142.026 227.224 141.68 227.688 141.43C228.156 141.174 228.688 141.047 229.281 141.047C229.656 141.047 230.039 141.102 230.43 141.211C230.82 141.315 231.206 141.482 231.586 141.711L230.734 143.453C230.568 143.318 230.391 143.219 230.203 143.156C230.021 143.089 229.839 143.055 229.656 143.055C229.312 143.055 229.023 143.174 228.789 143.414C228.555 143.654 228.438 143.984 228.438 144.406V145.188H230.773V147.188H228.438V153ZM237.992 152.797C237.393 153.036 236.812 153.156 236.25 153.156C235.667 153.156 235.151 153.034 234.703 152.789C234.26 152.539 233.914 152.193 233.664 151.75C233.414 151.302 233.289 150.786 233.289 150.203V147.188H231.922V145.188H233.406V143.234H235.531V145.188H237.695V147.188H235.531V149.797C235.531 150.224 235.648 150.557 235.883 150.797C236.117 151.031 236.409 151.148 236.758 151.148C237.076 151.148 237.385 151.049 237.688 150.852L237.992 152.797ZM246.492 152.125C245.523 152.812 244.464 153.156 243.312 153.156C242.458 153.156 241.69 152.974 241.008 152.609C240.331 152.24 239.794 151.74 239.398 151.109C239.008 150.479 238.812 149.768 238.812 148.977C238.812 148.221 238.99 147.547 239.344 146.953C239.703 146.359 240.19 145.891 240.805 145.547C241.419 145.203 242.117 145.031 242.898 145.031C243.706 145.031 244.417 145.221 245.031 145.602C245.646 145.977 246.125 146.503 246.469 147.18C246.812 147.852 246.984 148.63 246.984 149.516V149.766H241.227C241.32 150.073 241.474 150.344 241.688 150.578C241.901 150.807 242.167 150.99 242.484 151.125C242.802 151.26 243.167 151.328 243.578 151.328C244.375 151.328 245.117 151.07 245.805 150.555L246.492 152.125ZM241.125 148.625H244.914C244.872 148.286 244.766 147.99 244.594 147.734C244.427 147.474 244.206 147.271 243.93 147.125C243.659 146.979 243.354 146.906 243.016 146.906C242.672 146.906 242.365 146.982 242.094 147.133C241.828 147.284 241.612 147.487 241.445 147.742C241.279 147.997 241.172 148.292 241.125 148.625ZM256.203 153H253.961V149C253.961 148.391 253.815 147.914 253.523 147.57C253.237 147.221 252.844 147.047 252.344 147.047C251.823 147.047 251.409 147.229 251.102 147.594C250.799 147.953 250.648 148.443 250.648 149.062V153H248.406V145.188H250.219L250.297 146.438C250.578 145.979 250.945 145.63 251.398 145.391C251.852 145.151 252.385 145.031 253 145.031C253.995 145.031 254.776 145.339 255.344 145.953C255.917 146.562 256.203 147.406 256.203 148.484V153Z" fill="white"/>
<path d="M190.602 194H187.836L182.359 186V194H179.953V182.281H182.719L188.195 190.297V182.281H190.602V194ZM199.711 193.125C198.742 193.812 197.682 194.156 196.531 194.156C195.677 194.156 194.909 193.974 194.227 193.609C193.549 193.24 193.013 192.74 192.617 192.109C192.227 191.479 192.031 190.768 192.031 189.977C192.031 189.221 192.208 188.547 192.562 187.953C192.922 187.359 193.409 186.891 194.023 186.547C194.638 186.203 195.336 186.031 196.117 186.031C196.924 186.031 197.635 186.221 198.25 186.602C198.865 186.977 199.344 187.503 199.688 188.18C200.031 188.852 200.203 189.63 200.203 190.516V190.766H194.445C194.539 191.073 194.693 191.344 194.906 191.578C195.12 191.807 195.385 191.99 195.703 192.125C196.021 192.26 196.385 192.328 196.797 192.328C197.594 192.328 198.336 192.07 199.023 191.555L199.711 193.125ZM194.344 189.625H198.133C198.091 189.286 197.984 188.99 197.812 188.734C197.646 188.474 197.424 188.271 197.148 188.125C196.878 187.979 196.573 187.906 196.234 187.906C195.891 187.906 195.583 187.982 195.312 188.133C195.047 188.284 194.831 188.487 194.664 188.742C194.497 188.997 194.391 189.292 194.344 189.625ZM209.312 186.188L206.125 194H203.953L200.766 186.188H203.164L205.047 191.734L206.93 186.188H209.312ZM217.555 193.125C216.586 193.812 215.526 194.156 214.375 194.156C213.521 194.156 212.753 193.974 212.07 193.609C211.393 193.24 210.857 192.74 210.461 192.109C210.07 191.479 209.875 190.768 209.875 189.977C209.875 189.221 210.052 188.547 210.406 187.953C210.766 187.359 211.253 186.891 211.867 186.547C212.482 186.203 213.18 186.031 213.961 186.031C214.768 186.031 215.479 186.221 216.094 186.602C216.708 186.977 217.188 187.503 217.531 188.18C217.875 188.852 218.047 189.63 218.047 190.516V190.766H212.289C212.383 191.073 212.536 191.344 212.75 191.578C212.964 191.807 213.229 191.99 213.547 192.125C213.865 192.26 214.229 192.328 214.641 192.328C215.438 192.328 216.18 192.07 216.867 191.555L217.555 193.125ZM212.188 189.625H215.977C215.935 189.286 215.828 188.99 215.656 188.734C215.49 188.474 215.268 188.271 214.992 188.125C214.721 187.979 214.417 187.906 214.078 187.906C213.734 187.906 213.427 187.982 213.156 188.133C212.891 188.284 212.674 188.487 212.508 188.742C212.341 188.997 212.234 189.292 212.188 189.625ZM221.711 194H219.469V186.188H221.422L221.5 187.539C221.76 187.065 222.115 186.695 222.562 186.43C223.01 186.164 223.523 186.031 224.102 186.031C224.268 186.031 224.435 186.044 224.602 186.07C224.773 186.091 224.948 186.125 225.125 186.172L224.844 188.188C224.5 188.089 224.174 188.039 223.867 188.039C223.435 188.039 223.055 188.138 222.727 188.336C222.404 188.529 222.154 188.799 221.977 189.148C221.799 189.492 221.711 189.896 221.711 190.359V194Z" fill="white"/>
<rect x="152" y="140" width="15" height="15" rx="3" fill="#EB5E55"/>
<rect x="152" y="181" width="15" height="15" rx="3" fill="#FCAF58"/>
<rect x="152" y="99" width="15" height="15" rx="3" fill="#455A64"/>
<path fill-rule="evenodd" clip-rule="evenodd" d="M66 213C102.451 213 132 183.451 132 147C132 110.549 102.451 81 66 81C29.5492 81 0 110.549 0 147C0 183.451 29.5492 213 66 213ZM66 179.667C84.0413 179.667 98.6666 165.041 98.6666 147C98.6666 128.959 84.0413 114.333 66 114.333C47.9587 114.333 33.3333 128.959 33.3333 147C33.3333 165.041 47.9587 179.667 66 179.667Z" fill="#455A64"/>
<path fill-rule="evenodd" clip-rule="evenodd" d="M132 147L98.6666 147C98.6666 128.959 84.0413 114.333 66 114.333C47.9587 114.333 33.3333 128.959 33.3333 147L0 147C0 110.549 29.5492 81 66 81C102.451 81 132 110.549 132 147Z" fill="#EB5E55"/>
<path fill-rule="evenodd" clip-rule="evenodd" d="M45 84C18.8447 92.772 0 117.48 0 146.589L33.3333 146.589C33.3333 136.544 37.8671 127.558 45 121.566V84Z" fill="#FCAF58"/>
<path d="M12.4453 130H10.0391V120.641L8.07812 121.359L7.32812 119.445L10.5312 118.281H12.4453V130ZM18.2656 130.234C17.4271 130.234 16.6979 130.047 16.0781 129.672C15.4635 129.297 14.987 128.768 14.6484 128.086C14.3099 127.398 14.1406 126.591 14.1406 125.664C14.1406 124.914 14.2552 124.187 14.4844 123.484C14.7135 122.781 15.0469 122.115 15.4844 121.484C15.9219 120.849 16.4557 120.263 17.0859 119.727C17.7214 119.185 18.4427 118.703 19.25 118.281L20.3594 119.82C19.75 120.154 19.1927 120.534 18.6875 120.961C18.1823 121.388 17.7396 121.844 17.3594 122.328C16.9792 122.812 16.6745 123.31 16.4453 123.82C16.7422 123.508 17.0964 123.266 17.5078 123.094C17.9245 122.922 18.3854 122.836 18.8906 122.836C19.5729 122.836 20.1771 122.987 20.7031 123.289C21.2344 123.591 21.6484 124.005 21.9453 124.531C22.2474 125.057 22.3984 125.664 22.3984 126.352C22.3984 127.102 22.2187 127.771 21.8594 128.359C21.5052 128.943 21.0182 129.401 20.3984 129.734C19.7786 130.068 19.0677 130.234 18.2656 130.234ZM18.2734 128.133C18.5911 128.133 18.8724 128.049 19.1172 127.883C19.3672 127.711 19.5651 127.479 19.7109 127.187C19.862 126.896 19.9375 126.57 19.9375 126.211C19.9375 125.857 19.8646 125.544 19.7187 125.273C19.5781 125.003 19.3854 124.789 19.1406 124.633C18.8958 124.471 18.6146 124.391 18.2969 124.391C17.9792 124.391 17.6927 124.471 17.4375 124.633C17.1823 124.794 16.9818 125.016 16.8359 125.297C16.6901 125.573 16.6172 125.888 16.6172 126.242C16.6172 126.602 16.6901 126.924 16.8359 127.211C16.987 127.492 17.1875 127.716 17.4375 127.883C17.6875 128.049 17.9661 128.133 18.2734 128.133ZM26.0078 123.18C25.2161 123.18 24.5755 122.948 24.0859 122.484C23.6016 122.021 23.3594 121.411 23.3594 120.656C23.3594 119.896 23.6016 119.284 24.0859 118.82C24.5755 118.357 25.2161 118.125 26.0078 118.125C26.8047 118.125 27.4453 118.357 27.9297 118.82C28.4193 119.284 28.6641 119.896 28.6641 120.656C28.6641 121.411 28.4193 122.021 27.9297 122.484C27.4453 122.948 26.8047 123.18 26.0078 123.18ZM26.4844 129.992H24.6328L32.1875 118.273H34.0391L26.4844 129.992ZM26.0078 121.93C26.3359 121.93 26.6016 121.812 26.8047 121.578C27.0078 121.339 27.1094 121.029 27.1094 120.648C27.1094 120.263 27.0078 119.956 26.8047 119.727C26.6016 119.492 26.3359 119.375 26.0078 119.375C25.6797 119.375 25.4141 119.492 25.2109 119.727C25.013 119.956 24.9141 120.263 24.9141 120.648C24.9141 121.029 25.013 121.339 25.2109 121.578C25.4141 121.812 25.6797 121.93 26.0078 121.93ZM32.6016 130.164C31.8099 130.164 31.1693 129.932 30.6797 129.469C30.1953 129 29.9531 128.388 29.9531 127.633C29.9531 126.872 30.1953 126.26 30.6797 125.797C31.1693 125.333 31.8099 125.102 32.6016 125.102C33.3984 125.102 34.0391 125.333 34.5234 125.797C35.0078 126.26 35.25 126.872 35.25 127.633C35.25 128.388 35.0052 129 34.5156 129.469C34.0312 129.932 33.3932 130.164 32.6016 130.164ZM32.6016 128.906C32.9297 128.906 33.1927 128.789 33.3906 128.555C33.5937 128.32 33.6953 128.013 33.6953 127.633C33.6953 127.247 33.5937 126.937 33.3906 126.703C33.1927 126.469 32.9297 126.352 32.6016 126.352C32.2682 126.352 32.0026 126.469 31.8047 126.703C31.6068 126.937 31.5078 127.247 31.5078 127.633C31.5078 128.013 31.6068 128.32 31.8047 128.555C32.0026 128.789 32.2682 128.906 32.6016 128.906Z" fill="white"/>
<path d="M59.5469 199.789L60.7891 197.836C60.9922 198.227 61.2969 198.542 61.7031 198.781C62.1094 199.016 62.5495 199.133 63.0234 199.133C63.4349 199.133 63.7995 199.044 64.1172 198.867C64.4349 198.69 64.6823 198.445 64.8594 198.133C65.0417 197.815 65.1328 197.453 65.1328 197.047C65.1328 196.635 65.0417 196.273 64.8594 195.961C64.6823 195.648 64.4323 195.404 64.1094 195.227C63.7865 195.049 63.4193 194.961 63.0078 194.961C62.6953 194.961 62.401 195.016 62.125 195.125C61.849 195.234 61.6016 195.393 61.3828 195.602L60.2187 194.922L60.7344 189.281H66.8984V191.383H62.9375L62.6797 193.859C63.0286 193.76 63.3984 193.711 63.7891 193.711C64.5182 193.711 65.1693 193.867 65.7422 194.18C66.3151 194.492 66.7656 194.919 67.0937 195.461C67.4271 196.003 67.5937 196.625 67.5937 197.328C67.5937 198.078 67.4036 198.747 67.0234 199.336C66.6484 199.924 66.1328 200.388 65.4766 200.727C64.8255 201.065 64.0781 201.234 63.2344 201.234C62.5312 201.234 61.8568 201.109 61.2109 200.859C60.5703 200.604 60.0156 200.247 59.5469 199.789ZM72.8125 201.234C71.974 201.234 71.2448 201.047 70.625 200.672C70.0104 200.297 69.5339 199.768 69.1953 199.086C68.8568 198.398 68.6875 197.591 68.6875 196.664C68.6875 195.914 68.8021 195.187 69.0312 194.484C69.2604 193.781 69.5937 193.115 70.0312 192.484C70.4687 191.849 71.0026 191.263 71.6328 190.727C72.2682 190.185 72.9896 189.703 73.7969 189.281L74.9062 190.82C74.2969 191.154 73.7396 191.534 73.2344 191.961C72.7292 192.388 72.2865 192.844 71.9062 193.328C71.526 193.812 71.2214 194.31 70.9922 194.82C71.2891 194.508 71.6432 194.266 72.0547 194.094C72.4714 193.922 72.9323 193.836 73.4375 193.836C74.1198 193.836 74.724 193.987 75.25 194.289C75.7812 194.591 76.1953 195.005 76.4922 195.531C76.7943 196.057 76.9453 196.664 76.9453 197.352C76.9453 198.102 76.7656 198.771 76.4062 199.359C76.0521 199.943 75.5651 200.401 74.9453 200.734C74.3255 201.068 73.6146 201.234 72.8125 201.234ZM72.8203 199.133C73.138 199.133 73.4193 199.049 73.6641 198.883C73.9141 198.711 74.112 198.479 74.2578 198.187C74.4089 197.896 74.4844 197.57 74.4844 197.211C74.4844 196.857 74.4115 196.544 74.2656 196.273C74.125 196.003 73.9323 195.789 73.6875 195.633C73.4427 195.471 73.1615 195.391 72.8437 195.391C72.526 195.391 72.2396 195.471 71.9844 195.633C71.7292 195.794 71.5286 196.016 71.3828 196.297C71.237 196.573 71.1641 196.888 71.1641 197.242C71.1641 197.602 71.237 197.924 71.3828 198.211C71.5339 198.492 71.7344 198.716 71.9844 198.883C72.2344 199.049 72.513 199.133 72.8203 199.133ZM80.5547 194.18C79.763 194.18 79.1224 193.948 78.6328 193.484C78.1484 193.021 77.9062 192.411 77.9062 191.656C77.9062 190.896 78.1484 190.284 78.6328 189.82C79.1224 189.357 79.763 189.125 80.5547 189.125C81.3516 189.125 81.9922 189.357 82.4766 189.82C82.9661 190.284 83.2109 190.896 83.2109 191.656C83.2109 192.411 82.9661 193.021 82.4766 193.484C81.9922 193.948 81.3516 194.18 80.5547 194.18ZM81.0312 200.992H79.1797L86.7344 189.273H88.5859L81.0312 200.992ZM80.5547 192.93C80.8828 192.93 81.1484 192.812 81.3516 192.578C81.5547 192.339 81.6562 192.029 81.6562 191.648C81.6562 191.263 81.5547 190.956 81.3516 190.727C81.1484 190.492 80.8828 190.375 80.5547 190.375C80.2266 190.375 79.9609 190.492 79.7578 190.727C79.5599 190.956 79.4609 191.263 79.4609 191.648C79.4609 192.029 79.5599 192.339 79.7578 192.578C79.9609 192.812 80.2266 192.93 80.5547 192.93ZM87.1484 201.164C86.3568 201.164 85.7161 200.932 85.2266 200.469C84.7422 200 84.5 199.388 84.5 198.633C84.5 197.872 84.7422 197.26 85.2266 196.797C85.7161 196.333 86.3568 196.102 87.1484 196.102C87.9453 196.102 88.5859 196.333 89.0703 196.797C89.5547 197.26 89.7969 197.872 89.7969 198.633C89.7969 199.388 89.5521 200 89.0625 200.469C88.5781 200.932 87.9401 201.164 87.1484 201.164ZM87.1484 199.906C87.4766 199.906 87.7396 199.789 87.9375 199.555C88.1406 199.32 88.2422 199.013 88.2422 198.633C88.2422 198.247 88.1406 197.937 87.9375 197.703C87.7396 197.469 87.4766 197.352 87.1484 197.352C86.8151 197.352 86.5495 197.469 86.3516 197.703C86.1536 197.937 86.0547 198.247 86.0547 198.633C86.0547 199.013 86.1536 199.32 86.3516 199.555C86.5495 199.789 86.8151 199.906 87.1484 199.906Z" fill="white"/>
<path d="M98.6797 122H91.2109V120.586C92.1328 119.763 92.9062 119.036 93.5312 118.406C94.1615 117.776 94.6641 117.214 95.0391 116.719C95.4141 116.224 95.6849 115.771 95.8516 115.359C96.0182 114.943 96.1016 114.539 96.1016 114.148C96.1016 113.747 96.026 113.396 95.875 113.094C95.7292 112.792 95.5208 112.557 95.25 112.391C94.9844 112.224 94.6745 112.141 94.3203 112.141C93.9141 112.141 93.5208 112.258 93.1406 112.492C92.7604 112.721 92.4375 113.039 92.1719 113.445L90.9531 111.914C91.4115 111.32 91.9792 110.862 92.6562 110.539C93.3385 110.211 94.0469 110.047 94.7812 110.047C95.4792 110.047 96.1146 110.195 96.6875 110.492C97.2604 110.789 97.7161 111.211 98.0547 111.758C98.3932 112.305 98.5625 112.951 98.5625 113.695C98.5625 114.216 98.4714 114.742 98.2891 115.273C98.112 115.799 97.8516 116.323 97.5078 116.844C97.1693 117.365 96.7526 117.883 96.2578 118.398C95.7682 118.909 95.2083 119.409 94.5781 119.898H98.6797V122ZM104.187 122.234C103.37 122.234 102.656 122.096 102.047 121.82C101.437 121.544 100.964 121.156 100.625 120.656C100.292 120.151 100.125 119.562 100.125 118.891C100.125 118.146 100.333 117.505 100.75 116.969C101.172 116.427 101.745 116.036 102.469 115.797C101.865 115.568 101.391 115.219 101.047 114.75C100.708 114.276 100.539 113.716 100.539 113.07C100.539 112.456 100.687 111.924 100.984 111.477C101.286 111.023 101.711 110.672 102.258 110.422C102.805 110.172 103.448 110.047 104.187 110.047C104.922 110.047 105.562 110.172 106.109 110.422C106.656 110.672 107.078 111.023 107.375 111.477C107.677 111.924 107.828 112.456 107.828 113.07C107.828 113.716 107.656 114.276 107.312 114.75C106.969 115.219 106.497 115.568 105.898 115.797C106.628 116.036 107.201 116.424 107.617 116.961C108.039 117.497 108.25 118.141 108.25 118.891C108.25 119.557 108.081 120.143 107.742 120.648C107.404 121.148 106.93 121.539 106.32 121.82C105.711 122.096 105 122.234 104.187 122.234ZM104.187 114.781C104.573 114.781 104.885 114.648 105.125 114.383C105.365 114.112 105.484 113.76 105.484 113.328C105.484 112.896 105.365 112.544 105.125 112.273C104.885 112.003 104.573 111.867 104.187 111.867C103.802 111.867 103.487 112.003 103.242 112.273C103.003 112.544 102.883 112.896 102.883 113.328C102.883 113.76 103.003 114.112 103.242 114.383C103.487 114.648 103.802 114.781 104.187 114.781ZM104.187 120.32C104.516 120.32 104.805 120.247 105.055 120.102C105.305 119.951 105.5 119.74 105.641 119.469C105.781 119.198 105.852 118.888 105.852 118.539C105.852 118.18 105.781 117.867 105.641 117.602C105.5 117.331 105.305 117.122 105.055 116.977C104.805 116.826 104.516 116.75 104.187 116.75C103.854 116.75 103.562 116.826 103.312 116.977C103.068 117.122 102.875 117.331 102.734 117.602C102.594 117.867 102.523 118.18 102.523 118.539C102.523 118.888 102.594 119.198 102.734 119.469C102.875 119.74 103.068 119.951 103.312 120.102C103.562 120.247 103.854 120.32 104.187 120.32ZM111.867 115.18C111.076 115.18 110.435 114.948 109.945 114.484C109.461 114.021 109.219 113.411 109.219 112.656C109.219 111.896 109.461 111.284 109.945 110.82C110.435 110.357 111.076 110.125 111.867 110.125C112.664 110.125 113.305 110.357 113.789 110.82C114.279 111.284 114.523 111.896 114.523 112.656C114.523 113.411 114.279 114.021 113.789 114.484C113.305 114.948 112.664 115.18 111.867 115.18ZM112.344 121.992H110.492L118.047 110.273H119.898L112.344 121.992ZM111.867 113.93C112.195 113.93 112.461 113.812 112.664 113.578C112.867 113.339 112.969 113.029 112.969 112.648C112.969 112.263 112.867 111.956 112.664 111.727C112.461 111.492 112.195 111.375 111.867 111.375C111.539 111.375 111.273 111.492 111.07 111.727C110.872 111.956 110.773 112.263 110.773 112.648C110.773 113.029 110.872 113.339 111.07 113.578C111.273 113.812 111.539 113.93 111.867 113.93ZM118.461 122.164C117.669 122.164 117.029 121.932 116.539 121.469C116.055 121 115.812 120.388 115.812 119.633C115.812 118.872 116.055 118.26 116.539 117.797C117.029 117.333 117.669 117.102 118.461 117.102C119.258 117.102 119.898 117.333 120.383 117.797C120.867 118.26 121.109 118.872 121.109 119.633C121.109 120.388 120.865 121 120.375 121.469C119.891 121.932 119.253 122.164 118.461 122.164ZM118.461 120.906C118.789 120.906 119.052 120.789 119.25 120.555C119.453 120.32 119.555 120.013 119.555 119.633C119.555 119.247 119.453 118.937 119.25 118.703C119.052 118.469 118.789 118.352 118.461 118.352C118.128 118.352 117.862 118.469 117.664 118.703C117.466 118.937 117.367 119.247 117.367 119.633C117.367 120.013 117.466 120.32 117.664 120.555C117.862 120.789 118.128 120.906 118.461 120.906Z" fill="white"/>
</svg>
