<svg width="132" height="132" viewBox="0 0 132 132" fill="none" xmlns="http://www.w3.org/2000/svg">
<path fill-rule="evenodd" clip-rule="evenodd" d="M66 132C102.451 132 132 102.451 132 66C132 29.5492 102.451 0 66 0C29.5492 0 0 29.5492 0 66C0 102.451 29.5492 132 66 132ZM66 98.6666C84.0413 98.6666 98.6666 84.0413 98.6666 66C98.6666 47.9587 84.0413 33.3333 66 33.3333C47.9587 33.3333 33.3333 47.9587 33.3333 66C33.3333 84.0413 47.9587 98.6666 66 98.6666Z" fill="#455A64"/>
<path fill-rule="evenodd" clip-rule="evenodd" d="M65.6814 0C75.6104 0 85.0273 2.1925 93.4743 6.11978L67.6885 33.3939C67.0246 33.3537 66.3554 33.3333 65.6814 33.3333C58.2466 33.3333 51.392 35.817 45.9019 40H5C15.0922 16.4766 38.4627 0 65.6814 0Z" fill="#EB5E55"/>
<path d="M40.625 27.2344C39.8073 27.2344 39.0937 27.0964 38.4844 26.8203C37.875 26.5443 37.401 26.1562 37.0625 25.6562C36.7292 25.151 36.5625 24.5625 36.5625 23.8906C36.5625 23.1458 36.7708 22.5052 37.1875 21.9687C37.6094 21.4271 38.1823 21.0365 38.9062 20.7969C38.3021 20.5677 37.8281 20.2187 37.4844 19.75C37.1458 19.276 36.9766 18.7161 36.9766 18.0703C36.9766 17.4557 37.125 16.9245 37.4219 16.4766C37.724 16.0234 38.1484 15.6719 38.6953 15.4219C39.2422 15.1719 39.8854 15.0469 40.625 15.0469C41.3594 15.0469 42 15.1719 42.5469 15.4219C43.0937 15.6719 43.5156 16.0234 43.8125 16.4766C44.1146 16.9245 44.2656 17.4557 44.2656 18.0703C44.2656 18.7161 44.0937 19.276 43.75 19.75C43.4062 20.2187 42.9349 20.5677 42.3359 20.7969C43.0651 21.0365 43.638 21.4245 44.0547 21.9609C44.4766 22.4974 44.6875 23.1406 44.6875 23.8906C44.6875 24.5573 44.5182 25.1432 44.1797 25.6484C43.8411 26.1484 43.3672 26.5391 42.7578 26.8203C42.1484 27.0964 41.4375 27.2344 40.625 27.2344ZM40.625 19.7812C41.0104 19.7812 41.3229 19.6484 41.5625 19.3828C41.8021 19.112 41.9219 18.7604 41.9219 18.3281C41.9219 17.8958 41.8021 17.5443 41.5625 17.2734C41.3229 17.0026 41.0104 16.8672 40.625 16.8672C40.2396 16.8672 39.9245 17.0026 39.6797 17.2734C39.4401 17.5443 39.3203 17.8958 39.3203 18.3281C39.3203 18.7604 39.4401 19.112 39.6797 19.3828C39.9245 19.6484 40.2396 19.7812 40.625 19.7812ZM40.625 25.3203C40.9531 25.3203 41.2422 25.2474 41.4922 25.1016C41.7422 24.9505 41.9375 24.7396 42.0781 24.4687C42.2187 24.1979 42.2891 23.888 42.2891 23.5391C42.2891 23.1797 42.2187 22.8672 42.0781 22.6016C41.9375 22.3307 41.7422 22.1224 41.4922 21.9766C41.2422 21.8255 40.9531 21.75 40.625 21.75C40.2917 21.75 40 21.8255 39.75 21.9766C39.5052 22.1224 39.3125 22.3307 39.1719 22.6016C39.0312 22.8672 38.9609 23.1797 38.9609 23.5391C38.9609 23.888 39.0312 24.1979 39.1719 24.4687C39.3125 24.7396 39.5052 24.9505 39.75 25.1016C40 25.2474 40.2917 25.3203 40.625 25.3203ZM48.3047 20.1797C47.513 20.1797 46.8724 19.9479 46.3828 19.4844C45.8984 19.0208 45.6562 18.4115 45.6562 17.6562C45.6562 16.8958 45.8984 16.2839 46.3828 15.8203C46.8724 15.3568 47.513 15.125 48.3047 15.125C49.1016 15.125 49.7422 15.3568 50.2266 15.8203C50.7161 16.2839 50.9609 16.8958 50.9609 17.6562C50.9609 18.4115 50.7161 19.0208 50.2266 19.4844C49.7422 19.9479 49.1016 20.1797 48.3047 20.1797ZM48.7812 26.9922H46.9297L54.4844 15.2734H56.3359L48.7812 26.9922ZM48.3047 18.9297C48.6328 18.9297 48.8984 18.8125 49.1016 18.5781C49.3047 18.3385 49.4062 18.0286 49.4062 17.6484C49.4062 17.263 49.3047 16.9557 49.1016 16.7266C48.8984 16.4922 48.6328 16.375 48.3047 16.375C47.9766 16.375 47.7109 16.4922 47.5078 16.7266C47.3099 16.9557 47.2109 17.263 47.2109 17.6484C47.2109 18.0286 47.3099 18.3385 47.5078 18.5781C47.7109 18.8125 47.9766 18.9297 48.3047 18.9297ZM54.8984 27.1641C54.1068 27.1641 53.4661 26.9323 52.9766 26.4687C52.4922 26 52.25 25.388 52.25 24.6328C52.25 23.8724 52.4922 23.2604 52.9766 22.7969C53.4661 22.3333 54.1068 22.1016 54.8984 22.1016C55.6953 22.1016 56.3359 22.3333 56.8203 22.7969C57.3047 23.2604 57.5469 23.8724 57.5469 24.6328C57.5469 25.388 57.3021 26 56.8125 26.4687C56.3281 26.9323 55.6901 27.1641 54.8984 27.1641ZM54.8984 25.9062C55.2266 25.9062 55.4896 25.7891 55.6875 25.5547C55.8906 25.3203 55.9922 25.013 55.9922 24.6328C55.9922 24.2474 55.8906 23.9375 55.6875 23.7031C55.4896 23.4687 55.2266 23.3516 54.8984 23.3516C54.5651 23.3516 54.2995 23.4687 54.1016 23.7031C53.9036 23.9375 53.8047 24.2474 53.8047 24.6328C53.8047 25.013 53.9036 25.3203 54.1016 25.5547C54.2995 25.7891 54.5651 25.9062 54.8984 25.9062Z" fill="white"/>
<path d="M65.6875 118L64.5937 116.461C65.2031 116.128 65.7604 115.747 66.2656 115.32C66.7708 114.893 67.2109 114.437 67.5859 113.953C67.9661 113.469 68.2708 112.971 68.5 112.461C68.2083 112.773 67.8542 113.016 67.4375 113.187C67.0208 113.359 66.5599 113.445 66.0547 113.445C65.3672 113.445 64.7604 113.294 64.2344 112.992C63.7083 112.69 63.2943 112.276 62.9922 111.75C62.6953 111.224 62.5469 110.617 62.5469 109.93C62.5469 109.18 62.724 108.513 63.0781 107.93C63.4375 107.341 63.9297 106.88 64.5547 106.547C65.1797 106.214 65.888 106.047 66.6797 106.047C67.5234 106.047 68.2526 106.234 68.8672 106.609C69.4818 106.984 69.9583 107.516 70.2969 108.203C70.6354 108.885 70.8047 109.69 70.8047 110.617C70.8047 111.367 70.6901 112.094 70.4609 112.797C70.2318 113.5 69.8984 114.169 69.4609 114.805C69.0234 115.435 68.487 116.021 67.8516 116.562C67.2214 117.099 66.5 117.578 65.6875 118ZM66.6406 111.891C66.9687 111.891 67.2578 111.81 67.5078 111.648C67.7578 111.487 67.9557 111.266 68.1016 110.984C68.2474 110.703 68.3203 110.385 68.3203 110.031C68.3203 109.677 68.2474 109.359 68.1016 109.078C67.9609 108.792 67.7656 108.565 67.5156 108.398C67.2656 108.232 66.9844 108.148 66.6719 108.148C66.3594 108.148 66.0781 108.234 65.8281 108.406C65.5781 108.573 65.3802 108.802 65.2344 109.094C65.0885 109.38 65.0156 109.706 65.0156 110.07C65.0156 110.419 65.0859 110.732 65.2266 111.008C65.3672 111.279 65.5599 111.495 65.8047 111.656C66.0495 111.812 66.3281 111.891 66.6406 111.891ZM79.8047 118H72.3359V116.586C73.2578 115.763 74.0312 115.036 74.6562 114.406C75.2865 113.776 75.7891 113.214 76.1641 112.719C76.5391 112.224 76.8099 111.771 76.9766 111.359C77.1432 110.943 77.2266 110.539 77.2266 110.148C77.2266 109.747 77.151 109.396 77 109.094C76.8542 108.792 76.6458 108.557 76.375 108.391C76.1094 108.224 75.7995 108.141 75.4453 108.141C75.0391 108.141 74.6458 108.258 74.2656 108.492C73.8854 108.721 73.5625 109.039 73.2969 109.445L72.0781 107.914C72.5365 107.32 73.1042 106.862 73.7812 106.539C74.4635 106.211 75.1719 106.047 75.9062 106.047C76.6042 106.047 77.2396 106.195 77.8125 106.492C78.3854 106.789 78.8411 107.211 79.1797 107.758C79.5182 108.305 79.6875 108.951 79.6875 109.695C79.6875 110.216 79.5964 110.742 79.4141 111.273C79.237 111.799 78.9766 112.323 78.6328 112.844C78.2943 113.365 77.8776 113.883 77.3828 114.398C76.8932 114.909 76.3333 115.409 75.7031 115.898H79.8047V118ZM83.7422 111.18C82.9505 111.18 82.3099 110.948 81.8203 110.484C81.3359 110.021 81.0937 109.411 81.0937 108.656C81.0937 107.896 81.3359 107.284 81.8203 106.82C82.3099 106.357 82.9505 106.125 83.7422 106.125C84.5391 106.125 85.1797 106.357 85.6641 106.82C86.1536 107.284 86.3984 107.896 86.3984 108.656C86.3984 109.411 86.1536 110.021 85.6641 110.484C85.1797 110.948 84.5391 111.18 83.7422 111.18ZM84.2187 117.992H82.3672L89.9219 106.273H91.7734L84.2187 117.992ZM83.7422 109.93C84.0703 109.93 84.3359 109.812 84.5391 109.578C84.7422 109.339 84.8437 109.029 84.8437 108.648C84.8437 108.263 84.7422 107.956 84.5391 107.727C84.3359 107.492 84.0703 107.375 83.7422 107.375C83.4141 107.375 83.1484 107.492 82.9453 107.727C82.7474 107.956 82.6484 108.263 82.6484 108.648C82.6484 109.029 82.7474 109.339 82.9453 109.578C83.1484 109.812 83.4141 109.93 83.7422 109.93ZM90.3359 118.164C89.5443 118.164 88.9036 117.932 88.4141 117.469C87.9297 117 87.6875 116.388 87.6875 115.633C87.6875 114.872 87.9297 114.26 88.4141 113.797C88.9036 113.333 89.5443 113.102 90.3359 113.102C91.1328 113.102 91.7734 113.333 92.2578 113.797C92.7422 114.26 92.9844 114.872 92.9844 115.633C92.9844 116.388 92.7396 117 92.25 117.469C91.7656 117.932 91.1276 118.164 90.3359 118.164ZM90.3359 116.906C90.6641 116.906 90.9271 116.789 91.125 116.555C91.3281 116.32 91.4297 116.013 91.4297 115.633C91.4297 115.247 91.3281 114.937 91.125 114.703C90.9271 114.469 90.6641 114.352 90.3359 114.352C90.0026 114.352 89.737 114.469 89.5391 114.703C89.3411 114.937 89.2422 115.247 89.2422 115.633C89.2422 116.013 89.3411 116.32 89.5391 116.555C89.737 116.789 90.0026 116.906 90.3359 116.906Z" fill="white"/>
</svg>
