<svg width="224" height="211" viewBox="0 0 224 211" fill="none" xmlns="http://www.w3.org/2000/svg">
<path opacity="0.8" d="M1.125 18V6.28125H4.65625C6.08333 6.28125 7.3151 6.51823 8.35156 6.99219C9.38802 7.46094 10.1849 8.13281 10.7422 9.00781C11.2995 9.88281 11.5781 10.9271 11.5781 12.1406C11.5781 13.349 11.2995 14.3932 10.7422 15.2734C10.1849 16.1484 9.38802 16.8229 8.35156 17.2969C7.3151 17.7656 6.08333 18 4.65625 18H1.125ZM2.84375 16.4844H4.72656C5.80469 16.4844 6.72396 16.3151 7.48438 15.9766C8.24479 15.6328 8.82292 15.138 9.21875 14.4922C9.61979 13.8411 9.82031 13.0573 9.82031 12.1406C9.82031 11.2188 9.61979 10.4349 9.21875 9.78906C8.82292 9.14323 8.24479 8.65104 7.48438 8.3125C6.72396 7.96875 5.80469 7.79688 4.72656 7.79688H2.84375V16.4844ZM16.875 18.1562C16.0938 18.1562 15.3906 17.9792 14.7656 17.625C14.1406 17.2708 13.6484 16.7891 13.2891 16.1797C12.9297 15.5651 12.75 14.8698 12.75 14.0938C12.75 13.3229 12.9297 12.6328 13.2891 12.0234C13.6484 11.4089 14.1406 10.9245 14.7656 10.5703C15.3906 10.2109 16.0938 10.0312 16.875 10.0312C17.6615 10.0312 18.3646 10.2109 18.9844 10.5703C19.6042 10.9245 20.0911 11.4089 20.4453 12.0234C20.8047 12.6328 20.9844 13.3229 20.9844 14.0938C20.9844 14.8698 20.8047 15.5651 20.4453 16.1797C20.0911 16.7891 19.6042 17.2708 18.9844 17.625C18.3646 17.9792 17.6615 18.1562 16.875 18.1562ZM16.8672 16.7188C17.3411 16.7188 17.763 16.6042 18.1328 16.375C18.5078 16.1406 18.8021 15.8281 19.0156 15.4375C19.2344 15.0417 19.3438 14.5911 19.3438 14.0859C19.3438 13.5911 19.2344 13.1484 19.0156 12.7578C18.8021 12.362 18.5078 12.0495 18.1328 11.8203C17.763 11.5859 17.3411 11.4688 16.8672 11.4688C16.3984 11.4688 15.9766 11.5859 15.6016 11.8203C15.2266 12.0495 14.9297 12.362 14.7109 12.7578C14.4974 13.1484 14.3906 13.5911 14.3906 14.0859C14.3906 14.5911 14.4974 15.0417 14.7109 15.4375C14.9297 15.8281 15.2266 16.1406 15.6016 16.375C15.9766 16.6042 16.3984 16.7188 16.8672 16.7188ZM29.6328 21.9062H27.9062L29.5391 17.9531L25.7344 10.1875H27.5234L30.3047 16.1172L32.7578 10.1875H34.4766L29.6328 21.9062ZM39.2812 18.1562C38.5 18.1562 37.7969 17.9792 37.1719 17.625C36.5469 17.2708 36.0547 16.7891 35.6953 16.1797C35.3359 15.5651 35.1562 14.8698 35.1562 14.0938C35.1562 13.3229 35.3359 12.6328 35.6953 12.0234C36.0547 11.4089 36.5469 10.9245 37.1719 10.5703C37.7969 10.2109 38.5 10.0312 39.2812 10.0312C40.0677 10.0312 40.7708 10.2109 41.3906 10.5703C42.0104 10.9245 42.4974 11.4089 42.8516 12.0234C43.2109 12.6328 43.3906 13.3229 43.3906 14.0938C43.3906 14.8698 43.2109 15.5651 42.8516 16.1797C42.4974 16.7891 42.0104 17.2708 41.3906 17.625C40.7708 17.9792 40.0677 18.1562 39.2812 18.1562ZM39.2734 16.7188C39.7474 16.7188 40.1693 16.6042 40.5391 16.375C40.9141 16.1406 41.2083 15.8281 41.4219 15.4375C41.6406 15.0417 41.75 14.5911 41.75 14.0859C41.75 13.5911 41.6406 13.1484 41.4219 12.7578C41.2083 12.362 40.9141 12.0495 40.5391 11.8203C40.1693 11.5859 39.7474 11.4688 39.2734 11.4688C38.8047 11.4688 38.3828 11.5859 38.0078 11.8203C37.6328 12.0495 37.3359 12.362 37.1172 12.7578C36.9036 13.1484 36.7969 13.5911 36.7969 14.0859C36.7969 14.5911 36.9036 15.0417 37.1172 15.4375C37.3359 15.8281 37.6328 16.1406 38.0078 16.375C38.3828 16.6042 38.8047 16.7188 39.2734 16.7188ZM52.3828 18H51.0234L50.9688 16.7422C50.6823 17.2005 50.3073 17.5521 49.8438 17.7969C49.3854 18.0365 48.8411 18.1562 48.2109 18.1562C47.1901 18.1562 46.3828 17.8464 45.7891 17.2266C45.2005 16.6016 44.9062 15.7474 44.9062 14.6641V10.1875H46.5078V14.4297C46.5078 15.1224 46.6953 15.6745 47.0703 16.0859C47.4453 16.4974 47.9505 16.7031 48.5859 16.7031C49.2422 16.7031 49.7708 16.4844 50.1719 16.0469C50.5781 15.6042 50.7812 15.0234 50.7812 14.3047V10.1875H52.3828V18ZM60.6562 18H59.0547V11.6172H57.6875V10.1875H59.0547V8.66406C59.0547 8.15365 59.1667 7.70312 59.3906 7.3125C59.6198 6.91667 59.9323 6.60677 60.3281 6.38281C60.7292 6.15885 61.1901 6.04688 61.7109 6.04688C62.0339 6.04688 62.3594 6.09115 62.6875 6.17969C63.0156 6.26823 63.3385 6.40625 63.6562 6.59375L63.0469 7.85156C62.875 7.72656 62.6953 7.63542 62.5078 7.57812C62.3255 7.51562 62.1432 7.48438 61.9609 7.48438C61.5807 7.48438 61.2682 7.61979 61.0234 7.89062C60.7786 8.16146 60.6562 8.52344 60.6562 8.97656V10.1875H63.0469V11.6172H60.6562V18ZM71.6406 17.0703C70.6719 17.7943 69.6068 18.1562 68.4453 18.1562C67.6172 18.1562 66.875 17.974 66.2188 17.6094C65.5625 17.2448 65.0443 16.7474 64.6641 16.1172C64.2839 15.487 64.0938 14.776 64.0938 13.9844C64.0938 13.2292 64.2682 12.5547 64.6172 11.9609C64.9661 11.362 65.4427 10.8906 66.0469 10.5469C66.651 10.2031 67.3359 10.0312 68.1016 10.0312C68.8932 10.0312 69.5885 10.2188 70.1875 10.5938C70.7917 10.9688 71.2604 11.4922 71.5938 12.1641C71.9323 12.8307 72.1016 13.6042 72.1016 14.4844V14.7344H65.8281C65.9219 15.1406 66.099 15.4974 66.3594 15.8047C66.6198 16.1068 66.9427 16.3438 67.3281 16.5156C67.7135 16.6823 68.1484 16.7656 68.6328 16.7656C69.4974 16.7656 70.2917 16.4844 71.0156 15.9219L71.6406 17.0703ZM65.7578 13.625H70.6094C70.5573 13.1875 70.4219 12.8073 70.2031 12.4844C69.9844 12.1562 69.7005 11.901 69.3516 11.7188C69.0078 11.5312 68.6198 11.4375 68.1875 11.4375C67.75 11.4375 67.3568 11.5312 67.0078 11.7188C66.6589 11.901 66.375 12.1562 66.1562 12.4844C65.9427 12.8125 65.8099 13.1927 65.7578 13.625ZM80.75 17.0703C79.7812 17.7943 78.7161 18.1562 77.5547 18.1562C76.7266 18.1562 75.9844 17.974 75.3281 17.6094C74.6719 17.2448 74.1536 16.7474 73.7734 16.1172C73.3932 15.487 73.2031 14.776 73.2031 13.9844C73.2031 13.2292 73.3776 12.5547 73.7266 11.9609C74.0755 11.362 74.5521 10.8906 75.1562 10.5469C75.7604 10.2031 76.4453 10.0312 77.2109 10.0312C78.0026 10.0312 78.6979 10.2188 79.2969 10.5938C79.901 10.9688 80.3698 11.4922 80.7031 12.1641C81.0417 12.8307 81.2109 13.6042 81.2109 14.4844V14.7344H74.9375C75.0312 15.1406 75.2083 15.4974 75.4688 15.8047C75.7292 16.1068 76.0521 16.3438 76.4375 16.5156C76.8229 16.6823 77.2578 16.7656 77.7422 16.7656C78.6068 16.7656 79.401 16.4844 80.125 15.9219L80.75 17.0703ZM74.8672 13.625H79.7188C79.6667 13.1875 79.5312 12.8073 79.3125 12.4844C79.0938 12.1562 78.8099 11.901 78.4609 11.7188C78.1172 11.5312 77.7292 11.4375 77.2969 11.4375C76.8594 11.4375 76.4661 11.5312 76.1172 11.7188C75.7682 11.901 75.4844 12.1562 75.2656 12.4844C75.0521 12.8125 74.9193 13.1927 74.8672 13.625ZM84.5938 18H82.8906V5.96875H84.5938V18ZM90.1094 17.3203L90.5 15.8828C90.6771 16.0599 90.888 16.2161 91.1328 16.3516C91.3828 16.487 91.6458 16.5938 91.9219 16.6719C92.2031 16.7448 92.4792 16.7812 92.75 16.7812C93.1771 16.7812 93.5208 16.6901 93.7812 16.5078C94.0417 16.3255 94.1719 16.0833 94.1719 15.7812C94.1719 15.5573 94.099 15.3724 93.9531 15.2266C93.8125 15.0755 93.6224 14.9453 93.3828 14.8359C93.1484 14.7266 92.8958 14.6198 92.625 14.5156C92.276 14.3854 91.9271 14.2344 91.5781 14.0625C91.2344 13.8906 90.9453 13.6615 90.7109 13.375C90.4766 13.0885 90.3594 12.7109 90.3594 12.2422C90.3594 11.7943 90.474 11.4062 90.7031 11.0781C90.9323 10.7448 91.2526 10.487 91.6641 10.3047C92.0755 10.1224 92.5495 10.0312 93.0859 10.0312C93.9193 10.0312 94.7448 10.2396 95.5625 10.6562L95.0938 12.0234C94.9271 11.9036 94.7292 11.7969 94.5 11.7031C94.2708 11.6094 94.0365 11.5365 93.7969 11.4844C93.5573 11.4271 93.3359 11.3984 93.1328 11.3984C92.7943 11.3984 92.5208 11.474 92.3125 11.625C92.1094 11.776 92.0078 11.9792 92.0078 12.2344C92.0078 12.3906 92.0573 12.5339 92.1562 12.6641C92.2552 12.7891 92.4115 12.9141 92.625 13.0391C92.8438 13.1589 93.138 13.2943 93.5078 13.4453C93.862 13.5859 94.2161 13.7474 94.5703 13.9297C94.9245 14.112 95.2188 14.349 95.4531 14.6406C95.6927 14.9323 95.8125 15.3151 95.8125 15.7891C95.8125 16.2578 95.6875 16.6719 95.4375 17.0312C95.1875 17.3854 94.8385 17.6615 94.3906 17.8594C93.9479 18.0573 93.4323 18.1562 92.8438 18.1562C91.8698 18.1562 90.9583 17.8776 90.1094 17.3203ZM104.039 18H102.656L102.562 17C102.276 17.3646 101.914 17.6484 101.477 17.8516C101.039 18.0547 100.555 18.1562 100.023 18.1562C99.4661 18.1562 98.9688 18.0469 98.5312 17.8281C98.0938 17.6094 97.75 17.3099 97.5 16.9297C97.25 16.5495 97.125 16.1172 97.125 15.6328C97.125 15.1224 97.2604 14.6745 97.5312 14.2891C97.8021 13.8984 98.1719 13.5938 98.6406 13.375C99.1094 13.151 99.6432 13.0391 100.242 13.0391C100.617 13.0391 100.997 13.0833 101.383 13.1719C101.773 13.2604 102.125 13.3854 102.438 13.5469V13.2578C102.438 12.8776 102.339 12.5521 102.141 12.2812C101.948 12.0052 101.682 11.7943 101.344 11.6484C101.01 11.5026 100.641 11.4297 100.234 11.4297C99.875 11.4297 99.5078 11.4922 99.1328 11.6172C98.763 11.7422 98.4141 11.9349 98.0859 12.1953L97.6016 10.8906C98.0755 10.6094 98.5677 10.3958 99.0781 10.25C99.5938 10.1042 100.099 10.0312 100.594 10.0312C101.302 10.0312 101.911 10.1719 102.422 10.4531C102.938 10.7344 103.336 11.1354 103.617 11.6562C103.898 12.1719 104.039 12.7812 104.039 13.4844V18ZM100.336 16.7969C100.706 16.7969 101.047 16.7214 101.359 16.5703C101.672 16.4141 101.924 16.1953 102.117 15.9141C102.315 15.6276 102.422 15.2943 102.438 14.9141V14.8047C102.172 14.6068 101.872 14.4531 101.539 14.3438C101.211 14.2292 100.875 14.1719 100.531 14.1719C100.005 14.1719 99.5677 14.2969 99.2188 14.5469C98.8698 14.7969 98.6953 15.1172 98.6953 15.5078C98.6953 15.7526 98.7656 15.974 98.9062 16.1719C99.0521 16.3646 99.2474 16.5182 99.4922 16.6328C99.7422 16.7422 100.023 16.7969 100.336 16.7969ZM108.344 18H106.742V11.6172H105.375V10.1875H106.742V8.66406C106.742 8.15365 106.854 7.70312 107.078 7.3125C107.307 6.91667 107.62 6.60677 108.016 6.38281C108.417 6.15885 108.878 6.04688 109.398 6.04688C109.721 6.04688 110.047 6.09115 110.375 6.17969C110.703 6.26823 111.026 6.40625 111.344 6.59375L110.734 7.85156C110.562 7.72656 110.383 7.63542 110.195 7.57812C110.013 7.51562 109.831 7.48438 109.648 7.48438C109.268 7.48438 108.956 7.61979 108.711 7.89062C108.466 8.16146 108.344 8.52344 108.344 8.97656V10.1875H110.734V11.6172H108.344V18ZM119.328 17.0703C118.359 17.7943 117.294 18.1562 116.133 18.1562C115.305 18.1562 114.562 17.974 113.906 17.6094C113.25 17.2448 112.732 16.7474 112.352 16.1172C111.971 15.487 111.781 14.776 111.781 13.9844C111.781 13.2292 111.956 12.5547 112.305 11.9609C112.654 11.362 113.13 10.8906 113.734 10.5469C114.339 10.2031 115.023 10.0312 115.789 10.0312C116.581 10.0312 117.276 10.2188 117.875 10.5938C118.479 10.9688 118.948 11.4922 119.281 12.1641C119.62 12.8307 119.789 13.6042 119.789 14.4844V14.7344H113.516C113.609 15.1406 113.786 15.4974 114.047 15.8047C114.307 16.1068 114.63 16.3438 115.016 16.5156C115.401 16.6823 115.836 16.7656 116.32 16.7656C117.185 16.7656 117.979 16.4844 118.703 15.9219L119.328 17.0703ZM113.445 13.625H118.297C118.245 13.1875 118.109 12.8073 117.891 12.4844C117.672 12.1562 117.388 11.901 117.039 11.7188C116.695 11.5312 116.307 11.4375 115.875 11.4375C115.438 11.4375 115.044 11.5312 114.695 11.7188C114.346 11.901 114.062 12.1562 113.844 12.4844C113.63 12.8125 113.497 13.1927 113.445 13.625ZM132.602 18H131.242L131.188 16.7422C130.901 17.2005 130.526 17.5521 130.062 17.7969C129.604 18.0365 129.06 18.1562 128.43 18.1562C127.409 18.1562 126.602 17.8464 126.008 17.2266C125.419 16.6016 125.125 15.7474 125.125 14.6641V10.1875H126.727V14.4297C126.727 15.1224 126.914 15.6745 127.289 16.0859C127.664 16.4974 128.169 16.7031 128.805 16.7031C129.461 16.7031 129.99 16.4844 130.391 16.0469C130.797 15.6042 131 15.0234 131 14.3047V10.1875H132.602V18ZM134.312 17.3203L134.703 15.8828C134.88 16.0599 135.091 16.2161 135.336 16.3516C135.586 16.487 135.849 16.5938 136.125 16.6719C136.406 16.7448 136.682 16.7812 136.953 16.7812C137.38 16.7812 137.724 16.6901 137.984 16.5078C138.245 16.3255 138.375 16.0833 138.375 15.7812C138.375 15.5573 138.302 15.3724 138.156 15.2266C138.016 15.0755 137.826 14.9453 137.586 14.8359C137.352 14.7266 137.099 14.6198 136.828 14.5156C136.479 14.3854 136.13 14.2344 135.781 14.0625C135.438 13.8906 135.148 13.6615 134.914 13.375C134.68 13.0885 134.562 12.7109 134.562 12.2422C134.562 11.7943 134.677 11.4062 134.906 11.0781C135.135 10.7448 135.456 10.487 135.867 10.3047C136.279 10.1224 136.753 10.0312 137.289 10.0312C138.122 10.0312 138.948 10.2396 139.766 10.6562L139.297 12.0234C139.13 11.9036 138.932 11.7969 138.703 11.7031C138.474 11.6094 138.24 11.5365 138 11.4844C137.76 11.4271 137.539 11.3984 137.336 11.3984C136.997 11.3984 136.724 11.474 136.516 11.625C136.312 11.776 136.211 11.9792 136.211 12.2344C136.211 12.3906 136.26 12.5339 136.359 12.6641C136.458 12.7891 136.615 12.9141 136.828 13.0391C137.047 13.1589 137.341 13.2943 137.711 13.4453C138.065 13.5859 138.419 13.7474 138.773 13.9297C139.128 14.112 139.422 14.349 139.656 14.6406C139.896 14.9323 140.016 15.3151 140.016 15.7891C140.016 16.2578 139.891 16.6719 139.641 17.0312C139.391 17.3854 139.042 17.6615 138.594 17.8594C138.151 18.0573 137.635 18.1562 137.047 18.1562C136.073 18.1562 135.161 17.8776 134.312 17.3203ZM142.547 7.92188C142.302 7.92188 142.096 7.83594 141.93 7.66406C141.763 7.49219 141.68 7.28385 141.68 7.03906C141.68 6.79427 141.763 6.58854 141.93 6.42188C142.096 6.25 142.302 6.16406 142.547 6.16406C142.797 6.16406 143.005 6.25 143.172 6.42188C143.344 6.58854 143.43 6.79427 143.43 7.03906C143.43 7.28385 143.344 7.49219 143.172 7.66406C143.005 7.83594 142.797 7.92188 142.547 7.92188ZM143.344 18H141.742V10.1875H143.344V18ZM153.102 18H151.5V13.7578C151.5 13.0651 151.31 12.513 150.93 12.1016C150.555 11.6901 150.049 11.4844 149.414 11.4844C148.758 11.4844 148.229 11.7031 147.828 12.1406C147.427 12.5781 147.227 13.1589 147.227 13.8828V18H145.625V10.1875H146.977L147.031 11.4453C147.318 10.987 147.693 10.638 148.156 10.3984C148.62 10.1536 149.164 10.0312 149.789 10.0312C150.815 10.0312 151.622 10.3411 152.211 10.9609C152.805 11.5807 153.102 12.4349 153.102 13.5234V18ZM158.484 18.0312C157.75 18.0312 157.091 17.8568 156.508 17.5078C155.924 17.1589 155.464 16.6823 155.125 16.0781C154.792 15.474 154.625 14.7917 154.625 14.0312C154.625 13.2656 154.792 12.5833 155.125 11.9844C155.464 11.3802 155.924 10.9036 156.508 10.5547C157.091 10.2057 157.753 10.0312 158.492 10.0312C159.076 10.0312 159.612 10.1432 160.102 10.3672C160.596 10.5911 161.016 10.8984 161.359 11.2891L161.438 10.1875H162.852V17.7891C162.852 18.6641 162.672 19.4193 162.312 20.0547C161.958 20.6953 161.456 21.1901 160.805 21.5391C160.154 21.888 159.383 22.0625 158.492 22.0625C157.237 22.0625 156.13 21.6536 155.172 20.8359L155.852 19.5391C156.555 20.263 157.404 20.625 158.398 20.625C158.977 20.625 159.477 20.5052 159.898 20.2656C160.326 20.026 160.656 19.6901 160.891 19.2578C161.13 18.8307 161.25 18.3255 161.25 17.7422V16.8906C160.906 17.2448 160.497 17.5234 160.023 17.7266C159.549 17.9297 159.036 18.0312 158.484 18.0312ZM158.75 16.6094C159.208 16.6094 159.625 16.5052 160 16.2969C160.38 16.0885 160.682 15.8047 160.906 15.4453C161.135 15.0807 161.25 14.6667 161.25 14.2031V13.8516C161.25 13.388 161.135 12.9766 160.906 12.6172C160.682 12.2578 160.38 11.974 160 11.7656C159.625 11.5573 159.208 11.4531 158.75 11.4531C158.271 11.4531 157.844 11.5677 157.469 11.7969C157.094 12.0208 156.797 12.3281 156.578 12.7188C156.359 13.1042 156.25 13.5417 156.25 14.0312C156.25 14.5208 156.359 14.9609 156.578 15.3516C156.797 15.7422 157.094 16.0495 157.469 16.2734C157.844 16.4974 158.271 16.6094 158.75 16.6094ZM172.391 18.1562C171.609 18.1562 170.906 17.9792 170.281 17.625C169.656 17.2708 169.164 16.7891 168.805 16.1797C168.445 15.5651 168.266 14.8698 168.266 14.0938C168.266 13.3229 168.445 12.6328 168.805 12.0234C169.164 11.4089 169.656 10.9245 170.281 10.5703C170.906 10.2109 171.609 10.0312 172.391 10.0312C173.177 10.0312 173.88 10.2109 174.5 10.5703C175.12 10.9245 175.607 11.4089 175.961 12.0234C176.32 12.6328 176.5 13.3229 176.5 14.0938C176.5 14.8698 176.32 15.5651 175.961 16.1797C175.607 16.7891 175.12 17.2708 174.5 17.625C173.88 17.9792 173.177 18.1562 172.391 18.1562ZM172.383 16.7188C172.857 16.7188 173.279 16.6042 173.648 16.375C174.023 16.1406 174.318 15.8281 174.531 15.4375C174.75 15.0417 174.859 14.5911 174.859 14.0859C174.859 13.5911 174.75 13.1484 174.531 12.7578C174.318 12.362 174.023 12.0495 173.648 11.8203C173.279 11.5859 172.857 11.4688 172.383 11.4688C171.914 11.4688 171.492 11.5859 171.117 11.8203C170.742 12.0495 170.445 12.362 170.227 12.7578C170.013 13.1484 169.906 13.5911 169.906 14.0859C169.906 14.5911 170.013 15.0417 170.227 15.4375C170.445 15.8281 170.742 16.1406 171.117 16.375C171.492 16.6042 171.914 16.7188 172.383 16.7188ZM185.648 18H184.047V13.7578C184.047 13.0651 183.857 12.513 183.477 12.1016C183.102 11.6901 182.596 11.4844 181.961 11.4844C181.305 11.4844 180.776 11.7031 180.375 12.1406C179.974 12.5781 179.773 13.1589 179.773 13.8828V18H178.172V10.1875H179.523L179.578 11.4453C179.865 10.987 180.24 10.638 180.703 10.3984C181.167 10.1536 181.711 10.0312 182.336 10.0312C183.362 10.0312 184.169 10.3411 184.758 10.9609C185.352 11.5807 185.648 12.4349 185.648 13.5234V18ZM189.453 18H187.75V5.96875H189.453V18ZM192.531 7.92188C192.286 7.92188 192.081 7.83594 191.914 7.66406C191.747 7.49219 191.664 7.28385 191.664 7.03906C191.664 6.79427 191.747 6.58854 191.914 6.42188C192.081 6.25 192.286 6.16406 192.531 6.16406C192.781 6.16406 192.99 6.25 193.156 6.42188C193.328 6.58854 193.414 6.79427 193.414 7.03906C193.414 7.28385 193.328 7.49219 193.156 7.66406C192.99 7.83594 192.781 7.92188 192.531 7.92188ZM193.328 18H191.727V10.1875H193.328V18ZM203.086 18H201.484V13.7578C201.484 13.0651 201.294 12.513 200.914 12.1016C200.539 11.6901 200.034 11.4844 199.398 11.4844C198.742 11.4844 198.214 11.7031 197.812 12.1406C197.411 12.5781 197.211 13.1589 197.211 13.8828V18H195.609V10.1875H196.961L197.016 11.4453C197.302 10.987 197.677 10.638 198.141 10.3984C198.604 10.1536 199.148 10.0312 199.773 10.0312C200.799 10.0312 201.607 10.3411 202.195 10.9609C202.789 11.5807 203.086 12.4349 203.086 13.5234V18ZM212.156 17.0703C211.188 17.7943 210.122 18.1562 208.961 18.1562C208.133 18.1562 207.391 17.974 206.734 17.6094C206.078 17.2448 205.56 16.7474 205.18 16.1172C204.799 15.487 204.609 14.776 204.609 13.9844C204.609 13.2292 204.784 12.5547 205.133 11.9609C205.482 11.362 205.958 10.8906 206.562 10.5469C207.167 10.2031 207.852 10.0312 208.617 10.0312C209.409 10.0312 210.104 10.2188 210.703 10.5938C211.307 10.9688 211.776 11.4922 212.109 12.1641C212.448 12.8307 212.617 13.6042 212.617 14.4844V14.7344H206.344C206.438 15.1406 206.615 15.4974 206.875 15.8047C207.135 16.1068 207.458 16.3438 207.844 16.5156C208.229 16.6823 208.664 16.7656 209.148 16.7656C210.013 16.7656 210.807 16.4844 211.531 15.9219L212.156 17.0703ZM206.273 13.625H211.125C211.073 13.1875 210.938 12.8073 210.719 12.4844C210.5 12.1562 210.216 11.901 209.867 11.7188C209.523 11.5312 209.135 11.4375 208.703 11.4375C208.266 11.4375 207.872 11.5312 207.523 11.7188C207.174 11.901 206.891 12.1562 206.672 12.4844C206.458 12.8125 206.326 13.1927 206.273 13.625ZM2.72656 45.9062H1.125V34.1875H2.53906L2.625 35.3047C2.97917 34.9089 3.40365 34.599 3.89844 34.375C4.39844 34.1458 4.94531 34.0312 5.53906 34.0312C6.28906 34.0312 6.95833 34.2083 7.54688 34.5625C8.14062 34.9167 8.60677 35.401 8.94531 36.0156C9.28906 36.625 9.46094 37.3177 9.46094 38.0938C9.46094 38.8646 9.28906 39.5573 8.94531 40.1719C8.60677 40.7865 8.14062 41.2708 7.54688 41.625C6.95833 41.9792 6.28906 42.1562 5.53906 42.1562C4.97656 42.1562 4.45573 42.0547 3.97656 41.8516C3.4974 41.6484 3.08073 41.3646 2.72656 41V45.9062ZM5.28125 40.7031C5.77604 40.7031 6.21354 40.5911 6.59375 40.3672C6.97396 40.1432 7.27083 39.8359 7.48438 39.4453C7.70312 39.0495 7.8125 38.5964 7.8125 38.0859C7.8125 37.5755 7.70312 37.125 7.48438 36.7344C7.27083 36.3385 6.97396 36.0286 6.59375 35.8047C6.21354 35.5807 5.77865 35.4688 5.28906 35.4688C4.82552 35.4688 4.40625 35.5729 4.03125 35.7812C3.66146 35.9844 3.35938 36.2656 3.125 36.625C2.89583 36.9844 2.76302 37.3932 2.72656 37.8516V38.3359C2.76302 38.7943 2.89323 39.2031 3.11719 39.5625C3.34635 39.9167 3.64583 40.1953 4.01562 40.3984C4.39062 40.6016 4.8125 40.7031 5.28125 40.7031ZM17.6641 42H16.2812L16.1875 41C15.901 41.3646 15.5391 41.6484 15.1016 41.8516C14.6641 42.0547 14.1797 42.1562 13.6484 42.1562C13.0911 42.1562 12.5938 42.0469 12.1562 41.8281C11.7188 41.6094 11.375 41.3099 11.125 40.9297C10.875 40.5495 10.75 40.1172 10.75 39.6328C10.75 39.1224 10.8854 38.6745 11.1562 38.2891C11.4271 37.8984 11.7969 37.5938 12.2656 37.375C12.7344 37.151 13.2682 37.0391 13.8672 37.0391C14.2422 37.0391 14.6224 37.0833 15.0078 37.1719C15.3984 37.2604 15.75 37.3854 16.0625 37.5469V37.2578C16.0625 36.8776 15.9635 36.5521 15.7656 36.2812C15.5729 36.0052 15.3073 35.7943 14.9688 35.6484C14.6354 35.5026 14.2656 35.4297 13.8594 35.4297C13.5 35.4297 13.1328 35.4922 12.7578 35.6172C12.388 35.7422 12.0391 35.9349 11.7109 36.1953L11.2266 34.8906C11.7005 34.6094 12.1927 34.3958 12.7031 34.25C13.2188 34.1042 13.724 34.0312 14.2188 34.0312C14.9271 34.0312 15.5365 34.1719 16.0469 34.4531C16.5625 34.7344 16.9609 35.1354 17.2422 35.6562C17.5234 36.1719 17.6641 36.7812 17.6641 37.4844V42ZM13.9609 40.7969C14.3307 40.7969 14.6719 40.7214 14.9844 40.5703C15.2969 40.4141 15.5495 40.1953 15.7422 39.9141C15.9401 39.6276 16.0469 39.2943 16.0625 38.9141V38.8047C15.7969 38.6068 15.4974 38.4531 15.1641 38.3438C14.8359 38.2292 14.5 38.1719 14.1562 38.1719C13.6302 38.1719 13.1927 38.2969 12.8438 38.5469C12.4948 38.7969 12.3203 39.1172 12.3203 39.5078C12.3203 39.7526 12.3906 39.974 12.5312 40.1719C12.6771 40.3646 12.8724 40.5182 13.1172 40.6328C13.3672 40.7422 13.6484 40.7969 13.9609 40.7969ZM22.7734 45.9062H21.0469L22.6797 41.9531L18.875 34.1875H20.6641L23.4453 40.1172L25.8984 34.1875H27.6172L22.7734 45.9062ZM41.5938 42H39.9922V37.9141C39.9922 37.138 39.8255 36.5365 39.4922 36.1094C39.1641 35.6823 38.7005 35.4688 38.1016 35.4688C37.4922 35.4688 37.0156 35.6849 36.6719 36.1172C36.3281 36.5495 36.1562 37.1484 36.1562 37.9141V42H34.5547V37.9141C34.5547 37.138 34.388 36.5365 34.0547 36.1094C33.7214 35.6823 33.2552 35.4688 32.6562 35.4688C32.0469 35.4688 31.5703 35.6849 31.2266 36.1172C30.8828 36.5495 30.7109 37.1484 30.7109 37.9141V42H29.1094V34.1875H30.4062L30.4688 35.5469C30.7292 35.0521 31.0807 34.6771 31.5234 34.4219C31.9714 34.1615 32.4974 34.0312 33.1016 34.0312C33.7422 34.0312 34.2917 34.1719 34.75 34.4531C35.2083 34.7344 35.5547 35.138 35.7891 35.6641C36.0495 35.1276 36.4089 34.7214 36.8672 34.4453C37.3307 34.1693 37.8802 34.0312 38.5156 34.0312C39.4844 34.0312 40.2396 34.3385 40.7812 34.9531C41.3229 35.5677 41.5938 36.4245 41.5938 37.5234V42ZM50.6562 41.0703C49.6875 41.7943 48.6224 42.1562 47.4609 42.1562C46.6328 42.1562 45.8906 41.974 45.2344 41.6094C44.5781 41.2448 44.0599 40.7474 43.6797 40.1172C43.2995 39.487 43.1094 38.776 43.1094 37.9844C43.1094 37.2292 43.2839 36.5547 43.6328 35.9609C43.9818 35.362 44.4583 34.8906 45.0625 34.5469C45.6667 34.2031 46.3516 34.0312 47.1172 34.0312C47.9089 34.0312 48.6042 34.2188 49.2031 34.5938C49.8073 34.9688 50.276 35.4922 50.6094 36.1641C50.9479 36.8307 51.1172 37.6042 51.1172 38.4844V38.7344H44.8438C44.9375 39.1406 45.1146 39.4974 45.375 39.8047C45.6354 40.1068 45.9583 40.3438 46.3438 40.5156C46.7292 40.6823 47.1641 40.7656 47.6484 40.7656C48.513 40.7656 49.3073 40.4844 50.0312 39.9219L50.6562 41.0703ZM44.7734 37.625H49.625C49.5729 37.1875 49.4375 36.8073 49.2188 36.4844C49 36.1562 48.7161 35.901 48.3672 35.7188C48.0234 35.5312 47.6354 35.4375 47.2031 35.4375C46.7656 35.4375 46.3724 35.5312 46.0234 35.7188C45.6745 35.901 45.3906 36.1562 45.1719 36.4844C44.9583 36.8125 44.8255 37.1927 44.7734 37.625ZM60.2734 42H58.6719V37.7578C58.6719 37.0651 58.4818 36.513 58.1016 36.1016C57.7266 35.6901 57.2214 35.4844 56.5859 35.4844C55.9297 35.4844 55.401 35.7031 55 36.1406C54.599 36.5781 54.3984 37.1589 54.3984 37.8828V42H52.7969V34.1875H54.1484L54.2031 35.4453C54.4896 34.987 54.8646 34.638 55.3281 34.3984C55.7917 34.1536 56.3359 34.0312 56.9609 34.0312C57.987 34.0312 58.7943 34.3411 59.3828 34.9609C59.9766 35.5807 60.2734 36.4349 60.2734 37.5234V42ZM67.0625 41.8047C66.5156 42.0391 65.987 42.1562 65.4766 42.1562C64.9661 42.1562 64.5182 42.0469 64.1328 41.8281C63.7526 41.6094 63.4531 41.3021 63.2344 40.9062C63.0208 40.5052 62.9141 40.0443 62.9141 39.5234V35.6172H61.5469V34.1875H62.9922V32.2344H64.5156V34.1875H66.7969V35.6172H64.5156V39.2266C64.5156 39.6849 64.638 40.0495 64.8828 40.3203C65.1328 40.5859 65.4531 40.7188 65.8438 40.7188C66.1719 40.7188 66.4974 40.6198 66.8203 40.4219L67.0625 41.8047ZM71.9062 41.3203L72.2969 39.8828C72.474 40.0599 72.6849 40.2161 72.9297 40.3516C73.1797 40.487 73.4427 40.5938 73.7188 40.6719C74 40.7448 74.276 40.7812 74.5469 40.7812C74.974 40.7812 75.3177 40.6901 75.5781 40.5078C75.8385 40.3255 75.9688 40.0833 75.9688 39.7812C75.9688 39.5573 75.8958 39.3724 75.75 39.2266C75.6094 39.0755 75.4193 38.9453 75.1797 38.8359C74.9453 38.7266 74.6927 38.6198 74.4219 38.5156C74.0729 38.3854 73.724 38.2344 73.375 38.0625C73.0312 37.8906 72.7422 37.6615 72.5078 37.375C72.2734 37.0885 72.1562 36.7109 72.1562 36.2422C72.1562 35.7943 72.2708 35.4062 72.5 35.0781C72.7292 34.7448 73.0495 34.487 73.4609 34.3047C73.8724 34.1224 74.3464 34.0312 74.8828 34.0312C75.7161 34.0312 76.5417 34.2396 77.3594 34.6562L76.8906 36.0234C76.724 35.9036 76.526 35.7969 76.2969 35.7031C76.0677 35.6094 75.8333 35.5365 75.5938 35.4844C75.3542 35.4271 75.1328 35.3984 74.9297 35.3984C74.5911 35.3984 74.3177 35.474 74.1094 35.625C73.9062 35.776 73.8047 35.9792 73.8047 36.2344C73.8047 36.3906 73.8542 36.5339 73.9531 36.6641C74.0521 36.7891 74.2083 36.9141 74.4219 37.0391C74.6406 37.1589 74.9349 37.2943 75.3047 37.4453C75.6589 37.5859 76.013 37.7474 76.3672 37.9297C76.7214 38.112 77.0156 38.349 77.25 38.6406C77.4896 38.9323 77.6094 39.3151 77.6094 39.7891C77.6094 40.2578 77.4844 40.6719 77.2344 41.0312C76.9844 41.3854 76.6354 41.6615 76.1875 41.8594C75.7448 42.0573 75.2292 42.1562 74.6406 42.1562C73.6667 42.1562 72.7552 41.8776 71.9062 41.3203ZM86.2812 41.0703C85.3125 41.7943 84.2474 42.1562 83.0859 42.1562C82.2578 42.1562 81.5156 41.974 80.8594 41.6094C80.2031 41.2448 79.6849 40.7474 79.3047 40.1172C78.9245 39.487 78.7344 38.776 78.7344 37.9844C78.7344 37.2292 78.9089 36.5547 79.2578 35.9609C79.6068 35.362 80.0833 34.8906 80.6875 34.5469C81.2917 34.2031 81.9766 34.0312 82.7422 34.0312C83.5339 34.0312 84.2292 34.2188 84.8281 34.5938C85.4323 34.9688 85.901 35.4922 86.2344 36.1641C86.5729 36.8307 86.7422 37.6042 86.7422 38.4844V38.7344H80.4688C80.5625 39.1406 80.7396 39.4974 81 39.8047C81.2604 40.1068 81.5833 40.3438 81.9688 40.5156C82.3542 40.6823 82.7891 40.7656 83.2734 40.7656C84.138 40.7656 84.9323 40.4844 85.6562 39.9219L86.2812 41.0703ZM80.3984 37.625H85.25C85.1979 37.1875 85.0625 36.8073 84.8438 36.4844C84.625 36.1562 84.3411 35.901 83.9922 35.7188C83.6484 35.5312 83.2604 35.4375 82.8281 35.4375C82.3906 35.4375 81.9974 35.5312 81.6484 35.7188C81.2995 35.901 81.0156 36.1562 80.7969 36.4844C80.5833 36.8125 80.4505 37.1927 80.3984 37.625ZM90.0234 42H88.4219V34.1875H89.8203L89.8828 35.6719C90.1536 35.1562 90.526 34.7552 91 34.4688C91.4792 34.1771 92.0286 34.0312 92.6484 34.0312C92.7995 34.0312 92.9505 34.0417 93.1016 34.0625C93.2578 34.0781 93.4141 34.1042 93.5703 34.1406L93.3672 35.5859C93.0651 35.5078 92.7682 35.4688 92.4766 35.4688C91.9922 35.4688 91.5651 35.5859 91.1953 35.8203C90.8255 36.0495 90.5365 36.3672 90.3281 36.7734C90.125 37.1797 90.0234 37.6484 90.0234 38.1797V42ZM102.383 34.1875L99.1328 42H97.5781L94.3281 34.1875H96.0469L98.3672 40.3516L100.688 34.1875H102.383ZM104.844 31.9219C104.599 31.9219 104.393 31.8359 104.227 31.6641C104.06 31.4922 103.977 31.2839 103.977 31.0391C103.977 30.7943 104.06 30.5885 104.227 30.4219C104.393 30.25 104.599 30.1641 104.844 30.1641C105.094 30.1641 105.302 30.25 105.469 30.4219C105.641 30.5885 105.727 30.7943 105.727 31.0391C105.727 31.2839 105.641 31.4922 105.469 31.6641C105.302 31.8359 105.094 31.9219 104.844 31.9219ZM105.641 42H104.039V34.1875H105.641V42ZM114.555 40.8359C114.174 41.2578 113.719 41.5833 113.188 41.8125C112.656 42.0417 112.081 42.1562 111.461 42.1562C110.68 42.1562 109.977 41.9792 109.352 41.625C108.732 41.2708 108.242 40.7865 107.883 40.1719C107.523 39.5573 107.344 38.8646 107.344 38.0938C107.344 37.3177 107.523 36.625 107.883 36.0156C108.242 35.401 108.732 34.9167 109.352 34.5625C109.977 34.2083 110.68 34.0312 111.461 34.0312C112.076 34.0312 112.648 34.1458 113.18 34.375C113.711 34.599 114.167 34.9219 114.547 35.3438L113.602 36.3359C113.346 36.0651 113.039 35.8568 112.68 35.7109C112.326 35.5599 111.948 35.4844 111.547 35.4844C111.052 35.4844 110.612 35.5964 110.227 35.8203C109.841 36.0443 109.539 36.3516 109.32 36.7422C109.102 37.1276 108.992 37.5755 108.992 38.0859C108.992 38.5911 109.102 39.0417 109.32 39.4375C109.539 39.8333 109.841 40.1432 110.227 40.3672C110.612 40.5911 111.052 40.7031 111.547 40.7031C111.948 40.7031 112.328 40.6276 112.688 40.4766C113.047 40.3255 113.352 40.1172 113.602 39.8516L114.555 40.8359ZM123.188 41.0703C122.219 41.7943 121.154 42.1562 119.992 42.1562C119.164 42.1562 118.422 41.974 117.766 41.6094C117.109 41.2448 116.591 40.7474 116.211 40.1172C115.831 39.487 115.641 38.776 115.641 37.9844C115.641 37.2292 115.815 36.5547 116.164 35.9609C116.513 35.362 116.99 34.8906 117.594 34.5469C118.198 34.2031 118.883 34.0312 119.648 34.0312C120.44 34.0312 121.135 34.2188 121.734 34.5938C122.339 34.9688 122.807 35.4922 123.141 36.1641C123.479 36.8307 123.648 37.6042 123.648 38.4844V38.7344H117.375C117.469 39.1406 117.646 39.4974 117.906 39.8047C118.167 40.1068 118.49 40.3438 118.875 40.5156C119.26 40.6823 119.695 40.7656 120.18 40.7656C121.044 40.7656 121.839 40.4844 122.562 39.9219L123.188 41.0703ZM117.305 37.625H122.156C122.104 37.1875 121.969 36.8073 121.75 36.4844C121.531 36.1562 121.247 35.901 120.898 35.7188C120.555 35.5312 120.167 35.4375 119.734 35.4375C119.297 35.4375 118.904 35.5312 118.555 35.7188C118.206 35.901 117.922 36.1562 117.703 36.4844C117.49 36.8125 117.357 37.1927 117.305 37.625ZM125.211 32.4141L124.469 31.1094C125.417 30.401 126.427 30.0469 127.5 30.0469C128.104 30.0469 128.628 30.1589 129.07 30.3828C129.518 30.6068 129.865 30.9245 130.109 31.3359C130.359 31.7422 130.484 32.224 130.484 32.7812C130.484 33.1354 130.43 33.4453 130.32 33.7109C130.211 33.9766 130.065 34.224 129.883 34.4531C129.706 34.6771 129.508 34.901 129.289 35.125C129.034 35.3958 128.781 35.6927 128.531 36.0156C128.286 36.3333 128.081 36.7188 127.914 37.1719C127.753 37.6198 127.672 38.1745 127.672 38.8359H126.273C126.273 38.0443 126.357 37.3906 126.523 36.875C126.695 36.3542 126.906 35.9219 127.156 35.5781C127.411 35.2292 127.659 34.9219 127.898 34.6562C128.143 34.3802 128.352 34.1146 128.523 33.8594C128.701 33.599 128.789 33.2839 128.789 32.9141C128.789 32.4714 128.651 32.1224 128.375 31.8672C128.104 31.612 127.732 31.4844 127.258 31.4844C126.893 31.4844 126.531 31.5651 126.172 31.7266C125.818 31.888 125.497 32.1172 125.211 32.4141ZM126.977 42.1562C126.721 42.1562 126.513 42.0755 126.352 41.9141C126.19 41.7526 126.109 41.5443 126.109 41.2891C126.109 41.0234 126.19 40.8099 126.352 40.6484C126.513 40.487 126.721 40.4062 126.977 40.4062C127.237 40.4062 127.445 40.487 127.602 40.6484C127.763 40.8099 127.844 41.0234 127.844 41.2891C127.844 41.5443 127.763 41.7526 127.602 41.9141C127.445 42.0755 127.237 42.1562 126.977 42.1562Z" fill="white"/>
<path d="M185.969 131H183.562V125.992L179.125 119.281H182.047L184.75 123.875L187.484 119.281H190.406L185.969 126V131ZM197.273 130.125C196.305 130.812 195.245 131.156 194.094 131.156C193.24 131.156 192.471 130.974 191.789 130.609C191.112 130.24 190.576 129.74 190.18 129.109C189.789 128.479 189.594 127.768 189.594 126.977C189.594 126.221 189.771 125.547 190.125 124.953C190.484 124.359 190.971 123.891 191.586 123.547C192.201 123.203 192.898 123.031 193.68 123.031C194.487 123.031 195.198 123.221 195.812 123.602C196.427 123.977 196.906 124.503 197.25 125.18C197.594 125.852 197.766 126.63 197.766 127.516V127.766H192.008C192.102 128.073 192.255 128.344 192.469 128.578C192.682 128.807 192.948 128.99 193.266 129.125C193.583 129.26 193.948 129.328 194.359 129.328C195.156 129.328 195.898 129.07 196.586 128.555L197.273 130.125ZM191.906 126.625H195.695C195.654 126.286 195.547 125.99 195.375 125.734C195.208 125.474 194.987 125.271 194.711 125.125C194.44 124.979 194.135 124.906 193.797 124.906C193.453 124.906 193.146 124.982 192.875 125.133C192.609 125.284 192.393 125.487 192.227 125.742C192.06 125.997 191.953 126.292 191.906 126.625ZM198.641 130.328L199.133 128.422C199.289 128.594 199.497 128.753 199.758 128.898C200.023 129.044 200.307 129.161 200.609 129.25C200.917 129.333 201.206 129.375 201.477 129.375C201.799 129.375 202.052 129.315 202.234 129.195C202.417 129.07 202.508 128.904 202.508 128.695C202.508 128.523 202.445 128.38 202.32 128.266C202.201 128.146 202.036 128.042 201.828 127.953C201.625 127.859 201.398 127.768 201.148 127.68C200.81 127.549 200.461 127.398 200.102 127.227C199.747 127.055 199.448 126.82 199.203 126.523C198.958 126.227 198.836 125.833 198.836 125.344C198.836 124.875 198.958 124.469 199.203 124.125C199.448 123.776 199.794 123.508 200.242 123.32C200.69 123.128 201.211 123.031 201.805 123.031C202.768 123.031 203.729 123.273 204.688 123.758L204.055 125.531C203.888 125.401 203.68 125.281 203.43 125.172C203.18 125.057 202.922 124.966 202.656 124.898C202.396 124.831 202.161 124.797 201.953 124.797C201.698 124.797 201.497 124.849 201.352 124.953C201.211 125.057 201.141 125.201 201.141 125.383C201.141 125.518 201.19 125.641 201.289 125.75C201.388 125.854 201.534 125.956 201.727 126.055C201.924 126.148 202.167 126.25 202.453 126.359C202.807 126.49 203.164 126.646 203.523 126.828C203.888 127.005 204.193 127.245 204.438 127.547C204.688 127.844 204.812 128.24 204.812 128.734C204.812 129.219 204.68 129.643 204.414 130.008C204.154 130.372 203.784 130.656 203.305 130.859C202.831 131.057 202.273 131.156 201.633 131.156C200.565 131.156 199.568 130.88 198.641 130.328Z" fill="white"/>
<path d="M190.602 172H187.836L182.359 164V172H179.953V160.281H182.719L188.195 168.297V160.281H190.602V172ZM196.227 172.156C195.424 172.156 194.706 171.982 194.07 171.633C193.435 171.279 192.935 170.797 192.57 170.188C192.211 169.573 192.031 168.875 192.031 168.094C192.031 167.318 192.211 166.625 192.57 166.016C192.935 165.401 193.435 164.917 194.07 164.562C194.706 164.208 195.424 164.031 196.227 164.031C197.029 164.031 197.742 164.208 198.367 164.562C198.997 164.917 199.492 165.401 199.852 166.016C200.216 166.625 200.398 167.318 200.398 168.094C200.398 168.875 200.216 169.573 199.852 170.188C199.492 170.797 198.997 171.279 198.367 171.633C197.742 171.982 197.029 172.156 196.227 172.156ZM196.219 170.148C196.578 170.148 196.898 170.06 197.18 169.883C197.466 169.701 197.69 169.456 197.852 169.148C198.018 168.836 198.102 168.479 198.102 168.078C198.102 167.693 198.018 167.346 197.852 167.039C197.69 166.732 197.466 166.49 197.18 166.312C196.898 166.13 196.578 166.039 196.219 166.039C195.854 166.039 195.529 166.13 195.242 166.312C194.961 166.49 194.737 166.732 194.57 167.039C194.409 167.346 194.328 167.693 194.328 168.078C194.328 168.479 194.409 168.836 194.57 169.148C194.737 169.456 194.961 169.701 195.242 169.883C195.529 170.06 195.854 170.148 196.219 170.148Z" fill="white"/>
<rect x="152" y="159" width="15" height="15" rx="3" fill="#EB5E55"/>
<rect x="152" y="118" width="15" height="15" rx="3" fill="#455A64"/>
<path fill-rule="evenodd" clip-rule="evenodd" d="M66 211C102.451 211 132 181.451 132 145C132 108.549 102.451 79 66 79C29.5492 79 0 108.549 0 145C0 181.451 29.5492 211 66 211ZM66 177.667C84.0413 177.667 98.6666 163.041 98.6666 145C98.6666 126.959 84.0413 112.333 66 112.333C47.9587 112.333 33.3333 126.959 33.3333 145C33.3333 163.041 47.9587 177.667 66 177.667Z" fill="#455A64"/>
<path fill-rule="evenodd" clip-rule="evenodd" d="M81.4217 116.195C76.8284 113.731 71.5774 112.333 66 112.333C47.9587 112.333 33.3333 126.959 33.3333 145C33.3333 145.223 33.3355 145.445 33.34 145.667H0.00330024C0.0011018 145.445 0 145.223 0 145C0 108.549 29.5492 79 66 79C77.3653 79 88.0597 81.8727 97.3966 86.9317L81.4217 116.195Z" fill="#EB5E55"/>
<path d="M55.625 197.234C54.8073 197.234 54.0938 197.096 53.4844 196.82C52.875 196.544 52.401 196.156 52.0625 195.656C51.7292 195.151 51.5625 194.562 51.5625 193.891C51.5625 193.146 51.7708 192.505 52.1875 191.969C52.6094 191.427 53.1823 191.036 53.9062 190.797C53.3021 190.568 52.8281 190.219 52.4844 189.75C52.1458 189.276 51.9766 188.716 51.9766 188.07C51.9766 187.456 52.125 186.924 52.4219 186.477C52.724 186.023 53.1484 185.672 53.6953 185.422C54.2422 185.172 54.8854 185.047 55.625 185.047C56.3594 185.047 57 185.172 57.5469 185.422C58.0938 185.672 58.5156 186.023 58.8125 186.477C59.1146 186.924 59.2656 187.456 59.2656 188.07C59.2656 188.716 59.0938 189.276 58.75 189.75C58.4062 190.219 57.9349 190.568 57.3359 190.797C58.0651 191.036 58.638 191.424 59.0547 191.961C59.4766 192.497 59.6875 193.141 59.6875 193.891C59.6875 194.557 59.5182 195.143 59.1797 195.648C58.8411 196.148 58.3672 196.539 57.7578 196.82C57.1484 197.096 56.4375 197.234 55.625 197.234ZM55.625 189.781C56.0104 189.781 56.3229 189.648 56.5625 189.383C56.8021 189.112 56.9219 188.76 56.9219 188.328C56.9219 187.896 56.8021 187.544 56.5625 187.273C56.3229 187.003 56.0104 186.867 55.625 186.867C55.2396 186.867 54.9245 187.003 54.6797 187.273C54.4401 187.544 54.3203 187.896 54.3203 188.328C54.3203 188.76 54.4401 189.112 54.6797 189.383C54.9245 189.648 55.2396 189.781 55.625 189.781ZM55.625 195.32C55.9531 195.32 56.2422 195.247 56.4922 195.102C56.7422 194.951 56.9375 194.74 57.0781 194.469C57.2188 194.198 57.2891 193.888 57.2891 193.539C57.2891 193.18 57.2188 192.867 57.0781 192.602C56.9375 192.331 56.7422 192.122 56.4922 191.977C56.2422 191.826 55.9531 191.75 55.625 191.75C55.2917 191.75 55 191.826 54.75 191.977C54.5052 192.122 54.3125 192.331 54.1719 192.602C54.0312 192.867 53.9609 193.18 53.9609 193.539C53.9609 193.888 54.0312 194.198 54.1719 194.469C54.3125 194.74 54.5052 194.951 54.75 195.102C55 195.247 55.2917 195.32 55.625 195.32ZM65.6953 197H63.2891V187.641L61.3281 188.359L60.5781 186.445L63.7812 185.281H65.6953V197ZM69.8984 190.18C69.1068 190.18 68.4661 189.948 67.9766 189.484C67.4922 189.021 67.25 188.411 67.25 187.656C67.25 186.896 67.4922 186.284 67.9766 185.82C68.4661 185.357 69.1068 185.125 69.8984 185.125C70.6953 185.125 71.3359 185.357 71.8203 185.82C72.3099 186.284 72.5547 186.896 72.5547 187.656C72.5547 188.411 72.3099 189.021 71.8203 189.484C71.3359 189.948 70.6953 190.18 69.8984 190.18ZM70.375 196.992H68.5234L76.0781 185.273H77.9297L70.375 196.992ZM69.8984 188.93C70.2266 188.93 70.4922 188.812 70.6953 188.578C70.8984 188.339 71 188.029 71 187.648C71 187.263 70.8984 186.956 70.6953 186.727C70.4922 186.492 70.2266 186.375 69.8984 186.375C69.5703 186.375 69.3047 186.492 69.1016 186.727C68.9036 186.956 68.8047 187.263 68.8047 187.648C68.8047 188.029 68.9036 188.339 69.1016 188.578C69.3047 188.812 69.5703 188.93 69.8984 188.93ZM76.4922 197.164C75.7005 197.164 75.0599 196.932 74.5703 196.469C74.0859 196 73.8438 195.388 73.8438 194.633C73.8438 193.872 74.0859 193.26 74.5703 192.797C75.0599 192.333 75.7005 192.102 76.4922 192.102C77.2891 192.102 77.9297 192.333 78.4141 192.797C78.8984 193.26 79.1406 193.872 79.1406 194.633C79.1406 195.388 78.8958 196 78.4062 196.469C77.9219 196.932 77.2839 197.164 76.4922 197.164ZM76.4922 195.906C76.8203 195.906 77.0833 195.789 77.2812 195.555C77.4844 195.32 77.5859 195.013 77.5859 194.633C77.5859 194.247 77.4844 193.938 77.2812 193.703C77.0833 193.469 76.8203 193.352 76.4922 193.352C76.1589 193.352 75.8932 193.469 75.6953 193.703C75.4974 193.938 75.3984 194.247 75.3984 194.633C75.3984 195.013 75.4974 195.32 75.6953 195.555C75.8932 195.789 76.1589 195.906 76.4922 195.906Z" fill="white"/>
<path d="M28.0127 111.69H25.6064V102.331L23.6455 103.05L22.8955 101.136L26.0986 99.9717H28.0127V111.69ZM33.083 111.69L31.9893 110.151C32.5986 109.818 33.1559 109.438 33.6611 109.011C34.1663 108.584 34.6064 108.128 34.9814 107.644C35.3617 107.159 35.6663 106.662 35.8955 106.151C35.6038 106.464 35.2497 106.706 34.833 106.878C34.4163 107.05 33.9554 107.136 33.4502 107.136C32.7627 107.136 32.1559 106.985 31.6299 106.683C31.1038 106.381 30.6898 105.966 30.3877 105.44C30.0908 104.914 29.9424 104.308 29.9424 103.62C29.9424 102.87 30.1195 102.203 30.4736 101.62C30.833 101.032 31.3252 100.571 31.9502 100.237C32.5752 99.904 33.2835 99.7373 34.0752 99.7373C34.9189 99.7373 35.6481 99.9248 36.2627 100.3C36.8773 100.675 37.3538 101.206 37.6924 101.894C38.0309 102.576 38.2002 103.381 38.2002 104.308C38.2002 105.058 38.0856 105.784 37.8564 106.487C37.6273 107.19 37.2939 107.86 36.8564 108.495C36.4189 109.125 35.8825 109.711 35.2471 110.253C34.6169 110.789 33.8955 111.269 33.083 111.69ZM34.0361 105.581C34.3643 105.581 34.6533 105.5 34.9033 105.339C35.1533 105.177 35.3512 104.956 35.4971 104.675C35.6429 104.394 35.7158 104.076 35.7158 103.722C35.7158 103.368 35.6429 103.05 35.4971 102.769C35.3564 102.482 35.1611 102.256 34.9111 102.089C34.6611 101.922 34.3799 101.839 34.0674 101.839C33.7549 101.839 33.4736 101.925 33.2236 102.097C32.9736 102.263 32.7757 102.493 32.6299 102.784C32.484 103.071 32.4111 103.396 32.4111 103.761C32.4111 104.11 32.4814 104.422 32.6221 104.698C32.7627 104.969 32.9554 105.185 33.2002 105.347C33.445 105.503 33.7236 105.581 34.0361 105.581ZM41.8096 104.87C41.0179 104.87 40.3773 104.638 39.8877 104.175C39.4033 103.711 39.1611 103.102 39.1611 102.347C39.1611 101.586 39.4033 100.974 39.8877 100.511C40.3773 100.047 41.0179 99.8154 41.8096 99.8154C42.6064 99.8154 43.2471 100.047 43.7314 100.511C44.221 100.974 44.4658 101.586 44.4658 102.347C44.4658 103.102 44.221 103.711 43.7314 104.175C43.2471 104.638 42.6064 104.87 41.8096 104.87ZM42.2861 111.683H40.4346L47.9893 99.9639H49.8408L42.2861 111.683ZM41.8096 103.62C42.1377 103.62 42.4033 103.503 42.6064 103.269C42.8096 103.029 42.9111 102.719 42.9111 102.339C42.9111 101.953 42.8096 101.646 42.6064 101.417C42.4033 101.183 42.1377 101.065 41.8096 101.065C41.4814 101.065 41.2158 101.183 41.0127 101.417C40.8148 101.646 40.7158 101.953 40.7158 102.339C40.7158 102.719 40.8148 103.029 41.0127 103.269C41.2158 103.503 41.4814 103.62 41.8096 103.62ZM48.4033 111.854C47.6117 111.854 46.971 111.623 46.4814 111.159C45.9971 110.69 45.7549 110.078 45.7549 109.323C45.7549 108.563 45.9971 107.951 46.4814 107.487C46.971 107.024 47.6117 106.792 48.4033 106.792C49.2002 106.792 49.8408 107.024 50.3252 107.487C50.8096 107.951 51.0518 108.563 51.0518 109.323C51.0518 110.078 50.807 110.69 50.3174 111.159C49.833 111.623 49.195 111.854 48.4033 111.854ZM48.4033 110.597C48.7314 110.597 48.9945 110.479 49.1924 110.245C49.3955 110.011 49.4971 109.703 49.4971 109.323C49.4971 108.938 49.3955 108.628 49.1924 108.394C48.9945 108.159 48.7314 108.042 48.4033 108.042C48.07 108.042 47.8044 108.159 47.6064 108.394C47.4085 108.628 47.3096 108.938 47.3096 109.323C47.3096 109.703 47.4085 110.011 47.6064 110.245C47.8044 110.479 48.07 110.597 48.4033 110.597Z" fill="white"/>
</svg>
