<svg width="32" height="32" viewBox="0 0 32 32" fill="none" xmlns="http://www.w3.org/2000/svg">
<circle cx="16" cy="16" r="16" fill="#FFBD6A"/>
<path d="M23.7534 22.628L22.7143 21.5889C23.0341 21.1093 23.1939 20.5498 23.1939 19.9903C23.1939 18.2318 21.7551 16.793 19.9966 16.793C18.2381 16.793 16.7993 18.2318 16.7993 19.9903C16.7993 21.7488 18.2381 23.1876 19.9966 23.1876C20.5561 23.1876 21.1157 23.0277 21.5953 22.708L22.6344 23.7471C22.7943 23.907 23.2738 24.2267 23.7534 23.7471C24.0732 23.4274 24.0732 22.9478 23.7534 22.628ZM19.9966 21.5889C19.1174 21.5889 18.398 20.8695 18.398 19.9903C18.398 19.111 19.1174 18.3916 19.9966 18.3916C20.8759 18.3916 21.5953 19.111 21.5953 19.9903C21.5953 20.8695 20.8759 21.5889 19.9966 21.5889Z" fill="#111315"/>
<path d="M19.9962 8H8.80567C8.32608 8 8.00635 8.31973 8.00635 8.79933V23.1872C8.00635 23.6668 8.32608 23.9865 8.80567 23.9865H17.3585C16.0795 23.1073 15.2003 21.6685 15.2003 19.9899C15.2003 17.3521 17.3585 15.1939 19.9962 15.1939C20.236 15.1939 20.5558 15.1939 20.7956 15.2739V8.79933C20.7956 8.31973 20.4758 8 19.9962 8ZM14.401 14.3946H10.4043C9.92473 14.3946 9.605 13.9949 9.605 13.5953C9.605 13.1157 9.92473 12.796 10.4043 12.796H14.401C14.8805 12.796 15.2003 13.1157 15.2003 13.5953C15.2003 13.9949 14.8805 14.3946 14.401 14.3946ZM18.3976 11.1973H10.4043C9.92473 11.1973 9.605 10.7976 9.605 10.398C9.605 9.91838 9.92473 9.59865 10.4043 9.59865H18.3976C18.8772 9.59865 19.1969 9.91838 19.1969 10.398C19.1969 10.7976 18.8772 11.1973 18.3976 11.1973Z" fill="#111315"/>
</svg>
