<svg width="398" height="211" viewBox="0 0 398 211" fill="none" xmlns="http://www.w3.org/2000/svg">
<path opacity="0.8" d="M1.125 18V6.28125H4.65625C6.08333 6.28125 7.3151 6.51823 8.35156 6.99219C9.38802 7.46094 10.1849 8.13281 10.7422 9.00781C11.2995 9.88281 11.5781 10.9271 11.5781 12.1406C11.5781 13.349 11.2995 14.3932 10.7422 15.2734C10.1849 16.1484 9.38802 16.8229 8.35156 17.2969C7.3151 17.7656 6.08333 18 4.65625 18H1.125ZM2.84375 16.4844H4.72656C5.80469 16.4844 6.72396 16.3151 7.48438 15.9766C8.24479 15.6328 8.82292 15.138 9.21875 14.4922C9.61979 13.8411 9.82031 13.0573 9.82031 12.1406C9.82031 11.2188 9.61979 10.4349 9.21875 9.78906C8.82292 9.14323 8.24479 8.65104 7.48438 8.3125C6.72396 7.96875 5.80469 7.79688 4.72656 7.79688H2.84375V16.4844ZM16.875 18.1562C16.0938 18.1562 15.3906 17.9792 14.7656 17.625C14.1406 17.2708 13.6484 16.7891 13.2891 16.1797C12.9297 15.5651 12.75 14.8698 12.75 14.0938C12.75 13.3229 12.9297 12.6328 13.2891 12.0234C13.6484 11.4089 14.1406 10.9245 14.7656 10.5703C15.3906 10.2109 16.0938 10.0312 16.875 10.0312C17.6615 10.0312 18.3646 10.2109 18.9844 10.5703C19.6042 10.9245 20.0911 11.4089 20.4453 12.0234C20.8047 12.6328 20.9844 13.3229 20.9844 14.0938C20.9844 14.8698 20.8047 15.5651 20.4453 16.1797C20.0911 16.7891 19.6042 17.2708 18.9844 17.625C18.3646 17.9792 17.6615 18.1562 16.875 18.1562ZM16.8672 16.7188C17.3411 16.7188 17.763 16.6042 18.1328 16.375C18.5078 16.1406 18.8021 15.8281 19.0156 15.4375C19.2344 15.0417 19.3438 14.5911 19.3438 14.0859C19.3438 13.5911 19.2344 13.1484 19.0156 12.7578C18.8021 12.362 18.5078 12.0495 18.1328 11.8203C17.763 11.5859 17.3411 11.4688 16.8672 11.4688C16.3984 11.4688 15.9766 11.5859 15.6016 11.8203C15.2266 12.0495 14.9297 12.362 14.7109 12.7578C14.4974 13.1484 14.3906 13.5911 14.3906 14.0859C14.3906 14.5911 14.4974 15.0417 14.7109 15.4375C14.9297 15.8281 15.2266 16.1406 15.6016 16.375C15.9766 16.6042 16.3984 16.7188 16.8672 16.7188ZM29.6328 21.9062H27.9062L29.5391 17.9531L25.7344 10.1875H27.5234L30.3047 16.1172L32.7578 10.1875H34.4766L29.6328 21.9062ZM39.2812 18.1562C38.5 18.1562 37.7969 17.9792 37.1719 17.625C36.5469 17.2708 36.0547 16.7891 35.6953 16.1797C35.3359 15.5651 35.1562 14.8698 35.1562 14.0938C35.1562 13.3229 35.3359 12.6328 35.6953 12.0234C36.0547 11.4089 36.5469 10.9245 37.1719 10.5703C37.7969 10.2109 38.5 10.0312 39.2812 10.0312C40.0677 10.0312 40.7708 10.2109 41.3906 10.5703C42.0104 10.9245 42.4974 11.4089 42.8516 12.0234C43.2109 12.6328 43.3906 13.3229 43.3906 14.0938C43.3906 14.8698 43.2109 15.5651 42.8516 16.1797C42.4974 16.7891 42.0104 17.2708 41.3906 17.625C40.7708 17.9792 40.0677 18.1562 39.2812 18.1562ZM39.2734 16.7188C39.7474 16.7188 40.1693 16.6042 40.5391 16.375C40.9141 16.1406 41.2083 15.8281 41.4219 15.4375C41.6406 15.0417 41.75 14.5911 41.75 14.0859C41.75 13.5911 41.6406 13.1484 41.4219 12.7578C41.2083 12.362 40.9141 12.0495 40.5391 11.8203C40.1693 11.5859 39.7474 11.4688 39.2734 11.4688C38.8047 11.4688 38.3828 11.5859 38.0078 11.8203C37.6328 12.0495 37.3359 12.362 37.1172 12.7578C36.9036 13.1484 36.7969 13.5911 36.7969 14.0859C36.7969 14.5911 36.9036 15.0417 37.1172 15.4375C37.3359 15.8281 37.6328 16.1406 38.0078 16.375C38.3828 16.6042 38.8047 16.7188 39.2734 16.7188ZM52.3828 18H51.0234L50.9688 16.7422C50.6823 17.2005 50.3073 17.5521 49.8438 17.7969C49.3854 18.0365 48.8411 18.1562 48.2109 18.1562C47.1901 18.1562 46.3828 17.8464 45.7891 17.2266C45.2005 16.6016 44.9062 15.7474 44.9062 14.6641V10.1875H46.5078V14.4297C46.5078 15.1224 46.6953 15.6745 47.0703 16.0859C47.4453 16.4974 47.9505 16.7031 48.5859 16.7031C49.2422 16.7031 49.7708 16.4844 50.1719 16.0469C50.5781 15.6042 50.7812 15.0234 50.7812 14.3047V10.1875H52.3828V18ZM60.0547 21.9062H58.4531V10.1875H59.8672L59.9531 11.3047C60.3073 10.9089 60.7318 10.599 61.2266 10.375C61.7266 10.1458 62.2734 10.0312 62.8672 10.0312C63.6172 10.0312 64.2865 10.2083 64.875 10.5625C65.4688 10.9167 65.9349 11.401 66.2734 12.0156C66.6172 12.625 66.7891 13.3177 66.7891 14.0938C66.7891 14.8646 66.6172 15.5573 66.2734 16.1719C65.9349 16.7865 65.4688 17.2708 64.875 17.625C64.2865 17.9792 63.6172 18.1562 62.8672 18.1562C62.3047 18.1562 61.7839 18.0547 61.3047 17.8516C60.8255 17.6484 60.4089 17.3646 60.0547 17V21.9062ZM62.6094 16.7031C63.1042 16.7031 63.5417 16.5911 63.9219 16.3672C64.3021 16.1432 64.599 15.8359 64.8125 15.4453C65.0312 15.0495 65.1406 14.5964 65.1406 14.0859C65.1406 13.5755 65.0312 13.125 64.8125 12.7344C64.599 12.3385 64.3021 12.0286 63.9219 11.8047C63.5417 11.5807 63.1068 11.4688 62.6172 11.4688C62.1536 11.4688 61.7344 11.5729 61.3594 11.7812C60.9896 11.9844 60.6875 12.2656 60.4531 12.625C60.224 12.9844 60.0911 13.3932 60.0547 13.8516V14.3359C60.0911 14.7943 60.2214 15.2031 60.4453 15.5625C60.6745 15.9167 60.974 16.1953 61.3438 16.3984C61.7188 16.6016 62.1406 16.7031 62.6094 16.7031ZM70.0703 18H68.4688V10.1875H69.8672L69.9297 11.6719C70.2005 11.1562 70.5729 10.7552 71.0469 10.4688C71.526 10.1771 72.0755 10.0312 72.6953 10.0312C72.8464 10.0312 72.9974 10.0417 73.1484 10.0625C73.3047 10.0781 73.4609 10.1042 73.6172 10.1406L73.4141 11.5859C73.112 11.5078 72.8151 11.4688 72.5234 11.4688C72.0391 11.4688 71.612 11.5859 71.2422 11.8203C70.8724 12.0495 70.5833 12.3672 70.375 12.7734C70.1719 13.1797 70.0703 13.6484 70.0703 14.1797V18ZM81.8125 17.0703C80.8438 17.7943 79.7786 18.1562 78.6172 18.1562C77.7891 18.1562 77.0469 17.974 76.3906 17.6094C75.7344 17.2448 75.2161 16.7474 74.8359 16.1172C74.4557 15.487 74.2656 14.776 74.2656 13.9844C74.2656 13.2292 74.4401 12.5547 74.7891 11.9609C75.138 11.362 75.6146 10.8906 76.2188 10.5469C76.8229 10.2031 77.5078 10.0312 78.2734 10.0312C79.0651 10.0312 79.7604 10.2188 80.3594 10.5938C80.9635 10.9688 81.4323 11.4922 81.7656 12.1641C82.1042 12.8307 82.2734 13.6042 82.2734 14.4844V14.7344H76C76.0938 15.1406 76.2708 15.4974 76.5312 15.8047C76.7917 16.1068 77.1146 16.3438 77.5 16.5156C77.8854 16.6823 78.3203 16.7656 78.8047 16.7656C79.6693 16.7656 80.4635 16.4844 81.1875 15.9219L81.8125 17.0703ZM75.9297 13.625H80.7812C80.7292 13.1875 80.5938 12.8073 80.375 12.4844C80.1562 12.1562 79.8724 11.901 79.5234 11.7188C79.1797 11.5312 78.7917 11.4375 78.3594 11.4375C77.9219 11.4375 77.5286 11.5312 77.1797 11.7188C76.8307 11.901 76.5469 12.1562 76.3281 12.4844C76.1146 12.8125 75.9818 13.1927 75.9297 13.625ZM86.1562 18H84.5547V11.6172H83.1875V10.1875H84.5547V8.66406C84.5547 8.15365 84.6667 7.70312 84.8906 7.3125C85.1198 6.91667 85.4323 6.60677 85.8281 6.38281C86.2292 6.15885 86.6901 6.04688 87.2109 6.04688C87.5339 6.04688 87.8594 6.09115 88.1875 6.17969C88.5156 6.26823 88.8385 6.40625 89.1562 6.59375L88.5469 7.85156C88.375 7.72656 88.1953 7.63542 88.0078 7.57812C87.8255 7.51562 87.6432 7.48438 87.4609 7.48438C87.0807 7.48438 86.7682 7.61979 86.5234 7.89062C86.2786 8.16146 86.1562 8.52344 86.1562 8.97656V10.1875H88.5469V11.6172H86.1562V18ZM97.1406 17.0703C96.1719 17.7943 95.1068 18.1562 93.9453 18.1562C93.1172 18.1562 92.375 17.974 91.7188 17.6094C91.0625 17.2448 90.5443 16.7474 90.1641 16.1172C89.7839 15.487 89.5938 14.776 89.5938 13.9844C89.5938 13.2292 89.7682 12.5547 90.1172 11.9609C90.4661 11.362 90.9427 10.8906 91.5469 10.5469C92.151 10.2031 92.8359 10.0312 93.6016 10.0312C94.3932 10.0312 95.0885 10.2188 95.6875 10.5938C96.2917 10.9688 96.7604 11.4922 97.0938 12.1641C97.4323 12.8307 97.6016 13.6042 97.6016 14.4844V14.7344H91.3281C91.4219 15.1406 91.599 15.4974 91.8594 15.8047C92.1198 16.1068 92.4427 16.3438 92.8281 16.5156C93.2135 16.6823 93.6484 16.7656 94.1328 16.7656C94.9974 16.7656 95.7917 16.4844 96.5156 15.9219L97.1406 17.0703ZM91.2578 13.625H96.1094C96.0573 13.1875 95.9219 12.8073 95.7031 12.4844C95.4844 12.1562 95.2005 11.901 94.8516 11.7188C94.5078 11.5312 94.1198 11.4375 93.6875 11.4375C93.25 11.4375 92.8568 11.5312 92.5078 11.7188C92.1589 11.901 91.875 12.1562 91.6562 12.4844C91.4427 12.8125 91.3099 13.1927 91.2578 13.625ZM100.883 18H99.2812V10.1875H100.68L100.742 11.6719C101.013 11.1562 101.385 10.7552 101.859 10.4688C102.339 10.1771 102.888 10.0312 103.508 10.0312C103.659 10.0312 103.81 10.0417 103.961 10.0625C104.117 10.0781 104.273 10.1042 104.43 10.1406L104.227 11.5859C103.924 11.5078 103.628 11.4688 103.336 11.4688C102.852 11.4688 102.424 11.5859 102.055 11.8203C101.685 12.0495 101.396 12.3672 101.188 12.7734C100.984 13.1797 100.883 13.6484 100.883 14.1797V18ZM114.312 17.8047C113.766 18.0391 113.237 18.1562 112.727 18.1562C112.216 18.1562 111.768 18.0469 111.383 17.8281C111.003 17.6094 110.703 17.3021 110.484 16.9062C110.271 16.5052 110.164 16.0443 110.164 15.5234V11.6172H108.797V10.1875H110.242V8.23438H111.766V10.1875H114.047V11.6172H111.766V15.2266C111.766 15.6849 111.888 16.0495 112.133 16.3203C112.383 16.5859 112.703 16.7188 113.094 16.7188C113.422 16.7188 113.747 16.6198 114.07 16.4219L114.312 17.8047ZM119.438 18.1562C118.656 18.1562 117.953 17.9792 117.328 17.625C116.703 17.2708 116.211 16.7891 115.852 16.1797C115.492 15.5651 115.312 14.8698 115.312 14.0938C115.312 13.3229 115.492 12.6328 115.852 12.0234C116.211 11.4089 116.703 10.9245 117.328 10.5703C117.953 10.2109 118.656 10.0312 119.438 10.0312C120.224 10.0312 120.927 10.2109 121.547 10.5703C122.167 10.9245 122.654 11.4089 123.008 12.0234C123.367 12.6328 123.547 13.3229 123.547 14.0938C123.547 14.8698 123.367 15.5651 123.008 16.1797C122.654 16.7891 122.167 17.2708 121.547 17.625C120.927 17.9792 120.224 18.1562 119.438 18.1562ZM119.43 16.7188C119.904 16.7188 120.326 16.6042 120.695 16.375C121.07 16.1406 121.365 15.8281 121.578 15.4375C121.797 15.0417 121.906 14.5911 121.906 14.0859C121.906 13.5911 121.797 13.1484 121.578 12.7578C121.365 12.362 121.07 12.0495 120.695 11.8203C120.326 11.5859 119.904 11.4688 119.43 11.4688C118.961 11.4688 118.539 11.5859 118.164 11.8203C117.789 12.0495 117.492 12.362 117.273 12.7578C117.06 13.1484 116.953 13.5911 116.953 14.0859C116.953 14.5911 117.06 15.0417 117.273 15.4375C117.492 15.8281 117.789 16.1406 118.164 16.375C118.539 16.6042 118.961 16.7188 119.43 16.7188ZM128.484 17.3203L128.875 15.8828C129.052 16.0599 129.263 16.2161 129.508 16.3516C129.758 16.487 130.021 16.5938 130.297 16.6719C130.578 16.7448 130.854 16.7812 131.125 16.7812C131.552 16.7812 131.896 16.6901 132.156 16.5078C132.417 16.3255 132.547 16.0833 132.547 15.7812C132.547 15.5573 132.474 15.3724 132.328 15.2266C132.188 15.0755 131.997 14.9453 131.758 14.8359C131.523 14.7266 131.271 14.6198 131 14.5156C130.651 14.3854 130.302 14.2344 129.953 14.0625C129.609 13.8906 129.32 13.6615 129.086 13.375C128.852 13.0885 128.734 12.7109 128.734 12.2422C128.734 11.7943 128.849 11.4062 129.078 11.0781C129.307 10.7448 129.628 10.487 130.039 10.3047C130.451 10.1224 130.924 10.0312 131.461 10.0312C132.294 10.0312 133.12 10.2396 133.938 10.6562L133.469 12.0234C133.302 11.9036 133.104 11.7969 132.875 11.7031C132.646 11.6094 132.411 11.5365 132.172 11.4844C131.932 11.4271 131.711 11.3984 131.508 11.3984C131.169 11.3984 130.896 11.474 130.688 11.625C130.484 11.776 130.383 11.9792 130.383 12.2344C130.383 12.3906 130.432 12.5339 130.531 12.6641C130.63 12.7891 130.786 12.9141 131 13.0391C131.219 13.1589 131.513 13.2943 131.883 13.4453C132.237 13.5859 132.591 13.7474 132.945 13.9297C133.299 14.112 133.594 14.349 133.828 14.6406C134.068 14.9323 134.188 15.3151 134.188 15.7891C134.188 16.2578 134.062 16.6719 133.812 17.0312C133.562 17.3854 133.214 17.6615 132.766 17.8594C132.323 18.0573 131.807 18.1562 131.219 18.1562C130.245 18.1562 129.333 17.8776 128.484 17.3203ZM136.719 7.92188C136.474 7.92188 136.268 7.83594 136.102 7.66406C135.935 7.49219 135.852 7.28385 135.852 7.03906C135.852 6.79427 135.935 6.58854 136.102 6.42188C136.268 6.25 136.474 6.16406 136.719 6.16406C136.969 6.16406 137.177 6.25 137.344 6.42188C137.516 6.58854 137.602 6.79427 137.602 7.03906C137.602 7.28385 137.516 7.49219 137.344 7.66406C137.177 7.83594 136.969 7.92188 136.719 7.92188ZM137.516 18H135.914V10.1875H137.516V18ZM144.641 17.8047C144.094 18.0391 143.565 18.1562 143.055 18.1562C142.544 18.1562 142.096 18.0469 141.711 17.8281C141.331 17.6094 141.031 17.3021 140.812 16.9062C140.599 16.5052 140.492 16.0443 140.492 15.5234V11.6172H139.125V10.1875H140.57V8.23438H142.094V10.1875H144.375V11.6172H142.094V15.2266C142.094 15.6849 142.216 16.0495 142.461 16.3203C142.711 16.5859 143.031 16.7188 143.422 16.7188C143.75 16.7188 144.076 16.6198 144.398 16.4219L144.641 17.8047ZM156.555 18H155.172L155.078 17C154.792 17.3646 154.43 17.6484 153.992 17.8516C153.555 18.0547 153.07 18.1562 152.539 18.1562C151.982 18.1562 151.484 18.0469 151.047 17.8281C150.609 17.6094 150.266 17.3099 150.016 16.9297C149.766 16.5495 149.641 16.1172 149.641 15.6328C149.641 15.1224 149.776 14.6745 150.047 14.2891C150.318 13.8984 150.688 13.5938 151.156 13.375C151.625 13.151 152.159 13.0391 152.758 13.0391C153.133 13.0391 153.513 13.0833 153.898 13.1719C154.289 13.2604 154.641 13.3854 154.953 13.5469V13.2578C154.953 12.8776 154.854 12.5521 154.656 12.2812C154.464 12.0052 154.198 11.7943 153.859 11.6484C153.526 11.5026 153.156 11.4297 152.75 11.4297C152.391 11.4297 152.023 11.4922 151.648 11.6172C151.279 11.7422 150.93 11.9349 150.602 12.1953L150.117 10.8906C150.591 10.6094 151.083 10.3958 151.594 10.25C152.109 10.1042 152.615 10.0312 153.109 10.0312C153.818 10.0312 154.427 10.1719 154.938 10.4531C155.453 10.7344 155.852 11.1354 156.133 11.6562C156.414 12.1719 156.555 12.7812 156.555 13.4844V18ZM152.852 16.7969C153.221 16.7969 153.562 16.7214 153.875 16.5703C154.188 16.4141 154.44 16.1953 154.633 15.9141C154.831 15.6276 154.938 15.2943 154.953 14.9141V14.8047C154.688 14.6068 154.388 14.4531 154.055 14.3438C153.727 14.2292 153.391 14.1719 153.047 14.1719C152.521 14.1719 152.083 14.2969 151.734 14.5469C151.385 14.7969 151.211 15.1172 151.211 15.5078C151.211 15.7526 151.281 15.974 151.422 16.1719C151.568 16.3646 151.763 16.5182 152.008 16.6328C152.258 16.7422 152.539 16.7969 152.852 16.7969ZM163.266 17.8047C162.719 18.0391 162.19 18.1562 161.68 18.1562C161.169 18.1562 160.721 18.0469 160.336 17.8281C159.956 17.6094 159.656 17.3021 159.438 16.9062C159.224 16.5052 159.117 16.0443 159.117 15.5234V11.6172H157.75V10.1875H159.195V8.23438H160.719V10.1875H163V11.6172H160.719V15.2266C160.719 15.6849 160.841 16.0495 161.086 16.3203C161.336 16.5859 161.656 16.7188 162.047 16.7188C162.375 16.7188 162.701 16.6198 163.023 16.4219L163.266 17.8047ZM168.656 18V6.28125H170.258V11.2734C170.836 10.4453 171.714 10.0312 172.891 10.0312C173.906 10.0312 174.701 10.3385 175.273 10.9531C175.846 11.5677 176.133 12.4245 176.133 13.5234V18H174.531V13.9141C174.531 13.138 174.344 12.5365 173.969 12.1094C173.599 11.6823 173.081 11.4688 172.414 11.4688C171.742 11.4688 171.214 11.6875 170.828 12.125C170.448 12.5573 170.258 13.1536 170.258 13.9141V18H168.656ZM181.781 18.1562C181 18.1562 180.297 17.9792 179.672 17.625C179.047 17.2708 178.555 16.7891 178.195 16.1797C177.836 15.5651 177.656 14.8698 177.656 14.0938C177.656 13.3229 177.836 12.6328 178.195 12.0234C178.555 11.4089 179.047 10.9245 179.672 10.5703C180.297 10.2109 181 10.0312 181.781 10.0312C182.568 10.0312 183.271 10.2109 183.891 10.5703C184.51 10.9245 184.997 11.4089 185.352 12.0234C185.711 12.6328 185.891 13.3229 185.891 14.0938C185.891 14.8698 185.711 15.5651 185.352 16.1797C184.997 16.7891 184.51 17.2708 183.891 17.625C183.271 17.9792 182.568 18.1562 181.781 18.1562ZM181.773 16.7188C182.247 16.7188 182.669 16.6042 183.039 16.375C183.414 16.1406 183.708 15.8281 183.922 15.4375C184.141 15.0417 184.25 14.5911 184.25 14.0859C184.25 13.5911 184.141 13.1484 183.922 12.7578C183.708 12.362 183.414 12.0495 183.039 11.8203C182.669 11.5859 182.247 11.4688 181.773 11.4688C181.305 11.4688 180.883 11.5859 180.508 11.8203C180.133 12.0495 179.836 12.362 179.617 12.7578C179.404 13.1484 179.297 13.5911 179.297 14.0859C179.297 14.5911 179.404 15.0417 179.617 15.4375C179.836 15.8281 180.133 16.1406 180.508 16.375C180.883 16.6042 181.305 16.7188 181.773 16.7188ZM200.047 18H198.445V13.9141C198.445 13.138 198.279 12.5365 197.945 12.1094C197.617 11.6823 197.154 11.4688 196.555 11.4688C195.945 11.4688 195.469 11.6849 195.125 12.1172C194.781 12.5495 194.609 13.1484 194.609 13.9141V18H193.008V13.9141C193.008 13.138 192.841 12.5365 192.508 12.1094C192.174 11.6823 191.708 11.4688 191.109 11.4688C190.5 11.4688 190.023 11.6849 189.68 12.1172C189.336 12.5495 189.164 13.1484 189.164 13.9141V18H187.562V10.1875H188.859L188.922 11.5469C189.182 11.0521 189.534 10.6771 189.977 10.4219C190.424 10.1615 190.951 10.0312 191.555 10.0312C192.195 10.0312 192.745 10.1719 193.203 10.4531C193.661 10.7344 194.008 11.138 194.242 11.6641C194.503 11.1276 194.862 10.7214 195.32 10.4453C195.784 10.1693 196.333 10.0312 196.969 10.0312C197.938 10.0312 198.693 10.3385 199.234 10.9531C199.776 11.5677 200.047 12.4245 200.047 13.5234V18ZM209.109 17.0703C208.141 17.7943 207.076 18.1562 205.914 18.1562C205.086 18.1562 204.344 17.974 203.688 17.6094C203.031 17.2448 202.513 16.7474 202.133 16.1172C201.753 15.487 201.562 14.776 201.562 13.9844C201.562 13.2292 201.737 12.5547 202.086 11.9609C202.435 11.362 202.911 10.8906 203.516 10.5469C204.12 10.2031 204.805 10.0312 205.57 10.0312C206.362 10.0312 207.057 10.2188 207.656 10.5938C208.26 10.9688 208.729 11.4922 209.062 12.1641C209.401 12.8307 209.57 13.6042 209.57 14.4844V14.7344H203.297C203.391 15.1406 203.568 15.4974 203.828 15.8047C204.089 16.1068 204.411 16.3438 204.797 16.5156C205.182 16.6823 205.617 16.7656 206.102 16.7656C206.966 16.7656 207.76 16.4844 208.484 15.9219L209.109 17.0703ZM203.227 13.625H208.078C208.026 13.1875 207.891 12.8073 207.672 12.4844C207.453 12.1562 207.169 11.901 206.82 11.7188C206.477 11.5312 206.089 11.4375 205.656 11.4375C205.219 11.4375 204.826 11.5312 204.477 11.7188C204.128 11.901 203.844 12.1562 203.625 12.4844C203.411 12.8125 203.279 13.1927 203.227 13.625ZM221.586 18H220.203L220.109 17C219.823 17.3646 219.461 17.6484 219.023 17.8516C218.586 18.0547 218.102 18.1562 217.57 18.1562C217.013 18.1562 216.516 18.0469 216.078 17.8281C215.641 17.6094 215.297 17.3099 215.047 16.9297C214.797 16.5495 214.672 16.1172 214.672 15.6328C214.672 15.1224 214.807 14.6745 215.078 14.2891C215.349 13.8984 215.719 13.5938 216.188 13.375C216.656 13.151 217.19 13.0391 217.789 13.0391C218.164 13.0391 218.544 13.0833 218.93 13.1719C219.32 13.2604 219.672 13.3854 219.984 13.5469V13.2578C219.984 12.8776 219.885 12.5521 219.688 12.2812C219.495 12.0052 219.229 11.7943 218.891 11.6484C218.557 11.5026 218.188 11.4297 217.781 11.4297C217.422 11.4297 217.055 11.4922 216.68 11.6172C216.31 11.7422 215.961 11.9349 215.633 12.1953L215.148 10.8906C215.622 10.6094 216.115 10.3958 216.625 10.25C217.141 10.1042 217.646 10.0312 218.141 10.0312C218.849 10.0312 219.458 10.1719 219.969 10.4531C220.484 10.7344 220.883 11.1354 221.164 11.6562C221.445 12.1719 221.586 12.7812 221.586 13.4844V18ZM217.883 16.7969C218.253 16.7969 218.594 16.7214 218.906 16.5703C219.219 16.4141 219.471 16.1953 219.664 15.9141C219.862 15.6276 219.969 15.2943 219.984 14.9141V14.8047C219.719 14.6068 219.419 14.4531 219.086 14.3438C218.758 14.2292 218.422 14.1719 218.078 14.1719C217.552 14.1719 217.115 14.2969 216.766 14.5469C216.417 14.7969 216.242 15.1172 216.242 15.5078C216.242 15.7526 216.312 15.974 216.453 16.1719C216.599 16.3646 216.794 16.5182 217.039 16.6328C217.289 16.7422 217.57 16.7969 217.883 16.7969ZM231.164 18H229.562V13.7578C229.562 13.0651 229.372 12.513 228.992 12.1016C228.617 11.6901 228.112 11.4844 227.477 11.4844C226.82 11.4844 226.292 11.7031 225.891 12.1406C225.49 12.5781 225.289 13.1589 225.289 13.8828V18H223.688V10.1875H225.039L225.094 11.4453C225.38 10.987 225.755 10.638 226.219 10.3984C226.682 10.1536 227.227 10.0312 227.852 10.0312C228.878 10.0312 229.685 10.3411 230.273 10.9609C230.867 11.5807 231.164 12.4349 231.164 13.5234V18ZM241.031 18H239.617L239.531 16.8828C239.177 17.2786 238.75 17.5911 238.25 17.8203C237.755 18.0443 237.211 18.1562 236.617 18.1562C235.867 18.1562 235.195 17.9792 234.602 17.625C234.008 17.2708 233.539 16.7865 233.195 16.1719C232.857 15.5573 232.688 14.8646 232.688 14.0938C232.688 13.3177 232.857 12.625 233.195 12.0156C233.539 11.401 234.008 10.9167 234.602 10.5625C235.195 10.2083 235.867 10.0312 236.617 10.0312C237.18 10.0312 237.701 10.1328 238.18 10.3359C238.664 10.5391 239.081 10.8229 239.43 11.1875V6.28125H241.031V18ZM236.883 16.7188C237.357 16.7188 237.784 16.6094 238.164 16.3906C238.549 16.1719 238.857 15.875 239.086 15.5C239.315 15.125 239.43 14.6979 239.43 14.2188V13.9531C239.43 13.474 239.315 13.0469 239.086 12.6719C238.857 12.2969 238.549 12.0026 238.164 11.7891C237.784 11.5755 237.357 11.4688 236.883 11.4688C236.398 11.4688 235.964 11.5833 235.578 11.8125C235.193 12.0417 234.888 12.3542 234.664 12.75C234.44 13.1406 234.328 13.5859 234.328 14.0859C234.328 14.5859 234.44 15.0339 234.664 15.4297C234.888 15.8255 235.193 16.1406 235.578 16.375C235.964 16.6042 236.398 16.7188 236.883 16.7188ZM254.062 17.0703C253.094 17.7943 252.029 18.1562 250.867 18.1562C250.039 18.1562 249.297 17.974 248.641 17.6094C247.984 17.2448 247.466 16.7474 247.086 16.1172C246.706 15.487 246.516 14.776 246.516 13.9844C246.516 13.2292 246.69 12.5547 247.039 11.9609C247.388 11.362 247.865 10.8906 248.469 10.5469C249.073 10.2031 249.758 10.0312 250.523 10.0312C251.315 10.0312 252.01 10.2188 252.609 10.5938C253.214 10.9688 253.682 11.4922 254.016 12.1641C254.354 12.8307 254.523 13.6042 254.523 14.4844V14.7344H248.25C248.344 15.1406 248.521 15.4974 248.781 15.8047C249.042 16.1068 249.365 16.3438 249.75 16.5156C250.135 16.6823 250.57 16.7656 251.055 16.7656C251.919 16.7656 252.714 16.4844 253.438 15.9219L254.062 17.0703ZM248.18 13.625H253.031C252.979 13.1875 252.844 12.8073 252.625 12.4844C252.406 12.1562 252.122 11.901 251.773 11.7188C251.43 11.5312 251.042 11.4375 250.609 11.4375C250.172 11.4375 249.779 11.5312 249.43 11.7188C249.081 11.901 248.797 12.1562 248.578 12.4844C248.365 12.8125 248.232 13.1927 248.18 13.625ZM257.055 18H254.953L258.297 13.9766L255.18 10.1875H257.32L259.367 12.7969L261.383 10.1875H263.484L260.414 13.9453L263.758 18H261.609L259.352 15.1172L257.055 18ZM266.602 21.9062H265V10.1875H266.414L266.5 11.3047C266.854 10.9089 267.279 10.599 267.773 10.375C268.273 10.1458 268.82 10.0312 269.414 10.0312C270.164 10.0312 270.833 10.2083 271.422 10.5625C272.016 10.9167 272.482 11.401 272.82 12.0156C273.164 12.625 273.336 13.3177 273.336 14.0938C273.336 14.8646 273.164 15.5573 272.82 16.1719C272.482 16.7865 272.016 17.2708 271.422 17.625C270.833 17.9792 270.164 18.1562 269.414 18.1562C268.852 18.1562 268.331 18.0547 267.852 17.8516C267.372 17.6484 266.956 17.3646 266.602 17V21.9062ZM269.156 16.7031C269.651 16.7031 270.089 16.5911 270.469 16.3672C270.849 16.1432 271.146 15.8359 271.359 15.4453C271.578 15.0495 271.688 14.5964 271.688 14.0859C271.688 13.5755 271.578 13.125 271.359 12.7344C271.146 12.3385 270.849 12.0286 270.469 11.8047C270.089 11.5807 269.654 11.4688 269.164 11.4688C268.701 11.4688 268.281 11.5729 267.906 11.7812C267.536 11.9844 267.234 12.2656 267 12.625C266.771 12.9844 266.638 13.3932 266.602 13.8516V14.3359C266.638 14.7943 266.768 15.2031 266.992 15.5625C267.221 15.9167 267.521 16.1953 267.891 16.3984C268.266 16.6016 268.688 16.7031 269.156 16.7031ZM281.984 17.0703C281.016 17.7943 279.951 18.1562 278.789 18.1562C277.961 18.1562 277.219 17.974 276.562 17.6094C275.906 17.2448 275.388 16.7474 275.008 16.1172C274.628 15.487 274.438 14.776 274.438 13.9844C274.438 13.2292 274.612 12.5547 274.961 11.9609C275.31 11.362 275.786 10.8906 276.391 10.5469C276.995 10.2031 277.68 10.0312 278.445 10.0312C279.237 10.0312 279.932 10.2188 280.531 10.5938C281.135 10.9688 281.604 11.4922 281.938 12.1641C282.276 12.8307 282.445 13.6042 282.445 14.4844V14.7344H276.172C276.266 15.1406 276.443 15.4974 276.703 15.8047C276.964 16.1068 277.286 16.3438 277.672 16.5156C278.057 16.6823 278.492 16.7656 278.977 16.7656C279.841 16.7656 280.635 16.4844 281.359 15.9219L281.984 17.0703ZM276.102 13.625H280.953C280.901 13.1875 280.766 12.8073 280.547 12.4844C280.328 12.1562 280.044 11.901 279.695 11.7188C279.352 11.5312 278.964 11.4375 278.531 11.4375C278.094 11.4375 277.701 11.5312 277.352 11.7188C277.003 11.901 276.719 12.1562 276.5 12.4844C276.286 12.8125 276.154 13.1927 276.102 13.625ZM290.758 16.8359C290.378 17.2578 289.922 17.5833 289.391 17.8125C288.859 18.0417 288.284 18.1562 287.664 18.1562C286.883 18.1562 286.18 17.9792 285.555 17.625C284.935 17.2708 284.445 16.7865 284.086 16.1719C283.727 15.5573 283.547 14.8646 283.547 14.0938C283.547 13.3177 283.727 12.625 284.086 12.0156C284.445 11.401 284.935 10.9167 285.555 10.5625C286.18 10.2083 286.883 10.0312 287.664 10.0312C288.279 10.0312 288.852 10.1458 289.383 10.375C289.914 10.599 290.37 10.9219 290.75 11.3438L289.805 12.3359C289.549 12.0651 289.242 11.8568 288.883 11.7109C288.529 11.5599 288.151 11.4844 287.75 11.4844C287.255 11.4844 286.815 11.5964 286.43 11.8203C286.044 12.0443 285.742 12.3516 285.523 12.7422C285.305 13.1276 285.195 13.5755 285.195 14.0859C285.195 14.5911 285.305 15.0417 285.523 15.4375C285.742 15.8333 286.044 16.1432 286.43 16.3672C286.815 16.5911 287.255 16.7031 287.75 16.7031C288.151 16.7031 288.531 16.6276 288.891 16.4766C289.25 16.3255 289.555 16.1172 289.805 15.8516L290.758 16.8359ZM297.188 17.8047C296.641 18.0391 296.112 18.1562 295.602 18.1562C295.091 18.1562 294.643 18.0469 294.258 17.8281C293.878 17.6094 293.578 17.3021 293.359 16.9062C293.146 16.5052 293.039 16.0443 293.039 15.5234V11.6172H291.672V10.1875H293.117V8.23438H294.641V10.1875H296.922V11.6172H294.641V15.2266C294.641 15.6849 294.763 16.0495 295.008 16.3203C295.258 16.5859 295.578 16.7188 295.969 16.7188C296.297 16.7188 296.622 16.6198 296.945 16.4219L297.188 17.8047ZM307.422 17.8047C306.875 18.0391 306.346 18.1562 305.836 18.1562C305.326 18.1562 304.878 18.0469 304.492 17.8281C304.112 17.6094 303.812 17.3021 303.594 16.9062C303.38 16.5052 303.273 16.0443 303.273 15.5234V11.6172H301.906V10.1875H303.352V8.23438H304.875V10.1875H307.156V11.6172H304.875V15.2266C304.875 15.6849 304.997 16.0495 305.242 16.3203C305.492 16.5859 305.812 16.7188 306.203 16.7188C306.531 16.7188 306.857 16.6198 307.18 16.4219L307.422 17.8047ZM309 18V6.28125H310.602V11.2734C311.18 10.4453 312.057 10.0312 313.234 10.0312C314.25 10.0312 315.044 10.3385 315.617 10.9531C316.19 11.5677 316.477 12.4245 316.477 13.5234V18H314.875V13.9141C314.875 13.138 314.688 12.5365 314.312 12.1094C313.943 11.6823 313.424 11.4688 312.758 11.4688C312.086 11.4688 311.557 11.6875 311.172 12.125C310.792 12.5573 310.602 13.1536 310.602 13.9141V18H309ZM325.547 17.0703C324.578 17.7943 323.513 18.1562 322.352 18.1562C321.523 18.1562 320.781 17.974 320.125 17.6094C319.469 17.2448 318.951 16.7474 318.57 16.1172C318.19 15.487 318 14.776 318 13.9844C318 13.2292 318.174 12.5547 318.523 11.9609C318.872 11.362 319.349 10.8906 319.953 10.5469C320.557 10.2031 321.242 10.0312 322.008 10.0312C322.799 10.0312 323.495 10.2188 324.094 10.5938C324.698 10.9688 325.167 11.4922 325.5 12.1641C325.839 12.8307 326.008 13.6042 326.008 14.4844V14.7344H319.734C319.828 15.1406 320.005 15.4974 320.266 15.8047C320.526 16.1068 320.849 16.3438 321.234 16.5156C321.62 16.6823 322.055 16.7656 322.539 16.7656C323.404 16.7656 324.198 16.4844 324.922 15.9219L325.547 17.0703ZM319.664 13.625H324.516C324.464 13.1875 324.328 12.8073 324.109 12.4844C323.891 12.1562 323.607 11.901 323.258 11.7188C322.914 11.5312 322.526 11.4375 322.094 11.4375C321.656 11.4375 321.263 11.5312 320.914 11.7188C320.565 11.901 320.281 12.1562 320.062 12.4844C319.849 12.8125 319.716 13.1927 319.664 13.625ZM338.133 16.8359C337.753 17.2578 337.297 17.5833 336.766 17.8125C336.234 18.0417 335.659 18.1562 335.039 18.1562C334.258 18.1562 333.555 17.9792 332.93 17.625C332.31 17.2708 331.82 16.7865 331.461 16.1719C331.102 15.5573 330.922 14.8646 330.922 14.0938C330.922 13.3177 331.102 12.625 331.461 12.0156C331.82 11.401 332.31 10.9167 332.93 10.5625C333.555 10.2083 334.258 10.0312 335.039 10.0312C335.654 10.0312 336.227 10.1458 336.758 10.375C337.289 10.599 337.745 10.9219 338.125 11.3438L337.18 12.3359C336.924 12.0651 336.617 11.8568 336.258 11.7109C335.904 11.5599 335.526 11.4844 335.125 11.4844C334.63 11.4844 334.19 11.5964 333.805 11.8203C333.419 12.0443 333.117 12.3516 332.898 12.7422C332.68 13.1276 332.57 13.5755 332.57 14.0859C332.57 14.5911 332.68 15.0417 332.898 15.4375C333.117 15.8333 333.419 16.1432 333.805 16.3672C334.19 16.5911 334.63 16.7031 335.125 16.7031C335.526 16.7031 335.906 16.6276 336.266 16.4766C336.625 16.3255 336.93 16.1172 337.18 15.8516L338.133 16.8359ZM343.344 18.1562C342.562 18.1562 341.859 17.9792 341.234 17.625C340.609 17.2708 340.117 16.7891 339.758 16.1797C339.398 15.5651 339.219 14.8698 339.219 14.0938C339.219 13.3229 339.398 12.6328 339.758 12.0234C340.117 11.4089 340.609 10.9245 341.234 10.5703C341.859 10.2109 342.562 10.0312 343.344 10.0312C344.13 10.0312 344.833 10.2109 345.453 10.5703C346.073 10.9245 346.56 11.4089 346.914 12.0234C347.273 12.6328 347.453 13.3229 347.453 14.0938C347.453 14.8698 347.273 15.5651 346.914 16.1797C346.56 16.7891 346.073 17.2708 345.453 17.625C344.833 17.9792 344.13 18.1562 343.344 18.1562ZM343.336 16.7188C343.81 16.7188 344.232 16.6042 344.602 16.375C344.977 16.1406 345.271 15.8281 345.484 15.4375C345.703 15.0417 345.812 14.5911 345.812 14.0859C345.812 13.5911 345.703 13.1484 345.484 12.7578C345.271 12.362 344.977 12.0495 344.602 11.8203C344.232 11.5859 343.81 11.4688 343.336 11.4688C342.867 11.4688 342.445 11.5859 342.07 11.8203C341.695 12.0495 341.398 12.362 341.18 12.7578C340.966 13.1484 340.859 13.5911 340.859 14.0859C340.859 14.5911 340.966 15.0417 341.18 15.4375C341.398 15.8281 341.695 16.1406 342.07 16.375C342.445 16.6042 342.867 16.7188 343.336 16.7188ZM356.445 18H355.086L355.031 16.7422C354.745 17.2005 354.37 17.5521 353.906 17.7969C353.448 18.0365 352.904 18.1562 352.273 18.1562C351.253 18.1562 350.445 17.8464 349.852 17.2266C349.263 16.6016 348.969 15.7474 348.969 14.6641V10.1875H350.57V14.4297C350.57 15.1224 350.758 15.6745 351.133 16.0859C351.508 16.4974 352.013 16.7031 352.648 16.7031C353.305 16.7031 353.833 16.4844 354.234 16.0469C354.641 15.6042 354.844 15.0234 354.844 14.3047V10.1875H356.445V18ZM360.305 18H358.703V10.1875H360.102L360.164 11.6719C360.435 11.1562 360.807 10.7552 361.281 10.4688C361.76 10.1771 362.31 10.0312 362.93 10.0312C363.081 10.0312 363.232 10.0417 363.383 10.0625C363.539 10.0781 363.695 10.1042 363.852 10.1406L363.648 11.5859C363.346 11.5078 363.049 11.4688 362.758 11.4688C362.273 11.4688 361.846 11.5859 361.477 11.8203C361.107 12.0495 360.818 12.3672 360.609 12.7734C360.406 13.1797 360.305 13.6484 360.305 14.1797V18ZM365.906 7.92188C365.661 7.92188 365.456 7.83594 365.289 7.66406C365.122 7.49219 365.039 7.28385 365.039 7.03906C365.039 6.79427 365.122 6.58854 365.289 6.42188C365.456 6.25 365.661 6.16406 365.906 6.16406C366.156 6.16406 366.365 6.25 366.531 6.42188C366.703 6.58854 366.789 6.79427 366.789 7.03906C366.789 7.28385 366.703 7.49219 366.531 7.66406C366.365 7.83594 366.156 7.92188 365.906 7.92188ZM366.703 18H365.102V10.1875H366.703V18ZM375.953 17.0703C374.984 17.7943 373.919 18.1562 372.758 18.1562C371.93 18.1562 371.188 17.974 370.531 17.6094C369.875 17.2448 369.357 16.7474 368.977 16.1172C368.596 15.487 368.406 14.776 368.406 13.9844C368.406 13.2292 368.581 12.5547 368.93 11.9609C369.279 11.362 369.755 10.8906 370.359 10.5469C370.964 10.2031 371.648 10.0312 372.414 10.0312C373.206 10.0312 373.901 10.2188 374.5 10.5938C375.104 10.9688 375.573 11.4922 375.906 12.1641C376.245 12.8307 376.414 13.6042 376.414 14.4844V14.7344H370.141C370.234 15.1406 370.411 15.4974 370.672 15.8047C370.932 16.1068 371.255 16.3438 371.641 16.5156C372.026 16.6823 372.461 16.7656 372.945 16.7656C373.81 16.7656 374.604 16.4844 375.328 15.9219L375.953 17.0703ZM370.07 13.625H374.922C374.87 13.1875 374.734 12.8073 374.516 12.4844C374.297 12.1562 374.013 11.901 373.664 11.7188C373.32 11.5312 372.932 11.4375 372.5 11.4375C372.062 11.4375 371.669 11.5312 371.32 11.7188C370.971 11.901 370.688 12.1562 370.469 12.4844C370.255 12.8125 370.122 13.1927 370.07 13.625ZM379.695 18H378.094V10.1875H379.492L379.555 11.6719C379.826 11.1562 380.198 10.7552 380.672 10.4688C381.151 10.1771 381.701 10.0312 382.32 10.0312C382.471 10.0312 382.622 10.0417 382.773 10.0625C382.93 10.0781 383.086 10.1042 383.242 10.1406L383.039 11.5859C382.737 11.5078 382.44 11.4688 382.148 11.4688C381.664 11.4688 381.237 11.5859 380.867 11.8203C380.497 12.0495 380.208 12.3672 380 12.7734C379.797 13.1797 379.695 13.6484 379.695 14.1797V18ZM0.578125 41.3203L0.96875 39.8828C1.14583 40.0599 1.35677 40.2161 1.60156 40.3516C1.85156 40.487 2.11458 40.5938 2.39062 40.6719C2.67188 40.7448 2.94792 40.7812 3.21875 40.7812C3.64583 40.7812 3.98958 40.6901 4.25 40.5078C4.51042 40.3255 4.64062 40.0833 4.64062 39.7812C4.64062 39.5573 4.56771 39.3724 4.42188 39.2266C4.28125 39.0755 4.09115 38.9453 3.85156 38.8359C3.61719 38.7266 3.36458 38.6198 3.09375 38.5156C2.74479 38.3854 2.39583 38.2344 2.04688 38.0625C1.70312 37.8906 1.41406 37.6615 1.17969 37.375C0.945312 37.0885 0.828125 36.7109 0.828125 36.2422C0.828125 35.7943 0.942708 35.4062 1.17188 35.0781C1.40104 34.7448 1.72135 34.487 2.13281 34.3047C2.54427 34.1224 3.01823 34.0312 3.55469 34.0312C4.38802 34.0312 5.21354 34.2396 6.03125 34.6562L5.5625 36.0234C5.39583 35.9036 5.19792 35.7969 4.96875 35.7031C4.73958 35.6094 4.50521 35.5365 4.26562 35.4844C4.02604 35.4271 3.80469 35.3984 3.60156 35.3984C3.26302 35.3984 2.98958 35.474 2.78125 35.625C2.57812 35.776 2.47656 35.9792 2.47656 36.2344C2.47656 36.3906 2.52604 36.5339 2.625 36.6641C2.72396 36.7891 2.88021 36.9141 3.09375 37.0391C3.3125 37.1589 3.60677 37.2943 3.97656 37.4453C4.33073 37.5859 4.6849 37.7474 5.03906 37.9297C5.39323 38.112 5.6875 38.349 5.92188 38.6406C6.16146 38.9323 6.28125 39.3151 6.28125 39.7891C6.28125 40.2578 6.15625 40.6719 5.90625 41.0312C5.65625 41.3854 5.30729 41.6615 4.85938 41.8594C4.41667 42.0573 3.90104 42.1562 3.3125 42.1562C2.33854 42.1562 1.42708 41.8776 0.578125 41.3203ZM14.9531 41.0703C13.9844 41.7943 12.9193 42.1562 11.7578 42.1562C10.9297 42.1562 10.1875 41.974 9.53125 41.6094C8.875 41.2448 8.35677 40.7474 7.97656 40.1172C7.59635 39.487 7.40625 38.776 7.40625 37.9844C7.40625 37.2292 7.58073 36.5547 7.92969 35.9609C8.27865 35.362 8.75521 34.8906 9.35938 34.5469C9.96354 34.2031 10.6484 34.0312 11.4141 34.0312C12.2057 34.0312 12.901 34.2188 13.5 34.5938C14.1042 34.9688 14.5729 35.4922 14.9062 36.1641C15.2448 36.8307 15.4141 37.6042 15.4141 38.4844V38.7344H9.14062C9.23438 39.1406 9.41146 39.4974 9.67188 39.8047C9.93229 40.1068 10.2552 40.3438 10.6406 40.5156C11.026 40.6823 11.4609 40.7656 11.9453 40.7656C12.8099 40.7656 13.6042 40.4844 14.3281 39.9219L14.9531 41.0703ZM9.07031 37.625H13.9219C13.8698 37.1875 13.7344 36.8073 13.5156 36.4844C13.2969 36.1562 13.013 35.901 12.6641 35.7188C12.3203 35.5312 11.9323 35.4375 11.5 35.4375C11.0625 35.4375 10.6693 35.5312 10.3203 35.7188C9.97135 35.901 9.6875 36.1562 9.46875 36.4844C9.25521 36.8125 9.1224 37.1927 9.07031 37.625ZM18.6953 42H17.0938V34.1875H18.4922L18.5547 35.6719C18.8255 35.1562 19.1979 34.7552 19.6719 34.4688C20.151 34.1771 20.7005 34.0312 21.3203 34.0312C21.4714 34.0312 21.6224 34.0417 21.7734 34.0625C21.9297 34.0781 22.0859 34.1042 22.2422 34.1406L22.0391 35.5859C21.737 35.5078 21.4401 35.4688 21.1484 35.4688C20.6641 35.4688 20.237 35.5859 19.8672 35.8203C19.4974 36.0495 19.2083 36.3672 19 36.7734C18.7969 37.1797 18.6953 37.6484 18.6953 38.1797V42ZM31.0547 34.1875L27.8047 42H26.25L23 34.1875H24.7188L27.0391 40.3516L29.3594 34.1875H31.0547ZM33.5156 31.9219C33.2708 31.9219 33.0651 31.8359 32.8984 31.6641C32.7318 31.4922 32.6484 31.2839 32.6484 31.0391C32.6484 30.7943 32.7318 30.5885 32.8984 30.4219C33.0651 30.25 33.2708 30.1641 33.5156 30.1641C33.7656 30.1641 33.974 30.25 34.1406 30.4219C34.3125 30.5885 34.3984 30.7943 34.3984 31.0391C34.3984 31.2839 34.3125 31.4922 34.1406 31.6641C33.974 31.8359 33.7656 31.9219 33.5156 31.9219ZM34.3125 42H32.7109V34.1875H34.3125V42ZM43.2266 40.8359C42.8464 41.2578 42.3906 41.5833 41.8594 41.8125C41.3281 42.0417 40.7526 42.1562 40.1328 42.1562C39.3516 42.1562 38.6484 41.9792 38.0234 41.625C37.4036 41.2708 36.9141 40.7865 36.5547 40.1719C36.1953 39.5573 36.0156 38.8646 36.0156 38.0938C36.0156 37.3177 36.1953 36.625 36.5547 36.0156C36.9141 35.401 37.4036 34.9167 38.0234 34.5625C38.6484 34.2083 39.3516 34.0312 40.1328 34.0312C40.7474 34.0312 41.3203 34.1458 41.8516 34.375C42.3828 34.599 42.8385 34.9219 43.2188 35.3438L42.2734 36.3359C42.0182 36.0651 41.7109 35.8568 41.3516 35.7109C40.9974 35.5599 40.6198 35.4844 40.2188 35.4844C39.724 35.4844 39.2839 35.5964 38.8984 35.8203C38.513 36.0443 38.2109 36.3516 37.9922 36.7422C37.7734 37.1276 37.6641 37.5755 37.6641 38.0859C37.6641 38.5911 37.7734 39.0417 37.9922 39.4375C38.2109 39.8333 38.513 40.1432 38.8984 40.3672C39.2839 40.5911 39.724 40.7031 40.2188 40.7031C40.6198 40.7031 41 40.6276 41.3594 40.4766C41.7188 40.3255 42.0234 40.1172 42.2734 39.8516L43.2266 40.8359ZM51.8594 41.0703C50.8906 41.7943 49.8255 42.1562 48.6641 42.1562C47.8359 42.1562 47.0938 41.974 46.4375 41.6094C45.7812 41.2448 45.263 40.7474 44.8828 40.1172C44.5026 39.487 44.3125 38.776 44.3125 37.9844C44.3125 37.2292 44.487 36.5547 44.8359 35.9609C45.1849 35.362 45.6615 34.8906 46.2656 34.5469C46.8698 34.2031 47.5547 34.0312 48.3203 34.0312C49.112 34.0312 49.8073 34.2188 50.4062 34.5938C51.0104 34.9688 51.4792 35.4922 51.8125 36.1641C52.151 36.8307 52.3203 37.6042 52.3203 38.4844V38.7344H46.0469C46.1406 39.1406 46.3177 39.4974 46.5781 39.8047C46.8385 40.1068 47.1615 40.3438 47.5469 40.5156C47.9323 40.6823 48.3672 40.7656 48.8516 40.7656C49.7161 40.7656 50.5104 40.4844 51.2344 39.9219L51.8594 41.0703ZM45.9766 37.625H50.8281C50.776 37.1875 50.6406 36.8073 50.4219 36.4844C50.2031 36.1562 49.9193 35.901 49.5703 35.7188C49.2266 35.5312 48.8385 35.4375 48.4062 35.4375C47.9688 35.4375 47.5755 35.5312 47.2266 35.7188C46.8776 35.901 46.5938 36.1562 46.375 36.4844C46.1615 36.8125 46.0286 37.1927 45.9766 37.625ZM62.6562 41.8047C62.1094 42.0391 61.5807 42.1562 61.0703 42.1562C60.5599 42.1562 60.112 42.0469 59.7266 41.8281C59.3464 41.6094 59.0469 41.3021 58.8281 40.9062C58.6146 40.5052 58.5078 40.0443 58.5078 39.5234V35.6172H57.1406V34.1875H58.5859V32.2344H60.1094V34.1875H62.3906V35.6172H60.1094V39.2266C60.1094 39.6849 60.2318 40.0495 60.4766 40.3203C60.7266 40.5859 61.0469 40.7188 61.4375 40.7188C61.7656 40.7188 62.0911 40.6198 62.4141 40.4219L62.6562 41.8047ZM67.7812 42.1562C67 42.1562 66.2969 41.9792 65.6719 41.625C65.0469 41.2708 64.5547 40.7891 64.1953 40.1797C63.8359 39.5651 63.6562 38.8698 63.6562 38.0938C63.6562 37.3229 63.8359 36.6328 64.1953 36.0234C64.5547 35.4089 65.0469 34.9245 65.6719 34.5703C66.2969 34.2109 67 34.0312 67.7812 34.0312C68.5677 34.0312 69.2708 34.2109 69.8906 34.5703C70.5104 34.9245 70.9974 35.4089 71.3516 36.0234C71.7109 36.6328 71.8906 37.3229 71.8906 38.0938C71.8906 38.8698 71.7109 39.5651 71.3516 40.1797C70.9974 40.7891 70.5104 41.2708 69.8906 41.625C69.2708 41.9792 68.5677 42.1562 67.7812 42.1562ZM67.7734 40.7188C68.2474 40.7188 68.6693 40.6042 69.0391 40.375C69.4141 40.1406 69.7083 39.8281 69.9219 39.4375C70.1406 39.0417 70.25 38.5911 70.25 38.0859C70.25 37.5911 70.1406 37.1484 69.9219 36.7578C69.7083 36.362 69.4141 36.0495 69.0391 35.8203C68.6693 35.5859 68.2474 35.4688 67.7734 35.4688C67.3047 35.4688 66.8828 35.5859 66.5078 35.8203C66.1328 36.0495 65.8359 36.362 65.6172 36.7578C65.4036 37.1484 65.2969 37.5911 65.2969 38.0859C65.2969 38.5911 65.4036 39.0417 65.6172 39.4375C65.8359 39.8281 66.1328 40.1406 66.5078 40.375C66.8828 40.6042 67.3047 40.7188 67.7734 40.7188ZM84.0078 40.8359C83.6276 41.2578 83.1719 41.5833 82.6406 41.8125C82.1094 42.0417 81.5339 42.1562 80.9141 42.1562C80.1328 42.1562 79.4297 41.9792 78.8047 41.625C78.1849 41.2708 77.6953 40.7865 77.3359 40.1719C76.9766 39.5573 76.7969 38.8646 76.7969 38.0938C76.7969 37.3177 76.9766 36.625 77.3359 36.0156C77.6953 35.401 78.1849 34.9167 78.8047 34.5625C79.4297 34.2083 80.1328 34.0312 80.9141 34.0312C81.5286 34.0312 82.1016 34.1458 82.6328 34.375C83.1641 34.599 83.6198 34.9219 84 35.3438L83.0547 36.3359C82.7995 36.0651 82.4922 35.8568 82.1328 35.7109C81.7786 35.5599 81.401 35.4844 81 35.4844C80.5052 35.4844 80.0651 35.5964 79.6797 35.8203C79.2943 36.0443 78.9922 36.3516 78.7734 36.7422C78.5547 37.1276 78.4453 37.5755 78.4453 38.0859C78.4453 38.5911 78.5547 39.0417 78.7734 39.4375C78.9922 39.8333 79.2943 40.1432 79.6797 40.3672C80.0651 40.5911 80.5052 40.7031 81 40.7031C81.401 40.7031 81.7812 40.6276 82.1406 40.4766C82.5 40.3255 82.8047 40.1172 83.0547 39.8516L84.0078 40.8359ZM89.2188 42.1562C88.4375 42.1562 87.7344 41.9792 87.1094 41.625C86.4844 41.2708 85.9922 40.7891 85.6328 40.1797C85.2734 39.5651 85.0938 38.8698 85.0938 38.0938C85.0938 37.3229 85.2734 36.6328 85.6328 36.0234C85.9922 35.4089 86.4844 34.9245 87.1094 34.5703C87.7344 34.2109 88.4375 34.0312 89.2188 34.0312C90.0052 34.0312 90.7083 34.2109 91.3281 34.5703C91.9479 34.9245 92.4349 35.4089 92.7891 36.0234C93.1484 36.6328 93.3281 37.3229 93.3281 38.0938C93.3281 38.8698 93.1484 39.5651 92.7891 40.1797C92.4349 40.7891 91.9479 41.2708 91.3281 41.625C90.7083 41.9792 90.0052 42.1562 89.2188 42.1562ZM89.2109 40.7188C89.6849 40.7188 90.1068 40.6042 90.4766 40.375C90.8516 40.1406 91.1458 39.8281 91.3594 39.4375C91.5781 39.0417 91.6875 38.5911 91.6875 38.0859C91.6875 37.5911 91.5781 37.1484 91.3594 36.7578C91.1458 36.362 90.8516 36.0495 90.4766 35.8203C90.1068 35.5859 89.6849 35.4688 89.2109 35.4688C88.7422 35.4688 88.3203 35.5859 87.9453 35.8203C87.5703 36.0495 87.2734 36.362 87.0547 36.7578C86.8411 37.1484 86.7344 37.5911 86.7344 38.0859C86.7344 38.5911 86.8411 39.0417 87.0547 39.4375C87.2734 39.8281 87.5703 40.1406 87.9453 40.375C88.3203 40.6042 88.7422 40.7188 89.2109 40.7188ZM107.484 42H105.883V37.9141C105.883 37.138 105.716 36.5365 105.383 36.1094C105.055 35.6823 104.591 35.4688 103.992 35.4688C103.383 35.4688 102.906 35.6849 102.562 36.1172C102.219 36.5495 102.047 37.1484 102.047 37.9141V42H100.445V37.9141C100.445 37.138 100.279 36.5365 99.9453 36.1094C99.612 35.6823 99.1458 35.4688 98.5469 35.4688C97.9375 35.4688 97.4609 35.6849 97.1172 36.1172C96.7734 36.5495 96.6016 37.1484 96.6016 37.9141V42H95V34.1875H96.2969L96.3594 35.5469C96.6198 35.0521 96.9714 34.6771 97.4141 34.4219C97.862 34.1615 98.388 34.0312 98.9922 34.0312C99.6328 34.0312 100.182 34.1719 100.641 34.4531C101.099 34.7344 101.445 35.138 101.68 35.6641C101.94 35.1276 102.299 34.7214 102.758 34.4453C103.221 34.1693 103.771 34.0312 104.406 34.0312C105.375 34.0312 106.13 34.3385 106.672 34.9531C107.214 35.5677 107.484 36.4245 107.484 37.5234V42ZM116.547 41.0703C115.578 41.7943 114.513 42.1562 113.352 42.1562C112.523 42.1562 111.781 41.974 111.125 41.6094C110.469 41.2448 109.951 40.7474 109.57 40.1172C109.19 39.487 109 38.776 109 37.9844C109 37.2292 109.174 36.5547 109.523 35.9609C109.872 35.362 110.349 34.8906 110.953 34.5469C111.557 34.2031 112.242 34.0312 113.008 34.0312C113.799 34.0312 114.495 34.2188 115.094 34.5938C115.698 34.9688 116.167 35.4922 116.5 36.1641C116.839 36.8307 117.008 37.6042 117.008 38.4844V38.7344H110.734C110.828 39.1406 111.005 39.4974 111.266 39.8047C111.526 40.1068 111.849 40.3438 112.234 40.5156C112.62 40.6823 113.055 40.7656 113.539 40.7656C114.404 40.7656 115.198 40.4844 115.922 39.9219L116.547 41.0703ZM110.664 37.625H115.516C115.464 37.1875 115.328 36.8073 115.109 36.4844C114.891 36.1562 114.607 35.901 114.258 35.7188C113.914 35.5312 113.526 35.4375 113.094 35.4375C112.656 35.4375 112.263 35.5312 111.914 35.7188C111.565 35.901 111.281 36.1562 111.062 36.4844C110.849 36.8125 110.716 37.1927 110.664 37.625ZM122.5 42V30.2812H124.102V35.2734C124.68 34.4453 125.557 34.0312 126.734 34.0312C127.75 34.0312 128.544 34.3385 129.117 34.9531C129.69 35.5677 129.977 36.4245 129.977 37.5234V42H128.375V37.9141C128.375 37.138 128.188 36.5365 127.812 36.1094C127.443 35.6823 126.924 35.4688 126.258 35.4688C125.586 35.4688 125.057 35.6875 124.672 36.125C124.292 36.5573 124.102 37.1536 124.102 37.9141V42H122.5ZM135.625 42.1562C134.844 42.1562 134.141 41.9792 133.516 41.625C132.891 41.2708 132.398 40.7891 132.039 40.1797C131.68 39.5651 131.5 38.8698 131.5 38.0938C131.5 37.3229 131.68 36.6328 132.039 36.0234C132.398 35.4089 132.891 34.9245 133.516 34.5703C134.141 34.2109 134.844 34.0312 135.625 34.0312C136.411 34.0312 137.115 34.2109 137.734 34.5703C138.354 34.9245 138.841 35.4089 139.195 36.0234C139.555 36.6328 139.734 37.3229 139.734 38.0938C139.734 38.8698 139.555 39.5651 139.195 40.1797C138.841 40.7891 138.354 41.2708 137.734 41.625C137.115 41.9792 136.411 42.1562 135.625 42.1562ZM135.617 40.7188C136.091 40.7188 136.513 40.6042 136.883 40.375C137.258 40.1406 137.552 39.8281 137.766 39.4375C137.984 39.0417 138.094 38.5911 138.094 38.0859C138.094 37.5911 137.984 37.1484 137.766 36.7578C137.552 36.362 137.258 36.0495 136.883 35.8203C136.513 35.5859 136.091 35.4688 135.617 35.4688C135.148 35.4688 134.727 35.5859 134.352 35.8203C133.977 36.0495 133.68 36.362 133.461 36.7578C133.247 37.1484 133.141 37.5911 133.141 38.0859C133.141 38.5911 133.247 39.0417 133.461 39.4375C133.68 39.8281 133.977 40.1406 134.352 40.375C134.727 40.6042 135.148 40.7188 135.617 40.7188ZM153.891 42H152.289V37.9141C152.289 37.138 152.122 36.5365 151.789 36.1094C151.461 35.6823 150.997 35.4688 150.398 35.4688C149.789 35.4688 149.312 35.6849 148.969 36.1172C148.625 36.5495 148.453 37.1484 148.453 37.9141V42H146.852V37.9141C146.852 37.138 146.685 36.5365 146.352 36.1094C146.018 35.6823 145.552 35.4688 144.953 35.4688C144.344 35.4688 143.867 35.6849 143.523 36.1172C143.18 36.5495 143.008 37.1484 143.008 37.9141V42H141.406V34.1875H142.703L142.766 35.5469C143.026 35.0521 143.378 34.6771 143.82 34.4219C144.268 34.1615 144.794 34.0312 145.398 34.0312C146.039 34.0312 146.589 34.1719 147.047 34.4531C147.505 34.7344 147.852 35.138 148.086 35.6641C148.346 35.1276 148.706 34.7214 149.164 34.4453C149.628 34.1693 150.177 34.0312 150.812 34.0312C151.781 34.0312 152.536 34.3385 153.078 34.9531C153.62 35.5677 153.891 36.4245 153.891 37.5234V42ZM162.953 41.0703C161.984 41.7943 160.919 42.1562 159.758 42.1562C158.93 42.1562 158.188 41.974 157.531 41.6094C156.875 41.2448 156.357 40.7474 155.977 40.1172C155.596 39.487 155.406 38.776 155.406 37.9844C155.406 37.2292 155.581 36.5547 155.93 35.9609C156.279 35.362 156.755 34.8906 157.359 34.5469C157.964 34.2031 158.648 34.0312 159.414 34.0312C160.206 34.0312 160.901 34.2188 161.5 34.5938C162.104 34.9688 162.573 35.4922 162.906 36.1641C163.245 36.8307 163.414 37.6042 163.414 38.4844V38.7344H157.141C157.234 39.1406 157.411 39.4974 157.672 39.8047C157.932 40.1068 158.255 40.3438 158.641 40.5156C159.026 40.6823 159.461 40.7656 159.945 40.7656C160.81 40.7656 161.604 40.4844 162.328 39.9219L162.953 41.0703ZM157.07 37.625H161.922C161.87 37.1875 161.734 36.8073 161.516 36.4844C161.297 36.1562 161.013 35.901 160.664 35.7188C160.32 35.5312 159.932 35.4375 159.5 35.4375C159.062 35.4375 158.669 35.5312 158.32 35.7188C157.971 35.901 157.688 36.1562 157.469 36.4844C157.255 36.8125 157.122 37.1927 157.07 37.625ZM175.43 42H174.047L173.953 41C173.667 41.3646 173.305 41.6484 172.867 41.8516C172.43 42.0547 171.945 42.1562 171.414 42.1562C170.857 42.1562 170.359 42.0469 169.922 41.8281C169.484 41.6094 169.141 41.3099 168.891 40.9297C168.641 40.5495 168.516 40.1172 168.516 39.6328C168.516 39.1224 168.651 38.6745 168.922 38.2891C169.193 37.8984 169.562 37.5938 170.031 37.375C170.5 37.151 171.034 37.0391 171.633 37.0391C172.008 37.0391 172.388 37.0833 172.773 37.1719C173.164 37.2604 173.516 37.3854 173.828 37.5469V37.2578C173.828 36.8776 173.729 36.5521 173.531 36.2812C173.339 36.0052 173.073 35.7943 172.734 35.6484C172.401 35.5026 172.031 35.4297 171.625 35.4297C171.266 35.4297 170.898 35.4922 170.523 35.6172C170.154 35.7422 169.805 35.9349 169.477 36.1953L168.992 34.8906C169.466 34.6094 169.958 34.3958 170.469 34.25C170.984 34.1042 171.49 34.0312 171.984 34.0312C172.693 34.0312 173.302 34.1719 173.812 34.4531C174.328 34.7344 174.727 35.1354 175.008 35.6562C175.289 36.1719 175.43 36.7812 175.43 37.4844V42ZM171.727 40.7969C172.096 40.7969 172.438 40.7214 172.75 40.5703C173.062 40.4141 173.315 40.1953 173.508 39.9141C173.706 39.6276 173.812 39.2943 173.828 38.9141V38.8047C173.562 38.6068 173.263 38.4531 172.93 38.3438C172.602 38.2292 172.266 38.1719 171.922 38.1719C171.396 38.1719 170.958 38.2969 170.609 38.5469C170.26 38.7969 170.086 39.1172 170.086 39.5078C170.086 39.7526 170.156 39.974 170.297 40.1719C170.443 40.3646 170.638 40.5182 170.883 40.6328C171.133 40.7422 171.414 40.7969 171.727 40.7969ZM185.008 42H183.406V37.7578C183.406 37.0651 183.216 36.513 182.836 36.1016C182.461 35.6901 181.956 35.4844 181.32 35.4844C180.664 35.4844 180.135 35.7031 179.734 36.1406C179.333 36.5781 179.133 37.1589 179.133 37.8828V42H177.531V34.1875H178.883L178.938 35.4453C179.224 34.987 179.599 34.638 180.062 34.3984C180.526 34.1536 181.07 34.0312 181.695 34.0312C182.721 34.0312 183.529 34.3411 184.117 34.9609C184.711 35.5807 185.008 36.4349 185.008 37.5234V42ZM194.875 42H193.461L193.375 40.8828C193.021 41.2786 192.594 41.5911 192.094 41.8203C191.599 42.0443 191.055 42.1562 190.461 42.1562C189.711 42.1562 189.039 41.9792 188.445 41.625C187.852 41.2708 187.383 40.7865 187.039 40.1719C186.701 39.5573 186.531 38.8646 186.531 38.0938C186.531 37.3177 186.701 36.625 187.039 36.0156C187.383 35.401 187.852 34.9167 188.445 34.5625C189.039 34.2083 189.711 34.0312 190.461 34.0312C191.023 34.0312 191.544 34.1328 192.023 34.3359C192.508 34.5391 192.924 34.8229 193.273 35.1875V30.2812H194.875V42ZM190.727 40.7188C191.201 40.7188 191.628 40.6094 192.008 40.3906C192.393 40.1719 192.701 39.875 192.93 39.5C193.159 39.125 193.273 38.6979 193.273 38.2188V37.9531C193.273 37.474 193.159 37.0469 192.93 36.6719C192.701 36.2969 192.393 36.0026 192.008 35.7891C191.628 35.5755 191.201 35.4688 190.727 35.4688C190.242 35.4688 189.807 35.5833 189.422 35.8125C189.036 36.0417 188.732 36.3542 188.508 36.75C188.284 37.1406 188.172 37.5859 188.172 38.0859C188.172 38.5859 188.284 39.0339 188.508 39.4297C188.732 39.8255 189.036 40.1406 189.422 40.375C189.807 40.6042 190.242 40.7188 190.727 40.7188ZM202.539 45.9062H200.938V34.1875H202.352L202.438 35.3047C202.792 34.9089 203.216 34.599 203.711 34.375C204.211 34.1458 204.758 34.0312 205.352 34.0312C206.102 34.0312 206.771 34.2083 207.359 34.5625C207.953 34.9167 208.419 35.401 208.758 36.0156C209.102 36.625 209.273 37.3177 209.273 38.0938C209.273 38.8646 209.102 39.5573 208.758 40.1719C208.419 40.7865 207.953 41.2708 207.359 41.625C206.771 41.9792 206.102 42.1562 205.352 42.1562C204.789 42.1562 204.268 42.0547 203.789 41.8516C203.31 41.6484 202.893 41.3646 202.539 41V45.9062ZM205.094 40.7031C205.589 40.7031 206.026 40.5911 206.406 40.3672C206.786 40.1432 207.083 39.8359 207.297 39.4453C207.516 39.0495 207.625 38.5964 207.625 38.0859C207.625 37.5755 207.516 37.125 207.297 36.7344C207.083 36.3385 206.786 36.0286 206.406 35.8047C206.026 35.5807 205.591 35.4688 205.102 35.4688C204.638 35.4688 204.219 35.5729 203.844 35.7812C203.474 35.9844 203.172 36.2656 202.938 36.625C202.708 36.9844 202.576 37.3932 202.539 37.8516V38.3359C202.576 38.7943 202.706 39.2031 202.93 39.5625C203.159 39.9167 203.458 40.1953 203.828 40.3984C204.203 40.6016 204.625 40.7031 205.094 40.7031ZM211.781 31.9219C211.536 31.9219 211.331 31.8359 211.164 31.6641C210.997 31.4922 210.914 31.2839 210.914 31.0391C210.914 30.7943 210.997 30.5885 211.164 30.4219C211.331 30.25 211.536 30.1641 211.781 30.1641C212.031 30.1641 212.24 30.25 212.406 30.4219C212.578 30.5885 212.664 30.7943 212.664 31.0391C212.664 31.2839 212.578 31.4922 212.406 31.6641C212.24 31.8359 212.031 31.9219 211.781 31.9219ZM212.578 42H210.977V34.1875H212.578V42ZM221.492 40.8359C221.112 41.2578 220.656 41.5833 220.125 41.8125C219.594 42.0417 219.018 42.1562 218.398 42.1562C217.617 42.1562 216.914 41.9792 216.289 41.625C215.669 41.2708 215.18 40.7865 214.82 40.1719C214.461 39.5573 214.281 38.8646 214.281 38.0938C214.281 37.3177 214.461 36.625 214.82 36.0156C215.18 35.401 215.669 34.9167 216.289 34.5625C216.914 34.2083 217.617 34.0312 218.398 34.0312C219.013 34.0312 219.586 34.1458 220.117 34.375C220.648 34.599 221.104 34.9219 221.484 35.3438L220.539 36.3359C220.284 36.0651 219.977 35.8568 219.617 35.7109C219.263 35.5599 218.885 35.4844 218.484 35.4844C217.99 35.4844 217.549 35.5964 217.164 35.8203C216.779 36.0443 216.477 36.3516 216.258 36.7422C216.039 37.1276 215.93 37.5755 215.93 38.0859C215.93 38.5911 216.039 39.0417 216.258 39.4375C216.477 39.8333 216.779 40.1432 217.164 40.3672C217.549 40.5911 217.99 40.7031 218.484 40.7031C218.885 40.7031 219.266 40.6276 219.625 40.4766C219.984 40.3255 220.289 40.1172 220.539 39.8516L221.492 40.8359ZM224.758 42H223.156V30.2812H224.758V38.1797L225.422 37.3828L228.438 34.1875H230.445L227.219 37.6094L230.898 42H228.828L226.109 38.7031L224.758 40.0938V42ZM239.305 45.9062H237.578L239.211 41.9531L235.406 34.1875H237.195L239.977 40.1172L242.43 34.1875H244.148L239.305 45.9062ZM248.953 42.1562C248.172 42.1562 247.469 41.9792 246.844 41.625C246.219 41.2708 245.727 40.7891 245.367 40.1797C245.008 39.5651 244.828 38.8698 244.828 38.0938C244.828 37.3229 245.008 36.6328 245.367 36.0234C245.727 35.4089 246.219 34.9245 246.844 34.5703C247.469 34.2109 248.172 34.0312 248.953 34.0312C249.74 34.0312 250.443 34.2109 251.062 34.5703C251.682 34.9245 252.169 35.4089 252.523 36.0234C252.883 36.6328 253.062 37.3229 253.062 38.0938C253.062 38.8698 252.883 39.5651 252.523 40.1797C252.169 40.7891 251.682 41.2708 251.062 41.625C250.443 41.9792 249.74 42.1562 248.953 42.1562ZM248.945 40.7188C249.419 40.7188 249.841 40.6042 250.211 40.375C250.586 40.1406 250.88 39.8281 251.094 39.4375C251.312 39.0417 251.422 38.5911 251.422 38.0859C251.422 37.5911 251.312 37.1484 251.094 36.7578C250.88 36.362 250.586 36.0495 250.211 35.8203C249.841 35.5859 249.419 35.4688 248.945 35.4688C248.477 35.4688 248.055 35.5859 247.68 35.8203C247.305 36.0495 247.008 36.362 246.789 36.7578C246.576 37.1484 246.469 37.5911 246.469 38.0859C246.469 38.5911 246.576 39.0417 246.789 39.4375C247.008 39.8281 247.305 40.1406 247.68 40.375C248.055 40.6042 248.477 40.7188 248.945 40.7188ZM262.055 42H260.695L260.641 40.7422C260.354 41.2005 259.979 41.5521 259.516 41.7969C259.057 42.0365 258.513 42.1562 257.883 42.1562C256.862 42.1562 256.055 41.8464 255.461 41.2266C254.872 40.6016 254.578 39.7474 254.578 38.6641V34.1875H256.18V38.4297C256.18 39.1224 256.367 39.6745 256.742 40.0859C257.117 40.4974 257.622 40.7031 258.258 40.7031C258.914 40.7031 259.443 40.4844 259.844 40.0469C260.25 39.6042 260.453 39.0234 260.453 38.3047V34.1875H262.055V42ZM265.914 42H264.312V34.1875H265.711L265.773 35.6719C266.044 35.1562 266.417 34.7552 266.891 34.4688C267.37 34.1771 267.919 34.0312 268.539 34.0312C268.69 34.0312 268.841 34.0417 268.992 34.0625C269.148 34.0781 269.305 34.1042 269.461 34.1406L269.258 35.5859C268.956 35.5078 268.659 35.4688 268.367 35.4688C267.883 35.4688 267.456 35.5859 267.086 35.8203C266.716 36.0495 266.427 36.3672 266.219 36.7734C266.016 37.1797 265.914 37.6484 265.914 38.1797V42ZM276.102 45.9062H274.5V34.1875H275.914L276 35.3047C276.354 34.9089 276.779 34.599 277.273 34.375C277.773 34.1458 278.32 34.0312 278.914 34.0312C279.664 34.0312 280.333 34.2083 280.922 34.5625C281.516 34.9167 281.982 35.401 282.32 36.0156C282.664 36.625 282.836 37.3177 282.836 38.0938C282.836 38.8646 282.664 39.5573 282.32 40.1719C281.982 40.7865 281.516 41.2708 280.922 41.625C280.333 41.9792 279.664 42.1562 278.914 42.1562C278.352 42.1562 277.831 42.0547 277.352 41.8516C276.872 41.6484 276.456 41.3646 276.102 41V45.9062ZM278.656 40.7031C279.151 40.7031 279.589 40.5911 279.969 40.3672C280.349 40.1432 280.646 39.8359 280.859 39.4453C281.078 39.0495 281.188 38.5964 281.188 38.0859C281.188 37.5755 281.078 37.125 280.859 36.7344C280.646 36.3385 280.349 36.0286 279.969 35.8047C279.589 35.5807 279.154 35.4688 278.664 35.4688C278.201 35.4688 277.781 35.5729 277.406 35.7812C277.036 35.9844 276.734 36.2656 276.5 36.625C276.271 36.9844 276.138 37.3932 276.102 37.8516V38.3359C276.138 38.7943 276.268 39.2031 276.492 39.5625C276.721 39.9167 277.021 40.1953 277.391 40.3984C277.766 40.6016 278.188 40.7031 278.656 40.7031ZM291.039 42H289.656L289.562 41C289.276 41.3646 288.914 41.6484 288.477 41.8516C288.039 42.0547 287.555 42.1562 287.023 42.1562C286.466 42.1562 285.969 42.0469 285.531 41.8281C285.094 41.6094 284.75 41.3099 284.5 40.9297C284.25 40.5495 284.125 40.1172 284.125 39.6328C284.125 39.1224 284.26 38.6745 284.531 38.2891C284.802 37.8984 285.172 37.5938 285.641 37.375C286.109 37.151 286.643 37.0391 287.242 37.0391C287.617 37.0391 287.997 37.0833 288.383 37.1719C288.773 37.2604 289.125 37.3854 289.438 37.5469V37.2578C289.438 36.8776 289.339 36.5521 289.141 36.2812C288.948 36.0052 288.682 35.7943 288.344 35.6484C288.01 35.5026 287.641 35.4297 287.234 35.4297C286.875 35.4297 286.508 35.4922 286.133 35.6172C285.763 35.7422 285.414 35.9349 285.086 36.1953L284.602 34.8906C285.076 34.6094 285.568 34.3958 286.078 34.25C286.594 34.1042 287.099 34.0312 287.594 34.0312C288.302 34.0312 288.911 34.1719 289.422 34.4531C289.938 34.7344 290.336 35.1354 290.617 35.6562C290.898 36.1719 291.039 36.7812 291.039 37.4844V42ZM287.336 40.7969C287.706 40.7969 288.047 40.7214 288.359 40.5703C288.672 40.4141 288.924 40.1953 289.117 39.9141C289.315 39.6276 289.422 39.2943 289.438 38.9141V38.8047C289.172 38.6068 288.872 38.4531 288.539 38.3438C288.211 38.2292 287.875 38.1719 287.531 38.1719C287.005 38.1719 286.568 38.2969 286.219 38.5469C285.87 38.7969 285.695 39.1172 285.695 39.5078C285.695 39.7526 285.766 39.974 285.906 40.1719C286.052 40.3646 286.247 40.5182 286.492 40.6328C286.742 40.7422 287.023 40.7969 287.336 40.7969ZM294.742 42H293.141V34.1875H294.539L294.602 35.6719C294.872 35.1562 295.245 34.7552 295.719 34.4688C296.198 34.1771 296.747 34.0312 297.367 34.0312C297.518 34.0312 297.669 34.0417 297.82 34.0625C297.977 34.0781 298.133 34.1042 298.289 34.1406L298.086 35.5859C297.784 35.5078 297.487 35.4688 297.195 35.4688C296.711 35.4688 296.284 35.5859 295.914 35.8203C295.544 36.0495 295.255 36.3672 295.047 36.7734C294.844 37.1797 294.742 37.6484 294.742 38.1797V42ZM306.148 40.8359C305.768 41.2578 305.312 41.5833 304.781 41.8125C304.25 42.0417 303.674 42.1562 303.055 42.1562C302.273 42.1562 301.57 41.9792 300.945 41.625C300.326 41.2708 299.836 40.7865 299.477 40.1719C299.117 39.5573 298.938 38.8646 298.938 38.0938C298.938 37.3177 299.117 36.625 299.477 36.0156C299.836 35.401 300.326 34.9167 300.945 34.5625C301.57 34.2083 302.273 34.0312 303.055 34.0312C303.669 34.0312 304.242 34.1458 304.773 34.375C305.305 34.599 305.76 34.9219 306.141 35.3438L305.195 36.3359C304.94 36.0651 304.633 35.8568 304.273 35.7109C303.919 35.5599 303.542 35.4844 303.141 35.4844C302.646 35.4844 302.206 35.5964 301.82 35.8203C301.435 36.0443 301.133 36.3516 300.914 36.7422C300.695 37.1276 300.586 37.5755 300.586 38.0859C300.586 38.5911 300.695 39.0417 300.914 39.4375C301.133 39.8333 301.435 40.1432 301.82 40.3672C302.206 40.5911 302.646 40.7031 303.141 40.7031C303.542 40.7031 303.922 40.6276 304.281 40.4766C304.641 40.3255 304.945 40.1172 305.195 39.8516L306.148 40.8359ZM314.781 41.0703C313.812 41.7943 312.747 42.1562 311.586 42.1562C310.758 42.1562 310.016 41.974 309.359 41.6094C308.703 41.2448 308.185 40.7474 307.805 40.1172C307.424 39.487 307.234 38.776 307.234 37.9844C307.234 37.2292 307.409 36.5547 307.758 35.9609C308.107 35.362 308.583 34.8906 309.188 34.5469C309.792 34.2031 310.477 34.0312 311.242 34.0312C312.034 34.0312 312.729 34.2188 313.328 34.5938C313.932 34.9688 314.401 35.4922 314.734 36.1641C315.073 36.8307 315.242 37.6042 315.242 38.4844V38.7344H308.969C309.062 39.1406 309.24 39.4974 309.5 39.8047C309.76 40.1068 310.083 40.3438 310.469 40.5156C310.854 40.6823 311.289 40.7656 311.773 40.7656C312.638 40.7656 313.432 40.4844 314.156 39.9219L314.781 41.0703ZM308.898 37.625H313.75C313.698 37.1875 313.562 36.8073 313.344 36.4844C313.125 36.1562 312.841 35.901 312.492 35.7188C312.148 35.5312 311.76 35.4375 311.328 35.4375C310.891 35.4375 310.497 35.5312 310.148 35.7188C309.799 35.901 309.516 36.1562 309.297 36.4844C309.083 36.8125 308.951 37.1927 308.898 37.625ZM318.625 42H316.922V29.9688H318.625V42Z" fill="white"/>
<path d="M185.969 131H183.562V125.992L179.125 119.281H182.047L184.75 123.875L187.484 119.281H190.406L185.969 126V131ZM197.273 130.125C196.305 130.812 195.245 131.156 194.094 131.156C193.24 131.156 192.471 130.974 191.789 130.609C191.112 130.24 190.576 129.74 190.18 129.109C189.789 128.479 189.594 127.768 189.594 126.977C189.594 126.221 189.771 125.547 190.125 124.953C190.484 124.359 190.971 123.891 191.586 123.547C192.201 123.203 192.898 123.031 193.68 123.031C194.487 123.031 195.198 123.221 195.812 123.602C196.427 123.977 196.906 124.503 197.25 125.18C197.594 125.852 197.766 126.63 197.766 127.516V127.766H192.008C192.102 128.073 192.255 128.344 192.469 128.578C192.682 128.807 192.948 128.99 193.266 129.125C193.583 129.26 193.948 129.328 194.359 129.328C195.156 129.328 195.898 129.07 196.586 128.555L197.273 130.125ZM191.906 126.625H195.695C195.654 126.286 195.547 125.99 195.375 125.734C195.208 125.474 194.987 125.271 194.711 125.125C194.44 124.979 194.135 124.906 193.797 124.906C193.453 124.906 193.146 124.982 192.875 125.133C192.609 125.284 192.393 125.487 192.227 125.742C192.06 125.997 191.953 126.292 191.906 126.625ZM198.641 130.328L199.133 128.422C199.289 128.594 199.497 128.753 199.758 128.898C200.023 129.044 200.307 129.161 200.609 129.25C200.917 129.333 201.206 129.375 201.477 129.375C201.799 129.375 202.052 129.315 202.234 129.195C202.417 129.07 202.508 128.904 202.508 128.695C202.508 128.523 202.445 128.38 202.32 128.266C202.201 128.146 202.036 128.042 201.828 127.953C201.625 127.859 201.398 127.768 201.148 127.68C200.81 127.549 200.461 127.398 200.102 127.227C199.747 127.055 199.448 126.82 199.203 126.523C198.958 126.227 198.836 125.833 198.836 125.344C198.836 124.875 198.958 124.469 199.203 124.125C199.448 123.776 199.794 123.508 200.242 123.32C200.69 123.128 201.211 123.031 201.805 123.031C202.768 123.031 203.729 123.273 204.688 123.758L204.055 125.531C203.888 125.401 203.68 125.281 203.43 125.172C203.18 125.057 202.922 124.966 202.656 124.898C202.396 124.831 202.161 124.797 201.953 124.797C201.698 124.797 201.497 124.849 201.352 124.953C201.211 125.057 201.141 125.201 201.141 125.383C201.141 125.518 201.19 125.641 201.289 125.75C201.388 125.854 201.534 125.956 201.727 126.055C201.924 126.148 202.167 126.25 202.453 126.359C202.807 126.49 203.164 126.646 203.523 126.828C203.888 127.005 204.193 127.245 204.438 127.547C204.688 127.844 204.812 128.24 204.812 128.734C204.812 129.219 204.68 129.643 204.414 130.008C204.154 130.372 203.784 130.656 203.305 130.859C202.831 131.057 202.273 131.156 201.633 131.156C200.565 131.156 199.568 130.88 198.641 130.328Z" fill="white"/>
<path d="M190.602 172H187.836L182.359 164V172H179.953V160.281H182.719L188.195 168.297V160.281H190.602V172ZM196.227 172.156C195.424 172.156 194.706 171.982 194.07 171.633C193.435 171.279 192.935 170.797 192.57 170.188C192.211 169.573 192.031 168.875 192.031 168.094C192.031 167.318 192.211 166.625 192.57 166.016C192.935 165.401 193.435 164.917 194.07 164.562C194.706 164.208 195.424 164.031 196.227 164.031C197.029 164.031 197.742 164.208 198.367 164.562C198.997 164.917 199.492 165.401 199.852 166.016C200.216 166.625 200.398 167.318 200.398 168.094C200.398 168.875 200.216 169.573 199.852 170.188C199.492 170.797 198.997 171.279 198.367 171.633C197.742 171.982 197.029 172.156 196.227 172.156ZM196.219 170.148C196.578 170.148 196.898 170.06 197.18 169.883C197.466 169.701 197.69 169.456 197.852 169.148C198.018 168.836 198.102 168.479 198.102 168.078C198.102 167.693 198.018 167.346 197.852 167.039C197.69 166.732 197.466 166.49 197.18 166.312C196.898 166.13 196.578 166.039 196.219 166.039C195.854 166.039 195.529 166.13 195.242 166.312C194.961 166.49 194.737 166.732 194.57 167.039C194.409 167.346 194.328 167.693 194.328 168.078C194.328 168.479 194.409 168.836 194.57 169.148C194.737 169.456 194.961 169.701 195.242 169.883C195.529 170.06 195.854 170.148 196.219 170.148Z" fill="white"/>
<rect x="152" y="159" width="15" height="15" rx="3" fill="#EB5E55"/>
<rect x="152" y="118" width="15" height="15" rx="3" fill="#455A64"/>
<path fill-rule="evenodd" clip-rule="evenodd" d="M66 211C102.451 211 132 181.451 132 145C132 108.549 102.451 79 66 79C29.5492 79 0 108.549 0 145C0 181.451 29.5492 211 66 211ZM66 177.667C84.0413 177.667 98.6666 163.041 98.6666 145C98.6666 126.959 84.0413 112.333 66 112.333C47.9587 112.333 33.3333 126.959 33.3333 145C33.3333 163.041 47.9587 177.667 66 177.667Z" fill="#455A64"/>
<path fill-rule="evenodd" clip-rule="evenodd" d="M65.6814 79C75.6104 79 85.0273 81.1925 93.4743 85.1198L67.6885 112.394C67.0246 112.354 66.3554 112.333 65.6814 112.333C58.2466 112.333 51.392 114.817 45.9019 119H5C15.0922 95.4766 38.4627 79 65.6814 79Z" fill="#EB5E55"/>
<path d="M40.625 106.234C39.8073 106.234 39.0937 106.096 38.4844 105.82C37.875 105.544 37.401 105.156 37.0625 104.656C36.7292 104.151 36.5625 103.562 36.5625 102.891C36.5625 102.146 36.7708 101.505 37.1875 100.969C37.6094 100.427 38.1823 100.036 38.9062 99.7969C38.3021 99.5677 37.8281 99.2187 37.4844 98.75C37.1458 98.276 36.9766 97.7161 36.9766 97.0703C36.9766 96.4557 37.125 95.9245 37.4219 95.4766C37.724 95.0234 38.1484 94.6719 38.6953 94.4219C39.2422 94.1719 39.8854 94.0469 40.625 94.0469C41.3594 94.0469 42 94.1719 42.5469 94.4219C43.0937 94.6719 43.5156 95.0234 43.8125 95.4766C44.1146 95.9245 44.2656 96.4557 44.2656 97.0703C44.2656 97.7161 44.0937 98.276 43.75 98.75C43.4062 99.2187 42.9349 99.5677 42.3359 99.7969C43.0651 100.036 43.638 100.424 44.0547 100.961C44.4766 101.497 44.6875 102.141 44.6875 102.891C44.6875 103.557 44.5182 104.143 44.1797 104.648C43.8411 105.148 43.3672 105.539 42.7578 105.82C42.1484 106.096 41.4375 106.234 40.625 106.234ZM40.625 98.7812C41.0104 98.7812 41.3229 98.6484 41.5625 98.3828C41.8021 98.112 41.9219 97.7604 41.9219 97.3281C41.9219 96.8958 41.8021 96.5443 41.5625 96.2734C41.3229 96.0026 41.0104 95.8672 40.625 95.8672C40.2396 95.8672 39.9245 96.0026 39.6797 96.2734C39.4401 96.5443 39.3203 96.8958 39.3203 97.3281C39.3203 97.7604 39.4401 98.112 39.6797 98.3828C39.9245 98.6484 40.2396 98.7812 40.625 98.7812ZM40.625 104.32C40.9531 104.32 41.2422 104.247 41.4922 104.102C41.7422 103.951 41.9375 103.74 42.0781 103.469C42.2187 103.198 42.2891 102.888 42.2891 102.539C42.2891 102.18 42.2187 101.867 42.0781 101.602C41.9375 101.331 41.7422 101.122 41.4922 100.977C41.2422 100.826 40.9531 100.75 40.625 100.75C40.2917 100.75 40 100.826 39.75 100.977C39.5052 101.122 39.3125 101.331 39.1719 101.602C39.0312 101.867 38.9609 102.18 38.9609 102.539C38.9609 102.888 39.0312 103.198 39.1719 103.469C39.3125 103.74 39.5052 103.951 39.75 104.102C40 104.247 40.2917 104.32 40.625 104.32ZM48.3047 99.1797C47.513 99.1797 46.8724 98.9479 46.3828 98.4844C45.8984 98.0208 45.6562 97.4115 45.6562 96.6562C45.6562 95.8958 45.8984 95.2839 46.3828 94.8203C46.8724 94.3568 47.513 94.125 48.3047 94.125C49.1016 94.125 49.7422 94.3568 50.2266 94.8203C50.7161 95.2839 50.9609 95.8958 50.9609 96.6562C50.9609 97.4115 50.7161 98.0208 50.2266 98.4844C49.7422 98.9479 49.1016 99.1797 48.3047 99.1797ZM48.7812 105.992H46.9297L54.4844 94.2734H56.3359L48.7812 105.992ZM48.3047 97.9297C48.6328 97.9297 48.8984 97.8125 49.1016 97.5781C49.3047 97.3385 49.4062 97.0286 49.4062 96.6484C49.4062 96.263 49.3047 95.9557 49.1016 95.7266C48.8984 95.4922 48.6328 95.375 48.3047 95.375C47.9766 95.375 47.7109 95.4922 47.5078 95.7266C47.3099 95.9557 47.2109 96.263 47.2109 96.6484C47.2109 97.0286 47.3099 97.3385 47.5078 97.5781C47.7109 97.8125 47.9766 97.9297 48.3047 97.9297ZM54.8984 106.164C54.1068 106.164 53.4661 105.932 52.9766 105.469C52.4922 105 52.25 104.388 52.25 103.633C52.25 102.872 52.4922 102.26 52.9766 101.797C53.4661 101.333 54.1068 101.102 54.8984 101.102C55.6953 101.102 56.3359 101.333 56.8203 101.797C57.3047 102.26 57.5469 102.872 57.5469 103.633C57.5469 104.388 57.3021 105 56.8125 105.469C56.3281 105.932 55.6901 106.164 54.8984 106.164ZM54.8984 104.906C55.2266 104.906 55.4896 104.789 55.6875 104.555C55.8906 104.32 55.9922 104.013 55.9922 103.633C55.9922 103.247 55.8906 102.937 55.6875 102.703C55.4896 102.469 55.2266 102.352 54.8984 102.352C54.5651 102.352 54.2995 102.469 54.1016 102.703C53.9036 102.937 53.8047 103.247 53.8047 103.633C53.8047 104.013 53.9036 104.32 54.1016 104.555C54.2995 104.789 54.5651 104.906 54.8984 104.906Z" fill="white"/>
<path d="M65.6875 197L64.5937 195.461C65.2031 195.128 65.7604 194.747 66.2656 194.32C66.7708 193.893 67.2109 193.437 67.5859 192.953C67.9661 192.469 68.2708 191.971 68.5 191.461C68.2083 191.773 67.8542 192.016 67.4375 192.187C67.0208 192.359 66.5599 192.445 66.0547 192.445C65.3672 192.445 64.7604 192.294 64.2344 191.992C63.7083 191.69 63.2943 191.276 62.9922 190.75C62.6953 190.224 62.5469 189.617 62.5469 188.93C62.5469 188.18 62.724 187.513 63.0781 186.93C63.4375 186.341 63.9297 185.88 64.5547 185.547C65.1797 185.214 65.888 185.047 66.6797 185.047C67.5234 185.047 68.2526 185.234 68.8672 185.609C69.4818 185.984 69.9583 186.516 70.2969 187.203C70.6354 187.885 70.8047 188.69 70.8047 189.617C70.8047 190.367 70.6901 191.094 70.4609 191.797C70.2318 192.5 69.8984 193.169 69.4609 193.805C69.0234 194.435 68.487 195.021 67.8516 195.562C67.2214 196.099 66.5 196.578 65.6875 197ZM66.6406 190.891C66.9687 190.891 67.2578 190.81 67.5078 190.648C67.7578 190.487 67.9557 190.266 68.1016 189.984C68.2474 189.703 68.3203 189.385 68.3203 189.031C68.3203 188.677 68.2474 188.359 68.1016 188.078C67.9609 187.792 67.7656 187.565 67.5156 187.398C67.2656 187.232 66.9844 187.148 66.6719 187.148C66.3594 187.148 66.0781 187.234 65.8281 187.406C65.5781 187.573 65.3802 187.802 65.2344 188.094C65.0885 188.38 65.0156 188.706 65.0156 189.07C65.0156 189.419 65.0859 189.732 65.2266 190.008C65.3672 190.279 65.5599 190.495 65.8047 190.656C66.0495 190.812 66.3281 190.891 66.6406 190.891ZM79.8047 197H72.3359V195.586C73.2578 194.763 74.0312 194.036 74.6562 193.406C75.2865 192.776 75.7891 192.214 76.1641 191.719C76.5391 191.224 76.8099 190.771 76.9766 190.359C77.1432 189.943 77.2266 189.539 77.2266 189.148C77.2266 188.747 77.151 188.396 77 188.094C76.8542 187.792 76.6458 187.557 76.375 187.391C76.1094 187.224 75.7995 187.141 75.4453 187.141C75.0391 187.141 74.6458 187.258 74.2656 187.492C73.8854 187.721 73.5625 188.039 73.2969 188.445L72.0781 186.914C72.5365 186.32 73.1042 185.862 73.7812 185.539C74.4635 185.211 75.1719 185.047 75.9062 185.047C76.6042 185.047 77.2396 185.195 77.8125 185.492C78.3854 185.789 78.8411 186.211 79.1797 186.758C79.5182 187.305 79.6875 187.951 79.6875 188.695C79.6875 189.216 79.5964 189.742 79.4141 190.273C79.237 190.799 78.9766 191.323 78.6328 191.844C78.2943 192.365 77.8776 192.883 77.3828 193.398C76.8932 193.909 76.3333 194.409 75.7031 194.898H79.8047V197ZM83.7422 190.18C82.9505 190.18 82.3099 189.948 81.8203 189.484C81.3359 189.021 81.0937 188.411 81.0937 187.656C81.0937 186.896 81.3359 186.284 81.8203 185.82C82.3099 185.357 82.9505 185.125 83.7422 185.125C84.5391 185.125 85.1797 185.357 85.6641 185.82C86.1536 186.284 86.3984 186.896 86.3984 187.656C86.3984 188.411 86.1536 189.021 85.6641 189.484C85.1797 189.948 84.5391 190.18 83.7422 190.18ZM84.2187 196.992H82.3672L89.9219 185.273H91.7734L84.2187 196.992ZM83.7422 188.93C84.0703 188.93 84.3359 188.812 84.5391 188.578C84.7422 188.339 84.8437 188.029 84.8437 187.648C84.8437 187.263 84.7422 186.956 84.5391 186.727C84.3359 186.492 84.0703 186.375 83.7422 186.375C83.4141 186.375 83.1484 186.492 82.9453 186.727C82.7474 186.956 82.6484 187.263 82.6484 187.648C82.6484 188.029 82.7474 188.339 82.9453 188.578C83.1484 188.812 83.4141 188.93 83.7422 188.93ZM90.3359 197.164C89.5443 197.164 88.9036 196.932 88.4141 196.469C87.9297 196 87.6875 195.388 87.6875 194.633C87.6875 193.872 87.9297 193.26 88.4141 192.797C88.9036 192.333 89.5443 192.102 90.3359 192.102C91.1328 192.102 91.7734 192.333 92.2578 192.797C92.7422 193.26 92.9844 193.872 92.9844 194.633C92.9844 195.388 92.7396 196 92.25 196.469C91.7656 196.932 91.1276 197.164 90.3359 197.164ZM90.3359 195.906C90.6641 195.906 90.9271 195.789 91.125 195.555C91.3281 195.32 91.4297 195.013 91.4297 194.633C91.4297 194.247 91.3281 193.937 91.125 193.703C90.9271 193.469 90.6641 193.352 90.3359 193.352C90.0026 193.352 89.737 193.469 89.5391 193.703C89.3411 193.937 89.2422 194.247 89.2422 194.633C89.2422 195.013 89.3411 195.32 89.5391 195.555C89.737 195.789 90.0026 195.906 90.3359 195.906Z" fill="white"/>
</svg>
