<svg width="288" height="279" viewBox="0 0 288 279" fill="none" xmlns="http://www.w3.org/2000/svg">
<path d="M126.725 23.8098V205.033L17.239 268.237V87.0281L126.725 23.8098Z" fill="#FFBD6A"/>
<path opacity="0.25" d="M126.725 23.8098V205.033L17.239 268.237V87.0281L126.725 23.8098Z" fill="black"/>
<path opacity="0.15" d="M126.725 23.8088L99.5016 39.3878L99.4944 189.301L126.725 205.032V23.8088Z" fill="black"/>
<path d="M99.4943 189.301L130.414 207.147L17.239 272.495V141.835L99.4943 189.301Z" fill="#FFBD6A"/>
<path opacity="0.8" d="M99.4943 189.301L130.414 207.147L17.239 272.495V141.835L99.4943 189.301Z" fill="white"/>
<path opacity="0.1" d="M25.2092 242.21L59.2621 261.868L120.56 226.48L86.5073 206.822L25.2092 242.21Z" fill="black"/>
<path d="M26.6819 239.006L59.6807 258.057L119.087 223.766L86.0885 204.708L26.6819 239.006Z" fill="#FFBD6A"/>
<path opacity="0.1" d="M26.6819 239.006L59.6807 258.057L119.087 223.766L86.0885 204.708L26.6819 239.006Z" fill="black"/>
<path d="M26.6819 239.006V240.731L59.6807 259.79V258.058L26.6819 239.006Z" fill="#FFBD6A"/>
<path opacity="0.35" d="M26.6819 239.006V240.731L59.6807 259.79V258.058L26.6819 239.006Z" fill="black"/>
<path d="M59.6812 258.057L119.088 223.766V225.491L59.6812 259.79V258.057Z" fill="#FFBD6A"/>
<path opacity="0.2" d="M59.6812 258.057L119.088 223.766V225.491L59.6812 259.79V258.057Z" fill="black"/>
<path d="M52.7577 242.811L49.9206 240.407C49.8339 240.335 49.8051 240.27 49.8267 240.212C49.8512 240.146 49.9003 240.092 49.9639 240.061L51.3211 239.274C51.3909 239.24 51.4674 239.223 51.5449 239.223C51.6257 239.222 51.7054 239.242 51.7759 239.281C51.8021 239.295 51.8264 239.312 51.8481 239.332L57.0531 243.88C57.0936 243.907 57.1254 243.945 57.1446 243.99C57.1638 244.035 57.1697 244.084 57.1614 244.132C57.1461 244.192 57.1174 244.248 57.0774 244.296C57.0373 244.343 56.9871 244.381 56.9304 244.407L56.0713 244.905C55.9311 244.986 55.7715 245.029 55.6093 245.027C55.4585 245.031 55.308 245.014 55.1617 244.977L52.043 244.075L53.6096 245.872C53.6678 245.946 53.6984 246.038 53.6962 246.132C53.6962 246.233 53.6168 246.32 53.4796 246.399L52.6205 246.897C52.4748 246.979 52.3112 247.024 52.1441 247.027C51.9966 247.039 51.8484 247.017 51.7109 246.962L43.8348 243.959L43.741 243.916C43.7138 243.907 43.6902 243.889 43.6734 243.866C43.6567 243.842 43.6477 243.814 43.6477 243.786C43.6477 243.757 43.6567 243.729 43.6734 243.706C43.6902 243.682 43.7138 243.665 43.741 243.656L45.0982 242.869C45.179 242.826 45.2672 242.799 45.3581 242.79C45.4742 242.781 45.5906 242.801 45.6974 242.847L49.8556 244.486L48.5922 243.042C48.5532 242.995 48.5237 242.941 48.5056 242.883C48.5056 242.811 48.5056 242.739 48.65 242.667L49.6174 242.104C49.7291 242.033 49.8622 242.005 49.9928 242.024C50.088 242.032 50.1822 242.049 50.2743 242.075L52.7577 242.811Z" fill="#FAFAFA"/>
<path d="M63.3412 238.789C63.4274 238.742 63.5247 238.719 63.6227 238.724C63.7184 238.72 63.8131 238.743 63.8971 238.789L64.9944 239.424C65.0275 239.436 65.0561 239.458 65.0763 239.487C65.0965 239.516 65.1074 239.551 65.1074 239.586C65.1074 239.622 65.0965 239.656 65.0763 239.685C65.0561 239.714 65.0275 239.736 64.9944 239.749L60.0926 242.586C60.0057 242.631 59.9089 242.653 59.811 242.651C59.7121 242.655 59.6141 242.63 59.5295 242.579L52.8445 238.724C52.8114 238.71 52.7829 238.687 52.7625 238.657C52.742 238.628 52.7304 238.593 52.729 238.558C52.7303 238.524 52.7411 238.491 52.7602 238.463C52.7794 238.434 52.8061 238.412 52.8373 238.399L57.6669 235.612C57.7531 235.565 57.8505 235.543 57.9485 235.547C58.0441 235.544 58.1388 235.566 58.2228 235.612L59.3201 236.247C59.3542 236.258 59.3839 236.279 59.4051 236.307C59.4263 236.336 59.4377 236.371 59.4377 236.406C59.4377 236.442 59.4263 236.476 59.4051 236.505C59.3839 236.534 59.3542 236.555 59.3201 236.565L56.1365 238.406L57.2554 239.056L60.2153 237.345C60.2993 237.299 60.394 237.276 60.4896 237.28C60.5876 237.275 60.6849 237.298 60.7712 237.345L61.8685 237.98C61.901 237.992 61.9292 238.014 61.9497 238.042C61.9702 238.071 61.9821 238.104 61.984 238.139C61.984 238.204 61.9479 238.254 61.8685 238.305L58.9086 240.009L60.0709 240.68L63.3412 238.789Z" fill="#FAFAFA"/>
<path d="M69.9103 235.014C69.998 234.971 70.0942 234.949 70.1918 234.949C70.2894 234.949 70.3857 234.971 70.4734 235.014L71.5707 235.649C71.6023 235.663 71.6296 235.685 71.6499 235.713C71.6702 235.741 71.6827 235.774 71.6862 235.808C71.6832 235.843 71.671 235.877 71.6507 235.906C71.6304 235.936 71.6028 235.959 71.5707 235.974L66.7771 238.739C66.6894 238.782 66.5932 238.804 66.4956 238.804C66.398 238.804 66.3017 238.782 66.214 238.739L59.5291 234.877C59.4965 234.864 59.4683 234.842 59.4478 234.814C59.4273 234.786 59.4154 234.753 59.4136 234.718C59.4136 234.653 59.4497 234.602 59.5291 234.552L60.8863 233.772C60.9703 233.726 61.065 233.704 61.1606 233.707C61.2586 233.703 61.3559 233.725 61.4422 233.772L66.7555 236.84L69.9103 235.014Z" fill="#FAFAFA"/>
<path d="M69.7802 231.802L70.1412 232.025L70.6248 232.307L71.123 232.596L71.52 232.805C71.6977 232.888 71.881 232.958 72.0687 233.014C72.2687 233.069 72.4749 233.099 72.6823 233.101C72.9035 233.105 73.1242 233.081 73.3392 233.029C73.579 232.965 73.8095 232.87 74.0251 232.747C74.2141 232.65 74.3831 232.517 74.5232 232.357C74.6054 232.264 74.6647 232.153 74.6965 232.033C74.7131 231.937 74.6979 231.838 74.6531 231.751C74.6146 231.669 74.5635 231.593 74.5015 231.527C74.4437 231.473 74.4035 231.402 74.386 231.325C74.386 231.275 74.4366 231.217 74.5521 231.145L75.9093 230.365C75.9798 230.326 76.0595 230.306 76.1403 230.307C76.2188 230.305 76.2962 230.325 76.3641 230.365C76.6657 230.536 76.9152 230.785 77.086 231.087C77.2295 231.349 77.2731 231.654 77.2087 231.946C77.1322 232.283 76.9678 232.595 76.7323 232.848C76.4298 233.191 76.0708 233.479 75.671 233.7C75.1822 233.983 74.6578 234.199 74.1117 234.343C73.5876 234.477 73.05 234.552 72.509 234.567C71.9945 234.582 71.48 234.531 70.9786 234.415C70.5141 234.317 70.0649 234.156 69.643 233.938C69.3471 233.787 69.0366 233.614 68.7118 233.426C68.3869 233.238 68.0837 233.058 67.7949 232.877C67.4665 232.682 67.1835 232.418 66.9647 232.105C66.7846 231.847 66.6933 231.538 66.7048 231.224C66.7415 230.881 66.8798 230.557 67.1019 230.293C67.4138 229.928 67.7907 229.624 68.2136 229.398C68.6674 229.132 69.1523 228.923 69.6575 228.777C70.1667 228.633 70.6891 228.541 71.2168 228.502C71.716 228.468 72.2176 228.492 72.7112 228.575C73.1486 228.645 73.5709 228.789 73.9601 229.001C73.9863 229.011 74.009 229.029 74.0256 229.052C74.0422 229.075 74.052 229.102 74.054 229.13C74.0534 229.16 74.0442 229.189 74.0275 229.213C74.0108 229.237 73.9874 229.256 73.9601 229.268L72.6029 230.047C72.5118 230.106 72.4076 230.14 72.2997 230.148C72.182 230.136 72.0659 230.112 71.9532 230.076L71.5633 229.99C71.4026 229.971 71.2403 229.971 71.0796 229.99C70.8839 230.001 70.6901 230.035 70.5021 230.091C70.2695 230.156 70.0463 230.25 69.8379 230.372C69.65 230.471 69.4833 230.606 69.347 230.769C69.2607 230.878 69.2148 231.013 69.2171 231.152C69.2277 231.285 69.2838 231.409 69.3759 231.506C69.4976 231.621 69.6335 231.72 69.7802 231.802Z" fill="#FAFAFA"/>
<path d="M75.0939 228.675C74.7647 228.475 74.4798 228.21 74.2565 227.896C74.0696 227.641 73.9776 227.33 73.9966 227.015C74.0327 226.677 74.1684 226.358 74.3864 226.098C74.7045 225.727 75.0888 225.419 75.5198 225.188C76.0095 224.901 76.5367 224.682 77.0864 224.539C77.6097 224.399 78.1476 224.322 78.689 224.308C79.1988 224.292 79.7084 224.343 80.2051 224.459C80.6738 224.562 81.1275 224.725 81.5551 224.943C81.8655 225.109 82.1831 225.282 82.508 225.47C82.8328 225.658 83.1288 225.838 83.3959 226.004C83.7236 226.206 84.0082 226.471 84.2334 226.784C84.4191 227.039 84.5132 227.349 84.5005 227.665C84.4646 228.006 84.3261 228.328 84.1034 228.589C83.7835 228.956 83.3994 229.261 82.97 229.491C82.4794 229.779 81.9525 230 81.4034 230.148C80.8824 230.285 80.3468 230.361 79.808 230.372C79.296 230.384 78.7843 230.333 78.2848 230.22C77.816 230.117 77.3624 229.954 76.9348 229.736C76.6388 229.578 76.3284 229.412 76.0035 229.224C75.6786 229.036 75.3754 228.848 75.0939 228.675ZM81.4612 227.08L81.0641 226.834L80.6093 226.553L80.1401 226.293L79.7214 226.076C79.5334 225.988 79.3377 225.918 79.1366 225.867C78.9312 225.816 78.7203 225.789 78.5086 225.788C78.2868 225.788 78.066 225.817 77.8516 225.874C77.6245 225.935 77.4061 226.025 77.2019 226.141C77.0239 226.237 76.8649 226.364 76.7326 226.517C76.6476 226.627 76.5996 226.76 76.5955 226.899C76.5932 227.03 76.6366 227.158 76.7182 227.26C76.8201 227.392 76.9448 227.505 77.0864 227.592C77.1947 227.672 77.3174 227.751 77.4618 227.838L77.9166 228.112L78.3858 228.379L78.8262 228.603C79.208 228.784 79.6238 228.882 80.0462 228.892C80.5037 228.896 80.9534 228.773 81.3457 228.538C81.7716 228.285 81.9738 228.04 81.9521 227.816C81.9331 227.664 81.8788 227.518 81.7936 227.39C81.7084 227.262 81.5946 227.156 81.4612 227.08Z" fill="#FAFAFA"/>
<path d="M88.5137 224.062H88.2033L85.5177 223.636L88.9468 225.614C88.9784 225.628 89.0058 225.65 89.0261 225.678C89.0464 225.705 89.0589 225.738 89.0624 225.773C89.0594 225.808 89.0471 225.842 89.0269 225.871C89.0066 225.9 88.979 225.923 88.9468 225.939L87.5896 226.718C87.503 226.764 87.406 226.786 87.3081 226.783C87.2125 226.787 87.1177 226.764 87.0338 226.718L80.3416 222.856C80.31 222.842 80.2827 222.82 80.2624 222.792C80.2421 222.764 80.2295 222.731 80.2261 222.697C80.2261 222.632 80.2622 222.582 80.3416 222.531L81.54 221.809C81.6683 221.732 81.8164 221.695 81.9659 221.701H82.2691L86.81 222.387L85.626 219.766C85.6061 219.71 85.5939 219.652 85.5899 219.593C85.5899 219.506 85.6477 219.427 85.7849 219.347L86.9905 218.626C87.0744 218.58 87.1692 218.557 87.2648 218.561C87.3628 218.556 87.4601 218.579 87.5463 218.626L94.2385 222.488C94.3107 222.531 94.354 222.582 94.3468 222.647C94.3396 222.712 94.3468 222.762 94.2385 222.805L92.8813 223.592C92.7945 223.638 92.6976 223.66 92.5997 223.657C92.5041 223.661 92.4094 223.638 92.3254 223.592L88.8963 221.614L89.6182 223.159C89.6258 223.219 89.6258 223.28 89.6182 223.34C89.6182 223.412 89.5677 223.47 89.4594 223.535L88.8025 223.917C88.7183 223.987 88.6196 224.036 88.5137 224.062Z" fill="#FAFAFA"/>
<path d="M99.5086 217.919C99.5926 217.873 99.6873 217.851 99.7829 217.854C99.8808 217.852 99.9776 217.874 100.064 217.919L101.162 218.554C101.194 218.567 101.223 218.589 101.243 218.617C101.264 218.645 101.275 218.678 101.277 218.713C101.274 218.748 101.261 218.78 101.241 218.808C101.221 218.836 101.193 218.858 101.162 218.872L96.2527 221.709C96.1665 221.756 96.0692 221.778 95.9712 221.774C95.8756 221.777 95.7808 221.755 95.6969 221.709L89.0047 217.847C88.9725 217.832 88.9449 217.809 88.9247 217.779C88.9044 217.75 88.8921 217.716 88.8892 217.681C88.8919 217.646 88.9041 217.613 88.9245 217.585C88.9449 217.557 88.9726 217.535 89.0047 217.522L93.8271 214.735C93.9139 214.69 94.0108 214.668 94.1086 214.67C94.2065 214.667 94.3036 214.69 94.3902 214.735L95.4875 215.371C95.5207 215.383 95.5493 215.405 95.5694 215.434C95.5896 215.463 95.6005 215.498 95.6005 215.533C95.6005 215.569 95.5896 215.603 95.5694 215.632C95.5493 215.661 95.5207 215.683 95.4875 215.696L92.2894 217.536L93.4084 218.179L96.3682 216.468C96.4559 216.425 96.5522 216.403 96.6498 216.403C96.7473 216.403 96.8436 216.425 96.9313 216.468L98.0286 217.103C98.0618 217.116 98.0904 217.138 98.1106 217.167C98.1308 217.196 98.1416 217.23 98.1416 217.266C98.1416 217.301 98.1308 217.336 98.1106 217.365C98.0904 217.394 98.0618 217.416 98.0286 217.428L95.0688 219.139L96.2239 219.803L99.5086 217.919Z" fill="#FAFAFA"/>
<path d="M83.1794 134.384C81.7356 134.745 78.2848 135.431 78.2848 135.431C78.2848 135.431 80.1401 133.071 79.3821 132.544C78.6241 132.017 78.0899 133.648 75.9097 134.543C73.7295 135.438 72.8776 136.572 71.5349 136.586L54.9308 136.817C54.9308 136.817 43.3801 123 41.4742 121.599C40.7682 121.023 39.9458 120.607 39.0634 120.378C38.1811 120.15 37.2599 120.116 36.363 120.278L38.6948 132.551L48.253 142.073C50.4765 144.282 51.3428 145.04 54.3099 144.888C57.6813 144.715 66.2215 143.38 71.145 142.571C74.3792 142.304 75.4765 142.434 77.7361 142.051C80.169 141.647 82.7318 141.64 84.4355 138.557C86.4064 134.976 85.3235 133.865 83.1794 134.384Z" fill="#F28F8F"/>
<path d="M51.0974 67.9246V217.268L99.4948 189.301V39.9937L51.0974 67.9246Z" fill="#455A64"/>
<path d="M53.0103 137.055C53.0417 136.458 53.2137 135.876 53.5122 135.358C53.8108 134.84 54.2275 134.4 54.7284 134.073C55.6814 133.525 56.4466 133.972 56.4466 135.07C56.3989 135.974 56.0303 136.831 55.407 137.488V138.932C55.3952 139.134 55.3361 139.331 55.2346 139.507C55.133 139.682 54.9918 139.831 54.8223 139.942L54.6201 140.058C54.3025 140.246 54.0426 140.058 54.0426 139.719V138.275C53.4362 138.325 53.0103 137.871 53.0103 137.055Z" fill="#263238"/>
<path d="M70.257 64.0117L57.905 71.1443V127.829L70.257 120.697V64.0117Z" fill="#FFBD6A"/>
<path opacity="0.3" d="M70.257 64.0117L57.905 71.1443V127.829L70.257 120.697V64.0117Z" fill="black"/>
<path d="M90.7237 52.1724L78.3645 59.3049V115.99L90.7237 108.857V52.1724Z" fill="#FFBD6A"/>
<path opacity="0.3" d="M90.7237 52.1724L78.3645 59.3049V115.99L90.7237 108.857V52.1724Z" fill="black"/>
<path d="M70.257 120.697L72.2134 121.823L57.905 130.089V127.83L70.257 120.697Z" fill="#263238"/>
<path d="M90.7239 108.858L92.6803 109.992L78.3719 118.25L76.4155 117.117L90.7239 108.858Z" fill="#263238"/>
<path d="M90.7234 108.857V52.1507L92.687 51.0173L92.6798 109.984L90.7234 108.857Z" fill="#37474F"/>
<path d="M72.2139 121.823L78.3718 118.25V59.3049L72.2139 62.8784V121.823Z" fill="#455A64"/>
<path d="M72.2132 121.823L70.2568 120.697V64.0121L72.2132 62.8787V121.823Z" fill="#37474F"/>
<path opacity="0.1" d="M72.2134 131.23L57.905 139.489V202.938L72.2134 194.672V131.23Z" fill="black"/>
<path d="M70.8349 135.793L61.0674 141.431V197.336L70.8349 191.698V135.793Z" fill="#455A64"/>
<path d="M57.905 139.49L61.067 141.432V197.337L57.905 202.939V139.49Z" fill="#37474F"/>
<path d="M72.2136 131.23L70.8347 135.792V191.698L72.2136 194.672V131.23Z" fill="#37474F"/>
<path d="M72.2134 194.672L70.8346 191.698L61.067 197.336L57.905 202.938L72.2134 194.672Z" fill="#263238"/>
<path opacity="0.1" d="M92.6875 119.384L78.3718 127.649V191.099L92.6875 182.833V119.384Z" fill="black"/>
<path d="M91.3088 123.953L81.5413 129.591V185.497L91.3088 179.858V123.953Z" fill="#455A64"/>
<path d="M78.3718 127.649L81.541 129.591V185.497L78.3718 191.099V127.649Z" fill="#37474F"/>
<path d="M92.6872 119.384L91.3083 123.953V179.859L92.6872 182.833V119.384Z" fill="#37474F"/>
<path d="M92.6875 182.833L91.3086 179.858L81.541 185.497L78.3718 191.099L92.6875 182.833Z" fill="#263238"/>
<path d="M48.9966 216.098L51.0974 217.268V67.9248L48.9966 69.116V216.098Z" fill="#263238"/>
<path opacity="0.1" d="M99.4946 39.3879V56.2447L17.2393 103.884V87.0273L99.4946 39.3879Z" fill="black"/>
<path opacity="0.1" d="M33.5327 248.982C37.431 249.53 40.7519 251.58 44.5131 252.375C46.982 252.887 49.6387 253.046 51.9199 251.956C52.6418 251.602 53.7392 250.837 53.9846 250.05C54.36 248.859 53.4215 247.884 52.6635 247.162C51.7221 246.288 50.7315 245.469 49.6964 244.708C47.5327 243.254 45.1819 242.101 42.7083 241.279C40.5425 240.477 38.3768 239.741 36.1605 239.113C34.105 238.63 32.0102 238.332 29.9014 238.225C25.135 237.688 20.3104 238.025 15.6652 239.221C11.1749 240.47 7.00221 241.676 3.70305 245.206C2.51959 246.331 1.73413 247.811 1.46511 249.422C1.42461 250.321 1.57768 251.218 1.91397 252.052C2.25026 252.887 2.76191 253.639 3.41428 254.259C4.417 255.347 5.63471 256.216 6.99041 256.81C8.3461 257.404 9.8103 257.71 11.2904 257.71C12.3355 257.694 13.3667 257.467 14.322 257.043C15.2773 256.619 16.1369 256.006 16.8492 255.241C18.2497 253.652 19.3253 251.797 21.1807 250.642C24.7469 248.404 29.4827 248.447 33.5327 248.982Z" fill="black"/>
<path d="M25.6712 116.41C25.5484 117.775 25.7506 119.211 23.3683 120.208C23.3683 120.208 24.5666 123.687 21.7873 124.842C21.7873 124.842 22.733 128.105 20.4228 129.174C20.6398 129.855 20.6343 130.587 20.4072 131.265C20.18 131.942 19.743 132.53 19.1595 132.942C19.6198 133.573 19.863 134.337 19.8526 135.118C19.8422 135.899 19.5787 136.655 19.1017 137.274C19.3615 137.474 19.5738 137.73 19.7235 138.022C19.8733 138.314 19.9568 138.635 19.968 138.963C20.0691 140.176 19.5349 141.627 18.3509 141.901C18.5633 141.643 18.6794 141.319 18.6794 140.984C18.6794 140.65 18.5633 140.326 18.3509 140.068C17.5857 139.194 17.2464 138.097 18.0622 137.295C18.0622 137.295 15.2322 136.436 16.871 133.13C16.5419 132.82 16.2924 132.435 16.1437 132.007C15.9949 131.58 15.9513 131.123 16.0164 130.676C16.0816 130.228 16.2536 129.803 16.518 129.436C16.7824 129.069 17.1313 128.771 17.5352 128.567C17.5352 128.567 16.0119 125.145 18.8707 123.897C18.8707 123.897 17.2031 121.904 19.3977 119.565C19.3977 119.565 17.3114 116.035 21.7006 112.996L25.6712 116.41Z" fill="#263238"/>
<path d="M41.7917 236.559C41.9453 236.273 42.02 235.952 42.0083 235.628C42.0047 235.276 42.0191 234.924 42.0516 234.574C42.2248 231.903 44.3473 206.542 44.8743 200.716C45.7622 190.934 45.8055 164.779 43.8419 156.354L17.5208 158.44C15.6366 163.183 14.265 169.016 14.5826 178.17C14.8208 185.151 14.7126 204.087 14.7126 204.087C12.3361 206.428 10.4812 209.245 9.2693 212.353C7.26959 217.212 5.768 228.957 4.66346 233.693C4.45411 234.588 4.21587 235.859 4.21587 235.859C3.64788 236.652 3.33328 237.598 3.31348 238.573C3.32266 241.474 3.63723 244.365 4.25197 247.2C4.40125 247.891 4.73012 248.531 5.20542 249.054C5.68071 249.578 6.28563 249.967 6.95916 250.182C7.28098 250.315 7.62948 250.372 7.97706 250.348C8.1601 250.346 8.33663 250.28 8.47519 250.16C8.72064 249.915 8.47519 249.33 8.47519 249.034C8.39668 248.556 8.35085 248.074 8.33802 247.59C8.33802 246.644 8.33802 245.496 8.39578 244.551C8.51232 242.454 8.83882 240.374 9.37037 238.342L9.87571 237.137C9.87571 237.137 21.1376 214.273 24.3141 208.693C26.8552 204.325 29.4397 187.346 31.23 178.069L34.3487 200.218C33.5923 202.522 33.032 204.886 32.6739 207.285C32.2118 211.393 34.5653 227.225 35.446 232.949C35.5746 233.788 35.6206 234.636 35.5832 235.483C35.5401 235.739 35.5401 236 35.5832 236.256C35.6909 236.52 35.8743 236.746 36.1102 236.906C36.5865 237.141 37.0877 237.323 37.6046 237.447C38.3104 237.634 39.0458 237.683 39.7703 237.591C40.0446 237.548 40.3045 237.454 40.5789 237.404C40.8906 237.342 41.1798 237.197 41.4163 236.985C41.5676 236.868 41.6951 236.724 41.7917 236.559Z" fill="#FFA8A7"/>
<path d="M12.1138 255.59H11.9116C10.1455 255.814 8.35166 255.649 6.65608 255.106C5.14844 254.615 3.79489 253.739 2.72885 252.565C2.30923 251.992 1.99398 251.349 1.79757 250.666C1.57858 249.958 1.41446 249.234 1.30667 248.5C0.85908 246.169 1.48715 245.512 0.786888 243.216C0.467182 242.417 0.204235 241.597 0 240.761C0.114892 240.331 0.31905 239.931 0.599187 239.585L3.48686 243.627L5.39994 246.313L6.41785 247.757C6.64164 248.074 6.8149 248.479 7.06757 248.782C7.45672 249.138 7.8942 249.437 8.36702 249.67C8.83627 249.966 9.31995 250.247 9.81086 250.507C10.7717 251.027 11.7625 251.49 12.7779 251.893C13.2077 252.039 13.6176 252.238 13.998 252.485C14.1878 252.613 14.3475 252.781 14.466 252.976C14.5844 253.172 14.6587 253.391 14.6838 253.619C14.6835 254.013 14.5279 254.392 14.2507 254.673C13.6655 255.216 12.9105 255.54 12.1138 255.59Z" fill="#37474F"/>
<path d="M9.17583 238.666L9.65951 237.692C10.0566 238.024 9.50069 240.045 9.4285 242.153C9.40201 243.095 9.46242 244.037 9.60898 244.968C9.73891 245.821 10.0651 246.632 10.5619 247.336C11.2938 248.468 12.2086 249.471 13.2691 250.303C13.764 250.613 14.1774 251.036 14.4747 251.538C14.6387 251.816 14.7341 252.13 14.7529 252.452C14.7717 252.775 14.7135 253.098 14.583 253.393C14.3416 253.81 13.9644 254.131 13.5145 254.303C12.9058 254.541 12.2619 254.678 11.6087 254.707C9.51234 254.875 7.41058 254.457 5.53736 253.502C4.52169 252.979 3.6455 252.222 2.98177 251.292C2.50864 250.458 2.20447 249.538 2.0866 248.585C1.74008 246.932 1.85558 245.243 1.65344 243.972C1.45131 242.702 0.418965 240.875 0.599444 239.641C0.700513 238.955 1.60291 237.8 2.44034 236.876C3.27776 235.952 4.05021 235.049 4.33898 235.316L4.22347 235.894C4.64179 236.908 5.41035 237.738 6.38922 238.233C7.23808 238.701 8.22494 238.854 9.17583 238.666Z" fill="#455A64"/>
<path d="M10.7132 247.727C10.766 247.722 10.8157 247.7 10.8557 247.665C10.8957 247.63 10.9241 247.584 10.937 247.532C10.9457 247.499 10.9477 247.465 10.9429 247.431C10.9382 247.397 10.9268 247.364 10.9093 247.334C10.8919 247.305 10.8687 247.279 10.8413 247.259C10.8138 247.238 10.7826 247.223 10.7493 247.215C9.26938 246.832 6.56218 246.926 5.29161 247.619C5.26172 247.636 5.2354 247.658 5.21414 247.685C5.19288 247.711 5.1771 247.742 5.16772 247.775C5.15833 247.808 5.15551 247.842 5.15943 247.876C5.16334 247.91 5.17392 247.943 5.19054 247.973C5.20636 248.003 5.22828 248.03 5.25494 248.052C5.28161 248.074 5.31245 248.09 5.34559 248.1C5.37872 248.109 5.41344 248.112 5.44761 248.107C5.48178 248.103 5.51467 248.091 5.54428 248.074C6.68491 247.446 9.25494 247.352 10.5977 247.72L10.7132 247.727Z" fill="#E0E0E0"/>
<path d="M9.99142 245.706C10.0436 245.703 10.0936 245.684 10.1348 245.651C10.176 245.619 10.2066 245.575 10.2224 245.525C10.2336 245.493 10.2382 245.459 10.2358 245.425C10.2334 245.391 10.2242 245.358 10.2087 245.328C10.1932 245.297 10.1717 245.27 10.1455 245.249C10.1194 245.227 10.089 245.21 10.0564 245.201C8.39568 244.713 6.62119 244.782 5.00296 245.396C4.967 245.406 4.93384 245.425 4.90574 245.45C4.87764 245.475 4.85528 245.506 4.84021 245.54C4.82513 245.574 4.81769 245.612 4.81841 245.649C4.81912 245.687 4.82798 245.724 4.84435 245.758C4.86073 245.791 4.88425 245.821 4.91328 245.845C4.94231 245.869 4.97616 245.886 5.01251 245.896C5.04885 245.905 5.08683 245.907 5.12382 245.9C5.16081 245.894 5.19593 245.879 5.22676 245.858C6.73382 245.306 8.37698 245.248 9.91923 245.692C9.94215 245.701 9.96665 245.706 9.99142 245.706Z" fill="#E0E0E0"/>
<path d="M9.57974 243.634C9.6262 243.634 9.6719 243.622 9.71152 243.598C9.75113 243.573 9.78304 243.538 9.80353 243.497C9.82016 243.467 9.83073 243.434 9.83465 243.4C9.83857 243.366 9.83575 243.332 9.82636 243.299C9.81698 243.266 9.8012 243.235 9.77994 243.208C9.75868 243.182 9.73235 243.159 9.70247 243.143C8.12362 242.524 6.36641 242.542 4.80065 243.193C4.76983 243.208 4.74221 243.229 4.71937 243.254C4.69652 243.279 4.6789 243.309 4.6675 243.341C4.6561 243.373 4.65116 243.407 4.65294 243.442C4.65473 243.476 4.66322 243.509 4.67792 243.54C4.70888 243.601 4.76261 243.647 4.82747 243.669C4.89233 243.69 4.9631 243.686 5.02445 243.655C6.43859 243.074 8.02097 243.054 9.4498 243.598C9.48976 243.619 9.53423 243.632 9.57974 243.634Z" fill="#E0E0E0"/>
<path d="M53.7466 248.03C53.7894 248.459 53.7209 248.892 53.5476 249.286C53.3744 249.681 53.1023 250.024 52.7576 250.283C50.811 251.399 48.5291 251.78 46.3253 251.358C42.593 250.42 41.8639 249.416 40.55 248.066C38.9184 246.348 39.1061 245.453 37.2653 243.901C36.5657 243.399 35.9023 242.849 35.28 242.255C35.1277 241.686 35.0692 241.096 35.1067 240.508L53.7466 248.03Z" fill="#37474F"/>
<path d="M41.9364 235.375L42.0519 234.573C42.5572 234.638 42.9543 236.356 44.0299 238.183C44.965 239.667 46.1552 240.975 47.5457 242.045C49.7114 243.669 52.3825 245.272 53.6026 247.099C54.8226 248.925 51.0325 250.636 48.1593 250.571C46.8767 250.548 45.6114 250.27 44.4366 249.755C43.2619 249.239 42.2011 248.496 41.3155 247.568C40.1316 246.362 39.3158 244.875 38.4279 243.915C37.5399 242.955 35.7207 241.973 35.2009 240.818C34.9057 239.725 34.8686 238.578 35.0926 237.468C35.2803 236.335 35.2153 234.775 35.5979 234.84C35.5979 234.949 35.5979 235.454 35.5979 235.454C36.7074 236.172 38.0094 236.535 39.3302 236.494C40.3051 236.446 41.2302 236.048 41.9364 235.375Z" fill="#455A64"/>
<path d="M49.4657 243.28C49.5113 243.253 49.5481 243.213 49.5712 243.166C49.5943 243.118 49.6028 243.065 49.5956 243.012C49.5904 242.979 49.5785 242.947 49.5607 242.918C49.5429 242.89 49.5195 242.865 49.4919 242.845C49.4643 242.826 49.4331 242.812 49.4 242.805C49.367 242.797 49.3329 242.797 49.2996 242.803C47.7836 243.034 45.3363 244.196 44.4484 245.344C44.4273 245.371 44.4119 245.402 44.403 245.435C44.3941 245.467 44.392 245.502 44.3967 245.535C44.4014 245.569 44.4129 245.602 44.4305 245.631C44.448 245.66 44.4713 245.685 44.4989 245.705C44.5528 245.747 44.6207 245.765 44.6882 245.757C44.7557 245.749 44.8173 245.715 44.8599 245.662C45.6612 244.63 47.9858 243.532 49.3791 243.316L49.4657 243.28Z" fill="#E0E0E0"/>
<path d="M47.4159 241.865C47.4616 241.841 47.4987 241.803 47.5219 241.756C47.5452 241.71 47.5535 241.657 47.5458 241.606C47.5351 241.538 47.498 241.477 47.4425 241.436C47.3871 241.396 47.3178 241.379 47.2498 241.389C45.5422 241.702 43.9834 242.564 42.81 243.843C42.7679 243.898 42.7492 243.967 42.758 244.035C42.7668 244.104 42.8024 244.166 42.857 244.208C42.9115 244.25 42.9806 244.269 43.049 244.26C43.1173 244.251 43.1794 244.216 43.2215 244.161C44.3138 242.988 45.7536 242.196 47.3292 241.902C47.3603 241.896 47.3899 241.883 47.4159 241.865Z" fill="#E0E0E0"/>
<path d="M45.683 240.392C45.7229 240.368 45.7559 240.334 45.7787 240.294C45.8015 240.253 45.8133 240.207 45.813 240.161C45.813 240.092 45.7856 240.026 45.7368 239.977C45.6881 239.929 45.622 239.901 45.5531 239.901C43.8717 240.116 42.3395 240.975 41.2793 242.298C41.2402 242.354 41.2251 242.424 41.2373 242.492C41.2494 242.559 41.2879 242.62 41.3443 242.659C41.3999 242.699 41.4691 242.715 41.5366 242.704C41.6042 242.693 41.6648 242.656 41.7052 242.601C42.6662 241.413 44.0457 240.638 45.5603 240.435C45.6044 240.433 45.6469 240.418 45.683 240.392Z" fill="#E0E0E0"/>
<path d="M20.3944 150.499C18.3468 154.477 16.7348 158.664 15.5864 162.988C14.1425 169.139 14.1931 173.182 14.2508 183.924C14.3086 194.666 14.4602 203.972 14.4602 203.972C14.4602 203.972 9.13965 207.487 7.37817 219.673C7.37817 219.673 11.5725 224.005 17.1385 222.561C17.1385 222.561 23.116 211.942 25.0796 208.614C27.0432 205.286 31.2448 178.077 31.2448 178.077L33.7715 200.261C33.7715 200.261 31.8656 205.567 32.1111 209.314C32.3565 213.061 33.3744 218.923 33.3744 218.923C36.7471 219.95 40.3808 219.693 43.5751 218.201C43.5751 218.201 45.3799 200.788 45.6182 194.471C45.8564 188.154 46.6288 165.833 43.5246 151.878L20.3944 150.499Z" fill="#455A64"/>
<path d="M31.2446 178.12L33.7425 168.316C33.7425 168.316 38.5432 168.872 42.3189 166.078C42.3189 166.078 41.5464 169.688 34.8542 170.728L31.9665 180.322L32.0099 184.906L31.2446 178.12Z" fill="#263238"/>
<path d="M43.3947 147.806C43.1178 145.11 43.0888 142.394 43.3081 139.692C44.835 138.272 45.8076 136.356 46.0523 134.285C46.2969 132.214 45.7977 130.124 44.6436 128.387C40.9979 122.482 36.3777 120.28 36.3777 120.28L30.2919 120.092C29.4256 120.193 21.9465 121.269 20.9936 121.536C20.9936 121.536 18.4164 123.702 17.7161 126.221C17.319 127.665 17.2035 129.109 18.4958 133.722L21.665 141.8C21.665 141.8 22.589 144.219 22.1198 145.915C21.6506 147.612 19.0733 151.828 17.7161 155.921C17.7161 155.921 23.4914 161.097 34.0964 159.899C43.1565 158.866 44.4776 155.82 44.4776 155.82C44.4776 155.82 43.503 149.46 43.3947 147.806Z" fill="#FAFAFA"/>
<path opacity="0.1" d="M26.3357 138.068C26.9545 139.156 27.8744 140.042 28.9848 140.62C30.0951 141.197 31.3487 141.442 32.5947 141.324C33.7988 141.251 34.9622 140.861 35.9675 140.195C36.9727 139.528 37.7841 138.608 38.3195 137.527C38.3195 137.527 38.2762 142.306 32.6308 142.472C26.9854 142.638 26.3357 138.068 26.3357 138.068Z" fill="black"/>
<path d="M67.2466 137.692C67.2697 137.029 67.0717 136.376 66.6835 135.837C66.6294 135.738 66.5528 135.653 66.4601 135.59C66.3673 135.526 66.2609 135.484 66.1493 135.469C65.8728 135.486 65.614 135.611 65.4274 135.815C64.6477 136.537 63.9835 137.259 63.1678 137.981C62.4007 138.658 61.4309 139.062 60.41 139.129C60.4187 138.927 60.495 138.734 60.6266 138.58C60.9443 138.14 61.1825 137.822 61.5218 137.346C61.7383 137.11 61.8998 136.829 61.9947 136.523C62.0896 136.217 62.1154 135.894 62.0704 135.577C62.0497 135.492 62.0066 135.413 61.9458 135.35C61.8849 135.287 61.8084 135.24 61.7239 135.216C61.5806 135.204 61.4376 135.242 61.3197 135.324C60.2029 135.88 59.156 136.565 58.201 137.368C57.1542 138.248 56.5333 139.707 54.7213 140.421C52.9093 141.136 50.9746 141.309 47.6321 141.75C45.026 142.089 40.7378 142.645 37.8501 142.897C33.7135 138.703 28.6529 131.188 25.8952 127.456C24.4265 125.358 22.7896 123.383 21.0006 121.55C18.5821 122.272 17.1816 123.507 16.6185 125.239C15.1747 129.231 17.2105 133.794 22.6176 139.808C24.3791 141.778 29.7141 147.64 32.4357 150.376C32.8371 150.785 33.3227 151.102 33.8588 151.304C34.3949 151.506 34.9686 151.588 35.54 151.546C37.1707 151.369 38.7903 151.101 40.3913 150.745C43.3728 150.023 47.1556 148.94 50.1299 148.218C52.5339 147.633 55.0317 146.926 57.0748 146.327C58.4688 145.958 59.8383 145.502 61.1753 144.962C62.3065 144.553 63.3755 143.99 64.3517 143.287C64.9943 142.839 65.5559 142.285 66.0121 141.648C66.4066 141.045 66.7083 140.385 66.9073 139.692C67.1289 139.049 67.2435 138.373 67.2466 137.692Z" fill="#FFA8A7"/>
<path d="M20.0981 99.409C18.4233 101.575 18.1056 104.405 18.5171 107.191C19.239 111.877 22.0762 115.522 25.4692 117.06C27.4978 117.984 30.14 118.374 31.4972 117.19C33.6124 115.356 35.7565 113.58 38.0378 111.941C39.7415 110.736 41.6474 109.53 42.4776 107.61C43.1995 105.978 43.1995 103.185 41.669 101.979C42.8768 101.035 43.7189 99.7001 44.0513 98.2034C44.2025 97.8112 44.2337 97.383 44.1412 96.973C44.0487 96.563 43.8365 96.1897 43.5316 95.9005C43.0984 95.5251 41.734 95.4601 41.1565 95.3951C39.1345 95.0919 37.1404 94.6259 35.1934 94.0018C32.7806 93.4857 30.2968 93.3904 27.8515 93.7203C25.9457 94.0885 23.7727 94.8393 22.7981 97.4959C21.7009 97.7958 20.7448 98.4733 20.0981 99.409Z" fill="#263238"/>
<path d="M37.4243 98.1172C38.8681 98.8391 40.7235 102.145 41.0339 109.321C41.2721 115.4 39.3951 117.024 38.435 117.522C37.4748 118.02 35.5473 117.869 33.6776 117.681L33.8725 120.72C33.8725 120.72 39.2652 124.612 35.042 125.42C32.7063 125.741 30.3352 125.172 28.4003 123.825C27.3548 123.159 26.4558 122.287 25.7581 121.262L25.3322 113.718C25.3322 113.718 24.3071 114.844 22.3579 113.342C20.748 112.101 20.0911 109.884 21.2028 108.599C21.4939 108.294 21.8533 108.061 22.2517 107.921C22.65 107.781 23.0759 107.737 23.4943 107.794C23.9128 107.85 24.3119 108.005 24.659 108.245C25.0061 108.486 25.2912 108.805 25.491 109.177C25.491 109.177 26.6172 109.747 27.5774 107.661C29.4092 107.367 31.1527 106.669 32.6813 105.618C33.9338 104.749 34.999 103.637 35.8138 102.349C36.6285 101.06 37.1762 99.6213 37.4243 98.1172Z" fill="#FFA8A7"/>
<path d="M33.028 107.907C33.0546 108.112 32.9989 108.319 32.873 108.482C32.7471 108.646 32.5614 108.753 32.3566 108.78C32.1482 108.796 31.9419 108.729 31.7824 108.594C31.6229 108.459 31.5231 108.267 31.5048 108.058C31.4827 107.856 31.5419 107.654 31.6691 107.496C31.7964 107.337 31.9814 107.236 32.1834 107.214C32.3854 107.192 32.5878 107.251 32.7462 107.378C32.9046 107.505 33.006 107.69 33.028 107.892V107.907Z" fill="#263238"/>
<path d="M33.1504 112.511L36.0381 113.342C35.9927 113.538 35.9083 113.722 35.7899 113.885C35.6714 114.047 35.5215 114.184 35.3489 114.287C35.1764 114.39 34.9848 114.457 34.7857 114.485C34.5865 114.512 34.3839 114.499 34.19 114.446C33.8019 114.318 33.4777 114.046 33.2843 113.686C33.0908 113.326 33.0429 112.906 33.1504 112.511Z" fill="#B16668"/>
<path d="M34.8906 114.469C34.8576 114.101 34.6851 113.76 34.4085 113.516C34.132 113.272 33.7723 113.143 33.4035 113.155C33.311 113.162 33.2192 113.176 33.1292 113.198C33.1764 113.489 33.3044 113.76 33.4985 113.98C33.6925 114.201 33.9448 114.363 34.2265 114.447C34.4432 114.506 34.6706 114.514 34.8906 114.469Z" fill="#F28F8F"/>
<path d="M39.7847 105.098L38.146 104.123C38.2038 104.015 38.283 103.92 38.3788 103.843C38.4746 103.767 38.5849 103.711 38.7032 103.678C38.8214 103.646 38.945 103.638 39.0664 103.655C39.1878 103.672 39.3045 103.713 39.4094 103.777C39.6308 103.906 39.7937 104.115 39.8638 104.362C39.9338 104.608 39.9054 104.872 39.7847 105.098Z" fill="#263238"/>
<path d="M31.786 105.098L30.0751 105.878C30.0179 105.769 29.9835 105.65 29.9741 105.527C29.9647 105.404 29.9804 105.281 30.0203 105.165C30.0601 105.049 30.1234 104.942 30.206 104.851C30.2887 104.76 30.3891 104.687 30.501 104.636C30.7335 104.533 30.9968 104.524 31.2361 104.61C31.4753 104.696 31.6723 104.871 31.786 105.098Z" fill="#263238"/>
<path d="M39.5034 107.329C39.5143 107.429 39.5054 107.53 39.4772 107.627C39.449 107.723 39.402 107.813 39.339 107.892C39.276 107.97 39.1982 108.035 39.1099 108.084C39.0217 108.132 38.9248 108.163 38.8248 108.173C38.7248 108.184 38.6236 108.175 38.527 108.147C38.4304 108.119 38.3404 108.072 38.2619 108.009C38.1835 107.946 38.1182 107.868 38.0699 107.78C38.0215 107.692 37.991 107.595 37.9801 107.495C37.9535 107.29 38.0093 107.083 38.1351 106.919C38.261 106.755 38.4467 106.648 38.6515 106.621C38.8577 106.605 39.062 106.67 39.2211 106.802C39.3802 106.934 39.4815 107.123 39.5034 107.329Z" fill="#263238"/>
<path d="M35.8069 107.119L36.2184 111.71L38.5935 110.808L35.8069 107.119Z" fill="#F28F8F"/>
<path d="M33.6413 117.681C31.6704 117.543 27.5844 116.641 26.8552 115.096C27.1591 115.882 27.6955 116.557 28.3929 117.031C29.6563 117.984 33.7207 118.893 33.7207 118.893L33.6413 117.681Z" fill="#F28F8F"/>
<path d="M25.4548 107.675L25.6498 110.866C25.9363 110.85 26.2168 110.778 26.4751 110.653C26.7334 110.528 26.9643 110.353 27.1544 110.138C27.3445 109.923 27.49 109.673 27.5824 109.401C27.6748 109.129 27.7123 108.842 27.6928 108.556L27.5051 105.603L25.4548 107.675Z" fill="#263238"/>
<path d="M126.725 205.031L130.414 207.147V21.6787L126.725 23.8084V205.031Z" fill="#FFBD6A"/>
<path opacity="0.4" d="M126.725 205.031L130.414 207.147V21.6787L126.725 23.8084V205.031Z" fill="white"/>
<path opacity="0.1" d="M126.725 205.031L130.414 207.147V21.6787L126.725 23.8084V205.031Z" fill="black"/>
<path d="M130.414 207.147L141.712 200.621V2.10071L5.92676 80.501V278.999L17.2392 272.495V87.0271L130.407 21.6791L130.414 207.147Z" fill="#FFBD6A"/>
<path opacity="0.7" d="M130.414 207.147L141.712 200.621V2.10071L5.92676 80.501V278.999L17.2392 272.495V87.0271L130.407 21.6791L130.414 207.147Z" fill="white"/>
<path d="M141.712 2.10078L5.92666 80.501L2.29541 78.393L138.088 0L141.712 2.10078Z" fill="#FFBD6A"/>
<path opacity="0.85" d="M141.712 2.10078L5.92666 80.501L2.29541 78.393L138.088 0L141.712 2.10078Z" fill="white"/>
<path d="M5.92666 279V80.5016L2.29541 78.3936V276.906L5.92666 279Z" fill="#FFBD6A"/>
<path opacity="0.6" d="M2.29541 78.3936V276.906L5.92666 279V80.5016" fill="white"/>
<path d="M123.26 223.765L156.569 204.533L198.455 228.71L165.146 247.942L123.26 223.765Z" fill="black"/>
<path d="M156.57 204.534V171.651L122.589 191.273L151.018 207.74L156.57 204.534Z" fill="#37474F"/>
<path d="M156.569 171.65V204.533L170.697 212.683L199.126 196.217L156.569 171.65Z" fill="#263238"/>
<path d="M122.589 191.271V223.375L165.146 247.942V215.888L122.589 191.271Z" fill="#263238"/>
<path d="M165.146 215.888V247.941L199.127 228.319V196.216L165.146 215.888Z" fill="#37474F"/>
<path d="M165.146 215.888L165.81 246.721L190.493 233.308L165.146 247.941V215.888Z" fill="#455A64"/>
<path d="M169.203 237.618C169.081 237.62 168.961 237.587 168.857 237.524C168.707 237.416 168.587 237.271 168.511 237.102C168.435 236.934 168.405 236.748 168.423 236.564V233.727V233.518H168.568L170.791 232.211V235.452C170.788 235.86 170.686 236.261 170.495 236.622C170.304 236.983 170.029 237.292 169.694 237.524C169.541 237.596 169.372 237.629 169.203 237.618ZM168.777 233.936V236.564C168.762 236.686 168.778 236.809 168.823 236.923C168.869 237.036 168.942 237.136 169.037 237.214C169.115 237.247 169.201 237.26 169.285 237.252C169.37 237.243 169.451 237.212 169.521 237.163C169.798 236.959 170.025 236.694 170.184 236.389C170.343 236.084 170.43 235.746 170.438 235.402V235.171H169.615L169.449 234.052L168.777 233.936ZM169.918 234.81H170.438V232.846L169.109 233.633L169.766 233.749L169.918 234.81Z" fill="#E0E0E0"/>
<path d="M169.607 239.9C169.559 239.9 169.513 239.881 169.48 239.847C169.446 239.813 169.427 239.767 169.427 239.719V237.337C169.427 237.289 169.446 237.243 169.48 237.209C169.513 237.175 169.559 237.156 169.607 237.156C169.655 237.156 169.701 237.175 169.735 237.209C169.769 237.243 169.788 237.289 169.788 237.337V239.719C169.788 239.767 169.769 239.813 169.735 239.847C169.701 239.881 169.655 239.9 169.607 239.9Z" fill="#E0E0E0"/>
<path d="M168.568 240.506C168.537 240.504 168.506 240.494 168.48 240.478C168.454 240.462 168.432 240.439 168.416 240.412C168.392 240.371 168.386 240.322 168.398 240.276C168.41 240.23 168.44 240.191 168.481 240.167L170.553 238.975C170.594 238.952 170.643 238.945 170.689 238.957C170.735 238.97 170.774 238.999 170.798 239.04C170.81 239.06 170.817 239.082 170.82 239.105C170.823 239.128 170.822 239.151 170.816 239.173C170.81 239.195 170.799 239.216 170.785 239.234C170.771 239.252 170.753 239.267 170.733 239.279L168.662 240.506C168.631 240.516 168.598 240.516 168.568 240.506Z" fill="#E0E0E0"/>
<path d="M175.96 236.392C175.892 236.39 175.825 236.373 175.765 236.341C175.694 236.295 175.636 236.23 175.598 236.154C175.56 236.078 175.543 235.993 175.549 235.908V235.453C175.549 235.405 175.568 235.359 175.601 235.325C175.635 235.292 175.681 235.273 175.729 235.273C175.777 235.273 175.823 235.292 175.857 235.325C175.89 235.359 175.909 235.405 175.909 235.453V235.944C175.895 235.984 175.895 236.027 175.909 236.067C175.909 236.067 175.967 236.067 176.025 236.031C176.135 235.929 176.222 235.805 176.279 235.666C176.337 235.528 176.363 235.379 176.357 235.229V232.053C176.357 232.005 176.376 231.959 176.41 231.925C176.444 231.891 176.49 231.872 176.538 231.872C176.585 231.872 176.631 231.891 176.665 231.925C176.699 231.959 176.718 232.005 176.718 232.053V235.229C176.726 235.441 176.684 235.652 176.597 235.845C176.509 236.038 176.377 236.208 176.213 236.341C176.134 236.377 176.047 236.395 175.96 236.392Z" fill="#E0E0E0"/>
<path d="M174.076 233.612V233.288C174.12 232.495 174.35 231.723 174.747 231.036C175.145 230.349 175.699 229.765 176.364 229.331C176.604 229.131 176.9 229.01 177.211 228.984C177.522 228.958 177.834 229.029 178.103 229.187C178.373 229.345 178.587 229.583 178.716 229.867C178.845 230.151 178.884 230.468 178.826 230.775V230.884L174.076 233.612ZM177.433 229.382C177.116 229.395 176.808 229.49 176.538 229.656C175.971 230.029 175.492 230.519 175.132 231.093C174.772 231.667 174.54 232.312 174.451 232.984L178.465 230.667C178.479 230.443 178.436 230.219 178.34 230.016C178.244 229.812 178.098 229.637 177.917 229.505C177.768 229.424 177.602 229.382 177.433 229.382Z" fill="#E0E0E0"/>
<path d="M182.371 232.731C182.323 232.731 182.277 232.712 182.243 232.678C182.209 232.644 182.19 232.598 182.19 232.55V226.479C182.19 226.431 182.209 226.385 182.243 226.351C182.277 226.318 182.323 226.299 182.371 226.299C182.419 226.299 182.465 226.318 182.499 226.351C182.532 226.385 182.551 226.431 182.551 226.479V232.565C182.548 232.61 182.527 232.652 182.494 232.683C182.46 232.714 182.416 232.731 182.371 232.731Z" fill="#E0E0E0"/>
<path d="M181.851 227.865H181.779C181.757 227.856 181.737 227.842 181.721 227.825C181.704 227.808 181.691 227.788 181.682 227.766C181.674 227.743 181.67 227.72 181.67 227.696C181.67 227.672 181.676 227.649 181.685 227.627L182.32 226.183L183.042 226.999C183.075 227.033 183.094 227.078 183.094 227.125C183.094 227.172 183.075 227.218 183.042 227.252C183.026 227.269 183.007 227.283 182.985 227.292C182.963 227.301 182.94 227.306 182.916 227.306C182.892 227.306 182.869 227.301 182.847 227.292C182.825 227.283 182.806 227.269 182.79 227.252L182.45 226.869L182.039 227.815C182.016 227.84 181.986 227.858 181.952 227.867C181.919 227.876 181.884 227.876 181.851 227.865Z" fill="#E0E0E0"/>
<path d="M184.024 231.792C183.976 231.792 183.93 231.773 183.896 231.739C183.863 231.705 183.844 231.66 183.844 231.612V225.533C183.845 225.487 183.865 225.442 183.899 225.41C183.932 225.378 183.977 225.36 184.024 225.36C184.071 225.36 184.115 225.378 184.149 225.41C184.183 225.442 184.203 225.487 184.204 225.533V231.612C184.204 231.66 184.185 231.705 184.152 231.739C184.118 231.773 184.072 231.792 184.024 231.792Z" fill="#E0E0E0"/>
<path d="M183.497 226.919C183.476 226.926 183.453 226.926 183.432 226.919C183.41 226.911 183.389 226.899 183.372 226.883C183.355 226.867 183.342 226.847 183.333 226.825C183.324 226.803 183.32 226.78 183.321 226.756C183.322 226.732 183.328 226.709 183.338 226.688L183.973 225.244L184.695 226.067C184.713 226.084 184.726 226.103 184.736 226.125C184.745 226.147 184.75 226.17 184.75 226.194C184.75 226.217 184.745 226.241 184.736 226.263C184.726 226.284 184.713 226.304 184.695 226.32C184.662 226.351 184.618 226.368 184.573 226.368C184.527 226.368 184.483 226.351 184.45 226.32L184.111 225.93L183.699 226.876C183.674 226.904 183.642 226.923 183.605 226.931C183.569 226.939 183.531 226.935 183.497 226.919Z" fill="#E0E0E0"/>
<path d="M129.866 214.063L139.143 219.42C139.264 219.499 139.366 219.605 139.438 219.73C139.511 219.856 139.553 219.997 139.561 220.141V226.595C139.561 227.122 139.186 227.317 138.731 227.079L129.455 221.737C129.333 221.658 129.231 221.552 129.158 221.426C129.086 221.301 129.044 221.16 129.036 221.015V214.518C129.036 214.012 129.411 213.796 129.866 214.063Z" fill="#FAFAFA"/>
<path d="M129.642 215.066L129.952 215.246V220.935L129.635 220.755L129.642 215.066Z" fill="#455A64"/>
<path d="M130.92 215.803L131.469 216.128V221.816L130.92 221.499V215.803Z" fill="#455A64"/>
<path d="M132.205 216.546L132.522 216.727V222.423L132.205 222.235V216.546Z" fill="#455A64"/>
<path d="M133.179 217.094L133.807 217.47V223.166L133.179 222.79V217.094Z" fill="#455A64"/>
<path d="M134.775 218.033L135.092 218.213V223.902L134.775 223.722V218.033Z" fill="#455A64"/>
<path d="M135.699 218.552L136.378 218.949V224.645L135.699 224.241V218.552Z" fill="#455A64"/>
<path d="M137.345 219.513L137.663 219.693V225.389L137.345 225.202V219.513Z" fill="#455A64"/>
<path d="M138.081 219.931L138.24 220.018V225.714L138.081 225.62V219.931Z" fill="#455A64"/>
<path d="M136.76 219.202L136.919 219.296V224.985L136.76 224.891V219.202Z" fill="#455A64"/>
<path d="M134.176 217.686L134.334 217.78V223.468L134.176 223.374V217.686Z" fill="#455A64"/>
<path d="M132.753 216.871L132.912 216.964V222.653L132.753 222.567V216.871Z" fill="#455A64"/>
<path d="M131.736 216.315L131.894 216.402V222.098L131.736 222.004V216.315Z" fill="#455A64"/>
<path d="M130.357 215.47L130.516 215.564V221.253L130.357 221.166V215.47Z" fill="#455A64"/>
<path d="M138.63 220.256L138.948 220.437V226.126L138.63 225.945V220.256Z" fill="#455A64"/>
<path d="M156.569 171.651L122.589 191.273L165.146 215.89L199.126 196.218L156.569 171.651Z" fill="#455A64"/>
<path opacity="0.1" d="M122.589 191.271L165.146 214.676L199.126 196.216L165.146 215.888L122.589 191.271Z" fill="white"/>
<path d="M136.688 183.121L179.274 207.709L184.508 204.684L141.929 180.096L136.688 183.121Z" fill="#FFBD6A"/>
<path d="M184.508 204.677V211.334L183.872 210.973L183.215 212.106L182.559 211.723L181.902 212.871L181.245 212.481L180.588 213.615L179.924 213.239L179.267 214.38V207.71L184.508 204.677Z" fill="#FFBD6A"/>
<path opacity="0.25" d="M184.508 204.677V211.334L183.872 210.973L183.215 212.106L182.559 211.723L181.902 212.871L181.245 212.481L180.588 213.615L179.924 213.239L179.267 214.38V207.71L184.508 204.677Z" fill="black"/>
<path opacity="0.1" d="M161.969 175.895L132.335 193.004L161.969 210.172L191.611 193.004L161.969 175.895Z" fill="black"/>
<path d="M137.2 192.629L161.969 178.328L186.745 192.629L161.969 206.937L137.2 192.629Z" fill="black"/>
<path d="M161.97 178.329V150.03L136.616 164.671L161.089 178.842L161.97 178.329Z" fill="#37474F"/>
<path d="M161.969 150.029V178.328L162.857 178.841L187.323 164.669L161.969 150.029Z" fill="#263238"/>
<path d="M136.615 164.669V192.297L161.969 206.937V179.353L136.615 164.669Z" fill="#263238"/>
<path d="M161.969 179.353V206.938L187.323 192.297V164.669L161.969 179.353Z" fill="#37474F"/>
<path d="M161.969 179.353L162.547 205.884L183.786 194.34L161.969 206.938V179.353Z" fill="#455A64"/>
<path d="M165.471 198.057C165.364 198.06 165.259 198.033 165.167 197.978C165.038 197.886 164.935 197.761 164.869 197.617C164.803 197.472 164.777 197.313 164.792 197.155V194.708V194.52H164.915L166.835 193.394V196.123C166.835 196.472 166.753 196.816 166.595 197.127C166.437 197.438 166.207 197.707 165.926 197.913C165.792 198.005 165.633 198.056 165.471 198.057ZM165.103 194.888V197.191C165.09 197.296 165.103 197.401 165.141 197.5C165.178 197.598 165.24 197.685 165.319 197.754C165.387 197.782 165.462 197.792 165.535 197.783C165.608 197.775 165.678 197.747 165.738 197.704C165.977 197.528 166.172 197.3 166.308 197.038C166.445 196.775 166.519 196.484 166.525 196.188V195.985H165.803L165.666 195.033L165.103 194.888ZM166.084 195.646H166.525V193.957L165.384 194.628L165.947 194.729L166.084 195.646Z" fill="#E0E0E0"/>
<path d="M165.81 200.007C165.77 200.007 165.731 199.991 165.703 199.962C165.674 199.934 165.658 199.895 165.658 199.855V197.805C165.653 197.782 165.654 197.758 165.659 197.735C165.665 197.712 165.675 197.69 165.69 197.672C165.705 197.653 165.724 197.638 165.745 197.628C165.766 197.618 165.79 197.613 165.814 197.613C165.837 197.613 165.861 197.618 165.882 197.628C165.904 197.638 165.922 197.653 165.937 197.672C165.952 197.69 165.963 197.712 165.968 197.735C165.974 197.758 165.974 197.782 165.969 197.805V199.855C165.969 199.876 165.965 199.896 165.957 199.915C165.949 199.934 165.937 199.951 165.922 199.965C165.907 199.979 165.889 199.99 165.87 199.997C165.851 200.005 165.831 200.008 165.81 200.007Z" fill="#E0E0E0"/>
<path d="M164.922 200.527C164.894 200.527 164.867 200.519 164.843 200.505C164.819 200.491 164.799 200.472 164.785 200.448C164.766 200.412 164.761 200.371 164.772 200.332C164.783 200.293 164.808 200.26 164.842 200.239L166.625 199.206C166.66 199.194 166.697 199.195 166.732 199.208C166.766 199.22 166.795 199.244 166.813 199.275C166.832 199.307 166.839 199.343 166.834 199.379C166.829 199.415 166.811 199.449 166.784 199.473L164.994 200.506C164.972 200.519 164.947 200.527 164.922 200.527Z" fill="#E0E0E0"/>
<path d="M171.282 196.99C171.221 196.991 171.162 196.976 171.109 196.946C171.048 196.907 171 196.852 170.968 196.787C170.937 196.722 170.923 196.65 170.928 196.578V196.152C170.928 196.112 170.944 196.074 170.973 196.045C171.001 196.017 171.04 196.001 171.08 196.001C171.12 196.001 171.159 196.017 171.187 196.045C171.215 196.074 171.231 196.112 171.231 196.152V196.578C171.22 196.611 171.22 196.646 171.231 196.679C171.231 196.679 171.282 196.679 171.332 196.679C171.432 196.588 171.509 196.476 171.559 196.351C171.609 196.226 171.63 196.092 171.621 195.957V193.229C171.621 193.188 171.637 193.15 171.666 193.121C171.694 193.093 171.733 193.077 171.773 193.077C171.813 193.077 171.852 193.093 171.88 193.121C171.908 193.15 171.924 193.188 171.924 193.229V195.957C171.932 196.14 171.897 196.322 171.822 196.489C171.747 196.656 171.634 196.802 171.491 196.918C171.428 196.958 171.357 196.983 171.282 196.99Z" fill="#E0E0E0"/>
<path d="M169.658 194.6V194.304C169.695 193.622 169.893 192.958 170.236 192.367C170.578 191.776 171.055 191.275 171.629 190.903C171.833 190.732 172.085 190.628 172.351 190.604C172.616 190.581 172.882 190.64 173.113 190.773C173.344 190.906 173.529 191.107 173.641 191.349C173.754 191.59 173.79 191.861 173.744 192.123V192.217L169.658 194.6ZM172.546 190.99C172.274 191.001 172.01 191.084 171.78 191.228C171.289 191.55 170.874 191.976 170.564 192.474C170.253 192.973 170.055 193.533 169.983 194.116L173.434 192.123C173.446 191.93 173.41 191.737 173.328 191.561C173.246 191.386 173.121 191.234 172.964 191.12C172.84 191.032 172.696 190.978 172.546 190.961V190.99Z" fill="#E0E0E0"/>
<path d="M176.797 193.842C176.757 193.842 176.719 193.826 176.69 193.797C176.662 193.769 176.646 193.73 176.646 193.69V188.463C176.646 188.423 176.662 188.385 176.69 188.356C176.719 188.328 176.757 188.312 176.797 188.312C176.838 188.312 176.876 188.328 176.905 188.356C176.933 188.385 176.949 188.423 176.949 188.463V193.69C176.949 193.71 176.945 193.73 176.937 193.748C176.93 193.766 176.919 193.783 176.905 193.797C176.89 193.811 176.874 193.823 176.855 193.83C176.837 193.838 176.817 193.842 176.797 193.842Z" fill="#E0E0E0"/>
<path d="M176.35 189.655H176.285C176.266 189.647 176.249 189.636 176.235 189.621C176.221 189.607 176.21 189.59 176.202 189.571C176.195 189.552 176.191 189.532 176.192 189.512C176.192 189.491 176.197 189.472 176.205 189.453L176.754 188.19L177.36 188.912C177.375 188.926 177.386 188.943 177.394 188.961C177.402 188.98 177.406 189 177.406 189.02C177.406 189.04 177.402 189.06 177.394 189.079C177.386 189.097 177.375 189.114 177.36 189.128C177.331 189.156 177.292 189.171 177.252 189.171C177.212 189.171 177.173 189.156 177.144 189.128L176.855 188.796L176.501 189.612C176.482 189.632 176.458 189.647 176.432 189.655C176.405 189.662 176.377 189.663 176.35 189.655Z" fill="#E0E0E0"/>
<path d="M178.198 193.033C178.157 193.033 178.118 193.018 178.088 192.989C178.058 192.961 178.041 192.923 178.039 192.882V187.648C178.047 187.612 178.066 187.581 178.095 187.558C178.123 187.535 178.158 187.523 178.194 187.523C178.231 187.523 178.266 187.535 178.294 187.558C178.322 187.581 178.342 187.612 178.349 187.648V192.86C178.351 192.882 178.349 192.903 178.342 192.924C178.336 192.944 178.325 192.963 178.311 192.979C178.297 192.995 178.279 193.009 178.26 193.018C178.241 193.027 178.219 193.032 178.198 193.033Z" fill="#E0E0E0"/>
<path d="M177.765 188.846H177.707C177.688 188.838 177.672 188.827 177.657 188.812C177.643 188.798 177.632 188.78 177.625 188.762C177.617 188.743 177.614 188.723 177.614 188.702C177.615 188.682 177.619 188.662 177.628 188.644L178.176 187.38L178.783 188.102C178.81 188.133 178.823 188.173 178.82 188.214C178.818 188.254 178.799 188.292 178.768 188.319C178.753 188.332 178.736 188.342 178.716 188.349C178.697 188.355 178.677 188.358 178.657 188.357C178.616 188.354 178.579 188.335 178.552 188.304L178.263 187.972L177.909 188.788C177.892 188.809 177.87 188.826 177.845 188.836C177.819 188.846 177.792 188.849 177.765 188.846Z" fill="#E0E0E0"/>
<path d="M142.882 184.284L150.866 188.89C150.971 188.96 151.058 189.053 151.12 189.161C151.183 189.27 151.22 189.392 151.227 189.518V195.062C151.227 195.524 150.902 195.712 150.505 195.481L142.521 190.868C142.418 190.799 142.332 190.707 142.27 190.599C142.209 190.492 142.174 190.371 142.167 190.247V184.695C142.167 184.241 142.492 184.053 142.882 184.284Z" fill="#FAFAFA"/>
<path d="M142.687 185.143L142.954 185.302V190.196L142.687 190.045V185.143Z" fill="#455A64"/>
<path d="M143.791 185.786L144.26 186.06V190.955L143.791 190.68V185.786Z" fill="#455A64"/>
<path d="M144.896 186.42L145.171 186.579V191.474L144.896 191.315V186.42Z" fill="#455A64"/>
<path d="M145.733 186.89L146.275 187.215V192.11L145.733 191.792V186.89Z" fill="#455A64"/>
<path d="M147.105 187.698L147.379 187.85V192.752L147.105 192.593V187.698Z" fill="#455A64"/>
<path d="M147.906 188.146L148.484 188.493V193.387L147.906 193.041V188.146Z" fill="#455A64"/>
<path d="M149.321 188.976L149.588 189.128V194.029L149.321 193.871V188.976Z" fill="#455A64"/>
<path d="M149.949 189.33L150.087 189.409V194.304L149.949 194.232V189.33Z" fill="#455A64"/>
<path d="M148.816 188.709L148.953 188.781V193.683L148.816 193.604V188.709Z" fill="#455A64"/>
<path d="M146.585 187.402L146.722 187.482V192.376L146.585 192.297V187.402Z" fill="#455A64"/>
<path d="M145.365 186.702L145.502 186.782V191.676L145.365 191.597V186.702Z" fill="#455A64"/>
<path d="M144.491 186.218L144.629 186.298V191.192L144.491 191.113V186.218Z" fill="#455A64"/>
<path d="M143.308 185.497L143.438 185.576V190.471L143.308 190.391V185.497Z" fill="#455A64"/>
<path d="M150.426 189.611L150.693 189.77V194.665L150.426 194.506V189.611Z" fill="#455A64"/>
<path d="M161.969 150.03L136.616 164.671L161.969 179.354L187.323 164.671L161.969 150.03Z" fill="#455A64"/>
<path opacity="0.1" d="M136.615 164.67L161.969 178.307L187.323 164.67L161.969 179.353L136.615 164.67Z" fill="white"/>
<path d="M147.885 158.165L173.26 172.813L177.765 170.207L152.397 155.559L147.885 158.165Z" fill="#FFBD6A"/>
<path d="M177.765 170.206V175.93L177.223 175.62L176.653 176.595L176.09 176.262L175.527 177.251L174.957 176.919L174.393 177.894L173.823 177.569L173.26 178.551V172.812L177.765 170.206Z" fill="#FFBD6A"/>
<path opacity="0.25" d="M177.765 170.206V175.93L177.223 175.62L176.653 176.595L176.09 176.262L175.527 177.251L174.957 176.919L174.393 177.894L173.823 177.569L173.26 178.551V172.812L177.765 170.206Z" fill="black"/>
<path d="M276.213 248.238C274.336 249.321 272.213 249.3 269.91 248.426L268.38 236.052L276.321 234.219L276.213 248.238Z" fill="#B16668"/>
<path d="M253.277 243.07C251.761 246.608 249.552 245.453 246.195 243.316L245.936 231.122L254.599 230.531L253.277 243.07Z" fill="#B16668"/>
<path d="M262.713 259.68C262.537 260.379 262.58 261.115 262.836 261.788C263.096 262.171 264.467 263.341 267.059 263.449C269.535 263.55 271.73 263.153 273.152 262.193C273.766 261.846 274.286 261.353 274.663 260.757C275.041 260.161 275.266 259.482 275.318 258.778C275.419 257.334 275.217 256.013 275.859 254.909C276.502 253.804 277.245 252.887 277.447 252.339C277.694 251.348 277.724 250.316 277.534 249.314L262.713 259.68Z" fill="#263238"/>
<path d="M269.008 247.906C268.99 248.439 268.906 248.968 268.755 249.48C268.403 250.581 267.918 251.636 267.312 252.62C267.015 253.137 266.684 253.634 266.323 254.108C265.601 255.017 264.698 255.775 263.933 256.649C263.11 257.478 262.599 258.568 262.489 259.731C262.439 261.673 264.561 262.265 266.193 262.511C267.954 262.764 269.75 262.619 271.448 262.085C272.352 261.835 273.163 261.326 273.782 260.623C274.401 259.919 274.802 259.05 274.935 258.121C275.007 257.58 274.935 257.031 275.007 256.483C275.187 255.239 275.671 254.059 276.415 253.046C276.846 252.462 277.214 251.832 277.512 251.169C277.982 249.957 277.512 248.614 277.18 247.43C276.87 246.405 276.632 245.177 276.271 245.264C276.271 245.473 276.271 245.928 276.271 245.928C276.162 246.152 275.902 246.311 275.83 246.578C275.763 246.854 275.674 247.125 275.563 247.387C275.391 247.788 275.102 248.127 274.733 248.361L274.588 246.195C274.597 245.967 274.532 245.741 274.401 245.553C274.226 245.401 274.004 245.314 273.773 245.307C272.409 245.021 271.009 244.945 269.622 245.084C269.517 245.085 269.413 245.108 269.319 245.153C269.224 245.198 269.14 245.263 269.073 245.344C268.988 245.495 268.959 245.671 268.994 245.842C269.038 246.529 269.042 247.218 269.008 247.906Z" fill="#37474F"/>
<path d="M267.081 253.032C267.802 252.469 269.405 252.418 270.293 252.483C271.195 252.535 272.069 252.813 272.834 253.292C272.945 253.365 273.078 253.396 273.209 253.382C273.341 253.368 273.464 253.308 273.556 253.213C273.611 253.156 273.653 253.089 273.679 253.014C273.705 252.94 273.715 252.861 273.707 252.783C273.7 252.704 273.675 252.629 273.635 252.561C273.596 252.493 273.541 252.434 273.477 252.39C272.626 251.8 271.624 251.466 270.589 251.429C268.423 251.336 267.781 251.733 267.781 251.733C267.781 251.733 266.85 252.397 267.081 253.032Z" fill="#F5F5F5"/>
<path d="M265.485 255.067C266.373 254.504 268.156 254.533 269.044 254.598C269.928 254.663 270.78 254.959 271.513 255.457C271.625 255.527 271.757 255.558 271.888 255.543C272.019 255.529 272.141 255.471 272.235 255.378C272.29 255.322 272.332 255.254 272.358 255.18C272.384 255.105 272.394 255.026 272.386 254.948C272.379 254.87 272.354 254.794 272.314 254.726C272.274 254.658 272.22 254.6 272.156 254.555C271.298 253.94 270.285 253.577 269.232 253.508C267.066 253.422 266.496 253.884 266.496 253.884C266.249 253.992 266.03 254.155 265.855 254.36C265.68 254.565 265.554 254.807 265.485 255.067Z" fill="#F5F5F5"/>
<path d="M271.441 249.322C270.52 249.183 269.579 249.29 268.712 249.632C268.33 249.856 268.099 250.469 268.351 250.614C269.11 250.284 269.938 250.145 270.762 250.209C271.582 250.263 272.385 250.459 273.138 250.787C273.325 250.866 273.549 250.975 273.744 251.076C273.807 251.111 273.876 251.133 273.948 251.139C274.019 251.146 274.092 251.137 274.16 251.114C274.228 251.091 274.29 251.054 274.343 251.005C274.396 250.956 274.438 250.896 274.466 250.83C274.515 250.721 274.522 250.598 274.485 250.484C274.447 250.37 274.368 250.275 274.264 250.217C273.398 249.72 272.435 249.415 271.441 249.322Z" fill="#F5F5F5"/>
<path d="M232.883 251.191C232.716 251.762 232.77 252.376 233.035 252.909C233.288 253.407 235.973 254.815 239.532 254.469C242.153 254.202 244.656 253.24 246.78 251.682C248.109 250.743 249.516 250.534 251.271 250.383C253.025 250.231 254.368 249.661 254.729 248.816C254.906 248.071 254.861 247.29 254.599 246.571L232.883 251.191Z" fill="#263238"/>
<path d="M246.946 240.269C246.628 240.193 246.314 240.096 246.008 239.98C245.844 239.899 245.656 239.884 245.481 239.937C245.378 240.001 245.291 240.089 245.229 240.193C245.166 240.297 245.129 240.415 245.12 240.536C245.053 241.062 244.939 241.582 244.781 242.088C244.528 242.505 244.2 242.873 243.813 243.171C242.949 243.903 242.013 244.547 241.019 245.091C239.879 245.748 238.753 246.268 237.569 246.838C236.385 247.408 234.746 247.813 233.807 248.484C232.443 249.466 232.364 251.834 233.952 252.722C235.345 253.487 239.005 254.252 242.738 253.068C244.781 252.419 247.004 250.181 249.704 249.856C251.422 249.675 253.711 249.459 254.757 248.123C255.147 247.531 254.859 245.842 254.599 243.849C254.368 242.059 254.187 239.272 253.617 239.446C253.617 239.446 253.386 240.095 253.342 240.168C253.197 240.388 253.033 240.596 252.852 240.788C252.697 240.947 252.533 241.096 252.361 241.236C252.165 241.449 251.957 241.651 251.74 241.842C251.458 242.075 251.109 242.212 250.744 242.232C250.569 242.24 250.396 242.197 250.245 242.11C249.957 241.936 249.928 241.554 249.697 241.308C249.43 241.034 249.111 240.816 248.758 240.666C248.264 240.472 247.743 240.353 247.213 240.312C247.134 240.305 247.033 240.283 246.946 240.269Z" fill="#37474F"/>
<path d="M242.601 244.116C242.717 243.876 242.891 243.669 243.108 243.514C243.325 243.359 243.578 243.261 243.842 243.228C244.622 243.062 246.008 243.596 246.903 244.282C246.987 244.346 247.053 244.429 247.097 244.524C247.141 244.619 247.161 244.724 247.155 244.828C247.15 244.933 247.118 245.035 247.064 245.124C247.01 245.214 246.935 245.289 246.845 245.344C246.733 245.408 246.604 245.436 246.476 245.426C246.347 245.416 246.224 245.367 246.124 245.286C245.147 244.451 243.883 244.031 242.601 244.116Z" fill="#F5F5F5"/>
<path d="M240.211 245.56C240.374 245.313 240.595 245.11 240.854 244.966C241.113 244.823 241.402 244.744 241.698 244.737C242.905 244.756 244.074 245.155 245.041 245.877C245.12 245.939 245.183 246.02 245.225 246.111C245.267 246.202 245.286 246.303 245.281 246.403C245.276 246.504 245.247 246.601 245.196 246.688C245.146 246.775 245.075 246.849 244.99 246.903C244.879 246.97 244.749 247 244.62 246.99C244.49 246.98 244.367 246.929 244.268 246.845C243.732 246.339 243.089 245.962 242.386 245.739C241.684 245.517 240.94 245.455 240.211 245.56Z" fill="#F5F5F5"/>
<path d="M237.569 246.838C237.76 246.614 237.996 246.434 238.263 246.309C238.529 246.185 238.819 246.119 239.114 246.116C240.277 246.152 241.4 246.557 242.319 247.271C242.398 247.334 242.461 247.415 242.503 247.507C242.545 247.599 242.564 247.699 242.559 247.8C242.554 247.901 242.525 247.999 242.475 248.087C242.424 248.174 242.353 248.249 242.268 248.303C242.156 248.37 242.026 248.399 241.897 248.387C241.767 248.376 241.645 248.323 241.546 248.238C241.038 247.712 240.414 247.311 239.723 247.068C239.033 246.825 238.295 246.746 237.569 246.838Z" fill="#F5F5F5"/>
<path d="M218.972 135.742C217.6 134.479 216.156 131.454 215.038 133.114C214.316 134.233 215.846 134.991 215.759 136.406C215.673 137.821 211.363 134.464 209.565 133.208C208.367 132.371 205.602 134.991 206.714 137.828C207.696 140.348 209.269 141.943 212.092 143.134C215.074 144.398 216.633 145.026 220.372 146.708C222.047 144.333 223.217 141.987 222.805 139.705C219.867 137.994 220.156 136.832 218.972 135.742Z" fill="#FFBD6A"/>
<path opacity="0.7" d="M218.972 135.742C217.6 134.479 216.156 131.454 215.038 133.114C214.316 134.233 215.846 134.991 215.759 136.406C215.673 137.821 211.363 134.464 209.565 133.208C208.367 132.371 205.602 134.991 206.714 137.828C207.696 140.348 209.269 141.943 212.092 143.134C215.074 144.398 216.633 145.026 220.372 146.708C222.047 144.333 223.217 141.987 222.805 139.705C219.867 137.994 220.156 136.832 218.972 135.742Z" fill="white"/>
<path opacity="0.1" d="M218.972 135.742C217.6 134.479 216.156 131.454 215.038 133.114C214.316 134.233 215.846 134.991 215.759 136.406C215.673 137.821 211.363 134.464 209.565 133.208C208.367 132.371 205.602 134.991 206.714 137.828C207.696 140.348 209.269 141.943 212.092 143.134C215.074 144.398 216.633 145.026 220.372 146.708C222.047 144.333 223.217 141.987 222.805 139.705C219.867 137.994 220.156 136.832 218.972 135.742Z" fill="black"/>
<path opacity="0.1" d="M215.471 137.901C215.471 139.171 215.817 141.193 217.637 142.232C217.181 142.17 216.747 142 216.37 141.737C215.993 141.473 215.685 141.123 215.471 140.716C215.237 140.284 215.114 139.8 215.114 139.309C215.114 138.817 215.237 138.333 215.471 137.901Z" fill="black"/>
<path d="M254.396 121.556C252.772 123.722 253.444 122.834 252.953 126.14C252.548 128.804 246.954 154.439 241.886 155.5C239.662 155.97 223.621 148.628 219.73 146.484C221.199 144.453 222.245 142.148 222.805 139.705C227.469 141.531 235.504 143.315 238.392 144.224C239.727 140.499 241.359 136.673 242.889 132.912C245.791 125.757 247.444 120.668 254.396 121.556Z" fill="#455A64"/>
<path d="M275.39 164.923C275.39 170.611 275.78 203.69 275.78 203.69C275.924 205.328 277.498 208.238 277.621 214.136C277.801 222.683 277.462 247.813 277.462 247.813C277.462 247.813 272.12 249.77 268.38 248.21C268.38 248.21 264.402 215.803 263.327 207.342C262.395 199.957 260.497 183.093 260.497 183.093L257.862 205.473C258.25 209.042 258.351 212.637 258.165 216.222C257.891 220.142 254.498 242.067 254.498 242.067C254.498 242.067 248.845 243.251 244.773 241.879C244.773 241.879 244.99 206.592 244.925 202.997C244.846 198.903 246.629 163.681 246.629 163.681L275.39 164.923Z" fill="#FFBD6A"/>
<path opacity="0.4" d="M275.39 164.923C275.39 170.611 275.78 203.69 275.78 203.69C275.924 205.328 277.498 208.238 277.621 214.136C277.801 222.683 277.462 247.813 277.462 247.813C277.462 247.813 272.12 249.77 268.38 248.21C268.38 248.21 264.402 215.803 263.327 207.342C262.395 199.957 260.497 183.093 260.497 183.093L257.862 205.473C258.25 209.042 258.351 212.637 258.165 216.222C257.891 220.142 254.498 242.067 254.498 242.067C254.498 242.067 248.845 243.251 244.773 241.879C244.773 241.879 244.99 206.592 244.925 202.997C244.846 198.903 246.629 163.681 246.629 163.681L275.39 164.923Z" fill="black"/>
<path opacity="0.15" d="M260.497 183.093L260.027 179.606C258.345 179.317 254.129 176.538 251.646 174.141C253.387 176.914 255.775 179.223 258.605 180.869L258.252 203.025L260.497 183.093Z" fill="black"/>
<path d="M265.124 121.456C266.388 121.759 269.456 122.134 271.679 122.777C273.325 123.246 274.018 125.26 274.365 126.776C275.462 131.627 275.657 141.799 275.657 141.799L275.722 165.493C271.614 168.481 254.786 169.997 246.123 163.695C246.123 163.695 247.177 135.475 247.177 131.086C247.177 126.697 249.617 121.42 256.353 121.022L265.124 121.456Z" fill="#455A64"/>
<path d="M265.969 121.628C266.193 121.677 266.403 121.775 266.585 121.914C266.767 122.053 266.915 122.231 267.021 122.434C267.126 122.637 267.186 122.861 267.195 123.09C267.204 123.319 267.162 123.547 267.073 123.758C266.17 125.824 264.952 127.738 263.464 129.432C261.009 132.233 255.811 134.486 255.811 134.486C255.811 134.486 253.234 131.598 253.703 128.299C254.173 125 255.508 122.242 256.504 121.47C256.767 121.294 257.058 121.165 257.364 121.087V120.668C255.887 120.528 254.398 120.705 252.996 121.188C251.242 121.968 248.13 123.274 247.148 128.674C246.167 134.074 245.336 164.46 245.336 164.46C245.336 164.46 255.754 173.902 276.271 166.994V141.979C276.271 141.979 276.119 130.284 273.036 122.661L265.998 121.217L265.969 121.628Z" fill="#FFBD6A"/>
<path opacity="0.1" d="M276.249 153.567C273.7 155.4 270.278 157.761 267.795 159.342C267.073 159.804 266.423 160.201 265.904 160.504C265.268 160.872 264.286 160.367 263.565 160.223C261.637 159.826 260.41 160.136 258.598 160.223C257.154 160.288 256.389 159.891 256.259 160.223C256.146 160.614 256.185 161.034 256.368 161.398C256.552 161.763 256.866 162.044 257.248 162.186C258.083 162.526 258.955 162.768 259.847 162.908C258.387 163.602 256.824 164.056 255.219 164.251C251.949 164.663 250.577 165.695 252.714 168.207C255.877 169.15 259.168 169.593 262.467 169.521C263.189 169.211 263.998 168.799 264.85 168.395C266.048 167.767 268.517 166.373 270.834 165.117C271.917 164.525 273 163.962 273.837 163.536C274.675 163.11 275.426 162.757 276.249 162.367V153.567Z" fill="black"/>
<path opacity="0.1" d="M273.715 124.618C270.286 132.162 275.513 138.334 275.513 138.334L276.198 140.392C276.054 137.345 275.541 130.314 273.715 124.618Z" fill="black"/>
<path d="M245.741 151.711C247.423 154.736 255.234 156.548 261.977 156.649C268.719 156.75 274.321 154.822 276.249 153.039V150.101C274.321 151.906 268.719 153.848 261.977 153.71C255.234 153.573 247.538 151.768 245.856 148.744L245.741 151.711Z" fill="#FAFAFA"/>
<path d="M276.249 158.468C274.322 160.273 268.719 162.215 261.977 162.078C255.234 161.941 247.228 160.092 245.546 157.068L245.647 154.115C247.329 157.14 255.234 159.01 261.977 159.111C268.719 159.212 274.322 157.284 276.249 155.501V158.468Z" fill="#FAFAFA"/>
<path opacity="0.15" d="M255.812 134.472L255.342 168.872C254.815 168.763 254.317 168.641 253.826 168.518L255.812 134.472Z" fill="black"/>
<path d="M229.086 148.542L252.996 150.152L265.16 177.108L242.312 174.986L229.086 148.542Z" fill="#263238"/>
<path opacity="0.15" d="M251.213 167.189C251.56 168.084 252.139 168.871 252.889 169.47C253.64 170.069 254.536 170.457 255.486 170.597C257.625 170.781 259.773 170.382 261.702 169.442L260.684 167.189H251.213Z" fill="black"/>
<path opacity="0.15" d="M236.536 151.35L236.183 150.512C235.988 150.057 237.316 149.79 239.157 149.891L242.673 150.115C244.513 150.238 246.167 150.7 246.362 151.162L246.715 151.992L236.536 151.35Z" fill="black"/>
<path d="M234.327 148.375C234.205 148.086 234.732 147.906 235.504 147.964L236.897 148.079C236.897 148.079 236.139 146.274 239.215 146.368C242.29 146.462 243.344 148.462 243.344 148.462L244.838 148.592C245.485 148.587 246.112 148.812 246.607 149.227L246.874 149.74L234.558 148.909L234.327 148.375Z" fill="#FFBD6A"/>
<path opacity="0.3" d="M234.327 148.375C234.205 148.086 234.732 147.906 235.504 147.964L236.897 148.079C236.897 148.079 236.139 146.274 239.215 146.368C242.29 146.462 243.344 148.462 243.344 148.462L244.838 148.592C245.485 148.587 246.112 148.812 246.607 149.227L246.874 149.74L234.558 148.909L234.327 148.375Z" fill="black"/>
<path d="M246.231 151.271C246.073 150.888 244.903 150.506 243.452 150.318C243.452 150.267 243.416 150.224 243.401 150.181C243.235 149.784 243.365 149.495 244.232 149.56V149.213L235.706 148.708L236.117 149.004C237.236 149.055 237.713 149.112 238.016 149.82L238.081 149.979C236.76 149.979 235.915 150.246 236.045 150.621L236.399 151.459L246.585 152.101L246.231 151.271Z" fill="#FFBD6A"/>
<path opacity="0.4" d="M246.231 151.271C246.073 150.888 244.903 150.506 243.452 150.318C243.452 150.267 243.416 150.224 243.401 150.181C243.235 149.784 243.365 149.495 244.232 149.56V149.213L235.706 148.708L236.117 149.004C237.236 149.055 237.713 149.112 238.016 149.82L238.081 149.979C236.76 149.979 235.915 150.246 236.045 150.621L236.399 151.459L246.585 152.101L246.231 151.271Z" fill="black"/>
<path d="M266.496 158.577C265.774 159.046 265.124 159.443 264.604 159.746C263.969 160.107 262.987 159.609 262.265 159.465C260.338 159.068 259.111 159.378 257.299 159.465C255.855 159.537 255.09 159.14 254.96 159.465C254.845 159.856 254.883 160.277 255.067 160.642C255.25 161.006 255.566 161.287 255.949 161.428C256.783 161.772 257.655 162.014 258.548 162.15C257.087 162.844 255.525 163.298 253.92 163.493C250.253 163.955 248.96 165.153 252.346 168.445C254.469 170.503 257.436 170.813 263.55 167.637C264.749 167.009 267.218 165.608 269.535 164.352C269.45 163.233 269.136 162.143 268.614 161.15C268.091 160.156 267.37 159.281 266.496 158.577Z" fill="#FFBD6A"/>
<path opacity="0.7" d="M266.496 158.577C265.774 159.046 265.124 159.443 264.604 159.746C263.969 160.107 262.987 159.609 262.265 159.465C260.338 159.068 259.111 159.378 257.299 159.465C255.855 159.537 255.09 159.14 254.96 159.465C254.845 159.856 254.883 160.277 255.067 160.642C255.25 161.006 255.566 161.287 255.949 161.428C256.783 161.772 257.655 162.014 258.548 162.15C257.087 162.844 255.525 163.298 253.92 163.493C250.253 163.955 248.96 165.153 252.346 168.445C254.469 170.503 257.436 170.813 263.55 167.637C264.749 167.009 267.218 165.608 269.535 164.352C269.45 163.233 269.136 162.143 268.614 161.15C268.091 160.156 267.37 159.281 266.496 158.577Z" fill="white"/>
<path opacity="0.1" d="M266.496 158.577C265.774 159.046 265.124 159.443 264.604 159.746C263.969 160.107 262.987 159.609 262.265 159.465C260.338 159.068 259.111 159.378 257.299 159.465C255.855 159.537 255.09 159.14 254.96 159.465C254.845 159.856 254.883 160.277 255.067 160.642C255.25 161.006 255.566 161.287 255.949 161.428C256.783 161.772 257.655 162.014 258.548 162.15C257.087 162.844 255.525 163.298 253.92 163.493C250.253 163.955 248.96 165.153 252.346 168.445C254.469 170.503 257.436 170.813 263.55 167.637C264.749 167.009 267.218 165.608 269.535 164.352C269.45 163.233 269.136 162.143 268.614 161.15C268.091 160.156 267.37 159.281 266.496 158.577Z" fill="black"/>
<path d="M282.544 131.23C280.378 123.65 277.447 123.015 273.015 122.661C268.438 130.725 274.213 137.59 274.213 137.59L278.407 150.166C277.758 150.888 270.755 155.855 266.496 158.576C267.723 159.58 269.535 162.655 269.535 164.352C270.618 163.767 271.701 163.204 272.538 162.771C278.999 159.558 287.626 156.143 287.77 152.873C287.915 149.603 284.782 139.214 282.544 131.23Z" fill="#455A64"/>
<path d="M257.494 107.565C257.502 107.747 257.564 107.922 257.671 108.07C257.778 108.217 257.927 108.33 258.097 108.394C258.268 108.457 258.454 108.47 258.632 108.429C258.809 108.388 258.971 108.297 259.097 108.165C259.223 108.033 259.308 107.867 259.34 107.688C259.373 107.508 259.352 107.323 259.28 107.156C259.209 106.988 259.089 106.845 258.937 106.745C258.785 106.644 258.607 106.59 258.425 106.59C258.173 106.598 257.934 106.704 257.759 106.886C257.585 107.069 257.49 107.312 257.494 107.565Z" fill="#263238"/>
<path d="M258.425 104.411L260.352 105.508C260.492 105.245 260.524 104.938 260.44 104.652C260.357 104.366 260.164 104.124 259.905 103.978C259.78 103.907 259.642 103.862 259.499 103.846C259.356 103.829 259.211 103.842 259.073 103.882C258.935 103.922 258.807 103.99 258.695 104.081C258.584 104.172 258.492 104.284 258.425 104.411Z" fill="#263238"/>
<path d="M257.732 113.254L255.566 114.063C255.612 114.206 255.685 114.339 255.783 114.453C255.881 114.568 256.001 114.661 256.135 114.729C256.27 114.796 256.417 114.836 256.567 114.845C256.717 114.855 256.868 114.834 257.01 114.785C257.307 114.676 257.549 114.454 257.684 114.168C257.819 113.881 257.836 113.553 257.732 113.254Z" fill="#F28F8F"/>
<path d="M250.058 105.184L251.812 103.834C251.73 103.715 251.625 103.614 251.503 103.537C251.381 103.46 251.244 103.409 251.102 103.387C250.959 103.364 250.813 103.371 250.674 103.407C250.534 103.443 250.403 103.507 250.289 103.595C250.052 103.778 249.895 104.046 249.852 104.343C249.809 104.639 249.883 104.94 250.058 105.184Z" fill="#263238"/>
<path d="M250.455 107.566C250.462 107.743 250.521 107.914 250.625 108.058C250.728 108.201 250.872 108.311 251.038 108.374C251.204 108.436 251.384 108.449 251.557 108.409C251.73 108.37 251.887 108.281 252.01 108.152C252.132 108.024 252.214 107.863 252.245 107.688C252.276 107.514 252.255 107.334 252.185 107.171C252.114 107.009 251.998 106.87 251.849 106.774C251.701 106.677 251.527 106.626 251.35 106.627C251.23 106.63 251.111 106.657 251.001 106.705C250.891 106.754 250.791 106.824 250.708 106.911C250.625 106.998 250.56 107.101 250.516 107.213C250.473 107.326 250.452 107.445 250.455 107.566Z" fill="#263238"/>
<path d="M255.342 106.006L255.032 111.673L252.065 110.663L255.342 106.006Z" fill="#F28F8F"/>
<path d="M257.508 106.23L270.762 105.248C273.325 107.19 278.097 111.276 278.09 112.409V113.196C278.1 113.227 278.1 113.26 278.09 113.29C277.62 114.185 275.924 114.734 273.296 114.777C270.177 114.835 265.355 114.546 264.048 113.449C262.135 111.803 257.551 106.952 257.551 106.952L258.215 106.901L257.508 106.23Z" fill="#FFBD6A"/>
<path opacity="0.2" d="M257.508 106.23L270.762 105.248C273.325 107.19 278.097 111.276 278.09 112.409V113.196C278.1 113.227 278.1 113.26 278.09 113.29C277.62 114.185 275.924 114.734 273.296 114.777C270.177 114.835 265.355 114.546 264.048 113.449C262.135 111.803 257.551 106.952 257.551 106.952L258.215 106.901L257.508 106.23Z" fill="black"/>
<path d="M270.762 106.028C273.441 108.056 278.537 112.424 278.061 113.319C277.585 114.214 275.895 114.763 273.267 114.806C270.149 114.864 265.326 114.575 264.02 113.478C262.107 111.832 257.522 106.981 257.522 106.981L270.762 106.028Z" fill="#FFBD6A"/>
<path opacity="0.4" d="M270.762 106.028C273.441 108.056 278.537 112.424 278.061 113.319C277.585 114.214 275.895 114.763 273.267 114.806C270.149 114.864 265.326 114.575 264.02 113.478C262.107 111.832 257.522 106.981 257.522 106.981L270.762 106.028Z" fill="black"/>
<path d="M270.763 106.028C270.806 106.411 269.456 107.212 269.456 107.212L269.831 104.88L270.763 106.028Z" fill="#FFBD6A"/>
<path opacity="0.3" d="M270.763 106.028C270.806 106.411 269.456 107.212 269.456 107.212L269.831 104.88L270.763 106.028Z" fill="black"/>
<path d="M267.282 98.2891C267.282 98.2891 269.354 98.5778 270.112 100.137C270.769 101.494 270.531 104.772 269.65 108.345C269.149 110.656 268.403 112.906 267.427 115.059C267.082 115.668 266.516 116.12 265.846 116.323L265.947 112.085L266.099 109.132C266.099 109.132 264.207 106.541 263.998 104.418C263.731 101.689 264.301 100.57 264.301 100.57L267.282 98.2891Z" fill="#263238"/>
<path d="M263.933 102.382C263.92 104.479 263.077 106.486 261.589 107.964C260.101 109.443 258.089 110.272 255.992 110.272C254.002 110.107 252.148 109.198 250.798 107.727C249.448 106.256 248.702 104.33 248.709 102.333C248.715 100.337 249.473 98.4156 250.832 96.953C252.191 95.4903 254.052 94.5933 256.042 94.4407C258.14 94.454 260.147 95.2966 261.625 96.7844C263.103 98.2722 263.933 100.284 263.933 102.382Z" fill="#263238"/>
<path d="M265.991 108.656C266.713 109.27 267.283 107.674 267.882 107.046C268.481 106.418 270.431 105.602 271.398 107.631C272.365 109.66 270.546 112.684 269.044 113.24C268.594 113.413 268.098 113.43 267.636 113.289C267.174 113.148 266.773 112.856 266.496 112.461V121.846C264.244 125.903 260.266 125.78 258.143 125.549C256.021 125.318 255.552 123.116 257.104 121.333V118.445C255.925 118.629 254.729 118.684 253.538 118.611C251.588 118.308 250.571 116.843 249.993 114.735C249.055 111.349 248.679 105.653 249.993 99.0835C252.159 97.3942 259.724 97.6397 264.294 100.571C263.969 106.397 265.276 108.035 265.991 108.656Z" fill="#FFA8A7"/>
<path d="M250.816 96.2025C251.706 95.2367 252.791 94.4714 253.999 93.9574C254.977 93.539 256.026 93.3158 257.089 93.3004C258.468 93.3004 259.847 93.0983 261.226 93.1416C263.623 93.2138 266.51 94.1884 267.593 96.5202C268.091 97.5886 268.171 98.6859 267.196 99.4078C266.322 99.9985 265.32 100.372 264.272 100.498C262.504 100.808 260.742 101.22 258.952 101.436C257.038 101.762 255.081 101.735 253.176 101.357C252.286 101.149 251.438 100.788 250.671 100.289C250.283 100.022 249.921 99.7197 249.588 99.3862C249.466 99.2562 249.126 98.9891 249.083 98.8086C249.04 98.6282 249.278 98.2816 249.365 98.0867C249.759 97.3949 250.248 96.7609 250.816 96.2025Z" fill="#263238"/>
<path d="M257.125 118.438C257.125 118.438 261.457 117.572 262.987 116.77C263.884 116.313 264.619 115.593 265.095 114.706C264.863 115.591 264.455 116.421 263.897 117.146C262.778 118.589 257.118 119.593 257.118 119.593L257.125 118.438Z" fill="#F28F8F"/>
<path d="M257.912 107.212C257.908 107.328 257.928 107.444 257.97 107.553C258.011 107.662 258.074 107.761 258.155 107.845C258.236 107.93 258.333 107.997 258.44 108.043C258.547 108.089 258.662 108.113 258.779 108.114C259.013 108.108 259.237 108.011 259.4 107.842C259.564 107.673 259.654 107.447 259.652 107.212C259.663 107.091 259.649 106.969 259.61 106.854C259.571 106.739 259.509 106.633 259.427 106.543C259.345 106.454 259.246 106.382 259.135 106.333C259.024 106.284 258.904 106.259 258.782 106.259C258.661 106.259 258.541 106.284 258.43 106.333C258.319 106.382 258.219 106.454 258.137 106.543C258.055 106.633 257.993 106.739 257.954 106.854C257.916 106.969 257.901 107.091 257.912 107.212Z" fill="#263238"/>
<path d="M258.779 104.179L260.713 105.053C260.825 104.788 260.83 104.49 260.728 104.221C260.626 103.952 260.424 103.733 260.165 103.609C260.037 103.551 259.898 103.521 259.758 103.518C259.618 103.516 259.479 103.543 259.349 103.596C259.219 103.649 259.102 103.729 259.004 103.829C258.906 103.929 258.829 104.048 258.779 104.179Z" fill="#263238"/>
<path d="M257.826 113.138L255.046 114.171C255.104 114.359 255.199 114.534 255.327 114.684C255.454 114.834 255.611 114.956 255.787 115.043C255.964 115.13 256.156 115.181 256.353 115.191C256.549 115.201 256.746 115.171 256.93 115.102C257.303 114.952 257.603 114.664 257.77 114.299C257.937 113.934 257.956 113.518 257.826 113.138Z" fill="#B16668"/>
<path d="M256.93 115.102C256.682 115.189 256.416 115.209 256.158 115.16C256.171 114.813 256.318 114.484 256.569 114.243C256.819 114.002 257.153 113.867 257.501 113.868C257.628 113.868 257.755 113.888 257.876 113.925C257.836 114.187 257.727 114.434 257.561 114.641C257.395 114.847 257.178 115.006 256.93 115.102Z" fill="#F28F8F"/>
<path d="M250.635 104.699L252.649 103.977C252.608 103.843 252.54 103.719 252.449 103.612C252.358 103.506 252.246 103.419 252.12 103.358C251.994 103.296 251.857 103.261 251.717 103.255C251.577 103.248 251.438 103.27 251.307 103.32C251.042 103.424 250.827 103.623 250.702 103.878C250.578 104.134 250.554 104.427 250.635 104.699Z" fill="#263238"/>
<path d="M250.744 106.952C250.733 107.073 250.747 107.195 250.786 107.31C250.824 107.425 250.887 107.531 250.968 107.62C251.05 107.71 251.15 107.782 251.261 107.831C251.372 107.88 251.492 107.905 251.614 107.905C251.735 107.905 251.855 107.88 251.966 107.831C252.077 107.782 252.177 107.71 252.259 107.62C252.34 107.531 252.403 107.425 252.441 107.31C252.48 107.195 252.494 107.073 252.483 106.952C252.487 106.835 252.468 106.719 252.426 106.61C252.384 106.502 252.321 106.402 252.241 106.318C252.16 106.234 252.063 106.167 251.956 106.121C251.849 106.075 251.734 106.05 251.617 106.05C251.382 106.055 251.159 106.153 250.996 106.322C250.832 106.491 250.742 106.717 250.744 106.952Z" fill="#263238"/>
<path d="M255.66 104.699L255.342 111.673L251.812 110.742L255.66 104.699Z" fill="#F28F8F"/>
<path d="M271.325 102.801C271.298 103.92 271.109 105.029 270.762 106.093C270.54 105.747 270.268 105.435 269.954 105.169C268.179 103.694 266.161 102.539 263.991 101.754C258.988 99.8268 253.162 99.5236 248.469 101.17C248.549 100.212 248.758 99.2699 249.09 98.3686C250.794 93.9216 254.238 91.597 259.739 92.1673C266.185 92.8387 271.506 96.4194 271.325 102.801Z" fill="#FFBD6A"/>
<path d="M259.522 98.8743C258.028 98.3689 254.209 98.0729 253.09 98.4267C252.573 98.0008 252.121 97.5023 251.747 96.9467C251.227 96.1165 251.4 95.0698 251.891 94.8604C252.382 94.651 252.418 95.2863 254.317 96.232C254.066 95.6238 254.011 94.9528 254.158 94.3117C254.469 93.5393 255.125 94.9254 256.533 95.8133C257.941 96.7013 259.341 97.1633 259.522 98.8743Z" fill="#263238"/>
<path d="M267.997 106.952C267.292 107.748 266.766 108.686 266.452 109.703C266.31 110.368 266.221 111.044 266.185 111.724L266.019 113.009C266.019 113.009 265.016 115.824 262.994 116.943C260.973 118.062 255.176 119.658 252.483 118.503C249.791 117.348 248.946 112.2 249.134 109.479C249.134 109.479 252.909 108.23 254.317 108.482C255.725 108.735 258.973 109.926 260.266 110.157C263.074 110.627 264.099 110.323 265.846 108.468C267.434 106.786 267.997 106.952 267.997 106.952Z" fill="#FFBD6A"/>
<path opacity="0.6" d="M267.997 106.952C267.292 107.748 266.766 108.686 266.452 109.703C266.31 110.368 266.221 111.044 266.185 111.724L266.019 113.009C266.019 113.009 265.016 115.824 262.994 116.943C260.973 118.062 255.176 119.658 252.483 118.503C249.791 117.348 248.946 112.2 249.134 109.479C249.134 109.479 252.909 108.23 254.317 108.482C255.725 108.735 258.973 109.926 260.266 110.157C263.074 110.627 264.099 110.323 265.846 108.468C267.434 106.786 267.997 106.952 267.997 106.952Z" fill="white"/>
<path opacity="0.1" d="M267.997 106.952C267.292 107.748 266.766 108.686 266.452 109.703C266.31 110.368 266.221 111.044 266.185 111.724L266.019 113.009C266.019 113.009 265.016 115.824 262.994 116.943C260.973 118.062 255.176 119.658 252.483 118.503C249.791 117.348 248.946 112.2 249.134 109.479C249.134 109.479 252.909 108.23 254.317 108.482C255.725 108.735 258.973 109.926 260.266 110.157C263.074 110.627 264.099 110.323 265.846 108.468C267.434 106.786 267.997 106.952 267.997 106.952Z" fill="black"/>
<path d="M249.105 110.1C249.105 109.883 249.105 109.667 249.105 109.472C249.105 109.472 252.88 108.223 254.288 108.475C255.696 108.728 258.944 109.919 260.237 110.15C263.045 110.62 264.07 110.316 265.817 108.461C267.405 106.786 267.983 106.959 267.983 106.959C267.278 107.756 266.751 108.694 266.438 109.71C266.296 110.376 266.206 111.052 266.171 111.731L266.005 113.016C265.751 113.895 265.313 114.709 264.72 115.406C265.359 114.315 265.653 113.057 265.564 111.796C265.551 110.745 265.815 109.709 266.33 108.793C266.034 109.294 265.642 109.732 265.176 110.08C264.71 110.428 264.18 110.68 263.615 110.822C261.125 111.486 259.19 110.533 255.804 109.508C253.227 108.743 252.014 109.241 249.105 110.1Z" fill="#FAFAFA"/>
<path d="M259.414 75.9108L261.695 71.6226L259.861 66.3237V63.0823L265.478 66.3237V69.5651L263.066 73.745C263.028 73.8096 262.97 73.8601 262.9 73.8894L259.414 75.9108Z" fill="#FFBD6A"/>
<path opacity="0.2" d="M259.414 75.9108L261.695 71.6226L259.861 66.3237V63.0823L265.478 66.3237V69.5651L263.066 73.745C263.028 73.8096 262.97 73.8601 262.9 73.8894L259.414 75.9108Z" fill="black"/>
<path d="M249.336 39.2797C249.373 38.6999 249.545 38.1369 249.838 37.6355C250.131 37.1341 250.538 36.7083 251.025 36.392L252.389 35.6051C252.911 35.3383 253.489 35.1992 254.075 35.1992C254.661 35.1992 255.239 35.3383 255.761 35.6051L272.841 45.416C273.328 45.7322 273.734 46.1582 274.026 46.6597C274.318 47.1612 274.488 47.7243 274.523 48.3036V71.405C274.488 71.9842 274.317 72.547 274.025 73.0485C273.733 73.5499 273.328 73.976 272.841 74.2927L271.47 75.0868C270.947 75.3502 270.37 75.4874 269.784 75.4874C269.199 75.4874 268.621 75.3502 268.098 75.0868L261.94 71.6288L259.529 75.8015C259.496 75.8629 259.445 75.9132 259.384 75.9459C259.322 75.9787 259.252 75.9924 259.183 75.9855C259.113 75.9785 259.047 75.9512 258.993 75.9069C258.939 75.8626 258.9 75.8033 258.879 75.7365L256.331 68.3874L251.003 65.3264C250.518 65.0089 250.113 64.5826 249.821 64.0814C249.529 63.5801 249.358 63.0177 249.321 62.4388L249.336 39.2797Z" fill="#FFBD6A"/>
<path opacity="0.2" d="M274.523 71.463C274.488 72.0424 274.318 72.6054 274.026 73.1069C273.734 73.6085 273.328 74.0345 272.841 74.3507L271.47 75.1448C270.995 75.3836 270.474 75.5187 269.942 75.5411C269.411 75.5635 268.881 75.4727 268.387 75.2748C269.181 75.578 269.788 75.1304 269.788 74.1702V51.0688C269.769 50.4815 269.597 49.9092 269.29 49.4084L274.033 46.6724C274.335 47.175 274.504 47.7465 274.523 48.3328V71.463Z" fill="black"/>
<path opacity="0.5" d="M249.393 38.8035C249.588 38.0816 250.238 37.8578 251.018 38.3054L268.105 48.1524C268.604 48.4594 269.012 48.8927 269.289 49.4085L274.025 46.6724C273.746 46.1583 273.338 45.7254 272.841 45.4163L255.761 35.5765C255.239 35.3132 254.663 35.176 254.079 35.176C253.494 35.176 252.918 35.3132 252.396 35.5765L251.018 36.3707C250.596 36.6446 250.234 37.0016 249.955 37.4199C249.676 37.8382 249.485 38.309 249.393 38.8035Z" fill="white"/>
<path d="M257.176 64.4316H256.967C256.715 64.3969 256.475 64.2994 256.271 64.148C256.067 63.9966 255.904 63.7962 255.797 63.5653L252.765 57.1258C252.667 56.9437 252.606 56.7435 252.588 56.5373C252.569 56.3312 252.593 56.1234 252.658 55.9267C252.722 55.73 252.826 55.5486 252.963 55.3934C253.1 55.2382 253.267 55.1126 253.454 55.0242C253.642 54.9358 253.845 54.8864 254.052 54.8791C254.258 54.8719 254.465 54.9068 254.658 54.9819C254.85 55.057 255.026 55.1706 255.173 55.3158C255.321 55.461 255.437 55.6347 255.516 55.8264L257.551 60.1579L264.54 52.0219C264.669 51.866 264.827 51.7374 265.007 51.6436C265.186 51.5499 265.382 51.4928 265.584 51.4757C265.786 51.4586 265.989 51.4818 266.181 51.5441C266.374 51.6063 266.552 51.7063 266.705 51.8382C266.859 51.9701 266.985 52.1313 267.075 52.3123C267.166 52.4933 267.219 52.6905 267.233 52.8924C267.246 53.0943 267.219 53.2969 267.153 53.4883C267.088 53.6797 266.984 53.8561 266.85 54.0071L258.331 63.9046C258.189 64.0715 258.011 64.2052 257.812 64.2962C257.612 64.3873 257.395 64.4335 257.176 64.4316Z" fill="#FAFAFA"/>
</svg>
