<svg width="276" height="211" viewBox="0 0 276 211" fill="none" xmlns="http://www.w3.org/2000/svg">
<path opacity="0.8" d="M2.125 18V6.28125H5.65625C7.08333 6.28125 8.3151 6.51823 9.35156 6.99219C10.388 7.46094 11.1849 8.13281 11.7422 9.00781C12.2995 9.88281 12.5781 10.9271 12.5781 12.1406C12.5781 13.349 12.2995 14.3932 11.7422 15.2734C11.1849 16.1484 10.388 16.8229 9.35156 17.2969C8.3151 17.7656 7.08333 18 5.65625 18H2.125ZM3.84375 16.4844H5.72656C6.80469 16.4844 7.72396 16.3151 8.48438 15.9766C9.24479 15.6328 9.82292 15.138 10.2188 14.4922C10.6198 13.8411 10.8203 13.0573 10.8203 12.1406C10.8203 11.2188 10.6198 10.4349 10.2188 9.78906C9.82292 9.14323 9.24479 8.65104 8.48438 8.3125C7.72396 7.96875 6.80469 7.79688 5.72656 7.79688H3.84375V16.4844ZM17.875 18.1562C17.0938 18.1562 16.3906 17.9792 15.7656 17.625C15.1406 17.2708 14.6484 16.7891 14.2891 16.1797C13.9297 15.5651 13.75 14.8698 13.75 14.0938C13.75 13.3229 13.9297 12.6328 14.2891 12.0234C14.6484 11.4089 15.1406 10.9245 15.7656 10.5703C16.3906 10.2109 17.0938 10.0312 17.875 10.0312C18.6615 10.0312 19.3646 10.2109 19.9844 10.5703C20.6042 10.9245 21.0911 11.4089 21.4453 12.0234C21.8047 12.6328 21.9844 13.3229 21.9844 14.0938C21.9844 14.8698 21.8047 15.5651 21.4453 16.1797C21.0911 16.7891 20.6042 17.2708 19.9844 17.625C19.3646 17.9792 18.6615 18.1562 17.875 18.1562ZM17.8672 16.7188C18.3411 16.7188 18.763 16.6042 19.1328 16.375C19.5078 16.1406 19.8021 15.8281 20.0156 15.4375C20.2344 15.0417 20.3438 14.5911 20.3438 14.0859C20.3438 13.5911 20.2344 13.1484 20.0156 12.7578C19.8021 12.362 19.5078 12.0495 19.1328 11.8203C18.763 11.5859 18.3411 11.4688 17.8672 11.4688C17.3984 11.4688 16.9766 11.5859 16.6016 11.8203C16.2266 12.0495 15.9297 12.362 15.7109 12.7578C15.4974 13.1484 15.3906 13.5911 15.3906 14.0859C15.3906 14.5911 15.4974 15.0417 15.7109 15.4375C15.9297 15.8281 16.2266 16.1406 16.6016 16.375C16.9766 16.6042 17.3984 16.7188 17.8672 16.7188ZM30.6328 21.9062H28.9062L30.5391 17.9531L26.7344 10.1875H28.5234L31.3047 16.1172L33.7578 10.1875H35.4766L30.6328 21.9062ZM40.2812 18.1562C39.5 18.1562 38.7969 17.9792 38.1719 17.625C37.5469 17.2708 37.0547 16.7891 36.6953 16.1797C36.3359 15.5651 36.1562 14.8698 36.1562 14.0938C36.1562 13.3229 36.3359 12.6328 36.6953 12.0234C37.0547 11.4089 37.5469 10.9245 38.1719 10.5703C38.7969 10.2109 39.5 10.0312 40.2812 10.0312C41.0677 10.0312 41.7708 10.2109 42.3906 10.5703C43.0104 10.9245 43.4974 11.4089 43.8516 12.0234C44.2109 12.6328 44.3906 13.3229 44.3906 14.0938C44.3906 14.8698 44.2109 15.5651 43.8516 16.1797C43.4974 16.7891 43.0104 17.2708 42.3906 17.625C41.7708 17.9792 41.0677 18.1562 40.2812 18.1562ZM40.2734 16.7188C40.7474 16.7188 41.1693 16.6042 41.5391 16.375C41.9141 16.1406 42.2083 15.8281 42.4219 15.4375C42.6406 15.0417 42.75 14.5911 42.75 14.0859C42.75 13.5911 42.6406 13.1484 42.4219 12.7578C42.2083 12.362 41.9141 12.0495 41.5391 11.8203C41.1693 11.5859 40.7474 11.4688 40.2734 11.4688C39.8047 11.4688 39.3828 11.5859 39.0078 11.8203C38.6328 12.0495 38.3359 12.362 38.1172 12.7578C37.9036 13.1484 37.7969 13.5911 37.7969 14.0859C37.7969 14.5911 37.9036 15.0417 38.1172 15.4375C38.3359 15.8281 38.6328 16.1406 39.0078 16.375C39.3828 16.6042 39.8047 16.7188 40.2734 16.7188ZM53.3828 18H52.0234L51.9688 16.7422C51.6823 17.2005 51.3073 17.5521 50.8438 17.7969C50.3854 18.0365 49.8411 18.1562 49.2109 18.1562C48.1901 18.1562 47.3828 17.8464 46.7891 17.2266C46.2005 16.6016 45.9062 15.7474 45.9062 14.6641V10.1875H47.5078V14.4297C47.5078 15.1224 47.6953 15.6745 48.0703 16.0859C48.4453 16.4974 48.9505 16.7031 49.5859 16.7031C50.2422 16.7031 50.7708 16.4844 51.1719 16.0469C51.5781 15.6042 51.7812 15.0234 51.7812 14.3047V10.1875H53.3828V18ZM64.2969 17.8047C63.75 18.0391 63.2214 18.1562 62.7109 18.1562C62.2005 18.1562 61.7526 18.0469 61.3672 17.8281C60.987 17.6094 60.6875 17.3021 60.4688 16.9062C60.2552 16.5052 60.1484 16.0443 60.1484 15.5234V11.6172H58.7812V10.1875H60.2266V8.23438H61.75V10.1875H64.0312V11.6172H61.75V15.2266C61.75 15.6849 61.8724 16.0495 62.1172 16.3203C62.3672 16.5859 62.6875 16.7188 63.0781 16.7188C63.4062 16.7188 63.7318 16.6198 64.0547 16.4219L64.2969 17.8047ZM67.2422 18H65.6406V10.1875H67.0391L67.1016 11.6719C67.3724 11.1562 67.7448 10.7552 68.2188 10.4688C68.6979 10.1771 69.2474 10.0312 69.8672 10.0312C70.0182 10.0312 70.1693 10.0417 70.3203 10.0625C70.4766 10.0781 70.6328 10.1042 70.7891 10.1406L70.5859 11.5859C70.2839 11.5078 69.987 11.4688 69.6953 11.4688C69.2109 11.4688 68.7839 11.5859 68.4141 11.8203C68.0443 12.0495 67.7552 12.3672 67.5469 12.7734C67.3438 13.1797 67.2422 13.6484 67.2422 14.1797V18ZM79.3359 18H77.9766L77.9219 16.7422C77.6354 17.2005 77.2604 17.5521 76.7969 17.7969C76.3385 18.0365 75.7943 18.1562 75.1641 18.1562C74.1432 18.1562 73.3359 17.8464 72.7422 17.2266C72.1536 16.6016 71.8594 15.7474 71.8594 14.6641V10.1875H73.4609V14.4297C73.4609 15.1224 73.6484 15.6745 74.0234 16.0859C74.3984 16.4974 74.9036 16.7031 75.5391 16.7031C76.1953 16.7031 76.724 16.4844 77.125 16.0469C77.5312 15.6042 77.7344 15.0234 77.7344 14.3047V10.1875H79.3359V18ZM81.0469 17.3203L81.4375 15.8828C81.6146 16.0599 81.8255 16.2161 82.0703 16.3516C82.3203 16.487 82.5833 16.5938 82.8594 16.6719C83.1406 16.7448 83.4167 16.7812 83.6875 16.7812C84.1146 16.7812 84.4583 16.6901 84.7188 16.5078C84.9792 16.3255 85.1094 16.0833 85.1094 15.7812C85.1094 15.5573 85.0365 15.3724 84.8906 15.2266C84.75 15.0755 84.5599 14.9453 84.3203 14.8359C84.0859 14.7266 83.8333 14.6198 83.5625 14.5156C83.2135 14.3854 82.8646 14.2344 82.5156 14.0625C82.1719 13.8906 81.8828 13.6615 81.6484 13.375C81.4141 13.0885 81.2969 12.7109 81.2969 12.2422C81.2969 11.7943 81.4115 11.4062 81.6406 11.0781C81.8698 10.7448 82.1901 10.487 82.6016 10.3047C83.013 10.1224 83.487 10.0312 84.0234 10.0312C84.8568 10.0312 85.6823 10.2396 86.5 10.6562L86.0312 12.0234C85.8646 11.9036 85.6667 11.7969 85.4375 11.7031C85.2083 11.6094 84.974 11.5365 84.7344 11.4844C84.4948 11.4271 84.2734 11.3984 84.0703 11.3984C83.7318 11.3984 83.4583 11.474 83.25 11.625C83.0469 11.776 82.9453 11.9792 82.9453 12.2344C82.9453 12.3906 82.9948 12.5339 83.0938 12.6641C83.1927 12.7891 83.349 12.9141 83.5625 13.0391C83.7812 13.1589 84.0755 13.2943 84.4453 13.4453C84.7995 13.5859 85.1536 13.7474 85.5078 13.9297C85.862 14.112 86.1562 14.349 86.3906 14.6406C86.6302 14.9323 86.75 15.3151 86.75 15.7891C86.75 16.2578 86.625 16.6719 86.375 17.0312C86.125 17.3854 85.776 17.6615 85.3281 17.8594C84.8854 18.0573 84.3698 18.1562 83.7812 18.1562C82.8073 18.1562 81.8958 17.8776 81.0469 17.3203ZM93.2188 17.8047C92.6719 18.0391 92.1432 18.1562 91.6328 18.1562C91.1224 18.1562 90.6745 18.0469 90.2891 17.8281C89.9089 17.6094 89.6094 17.3021 89.3906 16.9062C89.1771 16.5052 89.0703 16.0443 89.0703 15.5234V11.6172H87.7031V10.1875H89.1484V8.23438H90.6719V10.1875H92.9531V11.6172H90.6719V15.2266C90.6719 15.6849 90.7943 16.0495 91.0391 16.3203C91.2891 16.5859 91.6094 16.7188 92 16.7188C92.3281 16.7188 92.6536 16.6198 92.9766 16.4219L93.2188 17.8047ZM105.242 16.8359C104.862 17.2578 104.406 17.5833 103.875 17.8125C103.344 18.0417 102.768 18.1562 102.148 18.1562C101.367 18.1562 100.664 17.9792 100.039 17.625C99.4193 17.2708 98.9297 16.7865 98.5703 16.1719C98.2109 15.5573 98.0312 14.8646 98.0312 14.0938C98.0312 13.3177 98.2109 12.625 98.5703 12.0156C98.9297 11.401 99.4193 10.9167 100.039 10.5625C100.664 10.2083 101.367 10.0312 102.148 10.0312C102.763 10.0312 103.336 10.1458 103.867 10.375C104.398 10.599 104.854 10.9219 105.234 11.3438L104.289 12.3359C104.034 12.0651 103.727 11.8568 103.367 11.7109C103.013 11.5599 102.635 11.4844 102.234 11.4844C101.74 11.4844 101.299 11.5964 100.914 11.8203C100.529 12.0443 100.227 12.3516 100.008 12.7422C99.7891 13.1276 99.6797 13.5755 99.6797 14.0859C99.6797 14.5911 99.7891 15.0417 100.008 15.4375C100.227 15.8333 100.529 16.1432 100.914 16.3672C101.299 16.5911 101.74 16.7031 102.234 16.7031C102.635 16.7031 103.016 16.6276 103.375 16.4766C103.734 16.3255 104.039 16.1172 104.289 15.8516L105.242 16.8359ZM110.453 18.1562C109.672 18.1562 108.969 17.9792 108.344 17.625C107.719 17.2708 107.227 16.7891 106.867 16.1797C106.508 15.5651 106.328 14.8698 106.328 14.0938C106.328 13.3229 106.508 12.6328 106.867 12.0234C107.227 11.4089 107.719 10.9245 108.344 10.5703C108.969 10.2109 109.672 10.0312 110.453 10.0312C111.24 10.0312 111.943 10.2109 112.562 10.5703C113.182 10.9245 113.669 11.4089 114.023 12.0234C114.383 12.6328 114.562 13.3229 114.562 14.0938C114.562 14.8698 114.383 15.5651 114.023 16.1797C113.669 16.7891 113.182 17.2708 112.562 17.625C111.943 17.9792 111.24 18.1562 110.453 18.1562ZM110.445 16.7188C110.919 16.7188 111.341 16.6042 111.711 16.375C112.086 16.1406 112.38 15.8281 112.594 15.4375C112.812 15.0417 112.922 14.5911 112.922 14.0859C112.922 13.5911 112.812 13.1484 112.594 12.7578C112.38 12.362 112.086 12.0495 111.711 11.8203C111.341 11.5859 110.919 11.4688 110.445 11.4688C109.977 11.4688 109.555 11.5859 109.18 11.8203C108.805 12.0495 108.508 12.362 108.289 12.7578C108.076 13.1484 107.969 13.5911 107.969 14.0859C107.969 14.5911 108.076 15.0417 108.289 15.4375C108.508 15.8281 108.805 16.1406 109.18 16.375C109.555 16.6042 109.977 16.7188 110.445 16.7188ZM123.555 18H122.195L122.141 16.7422C121.854 17.2005 121.479 17.5521 121.016 17.7969C120.557 18.0365 120.013 18.1562 119.383 18.1562C118.362 18.1562 117.555 17.8464 116.961 17.2266C116.372 16.6016 116.078 15.7474 116.078 14.6641V10.1875H117.68V14.4297C117.68 15.1224 117.867 15.6745 118.242 16.0859C118.617 16.4974 119.122 16.7031 119.758 16.7031C120.414 16.7031 120.943 16.4844 121.344 16.0469C121.75 15.6042 121.953 15.0234 121.953 14.3047V10.1875H123.555V18ZM127.414 18H125.812V10.1875H127.211L127.273 11.6719C127.544 11.1562 127.917 10.7552 128.391 10.4688C128.87 10.1771 129.419 10.0312 130.039 10.0312C130.19 10.0312 130.341 10.0417 130.492 10.0625C130.648 10.0781 130.805 10.1042 130.961 10.1406L130.758 11.5859C130.456 11.5078 130.159 11.4688 129.867 11.4688C129.383 11.4688 128.956 11.5859 128.586 11.8203C128.216 12.0495 127.927 12.3672 127.719 12.7734C127.516 13.1797 127.414 13.6484 127.414 14.1797V18ZM133.016 7.92188C132.771 7.92188 132.565 7.83594 132.398 7.66406C132.232 7.49219 132.148 7.28385 132.148 7.03906C132.148 6.79427 132.232 6.58854 132.398 6.42188C132.565 6.25 132.771 6.16406 133.016 6.16406C133.266 6.16406 133.474 6.25 133.641 6.42188C133.812 6.58854 133.898 6.79427 133.898 7.03906C133.898 7.28385 133.812 7.49219 133.641 7.66406C133.474 7.83594 133.266 7.92188 133.016 7.92188ZM133.812 18H132.211V10.1875H133.812V18ZM143.062 17.0703C142.094 17.7943 141.029 18.1562 139.867 18.1562C139.039 18.1562 138.297 17.974 137.641 17.6094C136.984 17.2448 136.466 16.7474 136.086 16.1172C135.706 15.487 135.516 14.776 135.516 13.9844C135.516 13.2292 135.69 12.5547 136.039 11.9609C136.388 11.362 136.865 10.8906 137.469 10.5469C138.073 10.2031 138.758 10.0312 139.523 10.0312C140.315 10.0312 141.01 10.2188 141.609 10.5938C142.214 10.9688 142.682 11.4922 143.016 12.1641C143.354 12.8307 143.523 13.6042 143.523 14.4844V14.7344H137.25C137.344 15.1406 137.521 15.4974 137.781 15.8047C138.042 16.1068 138.365 16.3438 138.75 16.5156C139.135 16.6823 139.57 16.7656 140.055 16.7656C140.919 16.7656 141.714 16.4844 142.438 15.9219L143.062 17.0703ZM137.18 13.625H142.031C141.979 13.1875 141.844 12.8073 141.625 12.4844C141.406 12.1562 141.122 11.901 140.773 11.7188C140.43 11.5312 140.042 11.4375 139.609 11.4375C139.172 11.4375 138.779 11.5312 138.43 11.7188C138.081 11.901 137.797 12.1562 137.578 12.4844C137.365 12.8125 137.232 13.1927 137.18 13.625ZM146.805 18H145.203V10.1875H146.602L146.664 11.6719C146.935 11.1562 147.307 10.7552 147.781 10.4688C148.26 10.1771 148.81 10.0312 149.43 10.0312C149.581 10.0312 149.732 10.0417 149.883 10.0625C150.039 10.0781 150.195 10.1042 150.352 10.1406L150.148 11.5859C149.846 11.5078 149.549 11.4688 149.258 11.4688C148.773 11.4688 148.346 11.5859 147.977 11.8203C147.607 12.0495 147.318 12.3672 147.109 12.7734C146.906 13.1797 146.805 13.6484 146.805 14.1797V18ZM154.844 17.3203L155.234 15.8828C155.411 16.0599 155.622 16.2161 155.867 16.3516C156.117 16.487 156.38 16.5938 156.656 16.6719C156.938 16.7448 157.214 16.7812 157.484 16.7812C157.911 16.7812 158.255 16.6901 158.516 16.5078C158.776 16.3255 158.906 16.0833 158.906 15.7812C158.906 15.5573 158.833 15.3724 158.688 15.2266C158.547 15.0755 158.357 14.9453 158.117 14.8359C157.883 14.7266 157.63 14.6198 157.359 14.5156C157.01 14.3854 156.661 14.2344 156.312 14.0625C155.969 13.8906 155.68 13.6615 155.445 13.375C155.211 13.0885 155.094 12.7109 155.094 12.2422C155.094 11.7943 155.208 11.4062 155.438 11.0781C155.667 10.7448 155.987 10.487 156.398 10.3047C156.81 10.1224 157.284 10.0312 157.82 10.0312C158.654 10.0312 159.479 10.2396 160.297 10.6562L159.828 12.0234C159.661 11.9036 159.464 11.7969 159.234 11.7031C159.005 11.6094 158.771 11.5365 158.531 11.4844C158.292 11.4271 158.07 11.3984 157.867 11.3984C157.529 11.3984 157.255 11.474 157.047 11.625C156.844 11.776 156.742 11.9792 156.742 12.2344C156.742 12.3906 156.792 12.5339 156.891 12.6641C156.99 12.7891 157.146 12.9141 157.359 13.0391C157.578 13.1589 157.872 13.2943 158.242 13.4453C158.596 13.5859 158.951 13.7474 159.305 13.9297C159.659 14.112 159.953 14.349 160.188 14.6406C160.427 14.9323 160.547 15.3151 160.547 15.7891C160.547 16.2578 160.422 16.6719 160.172 17.0312C159.922 17.3854 159.573 17.6615 159.125 17.8594C158.682 18.0573 158.167 18.1562 157.578 18.1562C156.604 18.1562 155.693 17.8776 154.844 17.3203ZM169.219 17.0703C168.25 17.7943 167.185 18.1562 166.023 18.1562C165.195 18.1562 164.453 17.974 163.797 17.6094C163.141 17.2448 162.622 16.7474 162.242 16.1172C161.862 15.487 161.672 14.776 161.672 13.9844C161.672 13.2292 161.846 12.5547 162.195 11.9609C162.544 11.362 163.021 10.8906 163.625 10.5469C164.229 10.2031 164.914 10.0312 165.68 10.0312C166.471 10.0312 167.167 10.2188 167.766 10.5938C168.37 10.9688 168.839 11.4922 169.172 12.1641C169.51 12.8307 169.68 13.6042 169.68 14.4844V14.7344H163.406C163.5 15.1406 163.677 15.4974 163.938 15.8047C164.198 16.1068 164.521 16.3438 164.906 16.5156C165.292 16.6823 165.727 16.7656 166.211 16.7656C167.076 16.7656 167.87 16.4844 168.594 15.9219L169.219 17.0703ZM163.336 13.625H168.188C168.135 13.1875 168 12.8073 167.781 12.4844C167.562 12.1562 167.279 11.901 166.93 11.7188C166.586 11.5312 166.198 11.4375 165.766 11.4375C165.328 11.4375 164.935 11.5312 164.586 11.7188C164.237 11.901 163.953 12.1562 163.734 12.4844C163.521 12.8125 163.388 13.1927 163.336 13.625ZM172.961 18H171.359V10.1875H172.758L172.82 11.6719C173.091 11.1562 173.464 10.7552 173.938 10.4688C174.417 10.1771 174.966 10.0312 175.586 10.0312C175.737 10.0312 175.888 10.0417 176.039 10.0625C176.195 10.0781 176.352 10.1042 176.508 10.1406L176.305 11.5859C176.003 11.5078 175.706 11.4688 175.414 11.4688C174.93 11.4688 174.503 11.5859 174.133 11.8203C173.763 12.0495 173.474 12.3672 173.266 12.7734C173.062 13.1797 172.961 13.6484 172.961 14.1797V18ZM185.32 10.1875L182.07 18H180.516L177.266 10.1875H178.984L181.305 16.3516L183.625 10.1875H185.32ZM187.781 7.92188C187.536 7.92188 187.331 7.83594 187.164 7.66406C186.997 7.49219 186.914 7.28385 186.914 7.03906C186.914 6.79427 186.997 6.58854 187.164 6.42188C187.331 6.25 187.536 6.16406 187.781 6.16406C188.031 6.16406 188.24 6.25 188.406 6.42188C188.578 6.58854 188.664 6.79427 188.664 7.03906C188.664 7.28385 188.578 7.49219 188.406 7.66406C188.24 7.83594 188.031 7.92188 187.781 7.92188ZM188.578 18H186.977V10.1875H188.578V18ZM197.492 16.8359C197.112 17.2578 196.656 17.5833 196.125 17.8125C195.594 18.0417 195.018 18.1562 194.398 18.1562C193.617 18.1562 192.914 17.9792 192.289 17.625C191.669 17.2708 191.18 16.7865 190.82 16.1719C190.461 15.5573 190.281 14.8646 190.281 14.0938C190.281 13.3177 190.461 12.625 190.82 12.0156C191.18 11.401 191.669 10.9167 192.289 10.5625C192.914 10.2083 193.617 10.0312 194.398 10.0312C195.013 10.0312 195.586 10.1458 196.117 10.375C196.648 10.599 197.104 10.9219 197.484 11.3438L196.539 12.3359C196.284 12.0651 195.977 11.8568 195.617 11.7109C195.263 11.5599 194.885 11.4844 194.484 11.4844C193.99 11.4844 193.549 11.5964 193.164 11.8203C192.779 12.0443 192.477 12.3516 192.258 12.7422C192.039 13.1276 191.93 13.5755 191.93 14.0859C191.93 14.5911 192.039 15.0417 192.258 15.4375C192.477 15.8333 192.779 16.1432 193.164 16.3672C193.549 16.5911 193.99 16.7031 194.484 16.7031C194.885 16.7031 195.266 16.6276 195.625 16.4766C195.984 16.3255 196.289 16.1172 196.539 15.8516L197.492 16.8359ZM206.125 17.0703C205.156 17.7943 204.091 18.1562 202.93 18.1562C202.102 18.1562 201.359 17.974 200.703 17.6094C200.047 17.2448 199.529 16.7474 199.148 16.1172C198.768 15.487 198.578 14.776 198.578 13.9844C198.578 13.2292 198.753 12.5547 199.102 11.9609C199.451 11.362 199.927 10.8906 200.531 10.5469C201.135 10.2031 201.82 10.0312 202.586 10.0312C203.378 10.0312 204.073 10.2188 204.672 10.5938C205.276 10.9688 205.745 11.4922 206.078 12.1641C206.417 12.8307 206.586 13.6042 206.586 14.4844V14.7344H200.312C200.406 15.1406 200.583 15.4974 200.844 15.8047C201.104 16.1068 201.427 16.3438 201.812 16.5156C202.198 16.6823 202.633 16.7656 203.117 16.7656C203.982 16.7656 204.776 16.4844 205.5 15.9219L206.125 17.0703ZM200.242 13.625H205.094C205.042 13.1875 204.906 12.8073 204.688 12.4844C204.469 12.1562 204.185 11.901 203.836 11.7188C203.492 11.5312 203.104 11.4375 202.672 11.4375C202.234 11.4375 201.841 11.5312 201.492 11.7188C201.143 11.901 200.859 12.1562 200.641 12.4844C200.427 12.8125 200.294 13.1927 200.242 13.625ZM213.68 18H212.078V10.1875H213.477L213.539 11.6719C213.81 11.1562 214.182 10.7552 214.656 10.4688C215.135 10.1771 215.685 10.0312 216.305 10.0312C216.456 10.0312 216.607 10.0417 216.758 10.0625C216.914 10.0781 217.07 10.1042 217.227 10.1406L217.023 11.5859C216.721 11.5078 216.424 11.4688 216.133 11.4688C215.648 11.4688 215.221 11.5859 214.852 11.8203C214.482 12.0495 214.193 12.3672 213.984 12.7734C213.781 13.1797 213.68 13.6484 213.68 14.1797V18ZM219.281 7.92188C219.036 7.92188 218.831 7.83594 218.664 7.66406C218.497 7.49219 218.414 7.28385 218.414 7.03906C218.414 6.79427 218.497 6.58854 218.664 6.42188C218.831 6.25 219.036 6.16406 219.281 6.16406C219.531 6.16406 219.74 6.25 219.906 6.42188C220.078 6.58854 220.164 6.79427 220.164 7.03906C220.164 7.28385 220.078 7.49219 219.906 7.66406C219.74 7.83594 219.531 7.92188 219.281 7.92188ZM220.078 18H218.477V10.1875H220.078V18ZM230.125 18H228.711L228.625 16.8828C228.271 17.2786 227.844 17.5911 227.344 17.8203C226.849 18.0443 226.305 18.1562 225.711 18.1562C224.961 18.1562 224.289 17.9792 223.695 17.625C223.102 17.2708 222.633 16.7865 222.289 16.1719C221.951 15.5573 221.781 14.8646 221.781 14.0938C221.781 13.3177 221.951 12.625 222.289 12.0156C222.633 11.401 223.102 10.9167 223.695 10.5625C224.289 10.2083 224.961 10.0312 225.711 10.0312C226.273 10.0312 226.794 10.1328 227.273 10.3359C227.758 10.5391 228.174 10.8229 228.523 11.1875V6.28125H230.125V18ZM225.977 16.7188C226.451 16.7188 226.878 16.6094 227.258 16.3906C227.643 16.1719 227.951 15.875 228.18 15.5C228.409 15.125 228.523 14.6979 228.523 14.2188V13.9531C228.523 13.474 228.409 13.0469 228.18 12.6719C227.951 12.2969 227.643 12.0026 227.258 11.7891C226.878 11.5755 226.451 11.4688 225.977 11.4688C225.492 11.4688 225.057 11.5833 224.672 11.8125C224.286 12.0417 223.982 12.3542 223.758 12.75C223.534 13.1406 223.422 13.5859 223.422 14.0859C223.422 14.5859 223.534 15.0339 223.758 15.4297C223.982 15.8255 224.286 16.1406 224.672 16.375C225.057 16.6042 225.492 16.7188 225.977 16.7188ZM239.344 17.0703C238.375 17.7943 237.31 18.1562 236.148 18.1562C235.32 18.1562 234.578 17.974 233.922 17.6094C233.266 17.2448 232.747 16.7474 232.367 16.1172C231.987 15.487 231.797 14.776 231.797 13.9844C231.797 13.2292 231.971 12.5547 232.32 11.9609C232.669 11.362 233.146 10.8906 233.75 10.5469C234.354 10.2031 235.039 10.0312 235.805 10.0312C236.596 10.0312 237.292 10.2188 237.891 10.5938C238.495 10.9688 238.964 11.4922 239.297 12.1641C239.635 12.8307 239.805 13.6042 239.805 14.4844V14.7344H233.531C233.625 15.1406 233.802 15.4974 234.062 15.8047C234.323 16.1068 234.646 16.3438 235.031 16.5156C235.417 16.6823 235.852 16.7656 236.336 16.7656C237.201 16.7656 237.995 16.4844 238.719 15.9219L239.344 17.0703ZM233.461 13.625H238.312C238.26 13.1875 238.125 12.8073 237.906 12.4844C237.688 12.1562 237.404 11.901 237.055 11.7188C236.711 11.5312 236.323 11.4375 235.891 11.4375C235.453 11.4375 235.06 11.5312 234.711 11.7188C234.362 11.901 234.078 12.1562 233.859 12.4844C233.646 12.8125 233.513 13.1927 233.461 13.625ZM243.086 18H241.484V10.1875H242.883L242.945 11.6719C243.216 11.1562 243.589 10.7552 244.062 10.4688C244.542 10.1771 245.091 10.0312 245.711 10.0312C245.862 10.0312 246.013 10.0417 246.164 10.0625C246.32 10.0781 246.477 10.1042 246.633 10.1406L246.43 11.5859C246.128 11.5078 245.831 11.4688 245.539 11.4688C245.055 11.4688 244.628 11.5859 244.258 11.8203C243.888 12.0495 243.599 12.3672 243.391 12.7734C243.188 13.1797 243.086 13.6484 243.086 14.1797V18ZM247.312 17.3203L247.703 15.8828C247.88 16.0599 248.091 16.2161 248.336 16.3516C248.586 16.487 248.849 16.5938 249.125 16.6719C249.406 16.7448 249.682 16.7812 249.953 16.7812C250.38 16.7812 250.724 16.6901 250.984 16.5078C251.245 16.3255 251.375 16.0833 251.375 15.7812C251.375 15.5573 251.302 15.3724 251.156 15.2266C251.016 15.0755 250.826 14.9453 250.586 14.8359C250.352 14.7266 250.099 14.6198 249.828 14.5156C249.479 14.3854 249.13 14.2344 248.781 14.0625C248.438 13.8906 248.148 13.6615 247.914 13.375C247.68 13.0885 247.562 12.7109 247.562 12.2422C247.562 11.7943 247.677 11.4062 247.906 11.0781C248.135 10.7448 248.456 10.487 248.867 10.3047C249.279 10.1224 249.753 10.0312 250.289 10.0312C251.122 10.0312 251.948 10.2396 252.766 10.6562L252.297 12.0234C252.13 11.9036 251.932 11.7969 251.703 11.7031C251.474 11.6094 251.24 11.5365 251 11.4844C250.76 11.4271 250.539 11.3984 250.336 11.3984C249.997 11.3984 249.724 11.474 249.516 11.625C249.312 11.776 249.211 11.9792 249.211 12.2344C249.211 12.3906 249.26 12.5339 249.359 12.6641C249.458 12.7891 249.615 12.9141 249.828 13.0391C250.047 13.1589 250.341 13.2943 250.711 13.4453C251.065 13.5859 251.419 13.7474 251.773 13.9297C252.128 14.112 252.422 14.349 252.656 14.6406C252.896 14.9323 253.016 15.3151 253.016 15.7891C253.016 16.2578 252.891 16.6719 252.641 17.0312C252.391 17.3854 252.042 17.6615 251.594 17.8594C251.151 18.0573 250.635 18.1562 250.047 18.1562C249.073 18.1562 248.161 17.8776 247.312 17.3203ZM254.602 8.41406L253.859 7.10938C254.807 6.40104 255.818 6.04688 256.891 6.04688C257.495 6.04688 258.018 6.15885 258.461 6.38281C258.909 6.60677 259.255 6.92448 259.5 7.33594C259.75 7.74219 259.875 8.22396 259.875 8.78125C259.875 9.13542 259.82 9.44531 259.711 9.71094C259.602 9.97656 259.456 10.224 259.273 10.4531C259.096 10.6771 258.898 10.901 258.68 11.125C258.424 11.3958 258.172 11.6927 257.922 12.0156C257.677 12.3333 257.471 12.7188 257.305 13.1719C257.143 13.6198 257.062 14.1745 257.062 14.8359H255.664C255.664 14.0443 255.747 13.3906 255.914 12.875C256.086 12.3542 256.297 11.9219 256.547 11.5781C256.802 11.2292 257.049 10.9219 257.289 10.6562C257.534 10.3802 257.742 10.1146 257.914 9.85938C258.091 9.59896 258.18 9.28385 258.18 8.91406C258.18 8.47135 258.042 8.1224 257.766 7.86719C257.495 7.61198 257.122 7.48438 256.648 7.48438C256.284 7.48438 255.922 7.5651 255.562 7.72656C255.208 7.88802 254.888 8.11719 254.602 8.41406ZM256.367 18.1562C256.112 18.1562 255.904 18.0755 255.742 17.9141C255.581 17.7526 255.5 17.5443 255.5 17.2891C255.5 17.0234 255.581 16.8099 255.742 16.6484C255.904 16.487 256.112 16.4062 256.367 16.4062C256.628 16.4062 256.836 16.487 256.992 16.6484C257.154 16.8099 257.234 17.0234 257.234 17.2891C257.234 17.5443 257.154 17.7526 256.992 17.9141C256.836 18.0755 256.628 18.1562 256.367 18.1562Z" fill="white"/>
<path d="M185.969 131H183.562V125.992L179.125 119.281H182.047L184.75 123.875L187.484 119.281H190.406L185.969 126V131ZM197.273 130.125C196.305 130.812 195.245 131.156 194.094 131.156C193.24 131.156 192.471 130.974 191.789 130.609C191.112 130.24 190.576 129.74 190.18 129.109C189.789 128.479 189.594 127.768 189.594 126.977C189.594 126.221 189.771 125.547 190.125 124.953C190.484 124.359 190.971 123.891 191.586 123.547C192.201 123.203 192.898 123.031 193.68 123.031C194.487 123.031 195.198 123.221 195.812 123.602C196.427 123.977 196.906 124.503 197.25 125.18C197.594 125.852 197.766 126.63 197.766 127.516V127.766H192.008C192.102 128.073 192.255 128.344 192.469 128.578C192.682 128.807 192.948 128.99 193.266 129.125C193.583 129.26 193.948 129.328 194.359 129.328C195.156 129.328 195.898 129.07 196.586 128.555L197.273 130.125ZM191.906 126.625H195.695C195.654 126.286 195.547 125.99 195.375 125.734C195.208 125.474 194.987 125.271 194.711 125.125C194.44 124.979 194.135 124.906 193.797 124.906C193.453 124.906 193.146 124.982 192.875 125.133C192.609 125.284 192.393 125.487 192.227 125.742C192.06 125.997 191.953 126.292 191.906 126.625ZM198.641 130.328L199.133 128.422C199.289 128.594 199.497 128.753 199.758 128.898C200.023 129.044 200.307 129.161 200.609 129.25C200.917 129.333 201.206 129.375 201.477 129.375C201.799 129.375 202.052 129.315 202.234 129.195C202.417 129.07 202.508 128.904 202.508 128.695C202.508 128.523 202.445 128.38 202.32 128.266C202.201 128.146 202.036 128.042 201.828 127.953C201.625 127.859 201.398 127.768 201.148 127.68C200.81 127.549 200.461 127.398 200.102 127.227C199.747 127.055 199.448 126.82 199.203 126.523C198.958 126.227 198.836 125.833 198.836 125.344C198.836 124.875 198.958 124.469 199.203 124.125C199.448 123.776 199.794 123.508 200.242 123.32C200.69 123.128 201.211 123.031 201.805 123.031C202.768 123.031 203.729 123.273 204.688 123.758L204.055 125.531C203.888 125.401 203.68 125.281 203.43 125.172C203.18 125.057 202.922 124.966 202.656 124.898C202.396 124.831 202.161 124.797 201.953 124.797C201.698 124.797 201.497 124.849 201.352 124.953C201.211 125.057 201.141 125.201 201.141 125.383C201.141 125.518 201.19 125.641 201.289 125.75C201.388 125.854 201.534 125.956 201.727 126.055C201.924 126.148 202.167 126.25 202.453 126.359C202.807 126.49 203.164 126.646 203.523 126.828C203.888 127.005 204.193 127.245 204.438 127.547C204.688 127.844 204.812 128.24 204.812 128.734C204.812 129.219 204.68 129.643 204.414 130.008C204.154 130.372 203.784 130.656 203.305 130.859C202.831 131.057 202.273 131.156 201.633 131.156C200.565 131.156 199.568 130.88 198.641 130.328Z" fill="white"/>
<path d="M190.602 172H187.836L182.359 164V172H179.953V160.281H182.719L188.195 168.297V160.281H190.602V172ZM196.227 172.156C195.424 172.156 194.706 171.982 194.07 171.633C193.435 171.279 192.935 170.797 192.57 170.188C192.211 169.573 192.031 168.875 192.031 168.094C192.031 167.318 192.211 166.625 192.57 166.016C192.935 165.401 193.435 164.917 194.07 164.562C194.706 164.208 195.424 164.031 196.227 164.031C197.029 164.031 197.742 164.208 198.367 164.562C198.997 164.917 199.492 165.401 199.852 166.016C200.216 166.625 200.398 167.318 200.398 168.094C200.398 168.875 200.216 169.573 199.852 170.188C199.492 170.797 198.997 171.279 198.367 171.633C197.742 171.982 197.029 172.156 196.227 172.156ZM196.219 170.148C196.578 170.148 196.898 170.06 197.18 169.883C197.466 169.701 197.69 169.456 197.852 169.148C198.018 168.836 198.102 168.479 198.102 168.078C198.102 167.693 198.018 167.346 197.852 167.039C197.69 166.732 197.466 166.49 197.18 166.312C196.898 166.13 196.578 166.039 196.219 166.039C195.854 166.039 195.529 166.13 195.242 166.312C194.961 166.49 194.737 166.732 194.57 167.039C194.409 167.346 194.328 167.693 194.328 168.078C194.328 168.479 194.409 168.836 194.57 169.148C194.737 169.456 194.961 169.701 195.242 169.883C195.529 170.06 195.854 170.148 196.219 170.148Z" fill="white"/>
<rect x="152" y="159" width="15" height="15" rx="3" fill="#EB5E55"/>
<rect x="152" y="118" width="15" height="15" rx="3" fill="#455A64"/>
<path fill-rule="evenodd" clip-rule="evenodd" d="M66 211C102.451 211 132 181.451 132 145C132 108.549 102.451 79 66 79C29.5492 79 0 108.549 0 145C0 181.451 29.5492 211 66 211ZM66 177.667C84.0413 177.667 98.6666 163.041 98.6666 145C98.6666 126.959 84.0413 112.333 66 112.333C47.9587 112.333 33.3333 126.959 33.3333 145C33.3333 163.041 47.9587 177.667 66 177.667Z" fill="#455A64"/>
<path d="M55.6719 197.234C54.8333 197.234 54.1042 197.047 53.4844 196.672C52.8698 196.297 52.3932 195.768 52.0547 195.086C51.7161 194.398 51.5469 193.591 51.5469 192.664C51.5469 191.914 51.6615 191.188 51.8906 190.484C52.1198 189.781 52.4531 189.115 52.8906 188.484C53.3281 187.849 53.862 187.263 54.4922 186.727C55.1276 186.185 55.849 185.703 56.6562 185.281L57.7656 186.82C57.1562 187.154 56.599 187.534 56.0938 187.961C55.5885 188.388 55.1458 188.844 54.7656 189.328C54.3854 189.812 54.0807 190.31 53.8516 190.82C54.1484 190.508 54.5026 190.266 54.9141 190.094C55.3307 189.922 55.7917 189.836 56.2969 189.836C56.9792 189.836 57.5833 189.987 58.1094 190.289C58.6406 190.591 59.0547 191.005 59.3516 191.531C59.6536 192.057 59.8047 192.664 59.8047 193.352C59.8047 194.102 59.625 194.771 59.2656 195.359C58.9115 195.943 58.4245 196.401 57.8047 196.734C57.1849 197.068 56.474 197.234 55.6719 197.234ZM55.6797 195.133C55.9974 195.133 56.2786 195.049 56.5234 194.883C56.7734 194.711 56.9714 194.479 57.1172 194.188C57.2682 193.896 57.3438 193.57 57.3438 193.211C57.3438 192.857 57.2708 192.544 57.125 192.273C56.9844 192.003 56.7917 191.789 56.5469 191.633C56.3021 191.471 56.0208 191.391 55.7031 191.391C55.3854 191.391 55.099 191.471 54.8438 191.633C54.5885 191.794 54.388 192.016 54.2422 192.297C54.0964 192.573 54.0234 192.888 54.0234 193.242C54.0234 193.602 54.0964 193.924 54.2422 194.211C54.3932 194.492 54.5938 194.716 54.8438 194.883C55.0938 195.049 55.3724 195.133 55.6797 195.133ZM60.4375 195.789L61.6797 193.836C61.8828 194.227 62.1875 194.542 62.5938 194.781C63 195.016 63.4401 195.133 63.9141 195.133C64.3255 195.133 64.6901 195.044 65.0078 194.867C65.3255 194.69 65.5729 194.445 65.75 194.133C65.9323 193.815 66.0234 193.453 66.0234 193.047C66.0234 192.635 65.9323 192.273 65.75 191.961C65.5729 191.648 65.3229 191.404 65 191.227C64.6771 191.049 64.3099 190.961 63.8984 190.961C63.5859 190.961 63.2917 191.016 63.0156 191.125C62.7396 191.234 62.4922 191.393 62.2734 191.602L61.1094 190.922L61.625 185.281H67.7891V187.383H63.8281L63.5703 189.859C63.9193 189.76 64.2891 189.711 64.6797 189.711C65.4089 189.711 66.0599 189.867 66.6328 190.18C67.2057 190.492 67.6562 190.919 67.9844 191.461C68.3177 192.003 68.4844 192.625 68.4844 193.328C68.4844 194.078 68.2943 194.747 67.9141 195.336C67.5391 195.924 67.0234 196.388 66.3672 196.727C65.7161 197.065 64.9688 197.234 64.125 197.234C63.4219 197.234 62.7474 197.109 62.1016 196.859C61.4609 196.604 60.9062 196.247 60.4375 195.789ZM72.0859 190.18C71.2943 190.18 70.6536 189.948 70.1641 189.484C69.6797 189.021 69.4375 188.411 69.4375 187.656C69.4375 186.896 69.6797 186.284 70.1641 185.82C70.6536 185.357 71.2943 185.125 72.0859 185.125C72.8828 185.125 73.5234 185.357 74.0078 185.82C74.4974 186.284 74.7422 186.896 74.7422 187.656C74.7422 188.411 74.4974 189.021 74.0078 189.484C73.5234 189.948 72.8828 190.18 72.0859 190.18ZM72.5625 196.992H70.7109L78.2656 185.273H80.1172L72.5625 196.992ZM72.0859 188.93C72.4141 188.93 72.6797 188.812 72.8828 188.578C73.0859 188.339 73.1875 188.029 73.1875 187.648C73.1875 187.263 73.0859 186.956 72.8828 186.727C72.6797 186.492 72.4141 186.375 72.0859 186.375C71.7578 186.375 71.4922 186.492 71.2891 186.727C71.0911 186.956 70.9922 187.263 70.9922 187.648C70.9922 188.029 71.0911 188.339 71.2891 188.578C71.4922 188.812 71.7578 188.93 72.0859 188.93ZM78.6797 197.164C77.888 197.164 77.2474 196.932 76.7578 196.469C76.2734 196 76.0312 195.388 76.0312 194.633C76.0312 193.872 76.2734 193.26 76.7578 192.797C77.2474 192.333 77.888 192.102 78.6797 192.102C79.4766 192.102 80.1172 192.333 80.6016 192.797C81.0859 193.26 81.3281 193.872 81.3281 194.633C81.3281 195.388 81.0833 196 80.5938 196.469C80.1094 196.932 79.4714 197.164 78.6797 197.164ZM78.6797 195.906C79.0078 195.906 79.2708 195.789 79.4688 195.555C79.6719 195.32 79.7734 195.013 79.7734 194.633C79.7734 194.247 79.6719 193.938 79.4688 193.703C79.2708 193.469 79.0078 193.352 78.6797 193.352C78.3464 193.352 78.0807 193.469 77.8828 193.703C77.6849 193.938 77.5859 194.247 77.5859 194.633C77.5859 195.013 77.6849 195.32 77.8828 195.555C78.0807 195.789 78.3464 195.906 78.6797 195.906Z" fill="white"/>
<path fill-rule="evenodd" clip-rule="evenodd" d="M1 133C6.64308 102.279 33.5589 79 65.9117 79C98.2646 79 125.18 102.279 130.823 133H96.3038C91.5208 120.896 79.7162 112.333 65.9117 112.333C52.1072 112.333 40.3026 120.896 35.5196 133H1Z" fill="#EB5E55"/>
<path d="M49.6875 104.984L50.6094 103.203C51.026 103.51 51.4349 103.742 51.8359 103.898C52.2422 104.055 52.6354 104.133 53.0156 104.133C53.3854 104.133 53.7109 104.062 53.9922 103.922C54.2786 103.781 54.5026 103.586 54.6641 103.336C54.8255 103.086 54.9062 102.799 54.9062 102.477C54.9062 101.94 54.6849 101.523 54.2422 101.227C53.7995 100.924 53.1823 100.773 52.3906 100.773H51.8906V99.1016H52.3906C52.8177 99.1016 53.1979 99.0339 53.5312 98.8984C53.8698 98.7578 54.1354 98.5677 54.3281 98.3281C54.5208 98.0833 54.6172 97.8047 54.6172 97.4922C54.6172 97.2318 54.5469 97 54.4062 96.7969C54.2708 96.5938 54.0833 96.4349 53.8438 96.3203C53.6094 96.2057 53.3385 96.1484 53.0312 96.1484C52.7135 96.1484 52.3802 96.2161 52.0312 96.3516C51.6875 96.487 51.3255 96.6927 50.9453 96.9688L49.8906 95.2969C50.349 94.8958 50.8672 94.5885 51.4453 94.375C52.0234 94.1562 52.6276 94.0469 53.2578 94.0469C53.9609 94.0469 54.5833 94.1745 55.125 94.4297C55.6719 94.6849 56.1016 95.0365 56.4141 95.4844C56.7318 95.9323 56.8906 96.4479 56.8906 97.0312C56.8906 97.6667 56.7057 98.2344 56.3359 98.7344C55.9661 99.2344 55.4792 99.6172 54.875 99.8828C55.6615 100.102 56.2786 100.466 56.7266 100.977C57.1797 101.487 57.4062 102.107 57.4062 102.836C57.4062 103.487 57.224 104.07 56.8594 104.586C56.5 105.096 56.0078 105.5 55.3828 105.797C54.7578 106.089 54.0469 106.234 53.25 106.234C52.5938 106.234 51.9609 106.128 51.3516 105.914C50.7422 105.695 50.1875 105.385 49.6875 104.984ZM58.7031 104.789L59.9453 102.836C60.1484 103.227 60.4531 103.542 60.8594 103.781C61.2656 104.016 61.7057 104.133 62.1797 104.133C62.5911 104.133 62.9557 104.044 63.2734 103.867C63.5911 103.69 63.8385 103.445 64.0156 103.133C64.1979 102.815 64.2891 102.453 64.2891 102.047C64.2891 101.635 64.1979 101.273 64.0156 100.961C63.8385 100.648 63.5885 100.404 63.2656 100.227C62.9427 100.049 62.5755 99.9609 62.1641 99.9609C61.8516 99.9609 61.5573 100.016 61.2812 100.125C61.0052 100.234 60.7578 100.393 60.5391 100.602L59.375 99.9219L59.8906 94.2812H66.0547V96.3828H62.0938L61.8359 98.8594C62.1849 98.7604 62.5547 98.7109 62.9453 98.7109C63.6745 98.7109 64.3255 98.8672 64.8984 99.1797C65.4714 99.4922 65.9219 99.9193 66.25 100.461C66.5833 101.003 66.75 101.625 66.75 102.328C66.75 103.078 66.5599 103.747 66.1797 104.336C65.8047 104.924 65.2891 105.388 64.6328 105.727C63.9818 106.065 63.2344 106.234 62.3906 106.234C61.6875 106.234 61.013 106.109 60.3672 105.859C59.7266 105.604 59.1719 105.247 58.7031 104.789ZM70.3516 99.1797C69.5599 99.1797 68.9193 98.9479 68.4297 98.4844C67.9453 98.0208 67.7031 97.4115 67.7031 96.6562C67.7031 95.8958 67.9453 95.2839 68.4297 94.8203C68.9193 94.3568 69.5599 94.125 70.3516 94.125C71.1484 94.125 71.7891 94.3568 72.2734 94.8203C72.763 95.2839 73.0078 95.8958 73.0078 96.6562C73.0078 97.4115 72.763 98.0208 72.2734 98.4844C71.7891 98.9479 71.1484 99.1797 70.3516 99.1797ZM70.8281 105.992H68.9766L76.5312 94.2734H78.3828L70.8281 105.992ZM70.3516 97.9297C70.6797 97.9297 70.9453 97.8125 71.1484 97.5781C71.3516 97.3385 71.4531 97.0286 71.4531 96.6484C71.4531 96.263 71.3516 95.9557 71.1484 95.7266C70.9453 95.4922 70.6797 95.375 70.3516 95.375C70.0234 95.375 69.7578 95.4922 69.5547 95.7266C69.3568 95.9557 69.2578 96.263 69.2578 96.6484C69.2578 97.0286 69.3568 97.3385 69.5547 97.5781C69.7578 97.8125 70.0234 97.9297 70.3516 97.9297ZM76.9453 106.164C76.1536 106.164 75.513 105.932 75.0234 105.469C74.5391 105 74.2969 104.388 74.2969 103.633C74.2969 102.872 74.5391 102.26 75.0234 101.797C75.513 101.333 76.1536 101.102 76.9453 101.102C77.7422 101.102 78.3828 101.333 78.8672 101.797C79.3516 102.26 79.5938 102.872 79.5938 103.633C79.5938 104.388 79.349 105 78.8594 105.469C78.375 105.932 77.737 106.164 76.9453 106.164ZM76.9453 104.906C77.2734 104.906 77.5365 104.789 77.7344 104.555C77.9375 104.32 78.0391 104.013 78.0391 103.633C78.0391 103.247 77.9375 102.938 77.7344 102.703C77.5365 102.469 77.2734 102.352 76.9453 102.352C76.612 102.352 76.3464 102.469 76.1484 102.703C75.9505 102.938 75.8516 103.247 75.8516 103.633C75.8516 104.013 75.9505 104.32 76.1484 104.555C76.3464 104.789 76.612 104.906 76.9453 104.906Z" fill="white"/>
</svg>
