<svg width="132" height="132" viewBox="0 0 132 132" fill="none" xmlns="http://www.w3.org/2000/svg">
<path fill-rule="evenodd" clip-rule="evenodd" d="M66 132C102.451 132 132 102.451 132 66C132 29.5492 102.451 0 66 0C29.5492 0 0 29.5492 0 66C0 102.451 29.5492 132 66 132ZM66 98.6666C84.0413 98.6666 98.6666 84.0413 98.6666 66C98.6666 47.9587 84.0413 33.3333 66 33.3333C47.9587 33.3333 33.3333 47.9587 33.3333 66C33.3333 84.0413 47.9587 98.6666 66 98.6666Z" fill="#455A64"/>
<path fill-rule="evenodd" clip-rule="evenodd" d="M81.4217 37.1954C76.8284 34.7311 71.5774 33.3333 66 33.3333C47.9587 33.3333 33.3333 47.9587 33.3333 66C33.3333 66.2228 33.3355 66.4452 33.34 66.667H0.00330024C0.0011018 66.4449 0 66.2226 0 66C0 29.5492 29.5492 0 66 0C77.3653 0 88.0597 2.87273 97.3966 7.93169L81.4217 37.1954Z" fill="#EB5E55"/>
<path d="M55.625 118.234C54.8073 118.234 54.0938 118.096 53.4844 117.82C52.875 117.544 52.401 117.156 52.0625 116.656C51.7292 116.151 51.5625 115.562 51.5625 114.891C51.5625 114.146 51.7708 113.505 52.1875 112.969C52.6094 112.427 53.1823 112.036 53.9062 111.797C53.3021 111.568 52.8281 111.219 52.4844 110.75C52.1458 110.276 51.9766 109.716 51.9766 109.07C51.9766 108.456 52.125 107.924 52.4219 107.477C52.724 107.023 53.1484 106.672 53.6953 106.422C54.2422 106.172 54.8854 106.047 55.625 106.047C56.3594 106.047 57 106.172 57.5469 106.422C58.0938 106.672 58.5156 107.023 58.8125 107.477C59.1146 107.924 59.2656 108.456 59.2656 109.07C59.2656 109.716 59.0938 110.276 58.75 110.75C58.4062 111.219 57.9349 111.568 57.3359 111.797C58.0651 112.036 58.638 112.424 59.0547 112.961C59.4766 113.497 59.6875 114.141 59.6875 114.891C59.6875 115.557 59.5182 116.143 59.1797 116.648C58.8411 117.148 58.3672 117.539 57.7578 117.82C57.1484 118.096 56.4375 118.234 55.625 118.234ZM55.625 110.781C56.0104 110.781 56.3229 110.648 56.5625 110.383C56.8021 110.112 56.9219 109.76 56.9219 109.328C56.9219 108.896 56.8021 108.544 56.5625 108.273C56.3229 108.003 56.0104 107.867 55.625 107.867C55.2396 107.867 54.9245 108.003 54.6797 108.273C54.4401 108.544 54.3203 108.896 54.3203 109.328C54.3203 109.76 54.4401 110.112 54.6797 110.383C54.9245 110.648 55.2396 110.781 55.625 110.781ZM55.625 116.32C55.9531 116.32 56.2422 116.247 56.4922 116.102C56.7422 115.951 56.9375 115.74 57.0781 115.469C57.2188 115.198 57.2891 114.888 57.2891 114.539C57.2891 114.18 57.2188 113.867 57.0781 113.602C56.9375 113.331 56.7422 113.122 56.4922 112.977C56.2422 112.826 55.9531 112.75 55.625 112.75C55.2917 112.75 55 112.826 54.75 112.977C54.5052 113.122 54.3125 113.331 54.1719 113.602C54.0312 113.867 53.9609 114.18 53.9609 114.539C53.9609 114.888 54.0312 115.198 54.1719 115.469C54.3125 115.74 54.5052 115.951 54.75 116.102C55 116.247 55.2917 116.32 55.625 116.32ZM65.6953 118H63.2891V108.641L61.3281 109.359L60.5781 107.445L63.7812 106.281H65.6953V118ZM69.8984 111.18C69.1068 111.18 68.4661 110.948 67.9766 110.484C67.4922 110.021 67.25 109.411 67.25 108.656C67.25 107.896 67.4922 107.284 67.9766 106.82C68.4661 106.357 69.1068 106.125 69.8984 106.125C70.6953 106.125 71.3359 106.357 71.8203 106.82C72.3099 107.284 72.5547 107.896 72.5547 108.656C72.5547 109.411 72.3099 110.021 71.8203 110.484C71.3359 110.948 70.6953 111.18 69.8984 111.18ZM70.375 117.992H68.5234L76.0781 106.273H77.9297L70.375 117.992ZM69.8984 109.93C70.2266 109.93 70.4922 109.812 70.6953 109.578C70.8984 109.339 71 109.029 71 108.648C71 108.263 70.8984 107.956 70.6953 107.727C70.4922 107.492 70.2266 107.375 69.8984 107.375C69.5703 107.375 69.3047 107.492 69.1016 107.727C68.9036 107.956 68.8047 108.263 68.8047 108.648C68.8047 109.029 68.9036 109.339 69.1016 109.578C69.3047 109.812 69.5703 109.93 69.8984 109.93ZM76.4922 118.164C75.7005 118.164 75.0599 117.932 74.5703 117.469C74.0859 117 73.8438 116.388 73.8438 115.633C73.8438 114.872 74.0859 114.26 74.5703 113.797C75.0599 113.333 75.7005 113.102 76.4922 113.102C77.2891 113.102 77.9297 113.333 78.4141 113.797C78.8984 114.26 79.1406 114.872 79.1406 115.633C79.1406 116.388 78.8958 117 78.4062 117.469C77.9219 117.932 77.2839 118.164 76.4922 118.164ZM76.4922 116.906C76.8203 116.906 77.0833 116.789 77.2812 116.555C77.4844 116.32 77.5859 116.013 77.5859 115.633C77.5859 115.247 77.4844 114.938 77.2812 114.703C77.0833 114.469 76.8203 114.352 76.4922 114.352C76.1589 114.352 75.8932 114.469 75.6953 114.703C75.4974 114.938 75.3984 115.247 75.3984 115.633C75.3984 116.013 75.4974 116.32 75.6953 116.555C75.8932 116.789 76.1589 116.906 76.4922 116.906Z" fill="white"/>
<path d="M28.0127 32.6904H25.6064V23.3311L23.6455 24.0498L22.8955 22.1357L26.0986 20.9717H28.0127V32.6904ZM33.083 32.6904L31.9893 31.1514C32.5986 30.818 33.1559 30.4378 33.6611 30.0107C34.1663 29.5837 34.6064 29.1279 34.9814 28.6436C35.3617 28.1592 35.6663 27.6618 35.8955 27.1514C35.6038 27.4639 35.2497 27.7061 34.833 27.8779C34.4163 28.0498 33.9554 28.1357 33.4502 28.1357C32.7627 28.1357 32.1559 27.9847 31.6299 27.6826C31.1038 27.3805 30.6898 26.9665 30.3877 26.4404C30.0908 25.9144 29.9424 25.3076 29.9424 24.6201C29.9424 23.8701 30.1195 23.2035 30.4736 22.6201C30.833 22.0316 31.3252 21.5706 31.9502 21.2373C32.5752 20.904 33.2835 20.7373 34.0752 20.7373C34.9189 20.7373 35.6481 20.9248 36.2627 21.2998C36.8773 21.6748 37.3538 22.2061 37.6924 22.8936C38.0309 23.5758 38.2002 24.3805 38.2002 25.3076C38.2002 26.0576 38.0856 26.7842 37.8564 27.4873C37.6273 28.1904 37.2939 28.8597 36.8564 29.4951C36.4189 30.1253 35.8825 30.7113 35.2471 31.2529C34.6169 31.7894 33.8955 32.2686 33.083 32.6904ZM34.0361 26.5811C34.3643 26.5811 34.6533 26.5003 34.9033 26.3389C35.1533 26.1774 35.3512 25.9561 35.4971 25.6748C35.6429 25.3936 35.7158 25.0758 35.7158 24.7217C35.7158 24.3675 35.6429 24.0498 35.4971 23.7686C35.3564 23.4821 35.1611 23.2555 34.9111 23.0889C34.6611 22.9222 34.3799 22.8389 34.0674 22.8389C33.7549 22.8389 33.4736 22.9248 33.2236 23.0967C32.9736 23.2633 32.7757 23.4925 32.6299 23.7842C32.484 24.0706 32.4111 24.3962 32.4111 24.7607C32.4111 25.1097 32.4814 25.4222 32.6221 25.6982C32.7627 25.9691 32.9554 26.1852 33.2002 26.3467C33.445 26.5029 33.7236 26.5811 34.0361 26.5811ZM41.8096 25.8701C41.0179 25.8701 40.3773 25.6383 39.8877 25.1748C39.4033 24.7113 39.1611 24.1019 39.1611 23.3467C39.1611 22.5863 39.4033 21.9743 39.8877 21.5107C40.3773 21.0472 41.0179 20.8154 41.8096 20.8154C42.6064 20.8154 43.2471 21.0472 43.7314 21.5107C44.221 21.9743 44.4658 22.5863 44.4658 23.3467C44.4658 24.1019 44.221 24.7113 43.7314 25.1748C43.2471 25.6383 42.6064 25.8701 41.8096 25.8701ZM42.2861 32.6826H40.4346L47.9893 20.9639H49.8408L42.2861 32.6826ZM41.8096 24.6201C42.1377 24.6201 42.4033 24.5029 42.6064 24.2686C42.8096 24.029 42.9111 23.7191 42.9111 23.3389C42.9111 22.9535 42.8096 22.6462 42.6064 22.417C42.4033 22.1826 42.1377 22.0654 41.8096 22.0654C41.4814 22.0654 41.2158 22.1826 41.0127 22.417C40.8148 22.6462 40.7158 22.9535 40.7158 23.3389C40.7158 23.7191 40.8148 24.029 41.0127 24.2686C41.2158 24.5029 41.4814 24.6201 41.8096 24.6201ZM48.4033 32.8545C47.6117 32.8545 46.971 32.6227 46.4814 32.1592C45.9971 31.6904 45.7549 31.0784 45.7549 30.3232C45.7549 29.5628 45.9971 28.9508 46.4814 28.4873C46.971 28.0238 47.6117 27.792 48.4033 27.792C49.2002 27.792 49.8408 28.0238 50.3252 28.4873C50.8096 28.9508 51.0518 29.5628 51.0518 30.3232C51.0518 31.0784 50.807 31.6904 50.3174 32.1592C49.833 32.6227 49.195 32.8545 48.4033 32.8545ZM48.4033 31.5967C48.7314 31.5967 48.9945 31.4795 49.1924 31.2451C49.3955 31.0107 49.4971 30.7034 49.4971 30.3232C49.4971 29.9378 49.3955 29.6279 49.1924 29.3936C48.9945 29.1592 48.7314 29.042 48.4033 29.042C48.07 29.042 47.8044 29.1592 47.6064 29.3936C47.4085 29.6279 47.3096 29.9378 47.3096 30.3232C47.3096 30.7034 47.4085 31.0107 47.6064 31.2451C47.8044 31.4795 48.07 31.5967 48.4033 31.5967Z" fill="white"/>
</svg>
