<svg width="32" height="32" viewBox="0 0 32 32" fill="none" xmlns="http://www.w3.org/2000/svg">
<circle cx="16" cy="16" r="16" fill="#FFBD6A"/>
<g clip-path="url(#clip0_502_1501)">
<path d="M25.0609 7.19995H22.8687C22.5707 7.19995 22.3296 7.44106 22.3296 7.73901V8.27808H17.9178C17.6946 7.65197 17.1018 7.19995 16.4 7.19995C15.6981 7.19995 15.1053 7.65197 14.8821 8.27808H10.4703V7.73901C10.4703 7.44106 10.2292 7.19995 9.9312 7.19995H7.73901C7.44106 7.19995 7.19995 7.44106 7.19995 7.73901V9.89526C7.19995 10.1932 7.44106 10.4343 7.73901 10.4343H9.9312C10.2292 10.4343 10.4703 10.1932 10.4703 9.89526V9.34901H12.6842C10.8134 10.5177 9.5798 12.5705 9.43235 14.8696C8.78555 15.0813 8.31401 15.6834 8.31401 16.4C8.31401 17.2917 9.03945 18.0171 9.9312 18.0171C10.823 18.0171 11.5484 17.2917 11.5484 16.4C11.5484 15.7121 11.1149 15.1273 10.5084 14.8939C10.6923 12.3307 12.4808 10.1703 14.9687 9.55386C15.2377 10.0741 15.7749 10.4343 16.4 10.4343C17.025 10.4343 17.5622 10.0741 17.8312 9.55386C20.3191 10.1702 22.1076 12.3306 22.2915 14.8939C21.685 15.1273 21.2515 15.7121 21.2515 16.4C21.2515 17.2917 21.9769 18.0171 22.8687 18.0171C23.7605 18.0171 24.4859 17.2917 24.4859 16.4C24.4859 15.6834 24.0144 15.0813 23.3675 14.8696C23.2201 12.5705 21.9865 10.5249 20.1157 9.3562H22.3296V9.89526C22.3296 10.1932 22.5707 10.4343 22.8687 10.4343H25.0609C25.3588 10.4343 25.6 10.1932 25.6 9.89526V7.73901C25.6 7.44106 25.3588 7.19995 25.0609 7.19995Z" fill="#111315"/>
<path d="M20.0674 24.9313C19.7854 24.0685 18.9731 23.4077 18.0172 23.4077H14.7828C13.8269 23.4077 13.0145 24.0685 12.7326 24.9313C12.6239 25.264 12.9069 25.5999 13.2569 25.5999H19.5431C19.8931 25.5999 20.1761 25.264 20.0674 24.9313Z" fill="#111315"/>
<path d="M21.1609 18.2573L16.939 11.9243V17.0384C17.5651 17.2616 18.0171 17.8544 18.0171 18.5563C18.0171 19.448 17.2917 20.1734 16.3999 20.1734C15.5082 20.1734 14.7827 19.448 14.7827 18.5563C14.7827 17.8544 15.2347 17.2616 15.8608 17.0384V11.9243L11.6389 18.2573C11.4962 18.471 11.5247 18.7558 11.7063 18.9374C12.6959 19.927 13.3285 21.2019 13.5726 22.5694C13.9471 22.4175 14.3543 22.3297 14.7827 22.3297H18.0171C18.4455 22.3297 18.8527 22.4175 19.2272 22.5694C19.4713 21.2018 20.1039 19.927 21.0935 18.9374C21.2752 18.7558 21.3036 18.471 21.1609 18.2573Z" fill="#111315"/>
<path d="M16.3999 18.0171C16.1025 18.0171 15.8608 18.2587 15.8608 18.5562C15.8608 18.8536 16.1025 19.0952 16.3999 19.0952C16.6973 19.0952 16.939 18.8536 16.939 18.5562C16.939 18.2587 16.6973 18.0171 16.3999 18.0171Z" fill="#111315"/>
</g>
<defs>
<clipPath id="clip0_502_1501">
<rect width="18.4" height="18.4" fill="white" transform="translate(7.19995 7.19995)"/>
</clipPath>
</defs>
</svg>
