<svg width="32" height="32" viewBox="0 0 32 32" fill="none" xmlns="http://www.w3.org/2000/svg">
<circle cx="16" cy="16" r="16" fill="#FFBD6A"/>
<g clip-path="url(#clip0_500_1409)">
<path d="M22.9058 9.09417C19.3129 5.50169 13.4876 5.50129 9.89434 9.09417C6.30146 12.687 6.30186 18.5124 9.89434 22.1056C13.4872 25.6977 19.3125 25.6981 22.9058 22.1056C26.4983 18.5124 26.4979 12.6874 22.9058 9.09417ZM17.5997 19.6C17.5997 20.2628 17.0625 20.8 16.3997 20.8C15.7369 20.8 15.1997 20.2628 15.1997 19.6V14.7999C15.1997 14.1371 15.7369 13.5999 16.3997 13.5999C17.0625 13.5999 17.5997 14.1371 17.5997 14.7999V19.6ZM16.3785 12.7486C15.6873 12.7486 15.2265 12.259 15.2409 11.6546C15.2265 11.021 15.6873 10.5462 16.3925 10.5462C17.0981 10.5462 17.5445 11.0214 17.5593 11.6546C17.5589 12.259 17.0985 12.7486 16.3785 12.7486Z" fill="#111315"/>
</g>
<defs>
<clipPath id="clip0_500_1409">
<rect width="18.4" height="18.4" fill="white" transform="translate(7.19995 6.3999)"/>
</clipPath>
</defs>
</svg>
