<svg width="32" height="32" viewBox="0 0 32 32" fill="none" xmlns="http://www.w3.org/2000/svg">
<circle cx="16" cy="16" r="16" fill="#FFBD6A"/>
<g clip-path="url(#clip0_502_1487)">
<path d="M16 9.73508C15.6964 9.73508 15.45 9.48868 15.45 9.18508V7.74995C15.45 7.44635 15.6964 7.19995 16 7.19995C16.3036 7.19995 16.55 7.44635 16.55 7.74995V9.18508C16.55 9.48868 16.3036 9.73508 16 9.73508Z" fill="#111315"/>
<path d="M20.8186 11.731C20.6778 11.731 20.537 11.6774 20.4299 11.5696C20.2151 11.3548 20.2151 11.0064 20.4299 10.7916L21.4449 9.77663C21.6597 9.56176 22.0081 9.56176 22.2229 9.77663C22.4378 9.9915 22.4378 10.3398 22.2229 10.5547L21.208 11.5696C21.1002 11.6767 20.9594 11.731 20.8186 11.731Z" fill="#111315"/>
<path d="M24.25 16.55H22.8149C22.5113 16.55 22.2649 16.3036 22.2649 16C22.2649 15.6964 22.5113 15.45 22.8149 15.45H24.25C24.5536 15.45 24.8 15.6964 24.8 16C24.8 16.3036 24.5536 16.55 24.25 16.55Z" fill="#111315"/>
<path d="M21.8335 22.3838C21.6927 22.3838 21.5519 22.3303 21.4449 22.2225L20.4299 21.2075C20.2151 20.9927 20.2151 20.6443 20.4299 20.4295C20.6448 20.2146 20.9931 20.2146 21.208 20.4295L22.2229 21.4444C22.4378 21.6593 22.4378 22.0076 22.2229 22.2225C22.1151 22.3303 21.9743 22.3838 21.8335 22.3838Z" fill="#111315"/>
<path d="M10.1663 22.3838C10.0255 22.3838 9.88467 22.3303 9.7776 22.2225C9.56274 22.0076 9.56274 21.6593 9.7776 21.4444L10.7925 20.4295C11.0074 20.2146 11.3557 20.2146 11.5706 20.4295C11.7855 20.6443 11.7855 20.9927 11.5706 21.2075L10.5557 22.2225C10.4479 22.3303 10.3071 22.3838 10.1663 22.3838Z" fill="#111315"/>
<path d="M9.18508 16.55H7.74995C7.44635 16.55 7.19995 16.3036 7.19995 16C7.19995 15.6964 7.44635 15.45 7.74995 15.45H9.18508C9.48868 15.45 9.73508 15.6964 9.73508 16C9.73508 16.3036 9.48868 16.55 9.18508 16.55Z" fill="#111315"/>
<path d="M11.1812 11.731C11.0404 11.731 10.8996 11.6774 10.7925 11.5696L9.7776 10.5547C9.56274 10.3398 9.56274 9.9915 9.7776 9.77663C9.99247 9.56176 10.3408 9.56176 10.5557 9.77663L11.5706 10.7916C11.7855 11.0064 11.7855 11.3548 11.5706 11.5696C11.4621 11.6767 11.322 11.731 11.1812 11.731Z" fill="#111315"/>
<path d="M18.2 22.5999V23.5165C18.2 24.2205 17.6207 24.7999 16.9167 24.7999H15.0834C14.4674 24.7999 13.8 24.3305 13.8 23.3039V22.5999H18.2Z" fill="#111315"/>
<path d="M19.234 12.0107C18.0313 11.0353 16.4473 10.654 14.9 10.984C12.9567 11.3873 11.38 12.9713 10.9767 14.9147C10.566 16.9093 11.314 18.8893 12.9127 20.0993C13.3453 20.422 13.646 20.9207 13.7487 21.5V21.5073C13.7633 21.5 13.7853 21.5 13.8 21.5H18.2C18.2147 21.5 18.222 21.5 18.2367 21.5073V21.5C18.3393 20.9427 18.6693 20.4293 19.1753 20.0333C20.4147 19.0507 21.1333 17.584 21.1333 16C21.1333 14.4453 20.444 12.9933 19.234 12.0107ZM18.75 16.3667C18.4493 16.3667 18.2 16.1173 18.2 15.8167C18.2 14.702 17.298 13.8 16.1833 13.8C15.8827 13.8 15.6333 13.5507 15.6333 13.25C15.6333 12.9493 15.8827 12.7 16.1833 12.7C17.8993 12.7 19.3 14.1007 19.3 15.8167C19.3 16.1173 19.0507 16.3667 18.75 16.3667Z" fill="#111315"/>
<path d="M13.7485 21.5H13.7999C13.7852 21.5 13.7632 21.5 13.7485 21.5073V21.5Z" fill="#111315"/>
<path d="M18.2366 21.5V21.5073C18.2219 21.5 18.2146 21.5 18.2 21.5H18.2366Z" fill="#111315"/>
</g>
<defs>
<clipPath id="clip0_502_1487">
<rect width="17.6" height="17.6" fill="white" transform="translate(7.19995 7.19995)"/>
</clipPath>
</defs>
</svg>
