<svg width="256" height="213" viewBox="0 0 256 213" fill="none" xmlns="http://www.w3.org/2000/svg">
<path opacity="0.8" d="M2.84375 18H1.125V6.28125H2.84375V11.4688H8.89062V6.28125H10.6094V18H8.89062V12.9766H2.84375V18ZM16.4062 18.1562C15.625 18.1562 14.9219 17.9792 14.2969 17.625C13.6719 17.2708 13.1797 16.7891 12.8203 16.1797C12.4609 15.5651 12.2812 14.8698 12.2812 14.0938C12.2812 13.3229 12.4609 12.6328 12.8203 12.0234C13.1797 11.4089 13.6719 10.9245 14.2969 10.5703C14.9219 10.2109 15.625 10.0312 16.4062 10.0312C17.1927 10.0312 17.8958 10.2109 18.5156 10.5703C19.1354 10.9245 19.6224 11.4089 19.9766 12.0234C20.3359 12.6328 20.5156 13.3229 20.5156 14.0938C20.5156 14.8698 20.3359 15.5651 19.9766 16.1797C19.6224 16.7891 19.1354 17.2708 18.5156 17.625C17.8958 17.9792 17.1927 18.1562 16.4062 18.1562ZM16.3984 16.7188C16.8724 16.7188 17.2943 16.6042 17.6641 16.375C18.0391 16.1406 18.3333 15.8281 18.5469 15.4375C18.7656 15.0417 18.875 14.5911 18.875 14.0859C18.875 13.5911 18.7656 13.1484 18.5469 12.7578C18.3333 12.362 18.0391 12.0495 17.6641 11.8203C17.2943 11.5859 16.8724 11.4688 16.3984 11.4688C15.9297 11.4688 15.5078 11.5859 15.1328 11.8203C14.7578 12.0495 14.4609 12.362 14.2422 12.7578C14.0286 13.1484 13.9219 13.5911 13.9219 14.0859C13.9219 14.5911 14.0286 15.0417 14.2422 15.4375C14.4609 15.8281 14.7578 16.1406 15.1328 16.375C15.5078 16.6042 15.9297 16.7188 16.3984 16.7188ZM30.7969 18H28.9531L27.3594 12.4141L25.7656 18H23.9219L21.4219 10.1875H23.1172L24.8281 16.1719L26.6328 10.1875H28.0859L29.8906 16.1797L31.6094 10.1875H33.3047L30.7969 18ZM40.8125 18H39.2109V11.6172H37.8438V10.1875H39.2109V8.66406C39.2109 8.15365 39.3229 7.70312 39.5469 7.3125C39.776 6.91667 40.0885 6.60677 40.4844 6.38281C40.8854 6.15885 41.3464 6.04688 41.8672 6.04688C42.1901 6.04688 42.5156 6.09115 42.8438 6.17969C43.1719 6.26823 43.4948 6.40625 43.8125 6.59375L43.2031 7.85156C43.0312 7.72656 42.8516 7.63542 42.6641 7.57812C42.4818 7.51562 42.2995 7.48438 42.1172 7.48438C41.737 7.48438 41.4245 7.61979 41.1797 7.89062C40.9349 8.16146 40.8125 8.52344 40.8125 8.97656V10.1875H43.2031V11.6172H40.8125V18ZM51.5859 18H50.2031L50.1094 17C49.8229 17.3646 49.4609 17.6484 49.0234 17.8516C48.5859 18.0547 48.1016 18.1562 47.5703 18.1562C47.013 18.1562 46.5156 18.0469 46.0781 17.8281C45.6406 17.6094 45.2969 17.3099 45.0469 16.9297C44.7969 16.5495 44.6719 16.1172 44.6719 15.6328C44.6719 15.1224 44.8073 14.6745 45.0781 14.2891C45.349 13.8984 45.7188 13.5938 46.1875 13.375C46.6562 13.151 47.1901 13.0391 47.7891 13.0391C48.1641 13.0391 48.5443 13.0833 48.9297 13.1719C49.3203 13.2604 49.6719 13.3854 49.9844 13.5469V13.2578C49.9844 12.8776 49.8854 12.5521 49.6875 12.2812C49.4948 12.0052 49.2292 11.7943 48.8906 11.6484C48.5573 11.5026 48.1875 11.4297 47.7812 11.4297C47.4219 11.4297 47.0547 11.4922 46.6797 11.6172C46.3099 11.7422 45.9609 11.9349 45.6328 12.1953L45.1484 10.8906C45.6224 10.6094 46.1146 10.3958 46.625 10.25C47.1406 10.1042 47.6458 10.0312 48.1406 10.0312C48.849 10.0312 49.4583 10.1719 49.9688 10.4531C50.4844 10.7344 50.8828 11.1354 51.1641 11.6562C51.4453 12.1719 51.5859 12.7812 51.5859 13.4844V18ZM47.8828 16.7969C48.2526 16.7969 48.5938 16.7214 48.9062 16.5703C49.2188 16.4141 49.4714 16.1953 49.6641 15.9141C49.862 15.6276 49.9688 15.2943 49.9844 14.9141V14.8047C49.7188 14.6068 49.4193 14.4531 49.0859 14.3438C48.7578 14.2292 48.4219 14.1719 48.0781 14.1719C47.5521 14.1719 47.1146 14.2969 46.7656 14.5469C46.4167 14.7969 46.2422 15.1172 46.2422 15.5078C46.2422 15.7526 46.3125 15.974 46.4531 16.1719C46.599 16.3646 46.7943 16.5182 47.0391 16.6328C47.2891 16.7422 47.5703 16.7969 47.8828 16.7969ZM53.1406 17.3203L53.5312 15.8828C53.7083 16.0599 53.9193 16.2161 54.1641 16.3516C54.4141 16.487 54.6771 16.5938 54.9531 16.6719C55.2344 16.7448 55.5104 16.7812 55.7812 16.7812C56.2083 16.7812 56.5521 16.6901 56.8125 16.5078C57.0729 16.3255 57.2031 16.0833 57.2031 15.7812C57.2031 15.5573 57.1302 15.3724 56.9844 15.2266C56.8438 15.0755 56.6536 14.9453 56.4141 14.8359C56.1797 14.7266 55.9271 14.6198 55.6562 14.5156C55.3073 14.3854 54.9583 14.2344 54.6094 14.0625C54.2656 13.8906 53.9766 13.6615 53.7422 13.375C53.5078 13.0885 53.3906 12.7109 53.3906 12.2422C53.3906 11.7943 53.5052 11.4062 53.7344 11.0781C53.9635 10.7448 54.2839 10.487 54.6953 10.3047C55.1068 10.1224 55.5807 10.0312 56.1172 10.0312C56.9505 10.0312 57.776 10.2396 58.5938 10.6562L58.125 12.0234C57.9583 11.9036 57.7604 11.7969 57.5312 11.7031C57.3021 11.6094 57.0677 11.5365 56.8281 11.4844C56.5885 11.4271 56.3672 11.3984 56.1641 11.3984C55.8255 11.3984 55.5521 11.474 55.3438 11.625C55.1406 11.776 55.0391 11.9792 55.0391 12.2344C55.0391 12.3906 55.0885 12.5339 55.1875 12.6641C55.2865 12.7891 55.4427 12.9141 55.6562 13.0391C55.875 13.1589 56.1693 13.2943 56.5391 13.4453C56.8932 13.5859 57.2474 13.7474 57.6016 13.9297C57.9557 14.112 58.25 14.349 58.4844 14.6406C58.724 14.9323 58.8438 15.3151 58.8438 15.7891C58.8438 16.2578 58.7188 16.6719 58.4688 17.0312C58.2188 17.3854 57.8698 17.6615 57.4219 17.8594C56.9792 18.0573 56.4635 18.1562 55.875 18.1562C54.901 18.1562 53.9896 17.8776 53.1406 17.3203ZM65.3125 17.8047C64.7656 18.0391 64.237 18.1562 63.7266 18.1562C63.2161 18.1562 62.7682 18.0469 62.3828 17.8281C62.0026 17.6094 61.7031 17.3021 61.4844 16.9062C61.2708 16.5052 61.1641 16.0443 61.1641 15.5234V11.6172H59.7969V10.1875H61.2422V8.23438H62.7656V10.1875H65.0469V11.6172H62.7656V15.2266C62.7656 15.6849 62.888 16.0495 63.1328 16.3203C63.3828 16.5859 63.7031 16.7188 64.0938 16.7188C64.4219 16.7188 64.7474 16.6198 65.0703 16.4219L65.3125 17.8047ZM71.5312 7.92188C71.2865 7.92188 71.0807 7.83594 70.9141 7.66406C70.7474 7.49219 70.6641 7.28385 70.6641 7.03906C70.6641 6.79427 70.7474 6.58854 70.9141 6.42188C71.0807 6.25 71.2865 6.16406 71.5312 6.16406C71.7812 6.16406 71.9896 6.25 72.1562 6.42188C72.3281 6.58854 72.4141 6.79427 72.4141 7.03906C72.4141 7.28385 72.3281 7.49219 72.1562 7.66406C71.9896 7.83594 71.7812 7.92188 71.5312 7.92188ZM72.3281 18H70.7266V10.1875H72.3281V18ZM74.0625 17.3203L74.4531 15.8828C74.6302 16.0599 74.8411 16.2161 75.0859 16.3516C75.3359 16.487 75.599 16.5938 75.875 16.6719C76.1562 16.7448 76.4323 16.7812 76.7031 16.7812C77.1302 16.7812 77.474 16.6901 77.7344 16.5078C77.9948 16.3255 78.125 16.0833 78.125 15.7812C78.125 15.5573 78.0521 15.3724 77.9062 15.2266C77.7656 15.0755 77.5755 14.9453 77.3359 14.8359C77.1016 14.7266 76.849 14.6198 76.5781 14.5156C76.2292 14.3854 75.8802 14.2344 75.5312 14.0625C75.1875 13.8906 74.8984 13.6615 74.6641 13.375C74.4297 13.0885 74.3125 12.7109 74.3125 12.2422C74.3125 11.7943 74.4271 11.4062 74.6562 11.0781C74.8854 10.7448 75.2057 10.487 75.6172 10.3047C76.0286 10.1224 76.5026 10.0312 77.0391 10.0312C77.8724 10.0312 78.6979 10.2396 79.5156 10.6562L79.0469 12.0234C78.8802 11.9036 78.6823 11.7969 78.4531 11.7031C78.224 11.6094 77.9896 11.5365 77.75 11.4844C77.5104 11.4271 77.2891 11.3984 77.0859 11.3984C76.7474 11.3984 76.474 11.474 76.2656 11.625C76.0625 11.776 75.9609 11.9792 75.9609 12.2344C75.9609 12.3906 76.0104 12.5339 76.1094 12.6641C76.2083 12.7891 76.3646 12.9141 76.5781 13.0391C76.7969 13.1589 77.0911 13.2943 77.4609 13.4453C77.8151 13.5859 78.1693 13.7474 78.5234 13.9297C78.8776 14.112 79.1719 14.349 79.4062 14.6406C79.6458 14.9323 79.7656 15.3151 79.7656 15.7891C79.7656 16.2578 79.6406 16.6719 79.3906 17.0312C79.1406 17.3854 78.7917 17.6615 78.3438 17.8594C77.901 18.0573 77.3854 18.1562 76.7969 18.1562C75.8229 18.1562 74.9115 17.8776 74.0625 17.3203ZM90.125 17.8047C89.5781 18.0391 89.0495 18.1562 88.5391 18.1562C88.0286 18.1562 87.5807 18.0469 87.1953 17.8281C86.8151 17.6094 86.5156 17.3021 86.2969 16.9062C86.0833 16.5052 85.9766 16.0443 85.9766 15.5234V11.6172H84.6094V10.1875H86.0547V8.23438H87.5781V10.1875H89.8594V11.6172H87.5781V15.2266C87.5781 15.6849 87.7005 16.0495 87.9453 16.3203C88.1953 16.5859 88.5156 16.7188 88.9062 16.7188C89.2344 16.7188 89.5599 16.6198 89.8828 16.4219L90.125 17.8047ZM91.7031 18V6.28125H93.3047V11.2734C93.8828 10.4453 94.7604 10.0312 95.9375 10.0312C96.9531 10.0312 97.7474 10.3385 98.3203 10.9531C98.8932 11.5677 99.1797 12.4245 99.1797 13.5234V18H97.5781V13.9141C97.5781 13.138 97.3906 12.5365 97.0156 12.1094C96.6458 11.6823 96.1276 11.4688 95.4609 11.4688C94.7891 11.4688 94.2604 11.6875 93.875 12.125C93.4948 12.5573 93.3047 13.1536 93.3047 13.9141V18H91.7031ZM108.25 17.0703C107.281 17.7943 106.216 18.1562 105.055 18.1562C104.227 18.1562 103.484 17.974 102.828 17.6094C102.172 17.2448 101.654 16.7474 101.273 16.1172C100.893 15.487 100.703 14.776 100.703 13.9844C100.703 13.2292 100.878 12.5547 101.227 11.9609C101.576 11.362 102.052 10.8906 102.656 10.5469C103.26 10.2031 103.945 10.0312 104.711 10.0312C105.503 10.0312 106.198 10.2188 106.797 10.5938C107.401 10.9688 107.87 11.4922 108.203 12.1641C108.542 12.8307 108.711 13.6042 108.711 14.4844V14.7344H102.438C102.531 15.1406 102.708 15.4974 102.969 15.8047C103.229 16.1068 103.552 16.3438 103.938 16.5156C104.323 16.6823 104.758 16.7656 105.242 16.7656C106.107 16.7656 106.901 16.4844 107.625 15.9219L108.25 17.0703ZM102.367 13.625H107.219C107.167 13.1875 107.031 12.8073 106.812 12.4844C106.594 12.1562 106.31 11.901 105.961 11.7188C105.617 11.5312 105.229 11.4375 104.797 11.4375C104.359 11.4375 103.966 11.5312 103.617 11.7188C103.268 11.901 102.984 12.1562 102.766 12.4844C102.552 12.8125 102.419 13.1927 102.367 13.625ZM121.969 18H120.555L120.469 16.8828C120.115 17.2786 119.688 17.5911 119.188 17.8203C118.693 18.0443 118.148 18.1562 117.555 18.1562C116.805 18.1562 116.133 17.9792 115.539 17.625C114.945 17.2708 114.477 16.7865 114.133 16.1719C113.794 15.5573 113.625 14.8646 113.625 14.0938C113.625 13.3177 113.794 12.625 114.133 12.0156C114.477 11.401 114.945 10.9167 115.539 10.5625C116.133 10.2083 116.805 10.0312 117.555 10.0312C118.117 10.0312 118.638 10.1328 119.117 10.3359C119.602 10.5391 120.018 10.8229 120.367 11.1875V6.28125H121.969V18ZM117.82 16.7188C118.294 16.7188 118.721 16.6094 119.102 16.3906C119.487 16.1719 119.794 15.875 120.023 15.5C120.253 15.125 120.367 14.6979 120.367 14.2188V13.9531C120.367 13.474 120.253 13.0469 120.023 12.6719C119.794 12.2969 119.487 12.0026 119.102 11.7891C118.721 11.5755 118.294 11.4688 117.82 11.4688C117.336 11.4688 116.901 11.5833 116.516 11.8125C116.13 12.0417 115.826 12.3542 115.602 12.75C115.378 13.1406 115.266 13.5859 115.266 14.0859C115.266 14.5859 115.378 15.0339 115.602 15.4297C115.826 15.8255 116.13 16.1406 116.516 16.375C116.901 16.6042 117.336 16.7188 117.82 16.7188ZM131.188 17.0703C130.219 17.7943 129.154 18.1562 127.992 18.1562C127.164 18.1562 126.422 17.974 125.766 17.6094C125.109 17.2448 124.591 16.7474 124.211 16.1172C123.831 15.487 123.641 14.776 123.641 13.9844C123.641 13.2292 123.815 12.5547 124.164 11.9609C124.513 11.362 124.99 10.8906 125.594 10.5469C126.198 10.2031 126.883 10.0312 127.648 10.0312C128.44 10.0312 129.135 10.2188 129.734 10.5938C130.339 10.9688 130.807 11.4922 131.141 12.1641C131.479 12.8307 131.648 13.6042 131.648 14.4844V14.7344H125.375C125.469 15.1406 125.646 15.4974 125.906 15.8047C126.167 16.1068 126.49 16.3438 126.875 16.5156C127.26 16.6823 127.695 16.7656 128.18 16.7656C129.044 16.7656 129.839 16.4844 130.562 15.9219L131.188 17.0703ZM125.305 13.625H130.156C130.104 13.1875 129.969 12.8073 129.75 12.4844C129.531 12.1562 129.247 11.901 128.898 11.7188C128.555 11.5312 128.167 11.4375 127.734 11.4375C127.297 11.4375 126.904 11.5312 126.555 11.7188C126.206 11.901 125.922 12.1562 125.703 12.4844C125.49 12.8125 125.357 13.1927 125.305 13.625ZM135.031 18H133.328V5.96875H135.031V18ZM138.109 7.92188C137.865 7.92188 137.659 7.83594 137.492 7.66406C137.326 7.49219 137.242 7.28385 137.242 7.03906C137.242 6.79427 137.326 6.58854 137.492 6.42188C137.659 6.25 137.865 6.16406 138.109 6.16406C138.359 6.16406 138.568 6.25 138.734 6.42188C138.906 6.58854 138.992 6.79427 138.992 7.03906C138.992 7.28385 138.906 7.49219 138.734 7.66406C138.568 7.83594 138.359 7.92188 138.109 7.92188ZM138.906 18H137.305V10.1875H138.906V18ZM148.617 10.1875L145.367 18H143.812L140.562 10.1875H142.281L144.602 16.3516L146.922 10.1875H148.617ZM156.984 17.0703C156.016 17.7943 154.951 18.1562 153.789 18.1562C152.961 18.1562 152.219 17.974 151.562 17.6094C150.906 17.2448 150.388 16.7474 150.008 16.1172C149.628 15.487 149.438 14.776 149.438 13.9844C149.438 13.2292 149.612 12.5547 149.961 11.9609C150.31 11.362 150.786 10.8906 151.391 10.5469C151.995 10.2031 152.68 10.0312 153.445 10.0312C154.237 10.0312 154.932 10.2188 155.531 10.5938C156.135 10.9688 156.604 11.4922 156.938 12.1641C157.276 12.8307 157.445 13.6042 157.445 14.4844V14.7344H151.172C151.266 15.1406 151.443 15.4974 151.703 15.8047C151.964 16.1068 152.286 16.3438 152.672 16.5156C153.057 16.6823 153.492 16.7656 153.977 16.7656C154.841 16.7656 155.635 16.4844 156.359 15.9219L156.984 17.0703ZM151.102 13.625H155.953C155.901 13.1875 155.766 12.8073 155.547 12.4844C155.328 12.1562 155.044 11.901 154.695 11.7188C154.352 11.5312 153.964 11.4375 153.531 11.4375C153.094 11.4375 152.701 11.5312 152.352 11.7188C152.003 11.901 151.719 12.1562 151.5 12.4844C151.286 12.8125 151.154 13.1927 151.102 13.625ZM160.727 18H159.125V10.1875H160.523L160.586 11.6719C160.857 11.1562 161.229 10.7552 161.703 10.4688C162.182 10.1771 162.732 10.0312 163.352 10.0312C163.503 10.0312 163.654 10.0417 163.805 10.0625C163.961 10.0781 164.117 10.1042 164.273 10.1406L164.07 11.5859C163.768 11.5078 163.471 11.4688 163.18 11.4688C162.695 11.4688 162.268 11.5859 161.898 11.8203C161.529 12.0495 161.24 12.3672 161.031 12.7734C160.828 13.1797 160.727 13.6484 160.727 14.1797V18ZM168.664 21.9062H166.938L168.57 17.9531L164.766 10.1875H166.555L169.336 16.1172L171.789 10.1875H173.508L168.664 21.9062ZM180.414 21.9062H178.812V10.1875H180.227L180.312 11.3047C180.667 10.9089 181.091 10.599 181.586 10.375C182.086 10.1458 182.633 10.0312 183.227 10.0312C183.977 10.0312 184.646 10.2083 185.234 10.5625C185.828 10.9167 186.294 11.401 186.633 12.0156C186.977 12.625 187.148 13.3177 187.148 14.0938C187.148 14.8646 186.977 15.5573 186.633 16.1719C186.294 16.7865 185.828 17.2708 185.234 17.625C184.646 17.9792 183.977 18.1562 183.227 18.1562C182.664 18.1562 182.143 18.0547 181.664 17.8516C181.185 17.6484 180.768 17.3646 180.414 17V21.9062ZM182.969 16.7031C183.464 16.7031 183.901 16.5911 184.281 16.3672C184.661 16.1432 184.958 15.8359 185.172 15.4453C185.391 15.0495 185.5 14.5964 185.5 14.0859C185.5 13.5755 185.391 13.125 185.172 12.7344C184.958 12.3385 184.661 12.0286 184.281 11.8047C183.901 11.5807 183.466 11.4688 182.977 11.4688C182.513 11.4688 182.094 11.5729 181.719 11.7812C181.349 11.9844 181.047 12.2656 180.812 12.625C180.583 12.9844 180.451 13.3932 180.414 13.8516V14.3359C180.451 14.7943 180.581 15.2031 180.805 15.5625C181.034 15.9167 181.333 16.1953 181.703 16.3984C182.078 16.6016 182.5 16.7031 182.969 16.7031ZM190.43 18H188.828V10.1875H190.227L190.289 11.6719C190.56 11.1562 190.932 10.7552 191.406 10.4688C191.885 10.1771 192.435 10.0312 193.055 10.0312C193.206 10.0312 193.357 10.0417 193.508 10.0625C193.664 10.0781 193.82 10.1042 193.977 10.1406L193.773 11.5859C193.471 11.5078 193.174 11.4688 192.883 11.4688C192.398 11.4688 191.971 11.5859 191.602 11.8203C191.232 12.0495 190.943 12.3672 190.734 12.7734C190.531 13.1797 190.43 13.6484 190.43 14.1797V18ZM198.75 18.1562C197.969 18.1562 197.266 17.9792 196.641 17.625C196.016 17.2708 195.523 16.7891 195.164 16.1797C194.805 15.5651 194.625 14.8698 194.625 14.0938C194.625 13.3229 194.805 12.6328 195.164 12.0234C195.523 11.4089 196.016 10.9245 196.641 10.5703C197.266 10.2109 197.969 10.0312 198.75 10.0312C199.536 10.0312 200.24 10.2109 200.859 10.5703C201.479 10.9245 201.966 11.4089 202.32 12.0234C202.68 12.6328 202.859 13.3229 202.859 14.0938C202.859 14.8698 202.68 15.5651 202.32 16.1797C201.966 16.7891 201.479 17.2708 200.859 17.625C200.24 17.9792 199.536 18.1562 198.75 18.1562ZM198.742 16.7188C199.216 16.7188 199.638 16.6042 200.008 16.375C200.383 16.1406 200.677 15.8281 200.891 15.4375C201.109 15.0417 201.219 14.5911 201.219 14.0859C201.219 13.5911 201.109 13.1484 200.891 12.7578C200.677 12.362 200.383 12.0495 200.008 11.8203C199.638 11.5859 199.216 11.4688 198.742 11.4688C198.273 11.4688 197.852 11.5859 197.477 11.8203C197.102 12.0495 196.805 12.362 196.586 12.7578C196.372 13.1484 196.266 13.5911 196.266 14.0859C196.266 14.5911 196.372 15.0417 196.586 15.4375C196.805 15.8281 197.102 16.1406 197.477 16.375C197.852 16.6042 198.273 16.7188 198.742 16.7188ZM211.164 16.8359C210.784 17.2578 210.328 17.5833 209.797 17.8125C209.266 18.0417 208.69 18.1562 208.07 18.1562C207.289 18.1562 206.586 17.9792 205.961 17.625C205.341 17.2708 204.852 16.7865 204.492 16.1719C204.133 15.5573 203.953 14.8646 203.953 14.0938C203.953 13.3177 204.133 12.625 204.492 12.0156C204.852 11.401 205.341 10.9167 205.961 10.5625C206.586 10.2083 207.289 10.0312 208.07 10.0312C208.685 10.0312 209.258 10.1458 209.789 10.375C210.32 10.599 210.776 10.9219 211.156 11.3438L210.211 12.3359C209.956 12.0651 209.648 11.8568 209.289 11.7109C208.935 11.5599 208.557 11.4844 208.156 11.4844C207.661 11.4844 207.221 11.5964 206.836 11.8203C206.451 12.0443 206.148 12.3516 205.93 12.7422C205.711 13.1276 205.602 13.5755 205.602 14.0859C205.602 14.5911 205.711 15.0417 205.93 15.4375C206.148 15.8333 206.451 16.1432 206.836 16.3672C207.221 16.5911 207.661 16.7031 208.156 16.7031C208.557 16.7031 208.938 16.6276 209.297 16.4766C209.656 16.3255 209.961 16.1172 210.211 15.8516L211.164 16.8359ZM219.797 17.0703C218.828 17.7943 217.763 18.1562 216.602 18.1562C215.773 18.1562 215.031 17.974 214.375 17.6094C213.719 17.2448 213.201 16.7474 212.82 16.1172C212.44 15.487 212.25 14.776 212.25 13.9844C212.25 13.2292 212.424 12.5547 212.773 11.9609C213.122 11.362 213.599 10.8906 214.203 10.5469C214.807 10.2031 215.492 10.0312 216.258 10.0312C217.049 10.0312 217.745 10.2188 218.344 10.5938C218.948 10.9688 219.417 11.4922 219.75 12.1641C220.089 12.8307 220.258 13.6042 220.258 14.4844V14.7344H213.984C214.078 15.1406 214.255 15.4974 214.516 15.8047C214.776 16.1068 215.099 16.3438 215.484 16.5156C215.87 16.6823 216.305 16.7656 216.789 16.7656C217.654 16.7656 218.448 16.4844 219.172 15.9219L219.797 17.0703ZM213.914 13.625H218.766C218.714 13.1875 218.578 12.8073 218.359 12.4844C218.141 12.1562 217.857 11.901 217.508 11.7188C217.164 11.5312 216.776 11.4375 216.344 11.4375C215.906 11.4375 215.513 11.5312 215.164 11.7188C214.815 11.901 214.531 12.1562 214.312 12.4844C214.099 12.8125 213.966 13.1927 213.914 13.625ZM221.391 17.3203L221.781 15.8828C221.958 16.0599 222.169 16.2161 222.414 16.3516C222.664 16.487 222.927 16.5938 223.203 16.6719C223.484 16.7448 223.76 16.7812 224.031 16.7812C224.458 16.7812 224.802 16.6901 225.062 16.5078C225.323 16.3255 225.453 16.0833 225.453 15.7812C225.453 15.5573 225.38 15.3724 225.234 15.2266C225.094 15.0755 224.904 14.9453 224.664 14.8359C224.43 14.7266 224.177 14.6198 223.906 14.5156C223.557 14.3854 223.208 14.2344 222.859 14.0625C222.516 13.8906 222.227 13.6615 221.992 13.375C221.758 13.0885 221.641 12.7109 221.641 12.2422C221.641 11.7943 221.755 11.4062 221.984 11.0781C222.214 10.7448 222.534 10.487 222.945 10.3047C223.357 10.1224 223.831 10.0312 224.367 10.0312C225.201 10.0312 226.026 10.2396 226.844 10.6562L226.375 12.0234C226.208 11.9036 226.01 11.7969 225.781 11.7031C225.552 11.6094 225.318 11.5365 225.078 11.4844C224.839 11.4271 224.617 11.3984 224.414 11.3984C224.076 11.3984 223.802 11.474 223.594 11.625C223.391 11.776 223.289 11.9792 223.289 12.2344C223.289 12.3906 223.339 12.5339 223.438 12.6641C223.536 12.7891 223.693 12.9141 223.906 13.0391C224.125 13.1589 224.419 13.2943 224.789 13.4453C225.143 13.5859 225.497 13.7474 225.852 13.9297C226.206 14.112 226.5 14.349 226.734 14.6406C226.974 14.9323 227.094 15.3151 227.094 15.7891C227.094 16.2578 226.969 16.6719 226.719 17.0312C226.469 17.3854 226.12 17.6615 225.672 17.8594C225.229 18.0573 224.714 18.1562 224.125 18.1562C223.151 18.1562 222.24 17.8776 221.391 17.3203ZM228.25 17.3203L228.641 15.8828C228.818 16.0599 229.029 16.2161 229.273 16.3516C229.523 16.487 229.786 16.5938 230.062 16.6719C230.344 16.7448 230.62 16.7812 230.891 16.7812C231.318 16.7812 231.661 16.6901 231.922 16.5078C232.182 16.3255 232.312 16.0833 232.312 15.7812C232.312 15.5573 232.24 15.3724 232.094 15.2266C231.953 15.0755 231.763 14.9453 231.523 14.8359C231.289 14.7266 231.036 14.6198 230.766 14.5156C230.417 14.3854 230.068 14.2344 229.719 14.0625C229.375 13.8906 229.086 13.6615 228.852 13.375C228.617 13.0885 228.5 12.7109 228.5 12.2422C228.5 11.7943 228.615 11.4062 228.844 11.0781C229.073 10.7448 229.393 10.487 229.805 10.3047C230.216 10.1224 230.69 10.0312 231.227 10.0312C232.06 10.0312 232.885 10.2396 233.703 10.6562L233.234 12.0234C233.068 11.9036 232.87 11.7969 232.641 11.7031C232.411 11.6094 232.177 11.5365 231.938 11.4844C231.698 11.4271 231.477 11.3984 231.273 11.3984C230.935 11.3984 230.661 11.474 230.453 11.625C230.25 11.776 230.148 11.9792 230.148 12.2344C230.148 12.3906 230.198 12.5339 230.297 12.6641C230.396 12.7891 230.552 12.9141 230.766 13.0391C230.984 13.1589 231.279 13.2943 231.648 13.4453C232.003 13.5859 232.357 13.7474 232.711 13.9297C233.065 14.112 233.359 14.349 233.594 14.6406C233.833 14.9323 233.953 15.3151 233.953 15.7891C233.953 16.2578 233.828 16.6719 233.578 17.0312C233.328 17.3854 232.979 17.6615 232.531 17.8594C232.089 18.0573 231.573 18.1562 230.984 18.1562C230.01 18.1562 229.099 17.8776 228.25 17.3203ZM235.539 8.41406L234.797 7.10938C235.745 6.40104 236.755 6.04688 237.828 6.04688C238.432 6.04688 238.956 6.15885 239.398 6.38281C239.846 6.60677 240.193 6.92448 240.438 7.33594C240.688 7.74219 240.812 8.22396 240.812 8.78125C240.812 9.13542 240.758 9.44531 240.648 9.71094C240.539 9.97656 240.393 10.224 240.211 10.4531C240.034 10.6771 239.836 10.901 239.617 11.125C239.362 11.3958 239.109 11.6927 238.859 12.0156C238.615 12.3333 238.409 12.7188 238.242 13.1719C238.081 13.6198 238 14.1745 238 14.8359H236.602C236.602 14.0443 236.685 13.3906 236.852 12.875C237.023 12.3542 237.234 11.9219 237.484 11.5781C237.74 11.2292 237.987 10.9219 238.227 10.6562C238.471 10.3802 238.68 10.1146 238.852 9.85938C239.029 9.59896 239.117 9.28385 239.117 8.91406C239.117 8.47135 238.979 8.1224 238.703 7.86719C238.432 7.61198 238.06 7.48438 237.586 7.48438C237.221 7.48438 236.859 7.5651 236.5 7.72656C236.146 7.88802 235.826 8.11719 235.539 8.41406ZM237.305 18.1562C237.049 18.1562 236.841 18.0755 236.68 17.9141C236.518 17.7526 236.438 17.5443 236.438 17.2891C236.438 17.0234 236.518 16.8099 236.68 16.6484C236.841 16.487 237.049 16.4062 237.305 16.4062C237.565 16.4062 237.773 16.487 237.93 16.6484C238.091 16.8099 238.172 17.0234 238.172 17.2891C238.172 17.5443 238.091 17.7526 237.93 17.9141C237.773 18.0755 237.565 18.1562 237.305 18.1562Z" fill="white"/>
<path d="M179.406 108.734L180.547 106.898C180.906 107.19 181.253 107.43 181.586 107.617C181.924 107.799 182.258 107.935 182.586 108.023C182.914 108.107 183.25 108.148 183.594 108.148C184 108.148 184.352 108.091 184.648 107.977C184.945 107.862 185.174 107.698 185.336 107.484C185.503 107.271 185.586 107.023 185.586 106.742C185.586 106.414 185.482 106.138 185.273 105.914C185.065 105.69 184.792 105.495 184.453 105.328C184.12 105.156 183.758 104.992 183.367 104.836C182.987 104.68 182.604 104.51 182.219 104.328C181.839 104.141 181.487 103.919 181.164 103.664C180.846 103.409 180.589 103.099 180.391 102.734C180.198 102.365 180.102 101.917 180.102 101.391C180.102 100.703 180.273 100.109 180.617 99.6094C180.966 99.1094 181.443 98.724 182.047 98.4531C182.651 98.1823 183.341 98.0469 184.117 98.0469C184.664 98.0469 185.232 98.1198 185.82 98.2656C186.414 98.4115 187.005 98.6328 187.594 98.9297L186.648 100.875C186.279 100.651 185.88 100.474 185.453 100.344C185.026 100.214 184.625 100.148 184.25 100.148C183.911 100.148 183.615 100.201 183.359 100.305C183.109 100.409 182.914 100.555 182.773 100.742C182.633 100.924 182.562 101.141 182.562 101.391C182.562 101.688 182.664 101.945 182.867 102.164C183.07 102.378 183.333 102.568 183.656 102.734C183.984 102.901 184.336 103.068 184.711 103.234C185.096 103.401 185.484 103.583 185.875 103.781C186.271 103.979 186.63 104.214 186.953 104.484C187.281 104.75 187.544 105.07 187.742 105.445C187.945 105.815 188.047 106.26 188.047 106.781C188.047 107.469 187.865 108.073 187.5 108.594C187.135 109.109 186.628 109.513 185.977 109.805C185.326 110.091 184.568 110.234 183.703 110.234C182.911 110.234 182.154 110.107 181.43 109.852C180.706 109.596 180.031 109.224 179.406 108.734ZM191.961 110H189.562V97.9688H191.961V110ZM197.586 110.156C196.784 110.156 196.065 109.982 195.43 109.633C194.794 109.279 194.294 108.797 193.93 108.188C193.57 107.573 193.391 106.875 193.391 106.094C193.391 105.318 193.57 104.625 193.93 104.016C194.294 103.401 194.794 102.917 195.43 102.562C196.065 102.208 196.784 102.031 197.586 102.031C198.388 102.031 199.102 102.208 199.727 102.562C200.357 102.917 200.852 103.401 201.211 104.016C201.576 104.625 201.758 105.318 201.758 106.094C201.758 106.875 201.576 107.573 201.211 108.188C200.852 108.797 200.357 109.279 199.727 109.633C199.102 109.982 198.388 110.156 197.586 110.156ZM197.578 108.148C197.938 108.148 198.258 108.06 198.539 107.883C198.826 107.701 199.049 107.456 199.211 107.148C199.378 106.836 199.461 106.479 199.461 106.078C199.461 105.693 199.378 105.346 199.211 105.039C199.049 104.732 198.826 104.49 198.539 104.312C198.258 104.13 197.938 104.039 197.578 104.039C197.214 104.039 196.888 104.13 196.602 104.312C196.32 104.49 196.096 104.732 195.93 105.039C195.768 105.346 195.688 105.693 195.688 106.078C195.688 106.479 195.768 106.836 195.93 107.148C196.096 107.456 196.32 107.701 196.602 107.883C196.888 108.06 197.214 108.148 197.578 108.148ZM212.602 110H210.039L208.789 105.18L207.539 110H204.977L202.453 102.188H204.828L206.227 107.633L207.805 102.188H209.766L211.352 107.656L212.75 102.188H215.125L212.602 110Z" fill="white"/>
<path d="M179.953 151V139.281H187.281V141.383H182.359V144.047H186.961V146.156H182.359V151H179.953ZM195.531 151H193.578L193.461 150.07C193.174 150.414 192.82 150.682 192.398 150.875C191.977 151.062 191.513 151.156 191.008 151.156C190.461 151.156 189.974 151.052 189.547 150.844C189.12 150.63 188.784 150.339 188.539 149.969C188.294 149.594 188.172 149.169 188.172 148.695C188.172 148.195 188.305 147.755 188.57 147.375C188.836 146.995 189.201 146.698 189.664 146.484C190.133 146.266 190.664 146.156 191.258 146.156C191.607 146.156 191.956 146.195 192.305 146.273C192.659 146.352 192.987 146.461 193.289 146.602V146.398C193.289 146.086 193.201 145.818 193.023 145.594C192.852 145.365 192.612 145.188 192.305 145.062C192.003 144.938 191.664 144.875 191.289 144.875C190.93 144.875 190.573 144.932 190.219 145.047C189.87 145.161 189.547 145.333 189.25 145.562L188.641 143.852C189.167 143.581 189.698 143.378 190.234 143.242C190.776 143.102 191.299 143.031 191.805 143.031C192.565 143.031 193.224 143.182 193.781 143.484C194.339 143.781 194.768 144.203 195.07 144.75C195.378 145.292 195.531 145.935 195.531 146.68V151ZM191.5 149.43C191.797 149.43 192.081 149.365 192.352 149.234C192.622 149.104 192.841 148.927 193.008 148.703C193.18 148.479 193.271 148.232 193.281 147.961V147.906C193.052 147.75 192.797 147.63 192.516 147.547C192.24 147.458 191.958 147.414 191.672 147.414C191.245 147.414 190.896 147.508 190.625 147.695C190.354 147.883 190.219 148.125 190.219 148.422C190.219 148.615 190.273 148.789 190.383 148.945C190.497 149.096 190.651 149.216 190.844 149.305C191.036 149.388 191.255 149.43 191.5 149.43ZM196.734 150.328L197.227 148.422C197.383 148.594 197.591 148.753 197.852 148.898C198.117 149.044 198.401 149.161 198.703 149.25C199.01 149.333 199.299 149.375 199.57 149.375C199.893 149.375 200.146 149.315 200.328 149.195C200.51 149.07 200.602 148.904 200.602 148.695C200.602 148.523 200.539 148.38 200.414 148.266C200.294 148.146 200.13 148.042 199.922 147.953C199.719 147.859 199.492 147.768 199.242 147.68C198.904 147.549 198.555 147.398 198.195 147.227C197.841 147.055 197.542 146.82 197.297 146.523C197.052 146.227 196.93 145.833 196.93 145.344C196.93 144.875 197.052 144.469 197.297 144.125C197.542 143.776 197.888 143.508 198.336 143.32C198.784 143.128 199.305 143.031 199.898 143.031C200.862 143.031 201.823 143.273 202.781 143.758L202.148 145.531C201.982 145.401 201.773 145.281 201.523 145.172C201.273 145.057 201.016 144.966 200.75 144.898C200.49 144.831 200.255 144.797 200.047 144.797C199.792 144.797 199.591 144.849 199.445 144.953C199.305 145.057 199.234 145.201 199.234 145.383C199.234 145.518 199.284 145.641 199.383 145.75C199.482 145.854 199.628 145.956 199.82 146.055C200.018 146.148 200.26 146.25 200.547 146.359C200.901 146.49 201.258 146.646 201.617 146.828C201.982 147.005 202.286 147.245 202.531 147.547C202.781 147.844 202.906 148.24 202.906 148.734C202.906 149.219 202.773 149.643 202.508 150.008C202.247 150.372 201.878 150.656 201.398 150.859C200.924 151.057 200.367 151.156 199.727 151.156C198.659 151.156 197.661 150.88 196.734 150.328ZM209.648 150.797C209.049 151.036 208.469 151.156 207.906 151.156C207.323 151.156 206.807 151.034 206.359 150.789C205.917 150.539 205.57 150.193 205.32 149.75C205.07 149.302 204.945 148.786 204.945 148.203V145.188H203.578V143.188H205.062V141.234H207.188V143.188H209.352V145.188H207.188V147.797C207.188 148.224 207.305 148.557 207.539 148.797C207.773 149.031 208.065 149.148 208.414 149.148C208.732 149.148 209.042 149.049 209.344 148.852L209.648 150.797Z" fill="white"/>
<path d="M186.469 192H183.922L179.25 180.281H181.773L185.195 189.25L188.602 180.281H191.133L186.469 192ZM198.289 191.125C197.32 191.812 196.26 192.156 195.109 192.156C194.255 192.156 193.487 191.974 192.805 191.609C192.128 191.24 191.591 190.74 191.195 190.109C190.805 189.479 190.609 188.768 190.609 187.977C190.609 187.221 190.786 186.547 191.141 185.953C191.5 185.359 191.987 184.891 192.602 184.547C193.216 184.203 193.914 184.031 194.695 184.031C195.503 184.031 196.214 184.221 196.828 184.602C197.443 184.977 197.922 185.503 198.266 186.18C198.609 186.852 198.781 187.63 198.781 188.516V188.766H193.023C193.117 189.073 193.271 189.344 193.484 189.578C193.698 189.807 193.964 189.99 194.281 190.125C194.599 190.26 194.964 190.328 195.375 190.328C196.172 190.328 196.914 190.07 197.602 189.555L198.289 191.125ZM192.922 187.625H196.711C196.669 187.286 196.562 186.99 196.391 186.734C196.224 186.474 196.003 186.271 195.727 186.125C195.456 185.979 195.151 185.906 194.812 185.906C194.469 185.906 194.161 185.982 193.891 186.133C193.625 186.284 193.409 186.487 193.242 186.742C193.076 186.997 192.969 187.292 192.922 187.625ZM202.445 192H200.203V184.188H202.156L202.234 185.539C202.495 185.065 202.849 184.695 203.297 184.43C203.745 184.164 204.258 184.031 204.836 184.031C205.003 184.031 205.169 184.044 205.336 184.07C205.508 184.091 205.682 184.125 205.859 184.172L205.578 186.188C205.234 186.089 204.909 186.039 204.602 186.039C204.169 186.039 203.789 186.138 203.461 186.336C203.138 186.529 202.888 186.799 202.711 187.148C202.534 187.492 202.445 187.896 202.445 188.359V192ZM210.961 195.906H208.57L210.195 191.992L206.25 184.188H208.781L211.258 189.438L213.43 184.188H215.812L210.961 195.906ZM223.484 192H221.242V186.188H219.875V184.188H221.242V182.969C221.242 182.406 221.375 181.906 221.641 181.469C221.906 181.026 222.271 180.68 222.734 180.43C223.203 180.174 223.734 180.047 224.328 180.047C224.703 180.047 225.086 180.102 225.477 180.211C225.867 180.315 226.253 180.482 226.633 180.711L225.781 182.453C225.615 182.318 225.438 182.219 225.25 182.156C225.068 182.089 224.885 182.055 224.703 182.055C224.359 182.055 224.07 182.174 223.836 182.414C223.602 182.654 223.484 182.984 223.484 183.406V184.188H225.82V186.188H223.484V192ZM234.547 192H232.594L232.477 191.07C232.19 191.414 231.836 191.682 231.414 191.875C230.992 192.062 230.529 192.156 230.023 192.156C229.477 192.156 228.99 192.052 228.562 191.844C228.135 191.63 227.799 191.339 227.555 190.969C227.31 190.594 227.188 190.169 227.188 189.695C227.188 189.195 227.32 188.755 227.586 188.375C227.852 187.995 228.216 187.698 228.68 187.484C229.148 187.266 229.68 187.156 230.273 187.156C230.622 187.156 230.971 187.195 231.32 187.273C231.674 187.352 232.003 187.461 232.305 187.602V187.398C232.305 187.086 232.216 186.818 232.039 186.594C231.867 186.365 231.628 186.188 231.32 186.062C231.018 185.938 230.68 185.875 230.305 185.875C229.945 185.875 229.589 185.932 229.234 186.047C228.885 186.161 228.562 186.333 228.266 186.562L227.656 184.852C228.182 184.581 228.714 184.378 229.25 184.242C229.792 184.102 230.315 184.031 230.82 184.031C231.581 184.031 232.24 184.182 232.797 184.484C233.354 184.781 233.784 185.203 234.086 185.75C234.393 186.292 234.547 186.935 234.547 187.68V192ZM230.516 190.43C230.812 190.43 231.096 190.365 231.367 190.234C231.638 190.104 231.857 189.927 232.023 189.703C232.195 189.479 232.286 189.232 232.297 188.961V188.906C232.068 188.75 231.812 188.63 231.531 188.547C231.255 188.458 230.974 188.414 230.688 188.414C230.26 188.414 229.911 188.508 229.641 188.695C229.37 188.883 229.234 189.125 229.234 189.422C229.234 189.615 229.289 189.789 229.398 189.945C229.513 190.096 229.667 190.216 229.859 190.305C230.052 190.388 230.271 190.43 230.516 190.43ZM235.75 191.328L236.242 189.422C236.398 189.594 236.607 189.753 236.867 189.898C237.133 190.044 237.417 190.161 237.719 190.25C238.026 190.333 238.315 190.375 238.586 190.375C238.909 190.375 239.161 190.315 239.344 190.195C239.526 190.07 239.617 189.904 239.617 189.695C239.617 189.523 239.555 189.38 239.43 189.266C239.31 189.146 239.146 189.042 238.938 188.953C238.734 188.859 238.508 188.768 238.258 188.68C237.919 188.549 237.57 188.398 237.211 188.227C236.857 188.055 236.557 187.82 236.312 187.523C236.068 187.227 235.945 186.833 235.945 186.344C235.945 185.875 236.068 185.469 236.312 185.125C236.557 184.776 236.904 184.508 237.352 184.32C237.799 184.128 238.32 184.031 238.914 184.031C239.878 184.031 240.839 184.273 241.797 184.758L241.164 186.531C240.997 186.401 240.789 186.281 240.539 186.172C240.289 186.057 240.031 185.966 239.766 185.898C239.505 185.831 239.271 185.797 239.062 185.797C238.807 185.797 238.607 185.849 238.461 185.953C238.32 186.057 238.25 186.201 238.25 186.383C238.25 186.518 238.299 186.641 238.398 186.75C238.497 186.854 238.643 186.956 238.836 187.055C239.034 187.148 239.276 187.25 239.562 187.359C239.917 187.49 240.273 187.646 240.633 187.828C240.997 188.005 241.302 188.245 241.547 188.547C241.797 188.844 241.922 189.24 241.922 189.734C241.922 190.219 241.789 190.643 241.523 191.008C241.263 191.372 240.893 191.656 240.414 191.859C239.94 192.057 239.383 192.156 238.742 192.156C237.674 192.156 236.677 191.88 235.75 191.328ZM248.664 191.797C248.065 192.036 247.484 192.156 246.922 192.156C246.339 192.156 245.823 192.034 245.375 191.789C244.932 191.539 244.586 191.193 244.336 190.75C244.086 190.302 243.961 189.786 243.961 189.203V186.188H242.594V184.188H244.078V182.234H246.203V184.188H248.367V186.188H246.203V188.797C246.203 189.224 246.32 189.557 246.555 189.797C246.789 190.031 247.081 190.148 247.43 190.148C247.747 190.148 248.057 190.049 248.359 189.852L248.664 191.797Z" fill="white"/>
<rect x="152" y="138" width="15" height="15" rx="3" fill="#EB5E55"/>
<rect x="152" y="179" width="15" height="15" rx="3" fill="#FCAF58"/>
<rect x="152" y="97" width="15" height="15" rx="3" fill="#455A64"/>
<path fill-rule="evenodd" clip-rule="evenodd" d="M66 213C102.451 213 132 183.451 132 147C132 110.549 102.451 81 66 81C29.5492 81 0 110.549 0 147C0 183.451 29.5492 213 66 213ZM66 179.667C84.0413 179.667 98.6666 165.041 98.6666 147C98.6666 128.959 84.0413 114.333 66 114.333C47.9587 114.333 33.3333 128.959 33.3333 147C33.3333 165.041 47.9587 179.667 66 179.667Z" fill="#455A64"/>
<path fill-rule="evenodd" clip-rule="evenodd" d="M66 81C29.5492 81 0 110.549 0 147C0 183.451 29.5492 213 66 213L66 179.667C47.9587 179.667 33.3333 165.041 33.3333 147C33.3333 128.959 47.9587 114.333 66 114.333L66 81Z" fill="#EB5E55"/>
<path fill-rule="evenodd" clip-rule="evenodd" d="M2 130C9.49913 101.788 35.2169 81 65.7899 81L65.7899 114.333C53.9759 114.333 43.6266 120.605 37.8897 130H2Z" fill="#FCAF58"/>
<path d="M12.6875 180.984L13.6094 179.203C14.026 179.51 14.4349 179.742 14.8359 179.898C15.2422 180.055 15.6354 180.133 16.0156 180.133C16.3854 180.133 16.7109 180.062 16.9922 179.922C17.2786 179.781 17.5026 179.586 17.6641 179.336C17.8255 179.086 17.9062 178.799 17.9062 178.477C17.9062 177.94 17.6849 177.523 17.2422 177.227C16.7995 176.924 16.1823 176.773 15.3906 176.773H14.8906V175.102H15.3906C15.8177 175.102 16.1979 175.034 16.5312 174.898C16.8698 174.758 17.1354 174.568 17.3281 174.328C17.5208 174.083 17.6172 173.805 17.6172 173.492C17.6172 173.232 17.5469 173 17.4062 172.797C17.2708 172.594 17.0833 172.435 16.8437 172.32C16.6094 172.206 16.3385 172.148 16.0312 172.148C15.7135 172.148 15.3802 172.216 15.0312 172.352C14.6875 172.487 14.3255 172.693 13.9453 172.969L12.8906 171.297C13.349 170.896 13.8672 170.589 14.4453 170.375C15.0234 170.156 15.6276 170.047 16.2578 170.047C16.9609 170.047 17.5833 170.174 18.125 170.43C18.6719 170.685 19.1016 171.036 19.4141 171.484C19.7318 171.932 19.8906 172.448 19.8906 173.031C19.8906 173.667 19.7057 174.234 19.3359 174.734C18.9661 175.234 18.4792 175.617 17.875 175.883C18.6615 176.102 19.2786 176.466 19.7266 176.977C20.1797 177.487 20.4062 178.107 20.4062 178.836C20.4062 179.487 20.224 180.07 19.8594 180.586C19.5 181.096 19.0078 181.5 18.3828 181.797C17.7578 182.089 17.0469 182.234 16.25 182.234C15.5937 182.234 14.9609 182.128 14.3516 181.914C13.7422 181.695 13.1875 181.385 12.6875 180.984ZM26.3672 182H23.9609V172.641L22 173.359L21.25 171.445L24.4531 170.281H26.3672V182ZM30.5703 175.18C29.7786 175.18 29.138 174.948 28.6484 174.484C28.1641 174.021 27.9219 173.411 27.9219 172.656C27.9219 171.896 28.1641 171.284 28.6484 170.82C29.138 170.357 29.7786 170.125 30.5703 170.125C31.3672 170.125 32.0078 170.357 32.4922 170.82C32.9818 171.284 33.2266 171.896 33.2266 172.656C33.2266 173.411 32.9818 174.021 32.4922 174.484C32.0078 174.948 31.3672 175.18 30.5703 175.18ZM31.0469 181.992H29.1953L36.75 170.273H38.6016L31.0469 181.992ZM30.5703 173.93C30.8984 173.93 31.1641 173.812 31.3672 173.578C31.5703 173.339 31.6719 173.029 31.6719 172.648C31.6719 172.263 31.5703 171.956 31.3672 171.727C31.1641 171.492 30.8984 171.375 30.5703 171.375C30.2422 171.375 29.9766 171.492 29.7734 171.727C29.5755 171.956 29.4766 172.263 29.4766 172.648C29.4766 173.029 29.5755 173.339 29.7734 173.578C29.9766 173.812 30.2422 173.93 30.5703 173.93ZM37.1641 182.164C36.3724 182.164 35.7318 181.932 35.2422 181.469C34.7578 181 34.5156 180.388 34.5156 179.633C34.5156 178.872 34.7578 178.26 35.2422 177.797C35.7318 177.333 36.3724 177.102 37.1641 177.102C37.9609 177.102 38.6016 177.333 39.0859 177.797C39.5703 178.26 39.8125 178.872 39.8125 179.633C39.8125 180.388 39.5677 181 39.0781 181.469C38.5937 181.932 37.9557 182.164 37.1641 182.164ZM37.1641 180.906C37.4922 180.906 37.7552 180.789 37.9531 180.555C38.1562 180.32 38.2578 180.013 38.2578 179.633C38.2578 179.247 38.1562 178.937 37.9531 178.703C37.7552 178.469 37.4922 178.352 37.1641 178.352C36.8307 178.352 36.5651 178.469 36.3672 178.703C36.1693 178.937 36.0703 179.247 36.0703 179.633C36.0703 180.013 36.1693 180.32 36.3672 180.555C36.5651 180.789 36.8307 180.906 37.1641 180.906Z" fill="white"/>
<path d="M98.1679 140.254L100.154 139.065C100.16 139.505 100.291 139.923 100.547 140.32C100.805 140.711 101.146 141.013 101.57 141.225C101.938 141.41 102.303 141.494 102.667 141.478C103.03 141.462 103.361 141.354 103.659 141.154C103.965 140.952 104.208 140.669 104.39 140.306C104.575 139.938 104.655 139.574 104.633 139.212C104.614 138.854 104.5 138.523 104.291 138.22C104.082 137.917 103.793 137.673 103.425 137.489C103.146 137.349 102.858 137.266 102.563 137.24C102.267 137.214 101.974 137.245 101.686 137.333L100.949 136.204L103.938 131.393L109.448 134.154L108.507 136.033L104.966 134.258L103.626 136.357C103.982 136.425 104.335 136.546 104.684 136.721C105.336 137.048 105.848 137.48 106.22 138.016C106.592 138.552 106.803 139.135 106.854 139.767C106.909 140.4 106.78 141.031 106.464 141.66C106.128 142.33 105.659 142.844 105.055 143.199C104.456 143.557 103.787 143.741 103.049 143.749C102.315 143.76 101.571 143.577 100.817 143.199C100.188 142.884 99.6413 142.47 99.176 141.957C98.7176 141.442 98.3816 140.874 98.1679 140.254ZM109.526 147.564C108.744 147.172 108.173 146.621 107.813 145.91C107.454 145.194 107.32 144.352 107.41 143.383C107.506 142.412 107.845 141.347 108.426 140.187C109.005 139.033 109.653 138.128 110.371 137.475C111.094 136.823 111.848 136.429 112.633 136.292C113.42 136.151 114.205 136.276 114.987 136.668C115.774 137.063 116.347 137.618 116.705 138.333C117.065 139.044 117.198 139.883 117.104 140.849C117.015 141.818 116.68 142.88 116.102 144.034C115.521 145.194 114.87 146.103 114.15 146.761C113.432 147.415 112.676 147.812 111.884 147.951C111.099 148.087 110.313 147.958 109.526 147.564ZM110.468 145.685C110.99 145.947 111.549 145.836 112.145 145.355C112.747 144.876 113.331 144.07 113.898 142.939C114.468 141.803 114.763 140.853 114.785 140.089C114.814 139.322 114.567 138.809 114.046 138.547C113.533 138.29 112.977 138.402 112.375 138.881C111.776 139.356 111.192 140.161 110.622 141.297C110.055 142.429 109.76 143.379 109.736 144.147C109.712 144.916 109.956 145.428 110.468 145.685ZM119.756 144.8C119.048 144.445 118.579 143.951 118.349 143.317C118.124 142.685 118.18 142.032 118.519 141.357C118.859 140.677 119.35 140.239 119.991 140.041C120.636 139.846 121.313 139.926 122.02 140.281C122.733 140.638 123.202 141.132 123.427 141.764C123.657 142.397 123.602 143.054 123.261 143.734C122.923 144.409 122.431 144.844 121.785 145.039C121.145 145.237 120.468 145.157 119.756 144.8ZM117.129 151.104L115.474 150.274L127.479 143.182L129.134 144.012L117.129 151.104ZM120.316 143.682C120.609 143.829 120.899 143.843 121.186 143.725C121.475 143.602 121.704 143.37 121.875 143.03C122.047 142.686 122.094 142.366 122.015 142.07C121.939 141.769 121.754 141.545 121.46 141.398C121.167 141.251 120.877 141.237 120.59 141.356C120.311 141.472 120.085 141.702 119.912 142.047C119.742 142.387 119.691 142.708 119.761 143.011C119.837 143.311 120.022 143.535 120.316 143.682ZM122.521 153.998C121.813 153.643 121.344 153.149 121.114 152.515C120.891 151.879 120.949 151.224 121.287 150.549C121.628 149.869 122.119 149.43 122.76 149.233C123.405 149.038 124.081 149.118 124.789 149.472C125.502 149.829 125.971 150.324 126.196 150.955C126.421 151.586 126.363 152.242 126.023 152.922C125.684 153.597 125.191 154.034 124.544 154.234C123.903 154.432 123.229 154.353 122.521 153.998ZM123.084 152.874C123.378 153.021 123.665 153.034 123.947 152.913C124.234 152.794 124.463 152.565 124.633 152.225C124.806 151.881 124.854 151.558 124.777 151.258C124.705 150.959 124.522 150.737 124.229 150.59C123.931 150.44 123.641 150.426 123.359 150.547C123.077 150.668 122.85 150.901 122.677 151.245C122.507 151.585 122.458 151.904 122.53 152.202C122.602 152.501 122.786 152.724 123.084 152.874Z" fill="white"/>
<path d="M30.6166 119.512L28.4337 120.524L24.4964 112.033L23.0198 113.51L21.5342 112.089L23.9504 109.686L25.6869 108.88L30.6166 119.512ZM35.2165 117.379L33.5768 116.443C33.9894 115.884 34.335 115.305 34.6137 114.705C34.8924 114.105 35.0999 113.506 35.2364 112.909C35.3775 112.309 35.4447 111.73 35.4379 111.171C35.3048 111.577 35.0853 111.946 34.7796 112.277C34.4739 112.608 34.0919 112.88 33.6336 113.092C33.0099 113.382 32.3959 113.5 31.7916 113.447C31.1872 113.394 30.6374 113.193 30.1421 112.843C29.6515 112.49 29.2615 112.002 28.9723 111.379C28.6568 110.698 28.537 110.019 28.6129 109.341C28.6914 108.656 28.944 108.03 29.3708 107.465C29.7976 106.9 30.3701 106.45 31.0883 106.117C31.8537 105.763 32.5941 105.626 33.3094 105.708C34.0247 105.789 34.6806 106.071 35.2769 106.552C35.8711 107.029 36.3631 107.687 36.7531 108.528C37.0686 109.209 37.2703 109.916 37.3582 110.65C37.4461 111.385 37.4252 112.132 37.2956 112.893C37.1638 113.648 36.9236 114.406 36.575 115.164C36.229 115.916 35.7761 116.654 35.2165 117.379ZM33.5111 111.435C33.8088 111.297 34.0371 111.103 34.196 110.851C34.3549 110.599 34.4413 110.315 34.4553 109.999C34.4693 109.682 34.4018 109.363 34.2528 109.042C34.1038 108.721 33.904 108.463 33.6534 108.269C33.4053 108.069 33.1328 107.945 32.8359 107.899C32.539 107.853 32.2488 107.896 31.9653 108.027C31.6818 108.159 31.4628 108.355 31.3083 108.616C31.1516 108.872 31.0684 109.164 31.0588 109.49C31.047 109.811 31.1178 110.137 31.2712 110.468C31.418 110.784 31.6132 111.038 31.8569 111.229C32.0984 111.416 32.3642 111.531 32.6542 111.574C32.942 111.613 33.2276 111.567 33.5111 111.435ZM40.2642 107.52C39.546 107.853 38.8673 107.913 38.2282 107.698C37.5938 107.481 37.1177 107.03 36.8 106.345C36.4801 105.655 36.4424 104.998 36.6868 104.374C36.936 103.747 37.4197 103.268 38.1379 102.935C38.8608 102.599 39.5395 102.54 40.1739 102.757C40.8131 102.972 41.2926 103.424 41.6125 104.114C41.9302 104.799 41.9644 105.455 41.7153 106.081C41.4709 106.705 40.9872 107.185 40.2642 107.52ZM43.5624 113.5L41.8826 114.279L43.8066 100.47L45.4864 99.6908L43.5624 113.5ZM39.7384 106.386C40.0361 106.248 40.2278 106.03 40.3134 105.732C40.3969 105.429 40.3587 105.106 40.1988 104.761C40.0366 104.411 39.8152 104.175 39.5345 104.052C39.2517 103.925 38.9614 103.931 38.6637 104.069C38.366 104.207 38.1743 104.425 38.0887 104.723C38.0055 105.014 38.045 105.334 38.2071 105.684C38.3671 106.029 38.5872 106.269 38.8676 106.403C39.1504 106.53 39.4407 106.524 39.7384 106.386ZM49.1843 111.083C48.4661 111.416 47.7874 111.475 47.1482 111.261C46.5116 111.039 46.0345 110.586 45.7168 109.901C45.3969 109.211 45.3592 108.554 45.6036 107.929C45.8528 107.303 46.3364 106.823 47.0546 106.49C47.7776 106.155 48.4563 106.096 49.0907 106.312C49.7251 106.529 50.2023 106.983 50.5222 107.672C50.8399 108.357 50.8752 109.016 50.6283 109.647C50.3838 110.271 49.9025 110.75 49.1843 111.083ZM48.6552 109.942C48.9529 109.804 49.1422 109.587 49.2231 109.291C49.3088 108.993 49.2717 108.671 49.1117 108.326C48.9496 107.977 48.7271 107.738 48.4442 107.611C48.1661 107.482 47.8782 107.486 47.5805 107.624C47.2781 107.764 47.0864 107.982 47.0054 108.278C46.9245 108.574 46.9651 108.897 47.1272 109.247C47.2872 109.592 47.5062 109.829 47.7843 109.958C48.0625 110.087 48.3528 110.082 48.6552 109.942Z" fill="white"/>
</svg>
