<svg width="20" height="20" viewBox="0 0 20 20" fill="none" xmlns="http://www.w3.org/2000/svg">
<path fill-rule="evenodd" clip-rule="evenodd" d="M9.50585 0.1623C9.79973 -0.0541001 10.2002 -0.0541001 10.4941 0.1623L17.8098 5.54932C18.663 6.17755 19.1666 7.17395 19.1666 8.23345V17.0833C19.1666 18.6942 17.8608 20 16.25 20H13.3333C12.4128 20 11.6666 19.2538 11.6666 18.3333V13.75H8.33331V18.3333C8.33331 19.2538 7.58712 20 6.66665 20H3.74998C2.13915 20 0.833313 18.6942 0.833313 17.0833V8.23345C0.833313 7.17395 1.337 6.17755 2.19015 5.54932L9.50585 0.1623ZM9.99998 1.86822L3.1784 6.89139C2.75182 7.2055 2.49998 7.7037 2.49998 8.23345V17.0833C2.49998 17.7737 3.05962 18.3333 3.74998 18.3333H6.66665V13.3333C6.66665 12.643 7.22629 12.0833 7.91665 12.0833H12.0833C12.7737 12.0833 13.3333 12.643 13.3333 13.3333V18.3333H16.25C16.9403 18.3333 17.5 17.7737 17.5 17.0833V8.23345C17.5 7.7037 17.2481 7.2055 16.8216 6.89139L9.99998 1.86822Z" fill="white"/>
</svg>
