<svg width="20" height="20" viewBox="0 0 20 20" fill="none" xmlns="http://www.w3.org/2000/svg">
<path fill-rule="evenodd" clip-rule="evenodd" d="M4.16665 1.66667C3.24617 1.66667 2.49998 2.41286 2.49998 3.33333V5.83333H17.5V3.33333C17.5 2.41286 16.7538 1.66667 15.8333 1.66667H4.16665ZM17.5 7.5H8.74998V18.3333H15.8333C16.7538 18.3333 17.5 17.5871 17.5 16.6667V7.5ZM7.08331 18.3333V7.5H2.49998V16.6667C2.49998 17.5871 3.24617 18.3333 4.16665 18.3333H7.08331ZM0.833313 3.33333C0.833313 1.49238 2.3257 0 4.16665 0H15.8333C17.6743 0 19.1666 1.49238 19.1666 3.33333V16.6667C19.1666 18.5076 17.6743 20 15.8333 20H4.16665C2.3257 20 0.833313 18.5076 0.833313 16.6667V3.33333Z" fill="white"/>
</svg>
