<svg width="20" height="20" viewBox="0 0 20 20" fill="#CFD0D0" xmlns="http://www.w3.org/2000/svg">
<path fill-rule="evenodd" clip-rule="evenodd" d="M9.71517 0.0501722C9.89914 -0.0167241 10.1008 -0.0167241 10.2847 0.0501722L19.4514 3.38351C19.7696 3.49921 19.9862 3.79592 19.9993 4.13423C20.0125 4.47255 19.8197 4.7852 19.5115 4.92531L10.3448 9.09197C10.1257 9.19156 9.87423 9.19156 9.65512 9.09197L0.488457 4.92531C0.180235 4.7852 -0.0125854 4.47255 0.000591144 4.13423C0.0137677 3.79592 0.230322 3.49921 0.548507 3.38351L9.71517 0.0501722ZM3.03586 4.25245L9.99996 7.41795L16.9641 4.25245L9.99996 1.72005L3.03586 4.25245ZM0.0746544 9.2385C0.265102 8.81951 0.759144 8.63425 1.17813 8.82469L9.99996 12.8346L18.8218 8.82469C19.2408 8.63425 19.7348 8.81951 19.9253 9.2385C20.1157 9.65748 19.9304 10.1515 19.5115 10.342L10.3448 14.5086C10.1257 14.6082 9.87423 14.6082 9.65512 14.5086L0.488457 10.342C0.0694727 10.1515 -0.115793 9.65748 0.0746544 9.2385ZM0.0746544 14.6552C0.265102 14.2362 0.759144 14.0509 1.17813 14.2414L9.99996 18.2513L18.8218 14.2414C19.2408 14.0509 19.7348 14.2362 19.9253 14.6552C20.1157 15.0741 19.9304 15.5682 19.5115 15.7586L10.3448 19.9253C10.1257 20.0249 9.87423 20.0249 9.65512 19.9253L0.488457 15.7586C0.0694727 15.5682 -0.115793 15.0741 0.0746544 14.6552Z" fill="white"/>
</svg>
