<svg width="18" height="20" viewBox="0 0 18 20" fill="none" xmlns="http://www.w3.org/2000/svg">
<path fill-rule="evenodd" clip-rule="evenodd" d="M9.00003 2.5C7.38919 2.5 6.08336 3.80584 6.08336 5.41667C6.08336 7.0275 7.38919 8.33333 9.00003 8.33333C10.6109 8.33333 11.9167 7.0275 11.9167 5.41667C11.9167 3.80584 10.6109 2.5 9.00003 2.5ZM4.41669 5.41667C4.41669 2.88536 6.46872 0.833333 9.00003 0.833333C11.5313 0.833333 13.5834 2.88536 13.5834 5.41667C13.5834 7.94797 11.5313 10 9.00003 10C6.46872 10 4.41669 7.94797 4.41669 5.41667ZM9.00003 13.75C6.87335 13.75 4.85213 14.5712 3.59073 15.2237C3.03127 15.513 2.65328 16.1028 2.56781 16.8232L2.43807 17.9167H15.562L15.4322 16.8232C15.3468 16.1028 14.9688 15.513 14.4093 15.2237C13.1479 14.5712 11.1267 13.75 9.00003 13.75ZM2.82502 13.7433C4.18417 13.0403 6.48524 12.0833 9.00003 12.0833C11.5148 12.0833 13.8159 13.0403 15.175 13.7433C16.3074 14.329 16.9484 15.4557 17.0873 16.6268L17.3276 18.6518C17.3556 18.8883 17.2812 19.1254 17.123 19.3035C16.9649 19.4815 16.7381 19.5833 16.5 19.5833H1.50002C1.26191 19.5833 1.03517 19.4815 0.877023 19.3035C0.718879 19.1254 0.644441 18.8883 0.672495 18.6518L0.912749 16.6268C1.05169 15.4557 1.69263 14.329 2.82502 13.7433Z" fill="white"/>
</svg>
